<svg width="251" height="236" viewBox="0 0 251 236" fill="none" xmlns="http://www.w3.org/2000/svg">
<path d="M66.5311 99.0439H0.744141V215.18H66.5311V99.0439Z" fill="#D2EFAF"/>
<path d="M66.5312 106.962C66.5312 83.8172 51.7003 65.0552 33.4062 65.0552C15.1122 65.0552 0.28125 83.8172 0.28125 106.962H66.5312Z" fill="#4F8452"/>
<path d="M32.3851 50.3201H29.5801V72.0551H32.3851V50.3201Z" fill="#4F8452"/>
<path d="M42.5311 48.9451C42.3391 49.5641 42.0911 50.1741 41.7851 50.7701C38.9201 56.3521 32.0711 58.5561 26.4891 55.6911C20.9071 52.8261 18.7031 45.9771 21.5681 40.3951C21.8741 39.7991 22.2261 39.2421 22.6161 38.7251C21.0061 43.9001 23.2961 49.6371 28.2831 52.1961C33.2701 54.7551 39.2651 53.2701 42.5311 48.9451Z" fill="#C1BC19"/>
<path d="M31.7823 44.2021L33.0514 46.7742L35.8904 47.1871L33.8364 49.1891L34.3214 52.0172L31.7823 50.6821L29.2423 52.0172L29.7274 49.1891L27.6733 47.1871L30.5124 46.7742L31.7823 44.2021Z" fill="#C1BC19"/>
<path d="M41.5312 214.965H24.7812V187.327C24.7812 185.176 25.6082 183.108 27.0912 181.551C30.3912 178.085 35.9202 178.085 39.2202 181.551C40.7032 183.108 41.5303 185.176 41.5303 187.327L41.5312 214.965Z" fill="black"/>
<path d="M250.085 99.0439H184.298V215.18H250.085V99.0439Z" fill="#D2EFAF"/>
<path d="M250.084 106.962C250.084 83.8172 235.253 65.0552 216.959 65.0552C198.665 65.0552 183.834 83.8172 183.834 106.962H250.084Z" fill="#4F8452"/>
<path d="M215.939 50.3201H213.134V72.0551H215.939V50.3201Z" fill="#4F8452"/>
<path d="M226.084 48.9451C225.892 49.5641 225.644 50.1741 225.338 50.7701C222.473 56.3521 215.624 58.5561 210.042 55.6911C204.46 52.8261 202.256 45.9771 205.121 40.3951C205.427 39.7991 205.779 39.2421 206.169 38.7251C204.559 43.9001 206.849 49.6371 211.836 52.1961C216.822 54.7551 222.819 53.2701 226.084 48.9451Z" fill="#C1BC19"/>
<path d="M215.336 44.2021L216.606 46.7742L219.445 47.1871L217.391 49.1891L217.876 52.0172L215.336 50.6821L212.797 52.0172L213.282 49.1891L211.228 47.1871L214.067 46.7742L215.336 44.2021Z" fill="#C1BC19"/>
<path d="M225.084 214.965H208.334V187.327C208.334 185.176 209.161 183.108 210.644 181.551C213.945 178.085 219.473 178.085 222.773 181.551C224.256 183.108 225.083 185.176 225.083 187.327V214.965H225.084Z" fill="black"/>
<path d="M198.531 103.539H56.5312V235.539H198.531V103.539Z" fill="#E0FFC0"/>
<path d="M198.531 112.539C198.531 73.0511 166.519 41.0391 127.031 41.0391C87.5433 41.0391 55.5312 73.0511 55.5312 112.539H198.531Z" fill="#65A06B"/>
<path d="M127.531 16.5391H123.531V47.5391H127.531V16.5391Z" fill="#65A06B"/>
<path d="M142.002 14.578C141.728 15.46 141.375 16.331 140.938 17.181C136.852 25.143 127.083 28.286 119.121 24.199C111.159 20.112 108.016 10.344 112.103 2.38202C112.539 1.53202 113.041 0.737 113.598 0C111.301 7.381 114.568 15.564 121.68 19.213C128.792 22.864 137.345 20.747 142.002 14.578Z" fill="#C1BC19"/>
<path d="M126.671 7.81299L128.482 11.482L132.531 12.071L129.601 14.927L130.292 18.96L126.671 17.056L123.049 18.96L123.741 14.927L120.811 12.071L124.86 11.482L126.671 7.81299Z" fill="#C1BC19"/>
<path d="M150.531 235.539H110.531V169.539C110.531 164.404 112.506 159.465 116.048 155.746C123.93 147.47 137.132 147.47 145.013 155.746C148.555 159.465 150.53 164.404 150.53 169.539L150.531 235.539Z" fill="black"/>
</svg>
