<svg width="300" height="300" viewBox="0 0 300 300" fill="none" xmlns="http://www.w3.org/2000/svg">
<path d="M148.516 272.893C218.389 272.893 275.033 217.848 275.033 149.946C275.033 82.0449 218.389 27 148.516 27C78.6433 27 22 82.0449 22 149.946C22 217.848 78.6433 272.893 148.516 272.893Z" fill="#BAD29B"/>
<path d="M150.85 273C218.025 273 272.482 269.299 272.482 264.734C272.482 260.169 218.025 256.468 150.85 256.468C83.6743 256.468 29.2178 260.169 29.2178 264.734C29.2178 269.299 83.6743 273 150.85 273Z" fill="#27B45F"/>
<path d="M64.5919 263.873C61.1473 264.091 57.8417 262.398 55.1541 260.232C52.4672 258.065 50.2145 255.406 47.5739 253.183C41.3724 247.965 33.0296 245.374 24.9634 246.159C32.1715 241.167 41.7914 240.318 49.8595 243.75C57.9275 247.182 63.1881 255.218 64.5919 263.873Z" fill="#BAD29B"/>
<path d="M64.1821 262.908C62.0177 258.197 58.7035 254.03 54.6134 250.846C50.2468 247.447 45.0344 245.225 39.5606 244.412C36.3731 243.938 33.1417 243.936 29.9536 244.407C29.5377 244.468 29.7149 245.1 30.1278 245.039C35.6581 244.223 41.3816 244.912 46.5739 246.975C51.4088 248.895 55.7084 252.056 59.0542 256.032C60.891 258.215 62.4245 260.646 63.6157 263.239C63.7923 263.621 64.3575 263.288 64.1821 262.908Z" fill="#BAD29B"/>
<path d="M65.9476 262.389C66.1632 261.346 66.1607 260.176 66.2661 259.25C66.4823 257.358 66.6826 255.464 66.8343 253.566C67.1303 249.863 67.246 246.136 66.9476 242.429C66.4116 235.78 64.4476 229.078 60.2589 223.886C58.2406 221.385 55.6761 219.242 52.6469 218.166C49.6178 217.09 46.0928 217.18 43.3377 218.836C40.5826 220.492 38.7994 223.833 39.3914 226.992C39.9498 229.975 42.3712 232.266 44.9528 233.861C47.535 235.456 50.4088 236.587 52.801 238.454C56.1871 241.098 58.3606 245.049 59.5963 249.164C60.4026 251.848 60.6791 254.64 60.986 257.415C61.2205 259.539 61.1632 262.385 62.8264 263.976C63.6212 264.735 64.7058 264.903 65.3824 263.873C65.662 263.449 65.8349 262.936 65.9476 262.389Z" fill="#27B45F"/>
<path d="M63.4589 242.605C61.9815 236.587 59.0778 230.965 54.3836 226.837C51.9061 224.658 49.0542 222.941 45.969 221.771C45.5743 221.621 45.4032 222.255 45.7948 222.403C51.2375 224.467 55.939 228.345 58.9882 233.305C62.3901 238.837 63.7184 245.361 64.1459 251.767C64.409 255.705 64.3548 259.655 64.3006 263.599C64.2945 264.021 64.9504 264.021 64.9559 263.599C65.0521 256.584 65.1422 249.465 63.4589 242.605Z" fill="#1F8C4A"/>
<path d="M232.68 261.377C233.069 260.555 233.672 259.758 234.076 259.072C234.901 257.67 235.738 256.275 236.61 254.902C238.312 252.224 240.148 249.622 242.257 247.247C246.04 242.986 250.826 239.423 256.352 238.035C259.015 237.366 261.865 237.223 264.485 238.045C267.105 238.868 269.463 240.741 270.491 243.288C271.52 245.834 271.019 249.029 268.991 250.881C267.077 252.629 264.247 252.946 261.666 252.708C259.085 252.468 256.542 251.763 253.95 251.808C250.282 251.87 246.768 253.449 243.81 255.62C241.88 257.037 240.256 258.8 238.62 260.535C237.368 261.863 235.944 263.834 233.992 264.064C233.06 264.174 232.233 263.731 232.301 262.681C232.33 262.247 232.476 261.809 232.68 261.377Z" fill="#BAD29B"/>
<path d="M244.548 249.16C248.649 245.814 253.52 243.472 258.844 243.068C261.655 242.855 264.483 243.15 267.189 243.938C267.535 244.038 267.326 244.558 266.983 244.459C262.21 243.069 257.008 243.298 252.379 245.113C247.215 247.139 242.955 250.907 239.371 255.056C237.167 257.608 235.174 260.33 233.183 263.049C232.97 263.34 232.523 263.003 232.736 262.712C236.275 257.878 239.873 252.975 244.548 249.16Z" fill="#1F8C4A"/>
<path d="M232.941 241.038C229.994 239.271 227.839 236.231 227.15 232.864C226.46 229.497 227.245 225.856 229.26 223.071C233.078 228.081 234.444 234.92 232.941 241.038Z" fill="#27B45F"/>
<path d="M233.7 252.571C234.114 249.254 235.676 246.091 238.058 243.746C240.439 241.4 243.625 239.887 246.948 239.522C246.713 242.983 245.18 246.207 242.701 248.634C240.221 251.059 237.165 252.411 233.7 252.571Z" fill="#27B45F"/>
<path d="M236.69 239.649C239.446 234.067 245.046 229.985 251.204 229.068C250.374 232.266 248.442 235.2 245.77 237.144C243.099 239.086 239.987 239.843 236.69 239.649Z" fill="#27B45F"/>
<path d="M237.148 234.437C236.315 231.012 236.812 227.281 238.512 224.193C240.213 221.106 243.101 218.692 246.441 217.565C246.764 220.86 246.688 224.177 245.116 227.089C243.422 230.228 240.196 232.582 237.148 234.437Z" fill="#27B45F"/>
<path d="M229.353 253.933C225.649 252.969 222.459 250.201 220.982 246.669C219.505 243.138 219.776 238.923 221.692 235.608C226.023 240.91 228.906 247.1 229.353 253.933Z" fill="#27B45F"/>
<path d="M243.452 235.213C241.08 237.095 238.404 238.571 235.555 239.589C235.87 238.627 236.207 237.673 236.575 236.73C237.503 234.35 238.608 232.041 239.867 229.819C240.096 229.413 239.467 229.054 239.236 229.462C236.975 233.456 235.231 237.733 234.032 242.159C232.283 239.477 231.118 236.465 230.625 233.295C230.553 232.834 229.853 233.023 229.924 233.479C230.458 236.909 231.769 240.188 233.744 243.042C233.758 243.063 233.777 243.074 233.794 243.09C232.772 247.138 232.204 251.299 232.113 255.477C229.215 253.586 226.815 251.016 225.128 247.992C224.901 247.585 224.274 247.949 224.501 248.357C226.297 251.576 228.882 254.299 231.996 256.271C232.032 256.293 232.067 256.301 232.101 256.31C232.086 258.821 232.245 261.327 232.573 263.816C232.634 264.278 233.334 264.088 233.274 263.632C232.831 260.266 232.716 256.861 232.915 253.475C232.92 253.472 232.924 253.473 232.929 253.47C235.439 251.96 237.714 250.087 239.674 247.91C239.985 247.565 239.47 247.055 239.157 247.403C237.347 249.413 235.272 251.151 232.98 252.583C233.291 248.458 234.068 244.368 235.293 240.415C235.341 240.421 235.393 240.417 235.451 240.397C238.541 239.331 241.409 237.753 243.969 235.721C244.333 235.432 243.814 234.926 243.452 235.213Z" fill="#1F8C4A"/>
<path d="M136.251 28.5073C136.081 28.4202 135.903 28.3361 135.731 28.2539C135.658 28.2223 135.582 28.1839 135.509 28.1522C127.87 24.8197 118.355 28.9366 113.912 37.6533C109.469 46.37 111.73 56.4892 118.914 60.7108C118.983 60.7516 119.059 60.7906 119.127 60.8314C119.295 60.9227 119.467 61.0165 119.638 61.1036C127.385 65.0518 137.39 60.9574 141.977 51.9576C146.564 42.9565 143.998 32.4554 136.251 28.5073ZM121.458 55.6975L121.439 55.6877C116.642 52.6829 115.174 45.792 118.206 39.842C121.238 33.8921 127.677 31.031 132.927 33.1467L132.946 33.1564C133.036 33.1905 133.121 33.2222 133.207 33.2654C133.375 33.333 133.543 33.4128 133.708 33.4968C139.085 36.2374 140.867 43.5204 137.683 49.7682C134.498 56.016 127.559 58.8539 122.181 56.1134C122.015 56.0288 121.852 55.9398 121.699 55.8436C121.614 55.8004 121.538 55.7498 121.458 55.6975Z" fill="#FFBC36"/>
<path d="M141.978 51.9572C137.391 60.9577 127.385 65.052 119.638 61.1032C119.468 61.0161 119.295 60.9223 119.127 60.831C119.058 60.7902 118.983 60.7518 118.915 60.7104C126.548 64.0404 136.068 59.926 140.511 51.2093C144.954 42.4927 142.688 32.371 135.509 28.1519C135.582 28.1835 135.658 28.2219 135.731 28.2536C135.904 28.3358 136.081 28.4198 136.251 28.5069C143.998 32.4557 146.565 42.9567 141.978 51.9572Z" fill="#E08F00"/>
<path d="M121.439 55.6879C121.174 55.5887 120.919 55.4705 120.663 55.3402C115.286 52.5997 113.505 45.3166 116.689 39.0688C119.873 32.8211 126.813 29.9831 132.19 32.7236C132.445 32.854 132.691 32.991 132.928 33.1469C127.678 31.0318 121.239 33.8923 118.207 39.8423C115.175 45.7922 116.643 52.6831 121.439 55.6879Z" fill="#E08F00"/>
<path d="M175.991 61.274C175.84 61.386 175.675 61.4981 175.517 61.6101C175.451 61.6497 175.385 61.7027 175.313 61.7417C168.304 66.2538 158.253 63.7045 152.483 55.8069C147.484 48.9696 147.28 40.3017 151.475 34.6501L151.785 35.5198H153.616L154.406 36.1258L155.967 35.5722L156.751 36.982L156.784 37.035C156.264 37.5222 155.809 38.0624 155.42 38.6489C154.531 39.9795 153.965 41.5142 153.734 43.1543C153.543 44.5306 153.596 45.9666 153.886 47.4094C153.978 47.8509 154.09 48.2851 154.221 48.72C154.247 48.7991 154.274 48.8783 154.3 48.9569C154.327 49.0488 154.359 49.1414 154.392 49.2333C154.603 49.8393 154.86 50.4325 155.163 51.0116C155.387 51.4465 155.638 51.8746 155.908 52.296C156.059 52.5201 156.211 52.7442 156.369 52.9611C160.314 58.3489 167.125 60.1473 171.973 57.2229L171.986 57.2095C172.072 57.1632 172.151 57.1175 172.23 57.0645C172.382 56.9659 172.533 56.8605 172.684 56.7551C177.558 53.1919 178.158 45.7157 174.015 40.0575C169.879 34.3925 162.574 32.7001 157.7 36.2634C157.66 36.2963 157.621 36.3292 157.574 36.362V34.3998L156.316 33.504H155.157L154.86 32.4565L153.734 32.2525L153.741 32.2458C153.806 32.1928 153.872 32.1471 153.932 32.0941C154.084 31.9754 154.241 31.8572 154.393 31.7452C161.415 26.6076 171.947 29.0577 177.908 37.2122C183.869 45.3668 183.013 56.1425 175.991 61.274Z" fill="#FFBC36"/>
<path d="M177.907 37.2111C183.87 45.3651 183.01 56.1414 175.992 61.2741C175.838 61.3867 175.676 61.4982 175.519 61.6072C175.451 61.6498 175.383 61.7004 175.316 61.743C181.732 56.4331 182.354 46.08 176.579 38.1831C170.804 30.2861 160.749 27.7417 153.744 32.2465C153.805 32.1953 153.874 32.1448 153.935 32.0936C154.086 31.9767 154.241 31.8561 154.396 31.7435C161.414 26.6102 171.944 29.0572 177.907 37.2111Z" fill="#E08F00"/>
<path d="M171.973 57.2229C171.762 57.4141 171.545 57.592 171.308 57.7564C166.44 61.3197 159.136 59.6273 154.993 53.969C150.856 48.3047 151.455 40.8352 156.323 37.2713C156.468 37.166 156.606 37.0673 156.751 36.9814L156.784 37.0344C156.264 37.5216 155.809 38.0618 155.421 38.6483C154.518 39.9723 153.952 41.5137 153.734 43.1537C153.537 44.53 153.589 45.9728 153.886 47.4088C153.972 47.8503 154.083 48.2846 154.222 48.7194C154.248 48.7986 154.275 48.8777 154.301 48.9563C154.327 49.0482 154.36 49.1408 154.393 49.2328C154.603 49.8387 154.86 50.4319 155.164 51.0111C155.388 51.4459 155.638 51.874 155.908 52.2955C156.06 52.5196 156.211 52.7437 156.369 52.9605C160.315 58.3496 167.125 60.1473 171.973 57.2229Z" fill="#E08F00"/>
<path d="M152.41 33.2906L149.717 33.9197L149.289 31.9058L152.41 33.2906Z" fill="#FFBC36"/>
<path d="M152.41 33.2901L150.019 31.6787L149.289 31.9053L152.41 33.2901Z" fill="#E08F00"/>
<path d="M152.796 31.5925L151.082 30.4165L151.452 27L153.502 27.5268L152.631 30.45L152.796 31.5925Z" fill="#FFBC36"/>
<path d="M152.796 31.5926L152.906 30.4415L153.938 27.997L153.502 27.5269L152.631 30.4501L152.796 31.5926Z" fill="#E08F00"/>
<path d="M157.385 37.9224L158.509 39.8036L158.187 41.253L157.905 41.169L157.385 37.9224Z" fill="#E08F00"/>
<path d="M157.385 37.9224L156.345 40.0326L157.905 41.169L158.242 40.0405L157.385 37.9224Z" fill="#FFBC36"/>
<path d="M274.766 150.834C269.642 167.327 259.531 181.812 248.472 195.078C229.693 217.598 207.693 237.417 183.374 253.799C179.33 256.533 175.213 259.167 171.044 261.703L156.019 238.735L165.287 228.967L146.752 192.581L161.579 176.404L153.365 155.517L158.378 149.787L146.752 118.117L159.972 90.3802C175.51 75.7111 194.223 62.3203 215.564 61.3386C224.911 60.9105 234.185 63.0712 242.57 67.1747C252.971 72.2666 262.008 80.3548 268.12 90.2218C279.16 108.039 280.991 130.824 274.766 150.834Z" fill="#E25D5D"/>
<path d="M274.766 150.834C269.642 167.327 259.531 181.811 248.472 195.077C229.693 217.598 207.693 237.417 183.375 253.799C195.112 239.966 206.843 226.134 218.574 212.302C230.865 197.804 243.249 183.188 252.51 166.583C261.771 149.984 267.824 131.067 266.408 112.11C265.104 94.6416 256.752 77.2393 242.57 67.1743C252.971 72.2662 262.008 80.3544 268.12 90.2215C279.16 108.039 280.991 130.823 274.766 150.834Z" fill="#E5C1C1"/>
<path d="M149.604 259.167L145.375 266.571C110.413 248.207 79.1122 222.913 53.8191 192.581C43.0695 179.691 33.242 165.602 28.2555 149.569C22.202 130.111 23.9876 107.967 34.7237 90.6437C45.4538 73.3206 65.4583 61.6222 85.8113 62.5577C106.566 63.5126 124.759 76.5349 139.869 90.7954L129.133 116.339L138.743 142.548L133.065 148.226L143.11 164.541L127.822 178.801L143.98 218.111L133.935 226.846L149.604 259.167Z" fill="#E25D5D"/>
<path d="M145.376 266.571V258.074L125.806 223.072L135.594 212.631L120.042 175.778L132.927 160.892L125.51 145.11L132.709 138.589L121.577 113.105L139.869 90.7954L129.132 116.339L138.743 142.548L133.065 148.226L143.11 164.541L127.822 178.801L143.979 218.112L133.934 226.846L149.604 259.167L145.376 266.571Z" fill="#E5C1C1"/>
<path d="M80.6653 254.783C75.409 259.71 65.7258 259.678 66.3281 264.8C78.9515 264.407 84.9405 260.551 84.9405 260.551L85.1341 262.198L89.438 261.05C89.438 261.05 90.709 256.632 89.2017 253.399L80.6653 254.783Z" fill="#222831"/>
<path d="M62.1357 188.772C65.3123 159.03 69.2574 140.163 69.2574 140.163L88.4983 141.284L84.6086 159.218C82.0301 171.429 79.4065 185.085 76.9954 198.235L89.2035 253.398C89.2035 253.398 86.6804 257.752 80.9978 256.191L64.7758 211.124C62.2222 204.032 61.3221 196.389 62.1357 188.772Z" fill="#1A3C59"/>
<path d="M100.775 256.404C106.309 260.592 115.95 259.236 115.662 264.419C103.067 265.754 96.8687 262.732 96.8687 262.732L96.7761 264.399L92.4205 263.845C92.4205 263.845 90.8858 259.618 92.1897 256.192L100.775 256.404Z" fill="#222831"/>
<path d="M106.376 139.572L88.6566 138.579L84.7852 156.517C85.5099 156.545 90.7717 212.114 92.1809 256.402C94.8027 258.359 97.8532 258.024 100.934 256.424C100.934 256.424 105.971 201.032 106.376 139.572Z" fill="#1A3C59"/>
<path d="M68.47 141.579C68.47 141.579 69.593 150.374 64.7252 150.904C59.8574 151.435 57.1468 149.008 57.6821 146.885C58.2174 144.762 59.0542 146.657 59.2697 146.961C59.4853 147.264 59.6303 142.486 60.8714 141.198C62.1132 139.908 67.5808 140.595 68.47 141.579Z" fill="#EFAD9C"/>
<path d="M48.8228 112.697C60.9475 88.406 71.7348 81.0571 71.7348 81.0571L68.0424 99.7755C63.8926 104.091 60.1064 109.415 56.7776 114.921L68.4699 141.578L63.6746 145.108L48.8862 118.084C47.9873 116.441 47.9599 114.426 48.8228 112.697Z" fill="#EFAD9C"/>
<path d="M77.415 76.8584C66.6149 81.0569 58.0396 93.3746 58.0396 93.3746L68.4334 102L73.9802 96.4555L77.415 76.8584Z" fill="#317CAF"/>
<path d="M107.155 141.579C107.155 141.579 105.363 150.373 110.191 150.904C115.019 151.435 117.913 149.009 117.539 146.886C117.165 144.763 116.184 146.658 115.946 146.962C115.707 147.265 115.925 142.487 114.782 141.199C113.639 139.909 108.119 140.596 107.155 141.579Z" fill="#EFAD9C"/>
<path d="M128.997 112.698C118.719 88.4066 108.49 81.0571 108.49 81.0571L110.759 99.7761C114.581 104.091 117.963 109.416 120.873 114.923L107.155 141.579L111.682 145.109L128.525 118.085C129.548 116.442 129.729 114.426 128.997 112.698Z" fill="#EFAD9C"/>
<path d="M103.13 76.8589C113.611 81.0574 121.25 93.3751 121.25 93.3751L110.2 102L104.675 96.0224L103.13 76.8589Z" fill="#317CAF"/>
<path d="M107.202 142.504C107.202 142.504 95.3614 148.324 68.3594 142.563C69.3265 133.923 69.9641 124.412 70.8003 115.41C70.9014 114.31 71.0025 113.215 71.109 112.134C71.2461 110.777 71.3892 109.439 71.5378 108.12C71.6577 107.039 71.7838 105.972 71.9227 104.924C72.0365 104.001 72.1638 103.084 72.2899 102.189C74.3782 87.6035 77.4128 76.8607 77.4128 76.8607L86.1636 74.0337H94.6622L103.139 76.8613C103.139 76.8613 104.553 89.0213 105.722 106.242C105.802 107.448 105.88 108.681 105.964 109.933C106.049 111.343 106.139 112.78 106.221 114.249C106.278 115.35 106.341 116.464 106.403 117.591C106.81 125.448 107.113 133.923 107.202 142.504Z" fill="#317CAF"/>
<path d="M105.964 109.933L101.248 104.64L95.0176 109.57L89.2765 103.355L80.9033 109.57L75.9655 104.568L71.5381 108.12C71.6581 107.039 71.7841 105.972 71.923 104.924L76.4753 101.721L81.1013 106.453L89.3856 100.488L95.5901 106.453L101.292 101.391L105.723 106.242C105.802 107.449 105.88 108.681 105.964 109.933Z" fill="#55AFE0"/>
<path d="M106.404 117.592L100.977 111.747L94.358 117.718L88.6797 111.068L80.5263 117.566L75.3802 111.971L70.7993 115.411C70.9004 114.31 71.0015 113.216 71.1081 112.135L75.7335 108.569L80.5824 114.013L88.8057 107.739L94.4987 114.014L101.103 108.425L106.221 114.251C106.278 115.351 106.341 116.465 106.404 117.592Z" fill="#55AFE0"/>
<path d="M100.303 57.684C99.2295 59.8247 97.9738 61.8819 96.5408 63.8155C95.729 64.9105 94.7241 66.2351 93.2223 66.2631C91.592 66.2935 90.6938 64.9233 89.9843 63.7059C86.731 58.1231 79.5514 56.3832 76.2183 50.8236C74.6422 48.1952 73.9924 44.9205 74.046 41.8165C74.0722 40.2939 74.4224 38.7051 75.3962 37.487C76.4601 36.1564 78.1294 35.4353 79.7792 35.023C82.8912 34.2459 86.1555 34.383 89.2321 35.073C92.3094 35.763 95.1425 37.7057 97.9427 39.0936C98.5761 38.6795 99.6967 38.2325 100.653 39.0406C101.338 39.6198 101.829 40.3914 102.192 41.2099C103.34 43.7982 103.395 46.789 102.865 49.6233C102.337 52.4588 101.61 55.0787 100.303 57.684Z" fill="#5B3D31"/>
<path d="M96.8663 44.7627C93.2988 37.7239 79.7162 40.1264 78.4549 45.7225C75.8606 57.2339 77.3185 61.9592 80.411 64.679C83.9895 67.8257 86.4182 67.425 86.1667 74.0369C87.431 77.5564 92.7787 78.0363 94.6617 74.0369C94.8883 65.2788 98.1422 58.6407 98.1422 58.6407C98.1422 58.6407 98.3371 47.6646 96.8663 44.7627Z" fill="#EFAD9C"/>
<path d="M94.6203 47.0354C94.6123 49.3009 94.9613 51.5542 95.6513 53.6858C95.8188 54.2034 96.0106 54.7217 96.3303 55.1577C96.6501 55.5938 97.1525 55.8148 97.6951 55.8879L99.6525 54.436C99.6525 54.436 99.4618 50.0415 99.4363 46.522C99.4101 43.0026 97.3608 40.8699 92.4954 39.9631C87.6301 39.0563 81.858 39.7213 79.7794 42.4155C76.5304 46.628 77.4427 49.1535 77.4427 49.1535C79.7685 49.1535 82.1826 48.1103 84.2806 47.0226C87.4346 48.6036 91.3365 48.5963 94.6203 47.0354Z" fill="#5B3D31"/>
<path d="M79.7194 55.6136C79.7011 56.0916 80.0738 56.4796 80.5513 56.4796C81.0288 56.4796 81.4313 56.0916 81.449 55.6136C81.4672 55.1355 81.0945 54.7476 80.6171 54.7476C80.1396 54.7476 79.7377 55.1355 79.7194 55.6136Z" fill="#1B1B28"/>
<path d="M80.5935 55.3769C80.5868 55.5523 80.7232 55.6942 80.898 55.6942C81.0728 55.6942 81.2202 55.5523 81.2269 55.3769C81.2336 55.2015 81.0971 55.0596 80.9224 55.0596C80.7476 55.0596 80.6002 55.2015 80.5935 55.3769Z" fill="white"/>
<path d="M86.4098 55.6136C86.3916 56.0916 86.7643 56.4796 87.2417 56.4796C87.7192 56.4796 88.1211 56.0916 88.1394 55.6136C88.1577 55.1355 87.785 54.7476 87.3075 54.7476C86.83 54.7476 86.4281 55.1355 86.4098 55.6136Z" fill="#1B1B28"/>
<path d="M87.2844 55.3769C87.2777 55.5523 87.4141 55.6942 87.5889 55.6942C87.7637 55.6942 87.9111 55.5523 87.9178 55.3769C87.9245 55.2015 87.7881 55.0596 87.6133 55.0596C87.4385 55.0596 87.2911 55.2015 87.2844 55.3769Z" fill="white"/>
<path d="M84.2492 59.1338C84.7212 59.1338 85.2084 59.2373 85.6724 59.487C85.8892 59.6033 85.9641 59.8768 85.8393 60.0978C85.715 60.3189 85.4386 60.4042 85.2218 60.2879C84.1 59.6868 82.8004 60.3049 82.4173 60.8055C82.2626 61.0059 81.9782 61.0515 81.7821 60.9042C81.586 60.7568 81.5531 60.4736 81.7078 60.272C82.1591 59.6837 83.1627 59.1338 84.2492 59.1338Z" fill="#C16B5B"/>
<path d="M82.5072 57.9619C82.4585 57.9619 82.4147 57.9296 82.4019 57.8803C82.2161 57.1421 82.4762 56.8906 82.7271 56.8102C82.9816 56.7299 83.2807 56.7944 83.6156 57.0063C83.6674 57.0392 83.6808 57.1087 83.6461 57.1622C83.6107 57.2146 83.5401 57.2305 83.4889 57.1988C83.2125 57.024 82.9768 56.9649 82.7886 57.0258C82.5633 57.0977 82.5072 57.3638 82.6211 57.8169C82.6363 57.8766 82.5992 57.9393 82.5383 57.957C82.5285 57.9607 82.5176 57.9619 82.5072 57.9619Z" fill="#C16B5B"/>
<path d="M89.268 51.4645C89.148 51.2446 88.905 51.219 88.6882 51.3104C88.1249 51.5485 87.5646 51.7964 86.9976 52.0235C86.4568 52.2397 85.9063 52.4175 85.3277 52.3518C85.0988 52.3256 84.8911 52.5674 84.8832 52.7805C84.8734 53.0339 85.0653 53.1831 85.2949 53.2092C85.9416 53.2823 86.5884 53.0923 87.1937 52.8505C87.8308 52.596 88.4605 52.3183 89.0926 52.0509C89.3082 51.9602 89.3679 51.6472 89.268 51.4645Z" fill="#5B3D31"/>
<path d="M78.4636 51.7478C78.5733 51.5218 78.7888 51.4835 78.9795 51.5639C79.4746 51.7734 79.9673 51.9926 80.4666 52.1899C80.9429 52.3787 81.4277 52.5279 81.9404 52.4323C82.1438 52.3945 82.3241 52.6254 82.3284 52.8385C82.3332 53.0912 82.1615 53.2508 81.9581 53.2886C81.3844 53.3951 80.8144 53.238 80.2821 53.0273C79.7218 52.805 79.1683 52.5602 78.6122 52.3251C78.4216 52.2453 78.3729 51.9354 78.4636 51.7478Z" fill="#5B3D31"/>
<path d="M101.092 58.8932C99.8829 60.2738 98.0437 60.6483 96.984 59.7287C95.9244 58.8098 96.0456 56.9456 97.2544 55.565C98.4633 54.1844 100.303 53.8098 101.362 54.7294C102.422 55.6484 102.301 57.5126 101.092 58.8932Z" fill="#EFAD9C"/>
<path d="M100.582 55.4046C100.1 55.1445 99.4436 55.1561 98.8272 55.4387C98.5203 55.5787 98.295 55.7499 98.1372 55.9606C97.929 56.2401 97.8608 56.5909 97.9594 56.8759C98.0471 57.1317 98.245 57.298 98.4192 57.4447C98.5453 57.5507 98.6646 57.6512 98.7298 57.7705C98.8297 57.9545 98.7931 58.2121 98.6439 58.3698C98.4953 58.5269 98.2402 58.5781 98.0502 58.4886C97.9381 58.4362 97.8029 58.4861 97.7457 58.5988C97.6896 58.7121 97.7329 58.8467 97.8443 58.899C97.9661 58.9563 98.0995 58.9837 98.2347 58.9837C98.5033 58.9837 98.7761 58.8747 98.9667 58.6731C99.2529 58.3704 99.3205 57.8948 99.1281 57.5422C99.0246 57.3516 98.8614 57.2145 98.717 57.0933C98.5727 56.9721 98.4363 56.857 98.3869 56.7133C98.337 56.5696 98.3796 56.3771 98.496 56.2218C98.5422 56.1591 98.605 56.1031 98.6738 56.0483C98.8985 56.0465 99.1768 56.1153 99.3126 56.2706C99.4655 56.446 99.5313 56.6999 99.4844 56.9332C99.4594 57.0562 99.5386 57.1725 99.661 57.1932C99.6732 57.1956 99.6853 57.1963 99.6981 57.1963C99.8065 57.1963 99.9052 57.1177 99.9277 57.0069C100.004 56.6341 99.9027 56.245 99.6585 55.9655C99.5672 55.8619 99.4515 55.7913 99.3291 55.734C99.7066 55.6329 100.075 55.653 100.355 55.8047C100.702 55.9916 100.95 56.4746 100.754 56.868C100.698 56.9819 100.741 57.1159 100.853 57.1682C100.964 57.2206 101.1 57.1713 101.157 57.058C101.443 56.4855 101.18 55.7286 100.582 55.4046Z" fill="#C16B5B"/>
<path d="M190.79 256.597C184.95 260.416 176.789 259.265 176.696 264.255C189.192 266 194.578 262.422 194.578 262.422L194.549 264.026L197.215 264.052C197.215 264.052 199.061 260.048 198.008 256.71L190.79 256.597Z" fill="#222831"/>
<path d="M182.432 145.105L204.434 142.839L202.366 160.409C201.856 160.455 200.911 183.518 198.333 206.022C199.551 220.219 199.249 245.744 198.02 256.913C195.423 258.934 193.889 257.978 190.791 256.597C190.791 256.597 185.354 199.376 182.432 145.105Z" fill="#F0D0C6"/>
<path d="M213.371 256.597C219.212 260.416 227.057 258.717 227.149 263.706C214.653 265.451 209.662 262.473 209.662 262.473L209.692 264.078L206.954 264.052C206.954 264.052 205.109 260.048 206.161 256.71L213.371 256.597Z" fill="#222831"/>
<path d="M221.738 145.105L199.735 142.839L201.804 160.409C202.314 160.455 203.259 183.518 205.836 206.022C204.618 220.219 204.921 245.744 206.15 256.913C208.747 258.934 210.272 257.978 213.37 256.597C213.37 256.597 218.816 199.376 221.738 145.105Z" fill="#F0D0C6"/>
<path d="M182.432 146.414V195.249C182.432 195.249 198.925 202.902 222.574 195.249C222.574 195.249 222.158 159.432 221.739 146.586L182.432 146.414Z" fill="#1A3C59"/>
<path d="M195.685 44.7277C194.706 44.4439 193.57 44.7198 192.806 45.4268C192.042 46.1339 191.677 47.2459 191.881 48.2459C190.706 48.7928 189.801 50.0833 189.367 51.3019C188.933 52.5205 189.019 53.9017 189.598 55.029C188.36 56.0387 187.636 57.6678 187.433 59.2354C187.229 60.803 187.66 62.4266 188.607 63.6598C187.609 64.6519 186.71 65.7322 185.994 66.9411C185.279 68.15 184.828 69.5476 184.942 70.927C185.057 72.3064 185.798 73.6517 187.015 74.2845C186.218 75.0938 185.408 76.0719 184.835 77.0512C184.263 78.0298 183.942 79.201 184.199 80.2838C184.591 81.939 186.214 82.9944 187.848 83.4628C190.092 84.1065 192.583 83.9305 194.759 82.9756C199.044 85.5687 204.857 85.2319 209.174 82.4488C210.242 83.5249 211.827 83.8702 213.364 83.7965C214.902 83.7228 216.415 82.9841 217.438 81.8075C218.658 82.4208 220.037 82.6376 221.409 82.4323C222.194 82.3148 223.008 82.0292 223.511 81.4062C224.127 80.6455 224.136 79.5694 223.94 78.6297C223.507 76.5561 222.198 74.7023 220.398 73.6127C221.468 72.2041 221.427 70.2711 221.002 68.5903C220.577 66.9094 219.517 65.4515 218.206 64.334C220.015 61.8474 220.029 58.0978 218.216 55.716C219.23 54.5899 219.603 52.9687 219.374 51.498C219.145 50.0273 218.213 48.7014 216.913 47.998C217.393 46.1217 216.407 43.9628 214.841 42.8861C213.275 41.81 211.018 41.8264 209.407 42.9257C208.521 41.7253 206.606 41.3033 205.11 41.5718C203.614 41.841 202.261 42.6388 200.945 43.4214C200.268 42.7868 199.246 42.637 198.312 42.7844C197.38 42.933 196.172 43.9092 195.685 44.7277Z" fill="#5B3D31"/>
<path d="M221.003 144.993C221.003 144.993 219.545 153.459 224.396 153.97C229.246 154.481 232.05 152.145 231.595 150.101C231.14 148.057 230.231 149.882 230.004 150.174C229.777 150.466 229.813 145.867 228.62 144.626C227.427 143.385 221.93 144.046 221.003 144.993Z" fill="#F0D0C6"/>
<path d="M241.76 117.191C230.551 93.8071 220.038 86.7329 220.038 86.7329L221.063 103.56C225.05 107.715 230.594 114.032 233.715 119.333L221.002 144.994L225.667 148.392L241.491 122.377C242.453 120.796 242.557 118.855 241.76 117.191Z" fill="#F0D0C6"/>
<path d="M213.136 82.1392C225.378 87.3589 228.752 94.4453 228.752 94.4453L220.618 104.967L217.206 101.556L213.136 82.1392Z" fill="#FFBC36"/>
<path d="M221.739 146.585C221.739 146.585 223.44 134.282 218.439 125.503C215.179 119.781 219.583 111.959 220.944 107.748C221.741 105.283 217.854 86.9504 215.183 83.9857C213.056 81.3555 211.785 81.6697 206.341 79.9736H198.699C193.661 81.4681 192.136 81.6192 188.616 85.4632C185.923 88.4035 184.527 93.742 184.928 100.227C185.766 113.786 190.634 119.137 186.814 125.369C182.431 132.518 182.431 146.413 182.431 146.413C182.431 146.413 203.099 153.113 221.739 146.585Z" fill="#FFBC36"/>
<path d="M216.416 87.9148C216.231 87.536 215.666 87.8679 215.851 88.2455C218.108 92.8568 219.656 97.794 220.452 102.866C220.517 103.282 221.148 103.106 221.084 102.692C220.279 97.5626 218.699 92.5779 216.416 87.9148Z" fill="#BC8015"/>
<path d="M217.61 113.978C212.713 116.178 207.295 117.159 201.938 116.849C200.406 116.761 198.884 116.563 197.38 116.263C196.967 116.181 196.791 116.813 197.206 116.896C202.609 117.973 208.25 117.728 213.538 116.177C215.043 115.737 216.511 115.187 217.94 114.544C218.325 114.372 217.991 113.807 217.61 113.978Z" fill="#BC8015"/>
<path d="M186.071 93.7275C186.071 93.7275 183.001 89.8975 179.841 97.2987C175.572 107.3 170.459 125.039 170.023 153.158H176.59C176.59 153.158 177.766 123.224 188.3 104.996L186.071 93.7275Z" fill="#F0D0C6"/>
<path d="M175.994 152.042C175.871 151.827 175.629 151.83 175.46 151.936C175.428 151.914 175.395 151.891 175.351 151.876C173.776 151.361 171.9 150.907 170.516 152.071C169.395 153.014 168.724 154.565 168.352 155.891C167.559 158.726 168.053 161.842 169.791 164.302C169.882 164.432 170.019 164.472 170.15 164.459C170.422 165.004 170.803 165.485 171.372 165.804C171.564 165.911 171.743 165.843 171.849 165.718C171.931 165.811 172.021 165.899 172.122 165.973C172.49 166.24 172.959 166.282 173.336 166.124C173.657 166.294 174.039 166.322 174.389 166.09C175.078 165.636 174.888 164.836 174.759 164.183C174.59 163.328 174.522 162.458 174.547 161.589C174.586 160.247 174.861 158.919 175.347 157.656C175.377 157.872 175.406 158.088 175.435 158.304C175.522 158.946 175.535 159.648 175.714 160.274C175.845 160.734 176.326 161.138 176.86 160.921C177.384 160.708 177.409 160.031 177.474 159.587C177.853 156.999 177.319 154.348 175.994 152.042Z" fill="#F0D0C6"/>
<path d="M192.282 82.2749C181.075 89.2218 179.163 96.1693 179.163 96.1693L188.838 107.666L195.19 94.9702L192.282 82.2749Z" fill="#FFBC36"/>
<path d="M196.994 50.6589C200.832 43.6243 214.331 46.0256 215.38 51.6181C217.538 63.1228 215.9 67.8456 212.702 70.5636C209.002 73.7085 206.587 73.3084 206.587 79.9161C205.188 83.4331 199.819 83.913 198.087 79.9161C198.194 71.1629 195.19 64.529 195.19 64.529C195.19 64.529 195.412 53.5596 196.994 50.6589Z" fill="#F0D0C6"/>
<path d="M199.155 52.9307C199.077 55.195 198.641 57.4471 197.87 59.5774C197.683 60.095 197.472 60.6133 197.135 61.0487C196.799 61.4842 196.288 61.7052 195.742 61.7783L193.839 60.3271C193.839 60.3271 194.196 55.9349 194.357 52.4179C194.517 48.9009 196.648 46.7688 201.551 45.8632C206.454 44.957 212.203 45.6215 214.181 48.3145C217.272 52.5245 216.262 55.0482 216.262 55.0482C213.935 55.0482 211.559 54.0056 209.502 52.9185C206.285 54.4977 202.381 54.491 199.155 52.9307Z" fill="#5B3D31"/>
<path d="M213.168 62.3914C213.648 62.3914 214.037 62.0023 214.037 61.5224C214.037 61.0424 213.648 60.6533 213.168 60.6533C212.688 60.6533 212.299 61.0424 212.299 61.5224C212.299 62.0023 212.688 62.3914 213.168 62.3914Z" fill="#1B1B28"/>
<path d="M212.85 61.6031C213.026 61.6031 213.168 61.4608 213.168 61.2852C213.168 61.1096 213.026 60.9673 212.85 60.9673C212.675 60.9673 212.532 61.1096 212.532 61.2852C212.532 61.4608 212.675 61.6031 212.85 61.6031Z" fill="white"/>
<path d="M206.447 62.3914C206.927 62.3914 207.316 62.0023 207.316 61.5224C207.316 61.0424 206.927 60.6533 206.447 60.6533C205.967 60.6533 205.578 61.0424 205.578 61.5224C205.578 62.0023 205.967 62.3914 206.447 62.3914Z" fill="#1B1B28"/>
<path d="M206.129 61.6038C206.304 61.6038 206.447 61.4612 206.447 61.2853C206.447 61.1094 206.304 60.9668 206.129 60.9668C205.953 60.9668 205.81 61.1094 205.81 61.2853C205.81 61.4612 205.953 61.6038 206.129 61.6038Z" fill="white"/>
<path d="M208.86 64.6522C208.388 64.7015 207.908 64.8562 207.461 65.1552C207.253 65.2941 207.196 65.576 207.336 65.7843C207.475 65.9926 207.757 66.0492 207.965 65.9098C209.045 65.1899 210.385 65.6729 210.802 66.1345C210.97 66.319 211.257 66.3349 211.443 66.1668C211.629 65.9981 211.643 65.7112 211.475 65.5255C210.985 64.9841 209.946 64.5383 208.86 64.6522Z" fill="#CC8471"/>
<path d="M210.938 63.8791C210.988 63.8791 211.033 63.8468 211.047 63.7969C211.262 63.0557 211.011 62.8042 210.761 62.7232C210.508 62.6428 210.206 62.708 209.861 62.9199C209.808 62.9528 209.792 63.0228 209.825 63.0764C209.858 63.1294 209.929 63.1453 209.981 63.1136C210.265 62.9382 210.505 62.8791 210.692 62.94C210.915 63.0119 210.962 63.2792 210.829 63.7342C210.812 63.7938 210.846 63.8572 210.907 63.8748C210.917 63.8773 210.928 63.8791 210.938 63.8791Z" fill="#CC8471"/>
<path d="M204.342 57.705C204.471 57.4852 204.715 57.4596 204.929 57.5515C205.483 57.7897 206.034 58.0375 206.593 58.2641C207.126 58.4803 207.67 58.6575 208.252 58.5923C208.482 58.5661 208.68 58.8079 208.68 59.0211C208.68 59.2744 208.482 59.4236 208.252 59.4492C207.602 59.5223 206.962 59.3323 206.366 59.0905C205.738 58.8359 205.118 58.5588 204.496 58.2915C204.283 58.2001 204.236 57.8877 204.342 57.705Z" fill="#5B3D31"/>
<path d="M215.142 57.9893C215.041 57.7633 214.828 57.725 214.633 57.806C214.13 58.0155 213.628 58.2341 213.121 58.432C212.638 58.6202 212.147 58.77 211.637 58.6744C211.435 58.6367 211.246 58.8675 211.234 59.08C211.219 59.3327 211.385 59.4917 211.588 59.5301C212.158 59.6366 212.734 59.4795 213.275 59.2688C213.844 59.0465 214.407 58.8023 214.972 58.5672C215.166 58.4868 215.226 58.1769 215.142 57.9893Z" fill="#5B3D31"/>
<path d="M192.121 60.6281C191.026 61.5467 191.076 63.4098 192.233 64.7896C193.391 66.1693 195.217 66.5432 196.312 65.6246C197.407 64.7061 197.357 62.8429 196.2 61.4631C195.042 60.0834 193.217 59.7095 192.121 60.6281Z" fill="#F0D0C6"/>
<path d="M192.873 61.2952C193.365 61.0351 194.021 61.0467 194.626 61.3293C194.929 61.4694 195.148 61.6405 195.298 61.8506C195.496 62.1295 195.55 62.4803 195.441 62.7653C195.343 63.0211 195.139 63.1868 194.959 63.3335C194.829 63.4395 194.706 63.54 194.636 63.6593C194.529 63.8433 194.556 64.1009 194.699 64.258C194.841 64.4151 195.095 64.4663 195.288 64.3767C195.402 64.3244 195.536 64.3743 195.589 64.487C195.641 64.6003 195.592 64.7348 195.478 64.7872C195.354 64.8445 195.22 64.8719 195.084 64.8719C194.816 64.8719 194.547 64.7629 194.364 64.5613C194.089 64.2586 194.039 63.7836 194.245 63.431C194.356 63.2403 194.525 63.1033 194.673 62.9821C194.823 62.8609 194.963 62.7458 195.018 62.6021C195.073 62.4584 195.038 62.2659 194.928 62.1113C194.883 62.0491 194.823 61.9925 194.757 61.9383C194.532 61.9365 194.251 62.0053 194.109 62.1606C193.949 62.336 193.874 62.5893 193.912 62.8232C193.932 62.9462 193.849 63.0625 193.726 63.0826C193.714 63.0851 193.701 63.0857 193.689 63.0857C193.58 63.0857 193.484 63.0071 193.466 62.8963C193.404 62.5242 193.52 62.135 193.775 61.8555C193.87 61.7519 193.989 61.6813 194.114 61.6247C193.74 61.5236 193.371 61.5437 193.084 61.6953C192.73 61.8823 192.463 62.3646 192.645 62.758C192.697 62.8713 192.647 63.0059 192.535 63.0583C192.421 63.11 192.287 63.0613 192.234 62.948C191.97 62.3756 192.262 61.6186 192.873 61.2952Z" fill="#CC8471"/>
</svg>
