<svg width="222" height="197" viewBox="0 0 222 197" fill="none" xmlns="http://www.w3.org/2000/svg">
<path d="M145.97 147.784C145.97 147.784 162.533 193.651 196.933 173.266C196.933 173.266 224.963 160.525 221.141 124.851C217.319 89.177 203.304 76.436 190.563 67.517C190.563 67.517 167.98 53.403 153.543 76.926C149.754 83.1 147.65 90.165 147.155 97.392C146.404 108.352 141.715 130.556 115.393 120.903C115.393 120.903 100.104 113.384 93.734 107.013C93.734 107.013 119.216 87.902 107.749 61.146C107.749 61.146 104.362 46.243 85.239 40.146C71.142 35.651 55.745 38.282 43.472 46.548C35.771 51.735 26.967 58.401 23.659 63.694L41.496 89.176C41.496 89.176 69.526 66.243 86.089 67.517C86.089 67.517 96.282 71.339 95.008 81.532C95.008 81.532 96.282 95.547 63.156 96.821L69.526 119.754C69.526 119.754 112.845 119.754 101.378 156.702C101.378 156.702 96.282 188.554 50.415 173.265C50.415 173.265 12.193 156.702 2 119.754C2 119.754 8.37 171.991 58.06 193.651C58.06 193.651 102.653 207.666 117.942 175.814C117.942 175.814 130.683 150.332 119.216 128.673C119.216 128.673 147.792 145.517 159.623 117.347C171.454 89.177 193.113 89.177 200.758 99.37C208.403 109.563 217.321 131.222 200.758 146.511C184.195 161.8 149.792 154.154 145.97 147.784Z" fill="#65A06B"/>
<path d="M107.747 16.5541L120.488 30.5681L135.527 16.5541L124.31 2.53906L107.747 16.5541Z" fill="#B8B324"/>
<path d="M96.2803 28.0202C96.2803 28.0202 115.391 52.2282 140.873 40.7612C140.873 40.7612 156.162 31.8422 157.436 25.4722L171.451 47.1312C171.451 47.1312 154.888 63.6942 126.858 56.0502C98.8283 48.4062 96.2803 28.0202 96.2803 28.0202Z" fill="#B8B324"/>
<path d="M143.97 145.784C143.97 145.784 160.533 191.651 194.933 171.266C194.933 171.266 222.963 158.525 219.141 122.851C215.319 87.177 201.304 74.436 188.563 65.517C188.563 65.517 165.98 51.403 151.543 74.926C147.754 81.1 145.65 88.165 145.155 95.392C144.404 106.352 139.715 128.556 113.393 118.903C113.393 118.903 98.104 111.384 91.734 105.013C91.734 105.013 117.216 85.902 105.749 59.146C105.749 59.146 102.362 44.243 83.239 38.146C69.142 33.651 53.745 36.282 41.472 44.548C33.771 49.735 24.967 56.401 21.659 61.694L39.496 87.176C39.496 87.176 67.526 64.243 84.089 65.517C84.089 65.517 94.282 69.339 93.008 79.532C93.008 79.532 94.282 93.547 61.156 94.821L67.526 117.754C67.526 117.754 110.845 117.754 99.378 154.702C99.378 154.702 94.282 186.554 48.415 171.265C48.415 171.265 10.193 154.702 0 117.754C0 117.754 6.37 169.991 56.06 191.651C56.06 191.651 100.653 205.666 115.942 173.814C115.942 173.814 128.683 148.332 117.216 126.673C117.216 126.673 145.792 143.517 157.623 115.347C169.454 87.177 191.113 87.177 198.758 97.37C206.403 107.563 215.321 129.222 198.758 144.511C182.195 159.8 147.792 152.154 143.97 145.784Z" fill="#65A06B"/>
<path d="M105.747 14.5541L118.488 28.5681L133.527 14.5541L122.31 0.539062L105.747 14.5541Z" fill="#EDE843"/>
<path d="M94.2803 26.0202C94.2803 26.0202 113.391 50.2282 138.873 38.7612C138.873 38.7612 154.162 29.8422 155.436 23.4722L169.451 45.1312C169.451 45.1312 152.888 61.6942 124.858 54.0502C96.8283 46.4062 94.2803 26.0202 94.2803 26.0202Z" fill="#EDE843"/>
</svg>
