<svg width="300" height="300" viewBox="0 0 300 300" fill="none" xmlns="http://www.w3.org/2000/svg">
<path opacity="0.3" d="M261.256 210.41L157.877 270.096L23.0774 192.267L126.454 132.586L261.256 210.41Z" fill="black"/>
<path d="M261.256 209.623L157.877 269.31L23.0774 191.484L126.454 131.8L261.256 209.623Z" fill="#F2F2F2"/>
<path d="M149.562 158.385L69.1255 204.823L65.4895 202.722L145.924 156.284L149.562 158.385Z" fill="#B5AFA7"/>
<path d="M103.533 160.389L72.5961 178.247L68.5354 175.905L99.4717 158.044L103.533 160.389Z" fill="#B5AFA7"/>
<path d="M157.646 163.053L77.21 209.495L73.5698 207.393L154.011 160.953L157.646 163.053Z" fill="#B5AFA7"/>
<path d="M165.729 167.719L85.2935 214.156L81.6575 212.059L162.093 165.622L165.729 167.719Z" fill="#B5AFA7"/>
<path d="M173.817 172.388L93.3785 218.829L89.7432 216.73L170.179 170.286L173.817 172.388Z" fill="#B5AFA7"/>
<path d="M209.984 193.268L178.321 211.545L177.145 210.871L208.812 192.596L209.984 193.268Z" fill="#B5AFA7"/>
<path d="M221.219 199.751L189.554 218.037L188.378 217.362L220.045 199.077L221.219 199.751Z" fill="#B5AFA7"/>
<path d="M198.75 186.786L167.086 205.069L165.913 204.394L197.579 186.112L198.75 186.786Z" fill="#B5AFA7"/>
<path d="M148.709 196.222L101.464 223.496L97.8311 221.398L145.072 194.123L148.709 196.222Z" fill="#B5AFA7"/>
<path d="M214.071 130.55C214.519 127.956 217.842 125.306 221.145 123.476C224.236 121.763 248.711 107.503 251.844 105.677C254.745 104.102 256.551 100.598 256.551 95.5614C256.551 85.6859 249.618 73.6771 241.065 68.7396C236.384 66.0368 232.192 66.018 229.352 68.1692L229.35 68.166C229.35 68.166 205.53 88.9866 197.773 95.0739C191.195 100.237 184.982 105.098 179.419 108.488C174.182 111.679 171.418 112.346 167.819 117.393C163.361 123.643 155.773 133.841 154.069 135.503C152.369 137.159 150.417 138.549 149.136 142.405C147.821 146.363 142.011 158.734 140.779 161.754C138.697 166.857 136.131 171.383 136.599 174.843C137.088 178.461 139.431 187.355 140.077 188.495C142.866 188.793 145.64 185.327 145.64 180.06C145.641 174.794 145.651 172.844 145.651 172.844C145.651 172.844 149.55 168.321 151.141 166.578C152.732 164.836 156.913 159.908 156.913 159.908C156.913 159.908 158.621 174.02 160.791 176.203C162.961 178.385 167.956 178.599 168.796 178.113C168.796 178.113 168.841 179.833 170.276 181.16C171.778 182.549 175.263 183.549 178.231 183.776C179.901 183.903 182.796 181.974 182.796 181.974C183.482 184.941 183.749 186.494 184.585 187.144C185.798 188.088 196.639 191.114 198.818 189.895C200.997 188.676 204.765 182.338 207.106 180.06C209.447 177.783 211.585 175.776 210.872 174.794C210.16 173.812 206.828 171.117 202.32 172.415C197.812 173.712 195.759 176.09 195.759 176.09C195.759 176.09 195.684 173.018 195.985 169.129C196.225 166.033 196.707 164.993 197.262 163.295C197.834 161.542 198.001 160.668 198.209 158.991C198.209 158.991 200.737 158.144 203.063 159.72C204.089 161.142 204.909 166.06 205.058 168.943C205.193 171.571 205.404 175.695 207.744 180.981C210.083 186.267 215.208 186.358 216.575 185.846C217.941 185.333 217.149 182.83 217.046 178.017C216.956 173.838 216.805 172.601 217.77 163.836C218.627 156.057 218.854 152.919 217.25 146.843C215.968 141.986 213.472 134.025 214.071 130.55Z" fill="#9E6767"/>
<path d="M214.071 130.549C214.424 125.765 213.507 124.441 214.625 120.743C214.709 120.464 214.823 119.828 215.234 119.885C215.417 119.911 215.564 120.055 215.659 120.213C215.878 120.575 215.894 121.022 215.868 121.445C215.754 123.322 215.03 125.22 214.671 127.074C214.447 128.228 214.245 129.387 214.071 130.549Z" fill="#874C4C"/>
<path d="M165.786 154.853C164.815 154.604 163.798 156.29 164.216 158.263C164.635 160.236 167.069 173.322 166.899 175.31C166.728 177.297 162.771 177.346 160.792 176.204C162.962 178.386 167.956 178.599 168.797 178.114C167.975 172.031 166.427 162.53 166.264 160.075C166.1 157.619 166.758 155.102 165.786 154.853Z" fill="#874C4C"/>
<path d="M149.148 165.222C150.064 163.064 151.818 162.32 152.646 160.652C153.475 158.984 153.911 155.85 154.29 154.2C154.669 152.55 155.773 150.252 156.549 149.889C157.325 149.527 156.347 151.106 156.48 153.343C156.612 155.579 156.914 159.909 156.914 159.909C156.914 159.909 151.655 165.862 151.143 166.58C151.143 166.58 148.345 169.741 145.653 172.845C147.531 169.462 148.498 166.753 149.148 165.222Z" fill="#874C4C"/>
<path d="M180.023 159.542C179.236 159.912 178.299 161.621 178.455 164.541C178.61 167.461 179.177 172.656 178.996 174.55C178.815 176.444 178.935 178.39 178.154 179.581C177.372 180.773 178.884 180.159 179.419 179.581C179.954 179.003 181.079 179.208 181.34 179.581C181.601 179.954 181.058 182.738 178.569 183.776C180.263 183.663 182.797 181.975 182.797 181.975C182.181 178.308 180.438 166.405 180.318 164.06C180.198 161.715 180.81 159.171 180.023 159.542Z" fill="#874C4C"/>
<path d="M207.286 179.885C207.219 179.951 207.169 180.001 207.103 180.059C206.87 180.284 206.62 180.567 206.363 180.866C204.591 178.222 204.408 175.602 204.408 175.602C204.408 175.602 201.365 175.76 200.508 178.222C199.643 180.674 200.849 183.269 199.685 182.23C198.521 181.19 196.309 180.642 195.76 180.059C195.212 179.477 195.785 178.587 195.76 176.093C195.76 176.093 197.814 173.714 202.321 172.418C203.386 172.11 204.384 172.027 205.298 172.085C205.548 174.214 206.064 176.842 207.286 179.885Z" fill="#874C4C"/>
<path d="M140.524 173.232C140.524 173.232 145.632 175.078 145.64 179.574C145.641 174.68 145.652 172.843 145.652 172.843L148.662 168.494L144.73 163.835L139.305 165.185C139.305 165.185 138.653 166.678 138.636 166.714C138.639 166.719 143.535 172.76 143.371 173.483C143.206 174.207 142.17 173.171 140.524 173.232Z" fill="#874C4C"/>
<path d="M203.064 159.721C203.473 160.289 203.849 161.419 204.163 162.75H204.164C203.852 160.688 203.765 158.84 204.797 157.243C205.828 155.647 205.184 155.293 204.164 155.813C203.146 156.331 203.004 157.652 201.731 158.03C200.458 158.407 198.801 157.415 198.45 155.294C198.39 156.502 198.331 157.781 198.211 158.989C198.211 158.989 198.221 158.989 198.223 158.989C198.363 158.943 200.805 158.191 203.064 159.721Z" fill="#874C4C"/>
<path opacity="0.4" d="M214.625 120.743C215.746 117.036 221.107 115.481 231.376 109.693C237.214 106.403 248.767 99.4554 256.531 95.0732C256.535 95.2348 256.551 95.4007 256.551 95.5612C256.551 100.598 254.745 104.102 251.843 105.677C248.711 107.503 224.235 121.763 221.144 123.476C217.842 125.306 214.378 127.936 214.071 130.549C214.424 125.766 213.507 124.441 214.625 120.743Z" fill="#874C4C"/>
<path opacity="0.4" d="M179.356 149.603C179.729 149.117 180.256 148.705 180.75 148.349C181.284 147.964 181.878 147.663 182.504 147.461C182.6 147.429 182.702 147.401 182.8 147.423C182.899 147.445 182.989 147.538 182.972 147.637C182.961 147.702 182.911 147.751 182.864 147.797C182.344 148.287 181.805 148.759 181.333 149.296C180.725 149.986 180.245 150.815 180.056 151.722C179.856 152.681 179.945 153.669 179.841 154.638C179.833 154.714 179.822 154.796 179.773 154.855C179.678 154.971 179.487 154.941 179.363 154.857C179.135 154.702 179.029 154.425 178.944 154.163C178.679 153.347 178.6 152.636 178.6 151.788C178.604 150.999 178.875 150.228 179.356 149.603Z" fill="#874C4C"/>
<path opacity="0.4" d="M166.474 145.02C166.916 144.597 167.499 144.269 168.042 143.991C168.627 143.692 169.26 143.483 169.909 143.378C170.009 143.362 170.114 143.349 170.208 143.386C170.302 143.423 170.377 143.528 170.346 143.624C170.325 143.686 170.268 143.728 170.215 143.765C169.627 144.171 169.023 144.556 168.475 145.015C167.77 145.606 167.17 146.353 166.846 147.22C166.503 148.138 166.442 149.128 166.193 150.07C166.173 150.145 166.15 150.224 166.093 150.275C165.98 150.374 165.797 150.317 165.686 150.214C165.485 150.026 165.421 149.737 165.377 149.465C165.239 148.619 165.268 147.903 165.397 147.065C165.519 146.287 165.903 145.566 166.474 145.02Z" fill="#874C4C"/>
<path opacity="0.4" d="M158.627 140.864C159.076 140.448 159.665 140.129 160.212 139.861C160.802 139.571 161.438 139.373 162.089 139.278C162.189 139.263 162.295 139.252 162.388 139.29C162.481 139.329 162.554 139.435 162.522 139.53C162.501 139.592 162.442 139.633 162.388 139.669C161.794 140.066 161.183 140.441 160.628 140.891C159.914 141.47 159.301 142.207 158.963 143.069C158.606 143.981 158.528 144.97 158.264 145.908C158.243 145.982 158.22 146.061 158.161 146.111C158.047 146.209 157.864 146.148 157.756 146.044C157.557 145.853 157.499 145.562 157.459 145.289C157.334 144.441 157.375 143.726 157.517 142.891C157.652 142.115 158.048 141.4 158.627 140.864Z" fill="#874C4C"/>
<path opacity="0.4" d="M209.207 153.699C208.716 156.601 206.796 158.405 207.294 161.141C207.793 163.877 206.022 172.143 206.671 177.265L206.837 178.696C206.779 178.438 206.679 178.172 206.571 177.906L206.562 177.898C205.847 175.686 205.49 173.74 205.298 172.094C205.274 171.861 205.248 171.636 205.232 171.42C205.173 170.912 205.14 170.438 205.115 169.998C205.09 169.624 205.074 169.274 205.057 168.942C204.907 166.064 204.092 161.141 203.061 159.72C200.807 158.189 198.363 158.946 198.222 158.988H198.213C198.637 154.722 198.296 149.541 199.942 149.915C201.589 150.298 201.822 153.89 203.693 154.339C205.565 154.789 209.697 150.789 209.207 153.699Z" fill="#874C4C"/>
<path d="M216.981 174.094C214.625 172.867 212.702 173.93 212.626 174.464C212.549 174.997 212.326 180.676 213.706 182.595C215.084 184.513 217.337 184.544 217.337 184.544C217.466 183.279 217.113 181.135 217.046 178.017C217.014 176.487 216.973 175.35 216.981 174.094Z" fill="#874C4C"/>
<path opacity="0.4" d="M216.981 174.094C214.625 172.867 212.702 173.93 212.626 174.464C212.549 174.997 212.326 180.676 213.706 182.595C215.084 184.513 217.337 184.544 217.337 184.544C217.466 183.279 217.113 181.135 217.046 178.017C217.014 176.487 216.973 175.35 216.981 174.094Z" fill="white"/>
<path d="M216.981 174.094C214.625 172.867 212.702 173.93 212.625 174.464C212.625 174.464 214.464 175.83 216.989 175.979C216.993 175.979 216.995 175.978 216.999 175.978C216.986 175.337 216.977 174.73 216.981 174.094Z" fill="#874C4C"/>
<path d="M141.124 185.202C140.614 182.414 139.645 179.469 139.645 179.469C139.645 179.469 138.091 179.335 137.57 179.707C138.457 183.507 139.646 187.733 140.078 188.494C140.078 188.494 141.634 187.991 141.124 185.202Z" fill="#874C4C"/>
<path opacity="0.4" d="M141.124 185.202C140.614 182.414 139.645 179.469 139.645 179.469C139.645 179.469 138.091 179.335 137.57 179.707C138.457 183.507 139.646 187.733 140.078 188.494C140.078 188.494 141.634 187.991 141.124 185.202Z" fill="white"/>
<path d="M137.57 179.708C137.642 180.018 137.717 180.331 137.793 180.645C138.743 180.532 139.646 179.47 139.646 179.47C139.646 179.47 138.091 179.336 137.57 179.708Z" fill="#874C4C"/>
<path d="M166.338 160.886L166.749 164.06C165.087 164.775 161.767 165.203 159.23 164.552C156.692 163.9 156.281 162.289 156.281 161.671C156.25 160.935 156.075 158.467 156.075 158.467C156.075 158.467 156.429 160.325 158.491 160.986C160.552 161.647 163.559 161.549 166.338 160.886Z" fill="#E0E0E0"/>
<path d="M166.255 159.935C165.143 160.515 161.267 161.274 159.049 160.507C156.83 159.739 156.823 158.582 156.823 158.582L156.744 157.429C156.744 157.429 156.074 157.81 156.074 158.427C156.074 159.044 156.486 160.656 159.023 161.307C161.561 161.958 164.8 161.502 166.338 160.886L166.255 159.935Z" fill="#FAFAFA"/>
<path opacity="0.2" d="M166.337 160.886L166.332 160.819C166.301 160.533 166.276 160.274 166.263 160.075C166.261 160.044 166.26 160.012 166.259 159.982L166.255 159.937C165.925 160.109 165.347 160.296 164.644 160.456C164.855 161.573 165.114 162.983 165.38 164.491C165.9 164.368 166.371 164.223 166.748 164.061L166.746 164.041C166.572 162.801 166.433 161.75 166.347 160.962L166.337 160.886Z" fill="black"/>
<path d="M151.381 167.58C150.766 164.377 146.037 151.709 144.922 148.179C143.808 144.65 142.667 142.996 140.72 141.641C138.772 140.286 131.194 131.959 125.375 126.953C118.928 121.407 118.621 119.481 113.385 116.289C107.821 112.898 106.135 111.442 99.1872 106.787C92.3684 102.218 65.3592 81.8477 65.3592 81.8477L65.357 81.8509C62.5175 79.7003 58.3249 79.7191 53.6438 82.4213C45.0912 87.3593 38.1582 99.3677 38.1582 109.243C38.1582 114.28 39.9642 117.784 42.8662 119.359C45.9988 121.184 70.4744 135.445 73.5649 137.158C76.8677 138.988 80.331 141.617 80.6385 144.231C80.9461 146.846 82.0335 155.752 84.0215 160.07C86.1378 164.666 88.9423 173.756 89.0963 176.063C89.2498 178.37 88.1344 187.893 89.0963 187.939C94.5509 188.201 98.2048 186.268 99.4905 180.645C100.531 176.097 99.7355 170.449 99.4905 166.336C99.2454 162.223 99.8163 160.038 99.8163 160.038L102.628 163.296C102.628 163.296 102.936 166.375 103.397 167.912C103.859 169.45 106.157 174.001 106.319 174.794C106.48 175.587 106.934 181.137 107.703 185.135C108.472 189.133 109.415 192.883 109.415 192.883C107.557 195.133 102.612 197.04 100.825 201.118C98.9492 205.396 100.043 208.546 100.812 209.315C101.581 210.084 107.529 205.797 112.842 203.014C118.156 200.23 120.077 198.85 120.467 194.296C120.89 189.339 121.105 185.816 121.105 185.816C121.105 185.816 121.718 186.065 124.076 185.142C126.435 184.22 128.753 182.009 128.753 182.009C128.753 182.009 129.893 182.27 130.258 182.225C131.076 182.124 135.097 181.134 136.414 179.581C137.732 178.028 138.055 177.805 138.362 174.115C138.67 170.425 138.886 166.119 138.886 166.119C138.886 166.119 143.693 171.142 144.205 171.859C144.205 171.859 143.971 176.562 145.641 180.06C145.641 180.06 150.254 174.8 151.381 173.483C152.508 172.168 151.996 170.784 151.381 167.58Z" fill="#FFA8A7"/>
<path d="M107.816 172.458C106.846 170.611 106.845 167.382 106.394 163.836C105.943 160.29 104.649 161.303 103.552 157.242C102.455 153.182 100.19 156.354 99.8159 160.038L102.628 163.296C102.628 163.296 102.936 166.375 103.397 167.913C103.858 169.45 106.157 174.001 106.319 174.794C106.48 175.587 106.934 181.137 107.703 185.135C107.928 186.307 108.168 187.455 108.395 188.496C107.95 184.441 108.787 174.304 107.816 172.458Z" fill="#F28F8F"/>
<path d="M127.54 183.04C127.527 183.045 124.339 183.718 123.339 182.913C121.997 181.832 122.698 177.591 123.164 174.794C123.63 171.997 124.287 167.742 123.69 166.278C122.851 164.222 121.526 166.044 121.518 167.453C121.518 167.453 121.275 181.978 121.104 185.816C121.104 185.816 121.718 186.064 124.075 185.142C125.368 184.636 126.647 183.744 127.54 183.04Z" fill="#F28F8F"/>
<path d="M102.455 203.095C105.097 199.88 106.845 201.744 107.13 199.364C107.415 196.985 109.415 192.883 109.415 192.883C107.557 195.134 102.612 197.04 100.824 201.119C98.9488 205.397 100.043 208.547 100.812 209.316C100.812 209.316 99.8122 206.31 102.455 203.095Z" fill="#F28F8F"/>
<path d="M136.413 179.581C137.377 178.445 137.808 178.016 138.091 176.425C138.086 176.432 136.499 178.768 134.586 179.337C132.669 179.907 131.564 179.021 131.688 174.54C131.812 170.059 132.203 165.25 133.136 163.094C134.068 160.938 133.119 159.764 132.129 160.33C131.14 160.895 131.012 162.091 130.775 163.876C130.538 165.66 129.976 175.556 129.925 178.146C129.873 180.736 129.821 180.839 128.751 182.01C128.751 182.01 129.891 182.267 130.256 182.226C131.289 182.11 135.096 181.134 136.413 179.581Z" fill="#F28F8F"/>
<path d="M145.641 171.361C145.509 169.703 143.494 167.787 142.666 166.119C141.837 164.451 141.802 161.409 141.423 159.759C141.044 158.11 139.662 156.859 138.886 156.497C138.11 156.134 139.381 158.907 139.248 161.143C139.116 163.379 138.886 166.119 138.886 166.119C138.886 166.119 143.693 171.142 144.206 171.86C144.206 171.86 143.971 176.563 145.642 180.061C144.627 175.503 145.773 173.018 145.641 171.361Z" fill="#F28F8F"/>
<path d="M80.6379 144.232C80.2851 139.448 81.2018 138.123 80.0842 134.425C80.0001 134.147 79.886 133.51 79.4755 133.568C79.2924 133.593 79.1454 133.737 79.05 133.895C78.8313 134.257 78.8152 134.705 78.841 135.127C78.9552 137.004 79.6791 138.903 80.0384 140.756C80.2619 141.91 80.4644 143.069 80.6379 144.232Z" fill="#F28F8F"/>
<path opacity="0.4" d="M80.0843 134.426C78.9634 130.719 73.929 128.92 63.6604 123.132C57.8224 119.842 45.9422 113.137 38.1787 108.756C38.1749 108.918 38.1582 109.083 38.1582 109.244C38.1582 114.281 39.9642 117.785 42.8662 119.36C45.9988 121.185 70.4744 135.446 73.5649 137.159C76.8677 138.989 80.331 141.619 80.6385 144.233C80.2852 139.448 81.2025 138.124 80.0843 134.426Z" fill="#F28F8F"/>
<path opacity="0.4" d="M122.126 156.178C121.753 155.693 121.226 155.28 120.731 154.924C120.197 154.539 119.604 154.238 118.978 154.036C118.882 154.005 118.78 153.976 118.681 153.998C118.583 154.021 118.493 154.113 118.509 154.212C118.52 154.277 118.57 154.327 118.618 154.372C119.137 154.862 119.677 155.334 120.148 155.871C120.756 156.561 121.237 157.391 121.425 158.297C121.625 159.256 121.536 160.244 121.64 161.213C121.648 161.29 121.659 161.371 121.708 161.43C121.804 161.546 121.995 161.517 122.119 161.432C122.346 161.277 122.453 161 122.538 160.738C122.803 159.922 122.881 159.211 122.881 158.363C122.878 157.574 122.607 156.804 122.126 156.178Z" fill="#F28F8F"/>
<path opacity="0.4" d="M130.861 150.751C130.419 150.328 129.836 149.999 129.294 149.722C128.708 149.422 128.075 149.214 127.426 149.109C127.327 149.093 127.221 149.08 127.127 149.116C127.034 149.153 126.958 149.258 126.989 149.354C127.01 149.416 127.067 149.458 127.12 149.496C127.708 149.902 128.312 150.287 128.86 150.746C129.566 151.336 130.166 152.083 130.489 152.95C130.832 153.869 130.894 154.858 131.143 155.801C131.162 155.875 131.185 155.954 131.243 156.005C131.355 156.105 131.538 156.047 131.649 155.944C131.85 155.757 131.914 155.467 131.958 155.195C132.096 154.349 132.067 153.634 131.939 152.796C131.816 152.017 131.432 151.297 130.861 150.751Z" fill="#F28F8F"/>
<path opacity="0.4" d="M137.847 146.695C137.399 146.279 136.81 145.96 136.263 145.692C135.672 145.402 135.036 145.204 134.386 145.109C134.285 145.094 134.18 145.083 134.087 145.121C133.993 145.16 133.92 145.266 133.953 145.361C133.974 145.423 134.032 145.464 134.086 145.5C134.68 145.897 135.291 146.272 135.846 146.722C136.56 147.301 137.173 148.038 137.51 148.9C137.868 149.813 137.945 150.801 138.209 151.739C138.23 151.813 138.254 151.892 138.313 151.942C138.427 152.04 138.609 151.979 138.718 151.875C138.916 151.684 138.975 151.393 139.015 151.12C139.14 150.272 139.098 149.557 138.957 148.722C138.823 147.946 138.426 147.231 137.847 146.695Z" fill="#F28F8F"/>
<g opacity="0.4">
<path d="M90.5556 169.753C90.7005 169.615 90.7878 169.419 90.9036 169.261C90.9569 169.188 90.972 168.994 90.8443 168.998C90.595 169.004 90.3914 168.992 90.1463 169.055C89.8915 169.121 89.6341 169.169 89.3777 169.227C88.8439 169.346 88.3182 169.432 87.7721 169.471C87.6703 169.478 87.569 169.481 87.4678 169.487C87.6218 169.988 87.7694 170.478 87.9078 170.953C87.9477 170.946 87.9902 170.947 88.0295 170.939C88.5488 170.837 89.0674 170.652 89.543 170.421C89.7709 170.31 89.9836 170.184 90.1888 170.034C90.31 169.946 90.4474 169.856 90.5556 169.753Z" fill="#F28F8F"/>
<path d="M91.4976 166.232C91.3252 166.16 91.1485 166.095 90.9703 166.038C90.5755 165.91 90.1774 165.78 89.7756 165.675C88.9311 165.456 88.0483 165.332 87.1752 165.33C86.8935 165.33 86.5251 165.369 86.1389 165.452C86.3474 166.046 86.5515 166.646 86.7502 167.247C87.1779 167.096 87.6486 167.031 88.093 166.984C88.6796 166.921 89.2709 166.916 89.8586 166.872C90.297 166.84 90.7117 166.826 91.1448 166.902C91.2676 166.923 91.3888 166.95 91.5105 166.978C91.6425 167.009 91.7814 166.992 91.908 167.029C92.1089 167.087 92.1606 166.624 92.0092 166.54C91.8256 166.437 91.6969 166.315 91.4976 166.232Z" fill="#F28F8F"/>
</g>
<g opacity="0.4">
<path d="M118.555 193.859C118.071 193.92 117.591 194.045 117.136 194.222C116.901 194.313 116.669 194.413 116.441 194.52C116.213 194.628 115.977 194.708 115.828 194.916C115.79 194.969 115.765 195.085 115.842 195.118C116.005 195.189 116.163 195.125 116.333 195.092C116.559 195.048 116.786 195.011 117.015 194.982C117.497 194.922 117.986 194.86 118.471 194.842C119.135 194.817 119.798 194.901 120.357 195.215C120.4 194.922 120.438 194.619 120.466 194.296C120.47 194.24 120.475 194.187 120.48 194.132C119.883 193.857 119.212 193.776 118.555 193.859Z" fill="#F28F8F"/>
<path d="M115.838 197.679C115.803 197.531 115.666 197.344 115.494 197.422C115.317 197.504 115.31 197.767 115.342 197.925C115.556 198.98 116.205 199.909 117.067 200.541C117.324 200.357 117.563 200.17 117.786 199.981C116.843 199.542 116.086 198.713 115.838 197.679Z" fill="#F28F8F"/>
<path d="M118.428 197.189C117.939 196.993 117.484 196.721 117.083 196.378C116.85 196.179 116.7 196.694 116.861 196.85C117.268 197.246 117.735 197.578 118.242 197.831C118.493 197.956 118.753 198.047 119.015 198.143C119.114 198.18 119.214 198.224 119.314 198.268C119.481 198.001 119.625 197.717 119.754 197.42C119.549 197.404 119.342 197.425 119.134 197.406C118.898 197.383 118.647 197.277 118.428 197.189Z" fill="#F28F8F"/>
</g>
<path d="M89.0957 176.062C90.3712 174.714 92.8369 174.794 92.8369 174.794C92.8369 174.794 93.1983 183.45 92.1238 185.121C91.0299 186.822 88.7704 187.169 88.7704 187.169C88.7704 187.169 88.1774 182.144 89.0957 176.062Z" fill="#FFA8A7"/>
<path opacity="0.4" d="M89.0957 176.062C90.3712 174.714 92.8369 174.794 92.8369 174.794C92.8369 174.794 93.1983 183.45 92.1238 185.121C91.0299 186.822 88.7704 187.169 88.7704 187.169C88.7704 187.169 88.1774 182.144 89.0957 176.062Z" fill="white"/>
<path d="M89.0961 176.062C89.0283 176.511 88.9712 176.952 88.9189 177.387C91.3567 176.953 92.8368 174.794 92.8368 174.794C92.8368 174.794 90.3716 174.714 89.0961 176.062Z" fill="#F28F8F"/>
<path d="M108.855 205.265C107.997 205.153 107.815 204.237 106.957 204.332C106.099 204.427 103.288 206.477 102.191 207.62C101.126 208.732 101.548 209.279 101.573 209.309C102.923 208.902 105.741 207.111 108.855 205.265Z" fill="#FFA8A7"/>
<path opacity="0.4" d="M108.855 205.265C107.997 205.153 107.815 204.237 106.957 204.332C106.099 204.427 103.288 206.477 102.191 207.62C101.126 208.732 101.548 209.279 101.573 209.309C102.923 208.902 105.741 207.111 108.855 205.265Z" fill="white"/>
<path d="M108.855 205.266C108.159 205.175 107.903 204.563 107.376 204.383C107.369 204.424 107.26 205.148 107.928 205.819C108.234 205.636 108.542 205.451 108.855 205.266Z" fill="#F28F8F"/>
<path d="M130.648 165.197L130.419 168.451C131.957 169.068 134.185 169.573 136.722 168.922C139.26 168.27 139.671 166.658 139.671 166.042C139.702 165.305 139.877 162.837 139.877 162.837C139.877 162.837 139.523 164.695 137.461 165.356C135.399 166.016 133.428 165.859 130.648 165.197Z" fill="#E0E0E0"/>
<path d="M130.733 164.249C131.844 164.83 134.684 165.645 136.903 164.877C139.121 164.109 139.129 162.953 139.129 162.953L139.207 161.799C139.207 161.799 139.877 162.18 139.877 162.797C139.877 163.415 139.465 165.026 136.928 165.677C134.39 166.329 132.186 165.814 130.648 165.197L130.733 164.249Z" fill="#FAFAFA"/>
<path opacity="0.2" d="M132.007 168.948C132.149 167.436 132.34 166.046 132.592 164.906C131.812 164.718 131.151 164.468 130.733 164.25C130.733 164.255 130.732 164.26 130.732 164.266L130.651 165.173C130.649 165.186 130.648 165.197 130.647 165.211L130.42 168.438C130.42 168.443 130.419 168.447 130.419 168.452C130.886 168.639 131.423 168.81 132.007 168.948Z" fill="black"/>
<path d="M277 150.5C277 220.916 219.916 278 149.5 278C79.0837 278 22 220.916 22 150.5C22 80.0837 79.0837 23 149.5 23C219.916 23 277 80.0837 277 150.5ZM34.9741 150.5C34.9741 213.751 86.2491 265.026 149.5 265.026C212.751 265.026 264.026 213.751 264.026 150.5C264.026 87.2491 212.751 35.9741 149.5 35.9741C86.2491 35.9741 34.9741 87.2491 34.9741 150.5Z" fill="#CB2323"/>
<rect x="77.7791" y="58.8628" width="16.0813" height="232.595" transform="rotate(-35.3086 77.7791 58.8628)" fill="#CB2323"/>
</svg>
