<svg width="300" height="300" viewBox="0 0 300 300" fill="none" xmlns="http://www.w3.org/2000/svg">
<path d="M254.231 247.217C230.852 250.343 206.765 249.04 157.55 245.77C129.915 243.934 74.3491 246.976 46.6136 247.217C26.3933 247.393 10 231.272 10 211.603V151.609V88.9387C10 69.2695 26.4275 52.1675 46.6136 53.3244C65.36 54.3988 92.9332 58.6524 121.676 56.0479C155.862 52.9503 220.749 50.3181 254.231 53.3244C274.367 55.1325 290.845 69.2695 290.845 88.9387V211.603C290.845 231.272 274.264 244.539 254.231 247.217Z" fill="#BAD29B"/>
<path opacity="0.4" d="M270.395 105.278C290.28 105.144 281.576 96.0905 278.453 96.1858C275.329 96.2812 275.043 99.5224 272.755 97.9971C270.467 96.4719 268.37 93.2306 265.224 95.7092C262.078 98.1877 267.226 101.048 262.364 101.429C257.502 101.81 255.119 97.997 253.403 101.143C251.687 104.289 250.543 102.382 247.969 102.573C245.395 102.764 245.586 105.278 248.827 105.278C252.068 105.278 269.564 105.284 270.395 105.278Z" fill="white"/>
<g opacity="0.6">
<path d="M224.338 198.527C224.338 198.527 224.292 117.78 249.05 119.161C272.394 120.462 231.5 175.211 230.193 198.978L224.338 198.527Z" fill="#27B45F"/>
</g>
<path d="M227.126 202.075C227.126 202.075 238.212 153.135 253.667 156.083C269.122 159.031 237.72 187.537 235.023 201.868L227.126 202.075Z" fill="#DBE6C6"/>
<path d="M231.544 201.998C233.228 192.067 238.457 181.94 242.547 175.194C246.981 167.879 251.067 162.855 251.108 162.805L250.796 162.551C250.755 162.601 246.651 167.647 242.203 174.985C238.094 181.762 232.841 191.937 231.148 201.93L231.544 201.998Z" fill="#DBE6C6"/>
<path d="M267.21 196.851C261.966 200.289 266.245 208.582 259.109 209.482C253.072 210.239 252.413 209.909 251.115 212.231C250.67 213.027 250.353 213.887 250.148 214.776C249.902 215.84 249.279 217.51 247.718 218.447C238.178 224.174 218.377 214.424 225.844 201.985C226.383 201.087 227.416 200.424 228.583 199.751C234.915 196.111 238.203 198.396 240.458 188.417C242.714 178.435 254.294 187.051 258.657 184.913C263.021 182.776 266.482 179.891 271.842 183.325C277.205 186.762 272.456 193.418 267.21 196.851Z" fill="#27B45F"/>
<g opacity="0.5">
<path d="M233.292 211.509L232.954 211.272C233.058 211.123 243.734 196.239 273.134 184.144L273.291 184.525C244.002 196.575 233.395 211.361 233.292 211.509Z" fill="#74A1BD"/>
<path d="M247.346 192.96C242.079 190.942 240.316 188.411 240.244 188.305L240.585 188.073C240.602 188.098 242.361 190.609 247.493 192.575L247.346 192.96Z" fill="#74A1BD"/>
<path d="M249.62 196.852C247.776 195.337 246.807 192.505 246.817 188.662C246.825 185.784 247.382 183.316 247.387 183.291L247.789 183.383C247.767 183.479 245.642 193.049 249.882 196.533L249.62 196.852Z" fill="#74A1BD"/>
<path d="M257.17 193.181C256.554 192.971 256.205 192.814 256.189 192.807L256.361 192.432C256.435 192.466 263.789 195.755 271.53 192.509L271.69 192.889C265.452 195.505 259.463 193.967 257.17 193.181Z" fill="#74A1BD"/>
<path d="M264.438 200.605C261.885 199.298 260.609 197.501 259.988 196.224C259.313 194.834 259.246 193.763 259.243 193.718L259.655 193.695C259.657 193.736 259.951 197.845 264.626 200.238L264.438 200.605Z" fill="#74A1BD"/>
</g>
<path d="M260.631 177.346C262.437 176.426 263.266 176.727 263.627 177.434C263.988 178.142 263.743 178.989 261.937 179.909C258.648 181.585 256.406 181.114 256.406 181.114C256.406 181.114 257.294 179.047 260.631 177.346Z" fill="#B2C9C6"/>
<path d="M254.001 176.136C254.561 174.314 255.307 173.951 256.021 174.17C256.735 174.39 257.147 175.11 256.586 176.932C255.565 180.251 253.779 181.457 253.779 181.457C253.779 181.457 252.964 179.503 254.001 176.136Z" fill="#B2C9C6"/>
<path d="M147.511 232.383C215.125 232.383 269.936 227.823 269.936 222.198C269.936 216.573 215.125 212.013 147.511 212.013C79.8982 212.013 25.0869 216.573 25.0869 222.198C25.0869 227.823 79.8982 232.383 147.511 232.383Z" fill="#27B45F"/>
<path opacity="0.4" d="M94.1776 85.373C65.8541 85.1815 78.2516 72.2863 82.7003 72.4221C87.149 72.5579 87.5564 77.1745 90.8152 75.002C94.074 72.8295 97.0612 68.2129 101.542 71.7432C106.023 75.2734 98.6905 79.3469 105.615 79.89C112.54 80.4332 115.935 75.0018 118.379 79.4827C120.823 83.9635 122.452 81.2479 126.118 81.5193C129.784 81.7909 129.513 85.3728 124.896 85.3728C120.28 85.373 95.3612 85.381 94.1776 85.373Z" fill="white"/>
<path opacity="0.4" d="M37.3554 92.9175C9.03184 92.7261 21.4293 79.8308 25.878 79.9665C30.3267 80.1023 30.7341 84.719 33.9929 82.5464C37.2517 80.3739 40.2388 75.7573 44.7196 79.2876C49.2004 82.818 41.8682 86.8914 48.7931 87.4345C55.7179 87.9776 59.1125 82.5464 61.5566 87.0271C64.0006 91.5079 65.63 88.7923 69.2961 89.0638C72.9622 89.3353 72.6907 92.9172 68.0741 92.9172C63.4574 92.9172 38.5389 92.9254 37.3554 92.9175Z" fill="white"/>
<path d="M232.289 218.823L222.03 218.837L153.195 213.808C149.343 213.564 146.322 210.329 146.259 206.381L144.206 77.3392C144.141 73.2636 147.244 69.868 151.224 69.661L220.314 65.505L230.832 65.5149C235.025 65.2965 238.554 68.6888 238.602 72.9838L240.141 211.186C240.19 215.582 236.578 219.095 232.289 218.823Z" fill="#754B1E"/>
<path d="M220.91 218.823L141.816 213.808C137.964 213.564 134.943 210.329 134.88 206.381L132.827 77.3392C132.762 73.2636 135.865 69.868 139.844 69.661L219.453 65.5149C223.646 65.2965 227.175 68.6888 227.223 72.9838L228.761 211.186C228.81 215.582 225.199 219.095 220.91 218.823Z" fill="#B67837"/>
<path d="M152.528 165.924C152.528 165.924 201.613 166.985 203.516 167.102C206.641 167.293 207.57 171.948 203.518 171.878C197.562 171.775 153.64 168.469 152.528 168.385C151.416 168.301 150.698 165.881 152.528 165.924Z" fill="white"/>
<path d="M171.94 206.203C123.354 202.52 45.3749 208.656 45.1084 218.718C48.8541 225.499 85.213 225.389 134.373 225.389C183.533 225.389 221.228 223.446 221.219 218.837C221.21 214.203 202.725 208.536 171.94 206.203Z" fill="#B67837"/>
<path d="M127.155 219.507L127.695 220.262C127.849 220.152 143.359 209.284 168.865 209.868L168.886 208.94C143.052 208.349 127.311 219.395 127.155 219.507Z" fill="#27B45F"/>
<path d="M147.338 212.168C154.453 208.588 156.066 203.381 156.131 203.161L155.241 202.897C155.226 202.946 153.655 207.95 146.921 211.339L147.338 212.168Z" fill="#27B45F"/>
<path d="M155.124 204.296C161.595 200.314 162.132 198.642 159.326 192.976C153.945 195.361 154.449 199.738 155.124 204.296Z" fill="#27B45F"/>
<path d="M151.333 209.018C156.441 210.688 160.666 207.112 161.725 203.995C156.355 203.06 153.121 207.33 151.333 209.018Z" fill="#27B45F"/>
<path d="M147.516 211.65C153.933 207.177 151.759 202.041 151.497 200.217C145.47 203.975 146.533 208.118 147.516 211.65Z" fill="#27B45F"/>
<path d="M177.918 204.162C175.304 205.397 173.451 208.953 173.451 208.953C173.451 208.953 177.375 209.78 179.989 208.545C182.603 207.31 183.489 205.691 182.917 204.481C182.346 203.27 180.532 202.927 177.918 204.162Z" fill="white"/>
<path d="M168.985 213.745C171.598 212.51 173.451 208.954 173.451 208.954C173.451 208.954 169.528 208.127 166.914 209.362C164.3 210.597 163.414 212.216 163.986 213.426C164.557 214.636 166.371 214.98 168.985 213.745Z" fill="white"/>
<path d="M178.243 213.421C177.008 210.807 173.451 208.954 173.451 208.954C173.451 208.954 172.625 212.877 173.86 215.491C175.095 218.105 176.713 218.991 177.924 218.419C179.134 217.848 179.478 216.034 178.243 213.421Z" fill="white"/>
<path d="M168.66 204.486C169.895 207.1 173.451 208.953 173.451 208.953C173.451 208.953 174.278 205.03 173.043 202.416C171.808 199.802 170.189 198.916 168.979 199.488C167.769 200.059 167.425 201.873 168.66 204.486Z" fill="white"/>
<path d="M173.177 208.81C173.254 208.661 175.108 205.147 177.786 203.882C180.703 202.504 182.432 203.106 183.077 204.13C183.121 204.2 183.161 204.273 183.197 204.349C183.735 205.489 183.253 207.345 180.121 208.825C177.444 210.09 173.552 209.291 173.387 209.256L172.988 209.172L173.177 208.81ZM178.05 204.442C176.052 205.386 174.484 207.796 173.936 208.724C175.001 208.891 177.858 209.21 179.857 208.265C182.094 207.208 183.186 205.775 182.637 204.613C182.612 204.56 182.584 204.509 182.553 204.46C181.92 203.456 180.153 203.449 178.05 204.442Z" fill="#96A7E2"/>
<path d="M163.706 213.558C163.367 212.842 163.471 212.015 163.998 211.23C164.534 210.432 165.497 209.689 166.782 209.081C169.459 207.816 173.351 208.616 173.515 208.651L173.915 208.735L173.726 209.096C173.648 209.245 171.794 212.76 169.117 214.025C166.2 215.403 164.471 214.801 163.826 213.777C163.782 213.707 163.742 213.634 163.706 213.558ZM167.046 209.641C165.862 210.201 164.986 210.869 164.512 211.575C164.106 212.181 164.02 212.775 164.265 213.293C164.808 214.446 166.648 214.507 168.852 213.465C170.851 212.521 172.419 210.11 172.967 209.182C171.902 209.016 169.048 208.695 167.046 209.641Z" fill="#96A7E2"/>
<path d="M173.579 215.624C172.314 212.946 173.114 209.054 173.149 208.89L173.233 208.491L173.594 208.679C173.72 208.745 176.698 210.315 178.169 212.647C178.303 212.86 178.422 213.076 178.523 213.288C179.13 214.573 179.401 215.759 179.308 216.716C179.217 217.657 178.772 218.361 178.056 218.7C176.806 219.29 175.315 218.524 174.165 216.699C173.96 216.373 173.763 216.012 173.579 215.624ZM173.681 209.439C173.514 210.504 173.195 213.361 174.139 215.359C174.312 215.725 174.496 216.064 174.689 216.369C175.658 217.907 176.847 218.586 177.792 218.14C178.31 217.895 178.622 217.382 178.692 216.656C178.774 215.81 178.522 214.737 177.963 213.553C177.873 213.363 177.766 213.169 177.645 212.977C176.56 211.256 174.518 209.933 173.681 209.439Z" fill="#96A7E2"/>
<path d="M168.38 204.619C166.901 201.486 167.707 199.746 168.847 199.208C170.097 198.617 171.588 199.384 172.738 201.208C172.943 201.534 173.14 201.896 173.323 202.284C174.588 204.961 173.789 208.853 173.754 209.017L173.67 209.417L173.308 209.228C173.182 209.162 170.204 207.593 168.734 205.26C168.6 205.047 168.481 204.831 168.38 204.619ZM172.764 202.548C172.591 202.183 172.407 201.843 172.215 201.538C171.245 200 170.056 199.321 169.112 199.768C167.95 200.316 167.883 202.117 168.94 204.355C169.03 204.544 169.137 204.738 169.258 204.93C170.343 206.652 172.385 207.975 173.222 208.469C173.389 207.403 173.708 204.547 172.764 202.548Z" fill="#96A7E2"/>
<path d="M179.998 208.724C177.276 207.749 173.451 208.954 173.451 208.954C173.451 208.954 175.641 212.313 178.363 213.288C181.084 214.263 182.856 213.745 183.307 212.485C183.759 211.224 182.72 209.699 179.998 208.724Z" fill="white"/>
<path d="M166.905 209.183C169.627 210.158 173.452 208.954 173.452 208.954C173.452 208.954 171.262 205.594 168.54 204.619C165.819 203.644 164.047 204.163 163.596 205.423C163.144 206.683 164.183 208.208 166.905 209.183Z" fill="white"/>
<path d="M173.681 215.5C174.656 212.778 173.452 208.954 173.452 208.954C173.452 208.954 170.092 211.144 169.117 213.865C168.142 216.587 168.66 218.358 169.921 218.809C171.181 219.261 172.706 218.222 173.681 215.5Z" fill="white"/>
<path d="M173.222 202.407C172.247 205.129 173.451 208.954 173.451 208.954C173.451 208.954 176.811 206.764 177.786 204.042C178.761 201.321 178.243 199.55 176.983 199.098C175.722 198.646 174.197 199.686 173.222 202.407Z" fill="white"/>
<path d="M173.451 210.501C174.306 210.501 174.999 209.808 174.999 208.953C174.999 208.099 174.306 207.406 173.451 207.406C172.596 207.406 171.903 208.099 171.903 208.953C171.903 209.808 172.596 210.501 173.451 210.501Z" fill="#96A7E2"/>
<path d="M171.688 159.018L164.957 146.96C164.188 146.96 162.971 146.897 161.308 146.769V159.018H157.865V130.935C157.991 130.935 158.883 130.886 160.542 130.791C162.2 130.695 163.408 130.647 164.165 130.647C170.225 130.647 173.254 133.331 173.254 138.698C173.254 140.462 172.766 142.05 171.791 143.462C170.815 144.874 169.657 145.752 168.313 146.098L175.63 159.018L171.688 159.018ZM161.308 134.385V143.51C162.134 143.638 162.937 143.701 163.717 143.701C165.783 143.701 167.286 143.331 168.228 142.59C169.168 141.849 169.639 140.526 169.639 138.621C169.639 137.049 169.134 135.919 168.125 135.228C167.114 134.538 165.519 134.193 163.339 134.193C162.995 134.193 162.317 134.257 161.308 134.385Z" fill="white"/>
<path d="M178.814 159.017V130.934H182.257V159.017L178.814 159.017Z" fill="white"/>
<path d="M191.467 148.207V159.018H188.023V130.935C190.629 130.807 192.201 130.743 192.741 130.743C200.062 130.743 203.723 133.471 203.723 138.928C203.723 145.242 200.487 148.398 194.014 148.398C193.624 148.398 192.775 148.334 191.467 148.207ZM191.467 134.385V144.756C192.924 144.884 193.693 144.948 193.773 144.948C198.042 144.948 200.177 143.075 200.177 139.331C200.177 135.906 197.899 134.193 193.343 134.193C192.884 134.193 192.258 134.257 191.467 134.385Z" fill="white"/>
<path d="M202.035 103.071C202.035 114.709 193.514 124.355 182.527 125.293C169.808 126.297 159.553 115.829 159.553 103.071C159.553 94.5129 164.146 87.0826 170.885 83.3441C176.469 80.249 183.073 79.9611 188.813 82.4197C196.568 85.7413 202.035 93.7361 202.035 103.071Z" fill="#779993"/>
<path d="M180.794 122.314C190.919 122.314 199.126 113.698 199.126 103.07C199.126 92.4427 190.919 83.8271 180.794 83.8271C170.669 83.8271 162.462 92.4427 162.462 103.07C162.462 113.698 170.669 122.314 180.794 122.314Z" fill="white"/>
<path d="M189.101 110.92C186.068 106.431 193.104 99.0315 188.009 93.1716C182.914 87.3113 176.424 89.4708 173.088 94.0575C168.235 100.73 175.63 109.949 166.749 115.432C170.104 119.631 175.135 122.315 180.794 122.315C186.605 122.315 191.736 119.492 195.082 115.119C193.23 114.179 190.573 113.098 189.101 110.92Z" fill="#A6C1C7"/>
<path d="M82.626 219.29L83.1661 220.045C83.3198 219.935 98.8298 209.067 124.336 209.651L124.357 208.723C98.5234 208.132 82.782 219.178 82.626 219.29Z" fill="#27B45F"/>
<path d="M102.81 211.952C109.926 208.371 111.538 203.164 111.603 202.944L110.713 202.68C110.699 202.729 109.127 207.733 102.393 211.122L102.81 211.952Z" fill="#27B45F"/>
<path d="M110.597 204.079C117.067 200.097 117.604 198.425 114.798 192.759C109.417 195.145 109.921 199.521 110.597 204.079Z" fill="#27B45F"/>
<path d="M106.806 208.8C111.914 210.47 116.139 206.895 117.198 203.777C111.828 202.842 108.594 207.113 106.806 208.8Z" fill="#27B45F"/>
<path d="M102.989 211.432C109.406 206.959 107.231 201.824 106.969 200C100.942 203.757 102.005 207.901 102.989 211.432Z" fill="#27B45F"/>
<path d="M133.391 203.945C130.777 205.18 128.924 208.736 128.924 208.736C128.924 208.736 132.848 209.563 135.462 208.328C138.076 207.093 138.962 205.474 138.39 204.264C137.818 203.053 136.005 202.71 133.391 203.945Z" fill="white"/>
<path d="M124.457 213.528C127.071 212.293 128.924 208.736 128.924 208.736C128.924 208.736 125 207.909 122.386 209.144C119.772 210.379 118.886 211.998 119.458 213.209C120.03 214.419 121.843 214.763 124.457 213.528Z" fill="white"/>
<path d="M133.716 213.204C132.481 210.59 128.924 208.737 128.924 208.737C128.924 208.737 128.097 212.661 129.332 215.275C130.567 217.888 132.186 218.775 133.397 218.203C134.607 217.631 134.951 215.818 133.716 213.204Z" fill="white"/>
<path d="M124.133 204.27C125.368 206.884 128.924 208.737 128.924 208.737C128.924 208.737 129.751 204.813 128.516 202.199C127.281 199.585 125.662 198.699 124.452 199.271C123.242 199.843 122.898 201.656 124.133 204.27Z" fill="white"/>
<path d="M128.649 208.594C128.727 208.445 130.581 204.93 133.259 203.665C136.176 202.287 137.904 202.89 138.549 203.913C138.594 203.983 138.634 204.056 138.67 204.132C139.208 205.272 138.726 207.128 135.594 208.608C132.917 209.873 129.025 209.074 128.86 209.039L128.461 208.955L128.649 208.594ZM133.523 204.225C131.524 205.169 129.957 207.579 129.409 208.507C130.474 208.674 133.331 208.993 135.33 208.049C137.567 206.991 138.659 205.558 138.11 204.396C138.085 204.343 138.057 204.292 138.026 204.243C137.393 203.239 135.626 203.232 133.523 204.225Z" fill="#96A7E2"/>
<path d="M119.179 213.341C118.84 212.625 118.944 211.798 119.471 211.014C120.007 210.215 120.97 209.472 122.255 208.865C124.932 207.6 128.824 208.399 128.988 208.434L129.387 208.518L129.199 208.88C129.121 209.029 127.267 212.543 124.59 213.808C121.673 215.186 119.944 214.584 119.299 213.56C119.255 213.49 119.215 213.417 119.179 213.341ZM122.519 209.424C121.335 209.984 120.459 210.653 119.985 211.359C119.578 211.964 119.493 212.558 119.738 213.077C120.281 214.23 122.121 214.29 124.325 213.248C126.324 212.304 127.892 209.894 128.439 208.965C127.375 208.799 124.521 208.479 122.519 209.424Z" fill="#96A7E2"/>
<path d="M129.052 215.406C127.787 212.729 128.586 208.837 128.621 208.673L128.705 208.273L129.067 208.462C129.193 208.528 132.171 210.097 133.641 212.43C133.775 212.643 133.894 212.859 133.995 213.071C134.602 214.356 134.873 215.541 134.78 216.499C134.689 217.44 134.244 218.144 133.528 218.482C132.278 219.073 130.787 218.306 129.637 216.482C129.432 216.156 129.235 215.794 129.052 215.406ZM129.153 209.221C128.986 210.287 128.667 213.143 129.612 215.142C129.784 215.507 129.969 215.847 130.161 216.152C131.131 217.69 132.319 218.369 133.264 217.922C133.782 217.678 134.094 217.164 134.165 216.439C134.247 215.592 133.994 214.52 133.435 213.335C133.345 213.146 133.238 212.952 133.117 212.76C132.032 211.039 129.99 209.716 129.153 209.221Z" fill="#96A7E2"/>
<path d="M123.853 204.402C122.373 201.27 123.179 199.53 124.319 198.991C125.569 198.4 127.06 199.167 128.21 200.992C128.416 201.317 128.613 201.679 128.795 202.067C130.06 204.744 129.261 208.636 129.226 208.801L129.142 209.2L128.781 209.011C128.655 208.946 125.676 207.376 124.206 205.043C124.072 204.83 123.953 204.615 123.853 204.402ZM128.236 202.331C128.064 201.966 127.879 201.626 127.687 201.321C126.717 199.783 125.528 199.104 124.584 199.551C123.422 200.099 123.355 201.9 124.412 204.138C124.502 204.327 124.609 204.521 124.73 204.713C125.815 206.435 127.857 207.758 128.695 208.252C128.861 207.186 129.18 204.33 128.236 202.331Z" fill="#96A7E2"/>
<path d="M135.471 208.507C132.749 207.532 128.924 208.736 128.924 208.736C128.924 208.736 131.114 212.096 133.836 213.071C136.557 214.046 138.329 213.528 138.78 212.267C139.232 211.007 138.193 209.482 135.471 208.507Z" fill="white"/>
<path d="M122.377 208.966C125.099 209.941 128.924 208.736 128.924 208.736C128.924 208.736 126.734 205.377 124.012 204.402C121.29 203.427 119.519 203.945 119.068 205.205C118.616 206.466 119.655 207.991 122.377 208.966Z" fill="white"/>
<path d="M129.154 215.283C130.129 212.562 128.924 208.737 128.924 208.737C128.924 208.737 125.565 210.927 124.59 213.648C123.615 216.37 124.133 218.141 125.393 218.593C126.654 219.044 128.179 218.005 129.154 215.283Z" fill="white"/>
<path d="M128.694 202.19C127.719 204.912 128.924 208.737 128.924 208.737C128.924 208.737 132.283 206.547 133.258 203.826C134.233 201.104 133.715 199.333 132.455 198.881C131.195 198.43 129.669 199.469 128.694 202.19Z" fill="white"/>
<path d="M128.262 207.337C127.489 207.702 127.159 208.625 127.524 209.398C127.889 210.171 128.811 210.501 129.584 210.136C130.357 209.771 130.687 208.848 130.322 208.075C129.957 207.303 129.035 206.972 128.262 207.337Z" fill="#96A7E2"/>
<path d="M103.768 217.462L104.513 217.835C104.589 217.683 112.342 202.561 132.825 192.337L132.454 191.592C111.707 201.947 103.845 217.308 103.768 217.462Z" fill="#27B45F"/>
<path d="M116.709 203.181C120.854 197.359 119.952 192.551 119.912 192.35L119.095 192.513C119.104 192.558 119.954 197.187 116.03 202.698L116.709 203.181Z" fill="#27B45F"/>
<path d="M119.588 193.672C123.054 187.801 122.779 186.249 118.179 182.93C114.909 187.077 117.142 190.338 119.588 193.672Z" fill="#27B45F"/>
<path d="M118.559 199.008C123.311 198.193 125.166 193.585 124.7 190.668C120.047 192.176 119.271 196.919 118.559 199.008Z" fill="#27B45F"/>
<path d="M116.633 202.695C119.85 196.457 115.973 193.293 115.001 191.956C111.793 197.462 114.372 200.305 116.633 202.695Z" fill="#27B45F"/>
<path d="M137.619 184.015C136.063 186.09 136.083 189.688 136.083 189.688C136.083 189.688 139.543 188.701 141.099 186.625C142.656 184.55 142.681 182.894 141.72 182.173C140.759 181.453 139.176 181.94 137.619 184.015Z" fill="white"/>
<path d="M134.546 195.362C136.102 193.287 136.083 189.689 136.083 189.689C136.083 189.689 132.623 190.677 131.066 192.752C129.509 194.827 129.485 196.483 130.445 197.204C131.406 197.925 132.989 197.438 134.546 195.362Z" fill="white"/>
<path d="M141.756 191.226C139.681 189.669 136.083 189.689 136.083 189.689C136.083 189.689 137.07 193.149 139.146 194.706C141.221 196.262 142.877 196.287 143.598 195.326C144.318 194.365 143.831 192.782 141.756 191.226Z" fill="white"/>
<path d="M130.409 188.153C132.484 189.709 136.083 189.689 136.083 189.689C136.083 189.689 135.095 186.229 133.019 184.673C130.944 183.116 129.288 183.091 128.568 184.052C127.847 185.013 128.334 186.596 130.409 188.153Z" fill="white"/>
<path d="M135.805 189.691C135.804 189.54 135.803 185.975 137.397 183.849C139.134 181.533 140.759 181.287 141.699 181.828C141.763 181.866 141.826 181.907 141.886 181.952C142.791 182.631 143.186 184.306 141.321 186.793C139.727 188.918 136.304 189.915 136.159 189.956L135.807 190.057L135.805 189.691ZM137.841 184.183C136.651 185.769 136.417 188.338 136.371 189.304C137.286 188.99 139.687 188.046 140.877 186.459C142.21 184.683 142.475 183.088 141.553 182.397C141.511 182.365 141.467 182.336 141.422 182.31C140.499 181.778 139.094 182.513 137.841 184.183Z" fill="#7F94D4"/>
<path d="M130.278 197.427C129.71 197 129.446 196.301 129.535 195.457C129.626 194.599 130.078 193.606 130.843 192.586C132.438 190.46 135.861 189.464 136.006 189.422L136.358 189.322L136.36 189.688C136.361 189.839 136.362 193.404 134.768 195.53C133.031 197.845 131.406 198.092 130.465 197.55C130.401 197.513 130.339 197.472 130.278 197.427ZM131.288 192.919C130.583 193.859 130.168 194.757 130.087 195.515C130.019 196.166 130.2 196.673 130.612 196.982C131.526 197.669 133.01 196.947 134.323 195.196C135.514 193.609 135.748 191.04 135.793 190.074C134.879 190.388 132.48 191.33 131.288 192.919Z" fill="#7F94D4"/>
<path d="M138.979 194.928C136.854 193.333 135.857 189.91 135.816 189.765L135.715 189.413L136.081 189.411C136.209 189.41 139.23 189.408 141.374 190.643C141.569 190.756 141.754 190.877 141.923 191.004C142.943 191.769 143.655 192.596 143.982 193.394C144.304 194.179 144.246 194.924 143.82 195.493C143.076 196.485 141.572 196.502 139.895 195.536C139.595 195.363 139.287 195.159 138.979 194.928ZM136.468 189.978C136.782 190.893 137.726 193.293 139.313 194.483C139.603 194.701 139.892 194.893 140.172 195.055C141.586 195.869 142.813 195.909 143.376 195.159C143.685 194.748 143.717 194.21 143.469 193.605C143.18 192.899 142.53 192.153 141.59 191.448C141.439 191.335 141.273 191.226 141.096 191.124C139.514 190.213 137.339 190.019 136.468 189.978Z" fill="#7F94D4"/>
<path d="M130.242 188.374C127.756 186.509 127.666 184.79 128.345 183.885C129.089 182.893 130.594 182.876 132.271 183.842C132.57 184.014 132.878 184.219 133.185 184.45C135.311 186.044 136.308 189.468 136.349 189.613L136.45 189.965L136.083 189.967C135.956 189.967 132.935 189.969 130.791 188.735C130.596 188.622 130.411 188.501 130.242 188.374ZM132.852 184.894C132.562 184.677 132.274 184.485 131.993 184.323C130.579 183.509 129.351 183.469 128.789 184.218C128.098 185.14 128.799 186.597 130.575 187.93C130.726 188.043 130.892 188.152 131.068 188.254C132.651 189.165 134.826 189.359 135.697 189.4C135.383 188.485 134.439 186.084 132.852 184.894Z" fill="#7F94D4"/>
<path d="M141.181 186.764C138.613 187.131 136.083 189.689 136.083 189.689C136.083 189.689 139.228 191.437 141.796 191.07C144.364 190.704 145.552 189.55 145.383 188.361C145.213 187.172 143.749 186.397 141.181 186.764Z" fill="white"/>
<path d="M130.984 192.614C133.553 192.247 136.083 189.689 136.083 189.689C136.083 189.689 132.938 187.941 130.37 188.308C127.802 188.675 126.613 189.828 126.783 191.017C126.953 192.206 128.416 192.981 130.984 192.614Z" fill="white"/>
<path d="M139.008 194.787C138.641 192.219 136.083 189.689 136.083 189.689C136.083 189.689 134.335 192.834 134.701 195.402C135.068 197.97 136.221 199.159 137.411 198.989C138.6 198.819 139.374 197.356 139.008 194.787Z" fill="white"/>
<path d="M133.158 184.59C133.524 187.159 136.083 189.689 136.083 189.689C136.083 189.689 137.831 186.544 137.464 183.976C137.097 181.408 135.944 180.219 134.755 180.389C133.566 180.559 132.791 182.022 133.158 184.59Z" fill="white"/>
<path d="M134.971 188.856C134.511 189.469 134.635 190.34 135.249 190.8C135.862 191.26 136.733 191.136 137.193 190.522C137.653 189.909 137.529 189.038 136.916 188.578C136.302 188.118 135.431 188.242 134.971 188.856Z" fill="#7F94D4"/>
<path d="M44.9167 118.588L44.8413 119.627C45.0527 119.643 66.2453 121.392 87.8487 140.204L88.5332 139.418C66.6522 120.364 45.1317 118.603 44.9167 118.588Z" fill="#27B45F"/>
<path d="M67.6128 126.739C76.3265 128.755 81.4564 125.416 81.6704 125.273L81.0915 124.407C81.0433 124.439 76.0953 127.631 67.848 125.723L67.6128 126.739Z" fill="#27B45F"/>
<path d="M79.9863 125.53C88.4313 126.737 90.0954 125.678 91.7391 118.772C85.3811 116.969 82.6751 121.11 79.9863 125.53Z" fill="#27B45F"/>
<path d="M73.3232 126.887C76.5347 131.995 82.7496 131.941 85.9011 130.009C81.9359 125.347 76.0785 126.713 73.3232 126.887Z" fill="#27B45F"/>
<path d="M99.7622 141.776C96.6188 140.967 92.4663 142.707 92.4663 142.707C92.4663 142.707 95.2608 146.237 98.4042 147.047C101.548 147.857 103.475 147.095 103.85 145.64C104.225 144.184 102.906 142.586 99.7622 141.776Z" fill="white"/>
<path d="M85.1709 143.638C88.3143 144.448 92.4668 142.708 92.4668 142.708C92.4668 142.708 89.6724 139.177 86.529 138.368C83.3856 137.558 81.4586 138.319 81.0836 139.775C80.7086 141.23 82.0275 142.828 85.1709 143.638Z" fill="white"/>
<path d="M93.3977 150.003C94.2076 146.86 92.4671 142.707 92.4671 142.707C92.4671 142.707 88.9366 145.501 88.1268 148.645C87.3169 151.788 88.0787 153.715 89.5343 154.09C90.9897 154.465 92.5878 153.146 93.3977 150.003Z" fill="white"/>
<path d="M91.5352 135.411C90.7253 138.555 92.4658 142.707 92.4658 142.707C92.4658 142.707 95.9963 139.913 96.8061 136.769C97.616 133.626 96.8542 131.699 95.3987 131.324C93.9432 130.949 92.345 132.268 91.5352 135.411Z" fill="white"/>
<path d="M92.3315 142.386C92.5053 142.313 96.6288 140.61 99.8486 141.44C103.356 142.343 104.417 144.104 104.239 145.451C104.227 145.543 104.209 145.635 104.186 145.727C103.833 147.097 102.084 148.354 98.317 147.384C95.0975 146.554 92.3105 143.07 92.1934 142.922L91.9092 142.563L92.3315 142.386ZM99.675 142.113C97.2717 141.493 94.1887 142.449 93.0491 142.857C93.8496 143.765 96.087 146.091 98.4906 146.711C101.181 147.404 103.153 146.95 103.513 145.553C103.529 145.489 103.542 145.425 103.55 145.36C103.725 144.039 102.203 142.764 99.675 142.113Z" fill="#7F94D4"/>
<path d="M80.7465 139.686C80.9686 138.825 81.6515 138.186 82.6697 137.887C83.7058 137.582 85.0704 137.631 86.6157 138.029C89.8352 138.859 92.6218 142.343 92.7389 142.491L93.0232 142.85L92.6007 143.027C92.4269 143.1 88.3034 144.803 85.0836 143.973C81.5758 143.07 80.5154 141.309 80.693 139.962C80.7052 139.87 80.7232 139.778 80.7465 139.686ZM86.4421 138.702C85.0182 138.335 83.7816 138.284 82.8659 138.553C82.0804 138.784 81.5804 139.236 81.4198 139.86C81.0612 141.245 82.6057 142.618 85.2573 143.3C87.6609 143.92 90.7442 142.964 91.8836 142.556C91.0841 141.648 88.8493 139.323 86.4421 138.702Z" fill="#7F94D4"/>
<path d="M87.7888 148.558C88.6182 145.339 92.1023 142.552 92.2501 142.435L92.6093 142.15L92.7863 142.573C92.8481 142.72 94.2926 146.213 93.8878 149.282C93.8509 149.562 93.7986 149.834 93.733 150.09C93.3349 151.635 92.7187 152.854 91.9511 153.613C91.1968 154.36 90.3072 154.649 89.446 154.427C87.943 154.04 87.206 152.308 87.5225 149.907C87.5792 149.478 87.6687 149.025 87.7888 148.558ZM92.3155 143.29C91.4075 144.091 89.0812 146.328 88.4619 148.732C88.3486 149.171 88.2644 149.597 88.2114 149.998C87.9444 152.022 88.4839 153.461 89.6196 153.754C90.2432 153.915 90.8806 153.695 91.4624 153.119C92.1406 152.448 92.6929 151.34 93.0596 149.916C93.1185 149.688 93.1654 149.444 93.1987 149.191C93.4975 146.926 92.6837 144.318 92.3155 143.29Z" fill="#7F94D4"/>
<path d="M91.1994 135.324C92.1701 131.558 94.1154 130.634 95.4863 130.987C96.9892 131.374 97.7263 133.106 97.4096 135.507C97.3531 135.936 97.2635 136.39 97.1432 136.856C96.3134 140.075 92.8298 142.862 92.6818 142.979L92.3226 143.264L92.1456 142.841C92.0838 142.694 90.6393 139.201 91.0441 136.132C91.0811 135.852 91.1334 135.58 91.1994 135.324ZM96.4703 136.682C96.5837 136.243 96.6679 135.817 96.7207 135.416C96.9878 133.392 96.4482 131.953 95.3126 131.66C93.9161 131.3 92.5655 132.806 91.8722 135.498C91.8133 135.726 91.7665 135.97 91.7331 136.223C91.4344 138.487 92.2481 141.096 92.6164 142.124C93.5246 141.323 95.8512 139.086 96.4703 136.682Z" fill="#7F94D4"/>
<path d="M98.2837 147.208C96.6336 144.413 92.4666 142.707 92.4666 142.707C92.4666 142.707 91.9461 147.179 93.5961 149.975C95.2461 152.77 97.1474 153.594 98.4418 152.83C99.7363 152.066 99.9337 150.003 98.2837 147.208Z" fill="white"/>
<path d="M86.6491 138.206C88.2991 141.002 92.4662 142.707 92.4662 142.707C92.4662 142.707 92.9867 138.235 91.3367 135.439C89.6867 132.644 87.7854 131.82 86.491 132.584C85.1965 133.348 84.9991 135.411 86.6491 138.206Z" fill="white"/>
<path d="M87.9649 148.525C90.7603 146.875 92.4659 142.708 92.4659 142.708C92.4659 142.708 87.9935 142.187 85.1982 143.837C82.4028 145.487 81.5788 147.389 82.3429 148.683C83.1069 149.977 85.1694 150.175 87.9649 148.525Z" fill="white"/>
<path d="M96.9672 136.89C94.1718 138.54 92.4663 142.707 92.4663 142.707C92.4663 142.707 96.9387 143.227 99.7341 141.577C102.529 139.927 103.353 138.026 102.589 136.732C101.825 135.437 99.7627 135.24 96.9672 136.89Z" fill="white"/>
<path d="M94.1404 143.19C94.4059 142.268 93.8734 141.305 92.9511 141.04C92.0288 140.774 91.0659 141.307 90.8005 142.229C90.535 143.151 91.0675 144.114 91.9898 144.38C92.9121 144.645 93.875 144.113 94.1404 143.19Z" fill="#7F94D4"/>
<path d="M37.473 117.4C37.473 117.4 51.8799 145.66 46.0299 144.437C38.9116 142.948 31.984 114.88 37.473 117.4Z" fill="#331832"/>
<path d="M46.8948 144.471C46.7601 144.478 46.6267 144.479 46.4937 144.471L46.4905 144.47L46.4897 144.469C46.0065 144.442 45.5355 144.307 45.0804 144.083C45.072 144.079 45.0652 144.075 45.057 144.072L45.0475 144.066C45.0457 144.065 45.0436 144.065 45.0424 144.063C45.0346 144.061 45.0268 144.056 45.0208 144.053C43.6247 143.341 42.3639 141.789 41.255 139.816C41.2504 139.806 41.2447 139.796 41.2395 139.787C41.2373 139.784 41.2365 139.781 41.2341 139.777C38.8333 135.492 37.1476 129.251 36.3631 125.351C35.4364 120.744 36.3977 117.365 36.3977 117.365C36.3977 117.365 36.386 117.367 36.3594 117.371C36.3594 117.371 36.3586 117.371 36.3567 117.372C36.3567 117.372 36.3567 117.372 36.3553 117.372C36.3364 117.376 17.3581 124.331 10 126.545V136.344V164.676C22.4329 158.01 46.8948 144.471 46.8948 144.471Z" fill="#27B45F"/>
<path d="M55.0605 107.246C55.0605 107.246 61.7135 97.4601 63.0716 97.4311C65.6906 97.3754 62.4221 102.36 62.4221 102.36L55.0605 107.246Z" fill="#FFF9F5"/>
<path d="M37.7269 118.237C41.3614 116.225 43.7879 114.609 46.2567 113.2C52.3451 109.726 65.1032 105.108 69.9149 108.981C74.7267 112.854 73.974 124.438 71.2611 125.372C68.5482 126.306 66.2608 116.276 64.1222 115.934C61.9836 115.592 55.7521 125.141 56.8344 126.293C57.9166 127.445 68.2359 123.854 69.1653 127.656C69.1653 127.656 69.1726 130.081 63.6652 131.808C60.6819 132.743 56.5402 135.871 50.9203 136.778C48.7091 137.135 45.5311 137.741 44.0291 137.562C41.4578 137.256 35.7353 119.339 37.7269 118.237Z" fill="#FFF9F5"/>
<path d="M48.3579 112.091C48.3579 112.091 59.1848 103.036 65.4106 102.525C71.6364 102.014 76.02 102.641 76.0094 105.259C75.9988 107.878 64.5742 110.488 64.5742 110.488L48.3579 112.091Z" fill="#FFF9F5"/>
<path d="M42.3022 115.634C46.3552 112.287 69.8276 96.4693 71.538 97.2186C74.8512 98.67 66.5858 105.02 66.5858 105.02L42.3022 115.634Z" fill="#FFF9F5"/>
<path d="M70.0732 109.073C70.1119 109.007 70.1063 108.921 70.0531 108.86C69.9787 108.775 68.1993 106.774 65.4638 106.605C63.661 106.493 61.8812 107.21 60.1734 108.734C60.0981 108.802 60.0915 108.917 60.1588 108.993C60.2261 109.068 60.3418 109.075 60.4171 109.007C62.0479 107.551 63.7369 106.865 65.4372 106.969C68.0188 107.127 69.7604 109.081 69.7778 109.101C69.8444 109.177 69.9599 109.185 70.0359 109.118C70.0511 109.105 70.0635 109.09 70.0732 109.073Z" fill="#E9845C"/>
<path d="M69.7772 102.459C69.7923 102.434 69.8013 102.404 69.8022 102.372C69.805 102.271 69.7255 102.187 69.6246 102.184C69.4315 102.179 64.8733 102.061 62.925 103.143C61.0031 104.21 58.3109 106.579 58.1972 106.679C58.1214 106.746 58.1142 106.861 58.1811 106.937C58.2479 107.013 58.3636 107.02 58.4393 106.953C58.4669 106.929 61.2155 104.511 63.1026 103.463C64.9633 102.429 69.5677 102.548 69.6141 102.55C69.6832 102.552 69.7445 102.515 69.7772 102.459Z" fill="#E9845C"/>
<path d="M68.3081 126.043C77.0596 126.787 78.6981 121.169 79.7812 119.406C71.8804 118.324 69.9936 122.288 68.3081 126.043Z" fill="#6CA69B"/>
<path d="M68.5994 182.061C67.2355 183.752 65.3815 184.977 63.4731 186.016C60.2328 187.78 56.741 189.078 53.1374 189.866C52.5376 189.999 51.934 190.116 51.3288 190.219L50.6363 186.837L52.173 186.124L51.6919 181.009L54.1759 179.804L54.1835 176.981L55.0355 176.543L55.1438 172.3L57.9757 169.669C60.473 168.673 63.2825 167.974 65.8239 168.849C66.937 169.232 67.9215 169.915 68.712 170.783C69.6924 171.861 70.3744 173.226 70.6319 174.663C71.0971 177.259 70.2551 180.009 68.5994 182.061Z" fill="#E25D5D"/>
<path d="M48.9385 188.929L48.1007 189.599C44.8628 185.83 42.3745 181.421 40.8224 176.701C40.1627 174.695 39.6664 172.592 39.8264 170.486C40.0204 167.929 41.2557 165.422 43.3145 163.894C45.3724 162.365 48.2544 161.924 50.5915 162.977C52.9747 164.051 54.4988 166.417 55.605 168.785L53.1652 171.275L53.0742 174.786L52.1469 175.187L52.5655 177.561L50.1164 178.52L50.1839 183.867L48.6041 184.422L48.9385 188.929Z" fill="#E25D5D"/>
</svg>
