<svg width="300" height="300" viewBox="0 0 300 300" fill="none" xmlns="http://www.w3.org/2000/svg">
<g filter="url(#filter0_d_600_2459)">
<path d="M87.4305 65.2865C87.4282 65.1214 87.422 64.9557 87.4034 64.7882C87.3848 64.6197 87.3916 64.4602 87.4181 64.3102C87.3944 63.7544 87.3515 63.1964 87.2743 62.6265C87.1604 61.786 88.2016 60.8898 89.0009 61.3886C92.8154 63.7691 96.45 66.4179 99.8463 69.3671C101.346 70.6698 102.902 71.9933 104.149 73.5491C105.275 74.9532 106.074 76.7058 105.821 78.5406C105.661 79.7051 105 80.7316 104.75 81.8421C104.634 82.355 104.618 82.5738 104.691 83.0247C104.695 83.0546 104.698 83.0726 104.701 83.0918C104.704 83.0929 104.71 83.1025 104.722 83.1386C104.726 83.1482 104.736 83.1718 104.749 83.2C106.779 82.0963 108.555 80.5039 110.194 78.9086C110.534 78.5778 111.022 78.4786 111.418 78.8004C113.518 80.5078 115 82.695 115.583 85.3578C116.188 88.1188 115.547 90.9677 113.999 93.3064C113.574 93.9479 113.078 94.5307 112.515 95.055C112.467 95.1001 112.416 95.1429 112.367 95.188C112.286 95.4253 112.261 95.5403 112.308 95.7568C112.356 95.9805 112.499 96.1547 112.542 96.1902C112.944 96.5183 113.47 96.5781 114.101 96.5769C115.71 96.5735 117.429 95.6423 119.146 95.5533C121.133 95.4501 122.907 96.5414 123.693 98.3723C124.346 99.8937 124.508 101.641 124.418 103.283C124.333 104.853 123.963 106.53 123.036 107.832C121.999 109.289 120.443 110.02 118.678 110.094C117.123 110.16 115.489 109.559 113.956 109.883C112.586 110.173 112.049 111.674 112.1 112.946C112.161 114.442 112.939 115.876 113.931 116.96C116.162 119.397 119.724 120.036 122.686 118.58C123.428 118.215 124.077 117.74 124.668 117.162C125.244 116.6 126.215 116.988 126.384 117.723C127.897 124.327 125.83 131.418 121.25 136.357C120.629 137.026 119.962 137.675 119.239 138.235C118.502 138.806 117.57 139.228 116.723 139.612C116.535 139.696 116.348 139.663 116.194 139.573C112.32 141.16 107.947 141.052 103.83 141.048C99.3671 141.044 94.9129 140.661 90.918 138.505C87.3752 136.593 84.5359 133.574 81.9649 130.532C79.1053 127.149 75.6758 122.618 78.1037 118.074C78.4999 117.333 79.5354 117.282 80.178 117.657C80.4255 117.802 80.7682 117.861 81.0016 117.826C81.4537 117.759 81.8381 117.591 82.1487 117.362C82.5985 117.031 82.7969 116.8 83.0754 116.348C83.3071 115.972 83.4361 115.506 83.4395 115.008C83.4559 112.712 81.3099 110.828 79.3844 109.737C78.0664 108.99 76.6459 108.447 75.2672 107.827C74.5592 107.509 73.8563 107.174 73.1714 106.808C72.6838 106.547 72.2683 106.25 72.1432 105.665C72.0451 105.206 72.0902 104.637 72.0992 104.169C72.1607 101.113 73.0226 98.1079 74.4904 95.436C75.1601 94.2162 76.0203 92.6655 77.3511 92.0821C79.1487 91.294 80.6245 92.6204 82.0111 93.573C83.0855 94.3109 84.2772 95.0155 85.6159 95.0397C86.4998 95.0561 87.5556 94.7213 87.9423 93.8301C88.0888 93.4919 88.1041 93.0899 88.0313 92.6976C87.9271 92.1379 87.6954 91.6339 87.3882 91.1424C86.7332 90.0945 85.7676 89.3465 84.7958 88.6137C82.5698 86.9345 80.2355 85.0624 79.8979 82.0895C79.5134 78.7085 81.3657 75.5716 83.3741 73.0074C85.0111 70.9172 87.325 68.3829 87.4259 65.5554C87.4282 65.4652 87.4288 65.3756 87.4305 65.2865Z" fill="#BAD29B"/>
<path d="M84.3528 78.6341C85.4559 77.9368 86.8905 78.0839 88.1087 78.3826C89.4271 78.7062 90.6481 79.2693 91.7867 80.0027C92.9908 80.7783 94.0178 81.7777 94.975 82.8358C95.1987 83.0832 95.4129 83.338 95.6238 83.5962C94.4812 79.4384 93.2179 75.3049 91.8144 71.2306C91.6081 70.6319 92.493 70.3027 92.7337 70.8873C93.7286 73.3032 94.6463 75.7451 95.4941 78.2118C95.4953 78.2096 95.4964 78.2068 95.4981 78.204C95.6457 77.9075 95.847 77.6205 96.0381 77.3505C96.4411 76.7795 96.8842 76.253 97.3746 75.7547C97.8549 75.266 98.3565 74.7818 98.918 74.3878C99.4664 74.0033 100.094 73.8015 100.743 73.6584C100.884 73.6274 100.945 73.8123 100.875 73.9081C100.496 74.4261 100.121 74.925 99.6553 75.368C99.197 75.8043 98.7167 76.2136 98.2754 76.6685C97.8357 77.1222 97.409 77.5946 97.002 78.0777C96.794 78.3246 96.599 78.5963 96.3746 78.828C96.2292 78.9785 96.0505 79.1656 95.8476 79.2524C96.3058 80.6261 96.7483 82.0055 97.1548 83.3984C98.1931 86.9575 99.1006 90.5561 99.8926 94.1789C100.163 93.7516 100.464 93.3452 100.768 92.9405C101.491 91.9771 102.247 91.0352 103.044 90.1322C103.841 89.2292 104.692 88.369 105.562 87.537C106.417 86.7196 107.315 85.8916 108.495 85.6052C108.653 85.5669 108.807 85.6999 108.737 85.8651C108.296 86.9118 107.465 87.6818 106.668 88.4625C105.864 89.2511 105.09 90.0691 104.339 90.9089C103.588 91.75 102.847 92.5972 102.145 93.4788C101.785 93.9292 101.448 94.3971 101.088 94.8463C100.925 95.0498 100.754 95.2488 100.575 95.4388C100.486 95.5329 100.35 95.6287 100.226 95.7302C100.269 95.9376 100.317 96.1434 100.359 96.3508C101.46 101.727 102.225 107.187 102.703 112.668C102.945 112.196 103.211 111.738 103.496 111.287C104.387 109.875 105.333 108.498 106.325 107.154C107.315 105.812 108.352 104.509 109.448 103.251C109.976 102.646 110.505 102.03 111.068 101.456C111.37 101.148 111.69 100.839 112.052 100.603C112.414 100.368 112.812 100.225 113.183 100.006C113.355 99.9043 113.643 100.073 113.518 100.284C113.309 100.638 113.181 101.016 112.973 101.368C112.777 101.696 112.552 101.991 112.303 102.281C111.777 102.891 111.213 103.47 110.682 104.076C109.621 105.288 108.589 106.529 107.599 107.801C106.61 109.073 105.664 110.378 104.765 111.715C104.307 112.395 103.841 113.077 103.448 113.797C103.265 114.133 103.103 114.48 102.931 114.823C102.913 114.86 102.895 114.9 102.877 114.938C103.066 117.533 103.199 120.129 103.267 122.722C103.311 124.437 103.327 126.152 103.315 127.868C103.366 128.043 103.413 128.221 103.459 128.407C103.504 128.588 103.426 128.734 103.305 128.803C103.3 129.23 103.295 129.656 103.286 130.083C103.266 131.033 103.236 131.983 103.2 132.932C103.347 132.654 103.499 132.38 103.651 132.111C104.314 130.939 105.076 129.8 105.9 128.736C107.571 126.579 109.573 124.635 111.751 122.994C112.875 122.147 114.238 120.933 115.744 121.15C115.92 121.176 116.007 121.366 115.943 121.522C115.445 122.738 114.151 123.345 113.145 124.088C112.114 124.849 111.118 125.67 110.183 126.546C108.297 128.312 106.595 130.315 105.142 132.451C104.439 133.484 103.827 134.604 103.072 135.603C103.068 135.667 103.066 135.731 103.062 135.796C103.045 136.083 103.039 136.374 103.008 136.66C102.97 137.013 102.841 137.346 102.731 137.683C102.634 137.98 102.247 138.143 101.959 138.097C101.626 138.044 101.412 137.774 101.354 137.456C101.153 136.346 101.324 135.195 101.376 134.071C101.425 132.995 101.469 131.918 101.497 130.841C101.531 129.549 101.544 128.256 101.546 126.964C101.517 126.92 101.488 126.875 101.458 126.832C101.007 126.184 100.568 125.529 100.089 124.901C99.1401 123.653 98.0944 122.485 96.9575 121.406C94.6401 119.208 92.0026 117.456 89.1256 116.08C88.2282 115.65 87.3122 115.261 86.3894 114.89C85.9272 114.705 85.4582 114.538 85.0129 114.316C84.7603 114.189 84.5005 114.065 84.2942 113.867C84.1307 113.711 84.0507 113.493 83.9537 113.292C83.8748 113.13 83.9949 112.937 84.1442 112.874C84.554 112.701 84.8708 112.652 85.3116 112.761C85.8133 112.886 86.2902 113.067 86.7705 113.256C87.6447 113.601 88.5134 113.959 89.3679 114.351C90.9243 115.065 92.4045 115.926 93.8115 116.902C96.4744 118.748 98.843 121.028 100.803 123.607C101.052 123.934 101.297 124.268 101.536 124.605C101.535 124.518 101.536 124.431 101.535 124.344C101.469 119.941 101.215 115.542 100.778 111.16C100.629 109.67 100.452 108.182 100.263 106.694C99.9991 106.506 99.7415 106.308 99.4839 106.126C98.9168 105.726 98.3593 105.317 97.7624 104.961C96.5099 104.214 95.2337 103.543 93.8617 103.04C92.5133 102.544 91.1069 102.21 89.6842 102.016C88.988 101.921 88.2885 101.883 87.5889 101.821C86.8669 101.756 86.1961 101.605 85.5089 101.39C85.324 101.332 85.3894 101.09 85.5219 101.022C85.7581 100.901 86.0027 100.756 86.2569 100.682C86.5427 100.598 86.8499 100.562 87.1425 100.511C87.7502 100.404 88.3916 100.457 89.0021 100.509C90.1706 100.608 91.3256 100.814 92.4558 101.128C94.7546 101.766 96.993 102.756 98.9095 104.189C99.2731 104.462 99.6739 104.762 100.057 105.094C99.1739 98.6563 97.9112 92.2601 96.2698 85.9812C96.0928 85.8031 95.9236 85.6131 95.7483 85.4209C95.2901 84.9181 94.816 84.431 94.3363 83.9496C93.3724 82.9829 92.3408 82.0934 91.2022 81.3369C90.2535 80.7062 89.1746 80.2017 88.0681 79.9249C87.4937 79.7812 86.9148 79.713 86.3268 79.6532C85.7254 79.5918 85.1465 79.6154 84.5518 79.492C84.1685 79.4136 83.9836 78.868 84.3528 78.6341Z" fill="#DBE6C6"/>
<path d="M240.674 121.663C239.973 120.421 238.638 120.088 237.448 120.897C235.9 121.95 234.172 123.18 232.246 123.33C231.131 123.417 229.848 122.899 229.352 121.841C228.956 120.995 229.768 120.28 230.548 119.779C231.938 118.886 233.494 118.302 234.78 117.238C240.121 112.817 239.942 104.972 238.141 98.9155C236.798 94.402 234.693 90.1096 234.102 85.3977C233.934 84.0583 232.396 83.2647 231.193 83.8165C223.856 87.1823 215.977 90.9511 211.748 98.2081C209.817 101.52 208.74 105.222 209.071 109.075C209.208 110.677 209.712 112.29 209.648 113.904C209.598 115.169 209.091 116.088 207.941 116.192C203.774 116.57 203.151 110.787 202.844 107.802C202.678 106.184 200.709 105.647 199.527 106.524C195.875 109.236 192.263 112.17 190.07 116.24C188.132 119.837 187.595 124.605 189.512 128.328C190.49 130.229 192.01 131.535 193.634 132.868C194.717 133.757 196.037 135.031 195.761 136.217C195.675 136.585 195.545 136.868 195.149 137.326C194.903 137.611 194.233 138.092 193.787 138.307C192.677 138.838 191.38 139.059 190.277 138.724C186.358 137.533 184.676 132.438 183.42 129.03C182.995 127.876 181.289 127.497 180.392 128.311C177.129 131.272 175.821 135.492 176.032 139.817C176.256 144.42 178.45 148.637 181.44 152.06C183.048 153.899 184.877 155.553 186.773 157.09C187.639 157.793 188.524 158.47 189.42 159.134C190.095 159.634 191.287 160.247 191.554 161.119C192.053 162.75 189.704 164.194 188.436 164.501C186.278 165.025 184.069 164.545 182.098 163.607C177.17 161.258 174.507 155.991 172.106 151.381C171.238 149.715 168.872 150.09 168.539 151.932C166.087 165.511 173.848 179.473 185.733 185.955C186.433 186.336 187.149 186.686 187.876 187.011C189.053 187.683 190.27 188.285 191.493 188.813C197.455 191.383 203.973 192.187 210.42 191.889C217.057 191.581 223.851 190.107 230.037 187.681C235.676 185.469 241.021 181.919 243.914 176.451C246.785 171.026 246.912 163.803 242.752 158.994C242.192 158.347 241.32 158.143 240.532 158.466C238.127 159.451 234.782 160.682 232.225 159.566C229.217 158.253 230.564 154.695 232.283 152.878C234.965 150.043 239.203 149.429 242.575 147.74C243.483 147.286 244.622 146.763 245.32 146.02C246.138 145.149 245.952 143.565 245.962 142.448C245.984 140.189 245.853 137.928 245.521 135.692C244.789 130.771 243.117 125.992 240.674 121.663Z" fill="#BAD29B"/>
<path d="M233.556 106.322C233.284 105.393 231.617 105.926 231.016 106.074C229.946 106.337 228.888 106.888 227.907 107.384C226.948 107.868 226.018 108.411 225.124 109.008C224.466 109.447 223.819 109.915 223.2 110.413C223.565 109.461 223.924 108.508 224.302 107.562C225.548 104.443 227.054 101.391 228.122 98.2085C228.381 97.4374 227.238 96.9943 226.834 97.6657C225.284 100.245 224.158 103.114 222.97 105.874C221.806 108.578 220.688 111.302 219.614 114.043C218.898 115.872 218.211 117.713 217.539 119.56C217.536 119.545 217.532 119.528 217.528 119.513C217.16 117.849 216.692 116.199 216.204 114.567C215.727 112.974 215.208 111.393 214.622 109.837C214.314 109.018 214.009 108.193 213.658 107.392C213.505 107.044 213.33 106.699 213.116 106.383C212.861 106.006 212.494 105.804 212.198 105.469C212.021 105.27 211.629 105.421 211.653 105.695C211.686 106.089 211.587 106.47 211.642 106.866C211.696 107.249 211.818 107.634 211.945 107.999C212.218 108.783 212.539 109.552 212.819 110.333C213.38 111.899 213.92 113.473 214.413 115.061C214.893 116.607 215.329 118.167 215.723 119.737C215.925 120.54 216.143 121.349 216.384 122.14C216.417 122.249 216.454 122.363 216.49 122.475C215.504 125.292 214.57 128.127 213.688 130.979C211.836 136.966 210.268 143.035 208.946 149.158C208.387 146.975 207.539 144.854 206.766 142.744C205.914 140.42 205.008 138.116 204.092 135.818C203.615 134.622 203.166 133.414 202.538 132.287C201.914 131.171 201.189 130.128 200.431 129.099C200.221 128.815 199.809 128.984 199.868 129.337C200.072 130.556 200.295 131.755 200.618 132.95C200.94 134.148 201.426 135.277 201.884 136.427C202.767 138.641 203.616 140.867 204.466 143.094C205.301 145.282 206.216 147.467 206.846 149.726C207.154 150.831 207.333 151.961 207.481 153.097C207.561 153.713 207.667 154.323 207.744 154.939C207.747 154.964 207.759 154.991 207.764 155.017C207.077 158.649 206.465 162.298 205.944 165.959C205.462 169.346 205.043 172.743 204.699 176.147C204.667 176.458 204.644 176.77 204.614 177.082C204.359 176.818 204.101 176.567 203.855 176.336C202.592 175.153 201.153 174.178 199.588 173.441C198.022 172.703 196.37 172.159 194.656 171.896C193.798 171.765 192.928 171.665 192.062 171.768C191.139 171.879 190.403 172.305 189.604 172.74C189.327 172.891 189.382 173.352 189.694 173.424C190.426 173.595 191.115 173.892 191.857 174.032C192.596 174.171 193.354 174.196 194.097 174.312C195.587 174.546 197.064 174.983 198.427 175.633C199.755 176.269 201.036 177.078 202.158 178.034C202.735 178.527 203.264 179.066 203.789 179.614C203.971 179.803 204.15 180 204.332 180.197C204.308 180.486 204.276 180.775 204.253 181.066C204.11 182.837 203.933 184.521 204.463 186.244C204.679 186.947 205.845 187.261 206.193 186.47C206.495 185.783 206.778 185.113 206.894 184.366C207.009 183.622 207.04 182.852 207.1 182.102C207.219 180.591 207.336 179.079 207.476 177.57C207.741 174.705 208.06 171.845 208.426 168.992C208.82 168.472 209.213 167.952 209.631 167.45C210.988 165.819 212.456 164.302 214.025 162.874C217.137 160.041 220.747 157.715 224.63 156.087C225.725 155.628 226.848 155.262 227.967 154.869C228.538 154.669 229.12 154.464 229.471 153.936C229.846 153.375 229.843 152.554 229.289 152.1C228.642 151.57 227.841 151.829 227.577 152.46C227.541 152.473 227.496 152.488 227.428 152.509C227.188 152.583 226.945 152.646 226.706 152.725C226.23 152.884 225.757 153.059 225.289 153.241C224.289 153.629 223.302 154.054 222.335 154.518C220.491 155.404 218.718 156.44 217.039 157.611C213.989 159.736 211.246 162.259 208.952 165.18C209.632 160.509 210.45 155.855 211.402 151.232C212.147 147.614 212.968 144.009 213.853 140.419C214.439 140.01 215.011 139.585 215.579 139.188C217.053 138.157 218.582 137.189 220.132 136.277C221.687 135.361 223.289 134.525 224.929 133.773C225.728 133.406 226.546 133.071 227.337 132.686C228.147 132.291 228.936 131.919 229.365 131.103C229.485 130.874 229.369 130.662 229.148 130.569C228.285 130.206 227.389 130.465 226.521 130.75C225.675 131.028 224.846 131.403 224.041 131.778C222.333 132.573 220.668 133.459 219.054 134.431C217.49 135.373 216.01 136.42 214.573 137.544C216.367 130.586 218.431 123.697 220.802 116.921C221.16 115.9 221.535 114.885 221.907 113.869C222.319 113.544 222.712 113.19 223.107 112.867C223.931 112.195 224.779 111.544 225.662 110.951C226.584 110.333 227.544 109.773 228.535 109.274C229.502 108.787 230.514 108.441 231.498 108C232.052 107.753 233.815 107.208 233.556 106.322Z" fill="#DBE6C6"/>
<path d="M275.732 167.28C275.85 167.032 275.974 166.786 276.117 166.546C276.261 166.305 276.361 166.058 276.424 165.814C276.843 164.99 277.292 164.176 277.802 163.369C278.553 162.178 277.598 160.106 276.046 160.309C268.642 161.277 261.326 162.774 254.162 164.889C250.998 165.823 247.736 166.75 244.779 168.242C242.111 169.587 239.697 171.685 238.814 174.631C238.253 176.501 238.545 178.507 238.157 180.357C237.978 181.212 237.851 181.554 237.431 182.186C237.403 182.228 237.387 182.253 237.369 182.28C237.364 182.279 237.348 182.29 237.305 182.335C237.293 182.348 237.261 182.376 237.223 182.41C234.917 179.343 233.33 175.714 231.952 172.174C231.666 171.44 230.999 170.954 230.179 171.167C225.829 172.299 222.082 174.582 219.367 178.203C216.551 181.958 215.555 186.703 216.283 191.304C216.482 192.566 216.83 193.788 217.319 194.968C217.361 195.069 217.408 195.169 217.451 195.27C217.41 195.685 217.369 195.876 217.149 196.171C216.922 196.476 216.586 196.64 216.496 196.663C215.663 196.881 214.827 196.61 213.874 196.173C211.446 195.06 209.49 192.467 206.958 191.15C204.027 189.625 200.595 190.051 198.146 192.276C196.11 194.124 194.663 196.653 193.666 199.194C192.712 201.625 192.116 204.415 192.619 207.019C193.181 209.936 195.028 212.112 197.644 213.442C199.948 214.612 202.832 214.83 204.924 216.377C206.795 217.759 206.57 220.397 205.616 222.284C204.493 224.503 202.33 226.132 200.084 227.086C195.034 229.232 189.212 227.741 185.741 223.501C184.871 222.437 184.218 221.273 183.722 219.993C183.241 218.746 181.506 218.664 180.745 219.658C173.907 228.592 172.143 240.73 175.659 251.348C176.136 252.787 176.698 254.227 177.404 255.57C178.124 256.941 179.241 258.221 180.257 259.384C180.481 259.641 180.788 259.719 181.081 259.69C185.841 264.758 192.522 267.608 198.743 270.439C205.489 273.509 212.482 276.001 220.003 275.496C226.673 275.048 233.043 272.444 239.024 269.62C245.676 266.48 253.979 261.998 253.443 253.46C253.356 252.067 251.825 251.277 250.596 251.4C250.122 251.448 249.564 251.302 249.236 251.089C248.599 250.675 248.134 250.157 247.822 249.597C247.371 248.786 247.229 248.302 247.121 247.426C247.03 246.699 247.156 245.905 247.494 245.15C249.051 241.67 253.591 240.303 257.252 239.982C259.758 239.762 262.279 239.92 264.789 239.934C266.078 239.941 267.371 239.92 268.657 239.838C269.574 239.779 270.407 239.618 270.999 238.82C271.464 238.194 271.788 237.303 272.096 236.59C274.109 231.93 274.878 226.798 274.502 221.749C274.33 219.444 274.1 216.509 272.491 214.71C270.319 212.281 267.175 213.267 264.424 213.75C262.292 214.125 260.007 214.369 257.968 213.483C256.621 212.898 255.257 211.665 255.286 210.051C255.297 209.44 255.552 208.822 255.932 208.279C256.475 207.505 257.172 206.904 257.976 206.373C259.687 205.241 261.662 204.776 263.635 204.339C268.155 203.336 272.971 202.117 275.531 197.858C278.442 193.015 277.806 186.999 276.538 181.741C275.505 177.456 273.756 172.032 275.553 167.69C275.613 167.552 275.673 167.416 275.732 167.28Z" fill="#DBE6C6"/>
<path d="M271.182 189.567C269.997 187.753 267.728 186.986 265.681 186.599C263.467 186.18 261.233 186.189 259.008 186.512C256.655 186.854 254.414 187.655 252.239 188.594C251.73 188.814 251.231 189.052 250.735 189.296C255.327 183.801 260.083 178.428 265.012 173.24C265.736 172.477 264.626 171.37 263.86 172.087C260.692 175.052 257.622 178.109 254.642 181.251C254.642 181.247 254.642 181.242 254.641 181.237C254.622 180.688 254.515 180.115 254.413 179.576C254.198 178.436 253.891 177.334 253.494 176.245C253.104 175.176 252.681 174.098 252.104 173.116C251.54 172.157 250.732 171.42 249.85 170.756C249.657 170.612 249.438 170.85 249.478 171.042C249.693 172.086 249.916 173.097 250.315 174.088C250.707 175.063 251.15 176.013 251.503 177.004C251.855 177.992 252.174 179 252.456 180.011C252.599 180.527 252.707 181.072 252.887 181.576C253.004 181.904 253.144 182.309 253.39 182.581C251.751 184.341 250.132 186.12 248.558 187.943C244.536 192.605 240.686 197.416 236.992 202.343C236.878 201.511 236.704 200.689 236.524 199.869C236.095 197.915 235.601 195.971 235.02 194.057C234.439 192.143 233.746 190.258 233.004 188.401C232.277 186.577 231.49 184.708 229.904 183.461C229.692 183.295 229.367 183.39 229.359 183.687C229.305 185.573 230.03 187.309 230.696 189.037C231.367 190.783 231.973 192.552 232.528 194.338C233.083 196.126 233.618 197.917 234.072 199.733C234.304 200.661 234.491 201.6 234.726 202.527C234.832 202.948 234.954 203.365 235.093 203.776C235.163 203.979 235.301 204.218 235.419 204.456C235.211 204.74 234.996 205.018 234.79 205.302C229.421 212.666 224.503 220.388 220.004 228.339C219.963 227.46 219.877 226.584 219.757 225.707C219.383 222.959 218.904 220.225 218.332 217.512C217.76 214.803 217.092 212.119 216.303 209.465C215.922 208.185 215.548 206.892 215.092 205.636C214.847 204.962 214.577 204.275 214.192 203.669C213.809 203.064 213.305 202.574 212.895 201.987C212.705 201.715 212.155 201.771 212.198 202.175C212.269 202.854 212.201 203.515 212.274 204.188C212.342 204.82 212.48 205.421 212.657 206.029C213.032 207.313 213.484 208.576 213.869 209.858C214.638 212.421 215.341 215.008 215.959 217.611C216.577 220.215 217.106 222.839 217.544 225.478C217.767 226.82 218.002 228.173 218.1 229.531C218.146 230.165 218.15 230.802 218.173 231.436C218.175 231.506 218.175 231.577 218.175 231.648C216.102 235.438 214.111 239.268 212.222 243.139C210.973 245.699 209.769 248.281 208.603 250.88C208.405 251.109 208.212 251.345 208.014 251.596C207.822 251.838 207.84 252.112 207.974 252.299C207.688 252.947 207.401 253.596 207.12 254.247C206.496 255.695 205.886 257.151 205.288 258.61C205.257 258.089 205.216 257.571 205.172 257.058C204.978 254.832 204.612 252.586 204.1 250.411C203.062 245.999 201.377 241.683 199.217 237.703C198.102 235.65 196.88 232.875 194.456 232.166C194.172 232.084 193.91 232.311 193.898 232.591C193.813 234.771 195.349 236.58 196.357 238.396C197.39 240.256 198.33 242.182 199.139 244.15C200.77 248.118 201.962 252.317 202.686 256.545C203.036 258.59 203.187 260.704 203.64 262.734C203.601 262.833 203.561 262.932 203.523 263.032C203.35 263.478 203.159 263.921 203.008 264.375C202.822 264.934 202.788 265.527 202.721 266.112C202.663 266.626 203.136 267.141 203.602 267.269C204.142 267.417 204.651 267.158 204.957 266.718C206.026 265.179 206.562 263.323 207.258 261.589C207.925 259.929 208.602 258.272 209.301 256.625C210.139 254.649 211.01 252.688 211.898 250.733C211.973 250.688 212.046 250.64 212.122 250.595C213.25 249.927 214.365 249.241 215.52 248.62C217.814 247.389 220.199 246.344 222.661 245.498C227.676 243.774 232.868 242.946 238.163 242.849C239.814 242.82 241.466 242.862 243.116 242.937C243.942 242.976 244.766 243.047 245.592 243.019C246.061 243.002 246.539 242.993 246.987 242.837C247.341 242.714 247.613 242.439 247.898 242.203C248.129 242.012 248.08 241.638 247.898 241.44C247.398 240.897 246.953 240.604 246.211 240.466C245.367 240.308 244.522 240.254 243.667 240.208C242.109 240.126 240.549 240.069 238.989 240.072C236.145 240.077 233.316 240.359 230.517 240.863C225.222 241.817 220.072 243.63 215.334 246.176C214.733 246.499 214.132 246.833 213.539 247.179C213.601 247.048 213.659 246.916 213.721 246.785C216.855 240.179 220.27 233.708 223.95 227.389C225.201 225.241 226.493 223.114 227.804 220.998C228.333 220.895 228.859 220.773 229.374 220.676C230.507 220.462 231.63 220.23 232.777 220.103C235.184 219.837 237.575 219.704 239.994 219.888C242.373 220.069 244.727 220.534 247.011 221.22C248.129 221.555 249.212 221.981 250.311 222.368C251.447 222.769 252.565 223.003 253.752 223.151C254.071 223.191 254.138 222.78 253.985 222.587C253.711 222.243 253.442 221.854 253.109 221.566C252.735 221.243 252.296 220.977 251.889 220.698C251.044 220.118 250.04 219.755 249.081 219.412C247.247 218.757 245.36 218.273 243.436 217.968C239.524 217.347 235.459 217.301 231.576 218.147C230.839 218.308 230.026 218.486 229.22 218.724C234.99 209.605 241.305 200.813 248.112 192.458C248.502 192.311 248.889 192.141 249.286 191.971C250.325 191.527 251.376 191.118 252.434 190.722C254.556 189.926 256.728 189.293 258.97 188.934C260.838 188.635 262.815 188.616 264.678 188.961C265.644 189.14 266.566 189.436 267.495 189.75C268.446 190.072 269.305 190.506 270.288 190.729C270.924 190.871 271.579 190.174 271.182 189.567Z" fill="#BAD29B"/>
<path d="M51.5742 141.004C52.0313 139.653 53.2805 139.076 54.6001 139.649C56.3176 140.394 58.2443 141.281 60.1654 141.07C61.277 140.947 62.4415 140.199 62.7307 139.066C62.9618 138.162 62.0312 137.611 61.171 137.264C59.6389 136.646 58.0019 136.362 56.5397 135.556C50.4677 132.209 49.1808 124.469 49.8205 118.182C50.2974 113.497 51.5646 108.888 51.2664 104.148C51.1818 102.801 52.5448 101.734 53.8295 102.052C61.6659 103.99 70.1094 106.223 75.6183 112.564C78.1324 115.458 79.881 118.895 80.2755 122.742C80.4396 124.341 80.2457 126.02 80.6092 127.593C80.8945 128.827 81.5636 129.635 82.7129 129.523C86.8775 129.117 86.4107 123.319 86.1554 120.329C86.0167 118.708 87.8515 117.813 89.1751 118.454C93.2691 120.437 97.3655 122.647 100.279 126.237C102.854 129.409 104.271 133.992 103.082 138.008C102.476 140.058 101.226 141.625 99.8795 143.237C98.981 144.312 97.9224 145.81 98.4151 146.924C98.5678 147.27 98.7482 147.523 99.2228 147.9C99.5176 148.133 100.266 148.482 100.744 148.609C101.933 148.923 103.249 148.899 104.27 148.364C107.899 146.463 108.601 141.143 109.198 137.561C109.401 136.348 111.007 135.657 112.039 136.289C115.798 138.59 117.869 142.492 118.469 146.78C119.107 151.344 117.738 155.897 115.439 159.817C114.203 161.925 112.715 163.891 111.139 165.755C110.419 166.606 109.675 167.437 108.919 168.256C108.35 168.874 107.293 169.698 107.193 170.604C107.007 172.3 109.584 173.279 110.888 173.345C113.105 173.457 115.186 172.574 116.947 171.284C121.35 168.057 122.983 162.386 124.483 157.409C125.025 155.61 127.42 155.537 128.09 157.285C133.032 170.168 128.012 185.333 117.543 193.918C116.927 194.423 116.289 194.9 115.635 195.355C114.604 196.234 113.521 197.053 112.418 197.799C107.04 201.436 100.786 203.442 94.3971 204.352C87.8194 205.288 80.8702 205.107 74.3393 203.878C68.3873 202.756 62.4737 200.265 58.6107 195.433C54.7782 190.639 53.3064 183.567 56.4969 178.065C56.9258 177.325 57.7443 176.963 58.5786 177.133C61.1253 177.652 64.6416 178.238 66.9449 176.664C69.6551 174.813 67.6681 171.569 65.6405 170.105C62.4765 167.82 58.1992 168.007 54.5707 166.976C53.5944 166.699 52.3769 166.398 51.5528 165.799C50.5866 165.096 50.4744 163.504 50.2557 162.409C49.8132 160.193 49.5201 157.948 49.4293 155.689C49.2304 150.719 49.9812 145.713 51.5742 141.004Z" fill="#DBE6C6"/>
<path d="M55.7063 124.605C55.7998 123.641 57.5371 123.854 58.1544 123.887C59.2552 123.946 60.3973 124.289 61.4531 124.593C62.4857 124.89 63.501 125.25 64.4902 125.67C65.2185 125.979 65.9412 126.318 66.643 126.692C66.1069 125.826 65.5759 124.956 65.028 124.097C63.2225 121.266 61.1735 118.548 59.5303 115.62C59.1324 114.91 60.1729 114.262 60.6943 114.847C62.6988 117.091 64.3403 119.7 66.0218 122.19C67.6694 124.629 69.2771 127.097 70.843 129.59C71.8881 131.254 72.9061 132.935 73.9112 134.624C73.9117 134.608 73.9123 134.59 73.9129 134.575C73.9642 132.872 74.1163 131.164 74.2917 129.469C74.463 127.815 74.6772 126.165 74.963 124.527C75.1135 123.665 75.2584 122.797 75.454 121.945C75.5391 121.574 75.6473 121.202 75.7978 120.853C75.9782 120.434 76.3018 120.167 76.5301 119.783C76.6665 119.555 77.0791 119.63 77.1078 119.903C77.1484 120.297 77.317 120.653 77.3361 121.052C77.3547 121.439 77.3074 121.84 77.2505 122.222C77.1281 123.043 76.9568 123.858 76.8277 124.679C76.569 126.322 76.3311 127.968 76.1434 129.621C75.9607 131.23 75.8221 132.843 75.7285 134.46C75.6806 135.287 75.6169 136.121 75.5284 136.944C75.516 137.058 75.5008 137.176 75.4861 137.293C76.9799 139.877 78.4269 142.488 79.8254 145.125C82.7617 150.661 85.4341 156.331 87.8754 162.1C88.0175 159.852 88.4543 157.609 88.8207 155.392C89.2238 152.951 89.6843 150.518 90.1556 148.089C90.4008 146.825 90.6161 145.555 91.0236 144.331C91.4278 143.117 91.9458 141.958 92.4983 140.806C92.651 140.487 93.0879 140.577 93.0963 140.934C93.1239 142.171 93.1273 143.39 93.0338 144.624C92.9402 145.86 92.6741 147.061 92.4385 148.275C91.9842 150.615 91.5653 152.961 91.1454 155.307C90.7328 157.613 90.2412 159.93 90.0445 162.266C89.9481 163.41 89.9831 164.554 90.0501 165.697C90.0868 166.316 90.0958 166.936 90.1347 167.555C90.1364 167.581 90.1302 167.609 90.1296 167.635C91.4825 171.077 92.7643 174.546 93.9593 178.046C95.0647 181.284 96.1098 184.543 97.0833 187.823C97.1724 188.123 97.253 188.425 97.3409 188.725C97.5421 188.419 97.7479 188.124 97.9474 187.851C98.9683 186.453 100.199 185.227 101.6 184.211C103.001 183.194 104.522 182.351 106.157 181.773C106.976 181.484 107.811 181.223 108.682 181.163C109.61 181.1 110.412 181.381 111.278 181.66C111.579 181.756 111.61 182.219 111.317 182.348C110.63 182.653 110.008 183.073 109.305 183.349C108.605 183.623 107.864 183.789 107.157 184.042C105.736 184.55 104.367 185.255 103.15 186.148C101.963 187.02 100.856 188.054 99.9322 189.203C99.457 189.794 99.0376 190.424 98.6244 191.059C98.4818 191.279 98.342 191.506 98.2 191.733C98.2783 192.013 98.3629 192.292 98.4395 192.572C98.9102 194.286 99.3984 195.907 99.1994 197.699C99.1182 198.43 98.0309 198.956 97.5416 198.244C97.1166 197.625 96.7135 197.02 96.461 196.308C96.209 195.598 96.0348 194.848 95.8364 194.122C95.4379 192.659 95.0405 191.197 94.6217 189.739C93.8269 186.975 92.9802 184.224 92.0885 181.489C91.6042 181.052 91.1206 180.614 90.6167 180.199C88.9786 178.85 87.2537 177.634 85.4465 176.523C81.8609 174.32 77.8801 172.708 73.7612 171.833C72.6006 171.586 71.4275 171.436 70.2556 171.259C69.6576 171.169 69.0477 171.076 68.6046 170.624C68.1322 170.142 67.9817 169.335 68.4411 168.785C68.9772 168.144 69.8131 168.249 70.1903 168.82C70.228 168.825 70.2748 168.832 70.3447 168.84C70.5944 168.868 70.8453 168.885 71.0944 168.918C71.5927 168.984 72.0893 169.07 72.5837 169.16C73.6383 169.354 74.6874 169.588 75.724 169.864C77.7014 170.39 79.636 171.077 81.5035 171.914C84.8963 173.433 88.0626 175.4 90.8602 177.842C89.3207 173.379 87.65 168.96 85.8524 164.596C84.4454 161.18 82.9657 157.791 81.4274 154.429C80.7758 154.137 80.1343 153.827 79.5024 153.542C77.8615 152.804 76.1789 152.139 74.4856 151.531C72.7872 150.922 71.0572 150.4 69.3058 149.966C68.4524 149.755 67.586 149.578 66.7377 149.348C65.8679 149.111 65.0229 148.893 64.4496 148.171C64.289 147.968 64.364 147.738 64.5635 147.606C65.3442 147.088 66.2726 147.175 67.1785 147.294C68.0606 147.409 68.9456 147.623 69.8069 147.841C71.6333 148.304 73.4348 148.864 75.2014 149.517C76.9134 150.151 78.5622 150.904 80.1839 151.74C77.1236 145.239 73.8108 138.856 70.2173 132.641C69.6756 131.704 69.1176 130.778 68.5634 129.849C68.0978 129.606 67.6458 129.331 67.1976 129.088C66.2619 128.581 65.3081 128.1 64.3296 127.683C63.3087 127.248 62.2614 126.876 61.1949 126.571C60.1538 126.273 59.0952 126.122 58.0461 125.872C57.4509 125.73 55.6172 125.523 55.7063 124.605Z" fill="#BAD29B"/>
<path d="M25.936 186.429C25.7432 186.234 25.5454 186.042 25.3306 185.863C25.1147 185.683 24.9394 185.484 24.7985 185.273C24.1311 184.634 23.4383 184.014 22.6908 183.42C21.5883 182.544 21.8064 180.273 23.3385 179.952C30.6467 178.422 38.0474 177.42 45.5067 177.052C48.802 176.889 52.1876 176.687 55.4705 177.119C58.4338 177.509 61.4044 178.691 63.2105 181.181C64.3565 182.761 64.7437 184.751 65.7206 186.37C66.1716 187.117 66.4038 187.398 67.0092 187.856C67.0492 187.886 67.0729 187.904 67.0983 187.925C67.1039 187.922 67.1214 187.927 67.1777 187.956C67.193 187.963 67.2324 187.98 67.2798 187.999C68.4444 184.343 68.7442 180.394 68.8761 176.597C68.9038 175.81 69.3739 175.131 70.2177 175.062C74.6974 174.694 78.9882 175.612 82.7463 178.134C86.6436 180.749 89.1504 184.9 89.9818 189.483C90.2095 190.74 90.2856 192.009 90.2135 193.284C90.2073 193.393 90.196 193.503 90.1887 193.613C90.3634 193.99 90.466 194.157 90.7704 194.363C91.0855 194.576 91.4575 194.62 91.5494 194.613C92.4079 194.544 93.1074 194.011 93.8628 193.284C95.7867 191.432 96.7771 188.339 98.7325 186.26C100.996 183.853 104.376 183.123 107.422 184.413C109.954 185.487 112.155 187.396 113.935 189.466C115.637 191.446 117.121 193.882 117.506 196.506C117.938 199.445 116.913 202.109 114.882 204.227C113.094 206.092 110.444 207.25 108.979 209.401C107.669 211.323 108.752 213.739 110.275 215.205C112.067 216.929 114.647 217.753 117.082 217.912C122.557 218.27 127.56 214.942 129.437 209.793C129.908 208.503 130.14 207.188 130.185 205.816C130.229 204.48 131.838 203.83 132.885 204.517C142.288 210.693 147.96 221.568 148.146 232.752C148.171 234.268 148.116 235.812 147.892 237.313C147.665 238.845 147.033 240.422 146.458 241.856C146.332 242.172 146.068 242.348 145.781 242.416C142.961 248.771 137.595 253.667 132.656 258.394C127.302 263.518 121.523 268.178 114.257 270.184C107.813 271.963 100.94 271.608 94.3633 270.917C87.0478 270.148 77.7306 268.658 75.4183 260.422C75.0412 259.079 76.225 257.828 77.4256 257.539C77.8884 257.427 78.3675 257.105 78.6071 256.795C79.0716 256.195 79.3393 255.552 79.4487 254.92C79.6077 254.007 79.5806 253.502 79.3946 252.639C79.2401 251.922 78.8585 251.215 78.2909 250.614C75.672 247.843 70.9353 248.052 67.3733 248.957C64.9354 249.576 62.6085 250.558 60.2432 251.399C59.0285 251.832 57.8019 252.239 56.5601 252.586C55.6757 252.833 54.8363 252.955 54.0139 252.398C53.3685 251.96 52.7682 251.226 52.2422 250.655C48.8043 246.921 46.3844 242.33 45.0721 237.44C44.4729 235.209 43.7215 232.362 44.6465 230.132C45.8957 227.122 49.1887 227.016 51.9452 226.564C54.081 226.213 56.3188 225.689 57.9513 224.179C59.0291 223.183 59.9101 221.568 59.3498 220.055C59.1373 219.482 58.6937 218.982 58.1548 218.595C57.387 218.044 56.5302 217.707 55.5968 217.47C53.6075 216.967 51.5901 217.181 49.5833 217.419C44.9859 217.964 40.0367 218.403 36.2149 215.227C31.8683 211.616 30.4838 205.728 29.9444 200.347C29.5047 195.961 29.3655 190.263 26.237 186.758C26.1389 186.646 26.0369 186.538 25.936 186.429Z" fill="#BAD29B"/>
<path d="M37.5876 205.965C38.1079 203.862 39.9973 202.389 41.8006 201.348C43.7526 200.221 45.8637 199.492 48.0711 199.063C50.4053 198.608 52.7846 198.626 55.1487 198.794C55.7012 198.833 56.2508 198.893 56.7998 198.96C50.6516 195.289 44.3879 191.787 38.0227 188.517C37.0876 188.036 37.7696 186.625 38.7302 187.049C42.6991 188.801 46.6049 190.674 50.456 192.656C50.4549 192.652 50.4532 192.647 50.4515 192.643C50.2881 192.118 50.1996 191.542 50.1178 191C49.9448 189.852 49.8709 188.711 49.8861 187.552C49.9008 186.414 49.9448 185.257 50.1652 184.14C50.3805 183.048 50.9008 182.086 51.5141 181.168C51.6477 180.968 51.9335 181.12 51.9594 181.315C52.1009 182.372 52.2243 183.401 52.1747 184.467C52.1262 185.517 52.0214 186.559 52.0152 187.611C52.009 188.66 52.0406 189.717 52.1088 190.764C52.1432 191.299 52.2221 191.849 52.2187 192.384C52.2164 192.731 52.2181 193.161 52.0749 193.498C54.2029 194.619 56.3184 195.763 58.4057 196.966C63.7411 200.038 68.9636 203.31 74.0763 206.741C73.91 205.917 73.8029 205.085 73.702 204.25C73.4619 202.264 73.286 200.267 73.2031 198.268C73.1203 196.27 73.1524 194.261 73.2387 192.263C73.3238 190.301 73.4489 188.277 74.5346 186.578C74.68 186.35 75.0177 186.333 75.1236 186.611C75.7972 188.373 75.6856 190.251 75.6281 192.102C75.5701 193.972 75.5819 195.842 75.6479 197.711C75.7138 199.582 75.8001 201.448 75.9714 203.313C76.0588 204.266 76.1924 205.214 76.2764 206.166C76.3147 206.598 76.3384 207.033 76.3418 207.466C76.3435 207.681 76.2916 207.951 76.2589 208.216C76.5492 208.415 76.8435 208.607 77.1326 208.807C84.6308 213.986 91.8224 219.652 98.6932 225.673C98.4412 224.829 98.2338 223.974 98.0573 223.107C97.5032 220.39 97.054 217.651 96.6983 214.901C96.3431 212.155 96.0878 209.401 95.957 206.635C95.8939 205.302 95.8206 203.957 95.8358 202.621C95.8443 201.904 95.8725 201.166 96.0354 200.468C96.1983 199.77 96.5117 199.142 96.7045 198.452C96.7935 198.133 97.3319 198.003 97.4254 198.4C97.5821 199.064 97.864 199.666 98.0173 200.325C98.161 200.944 98.2298 201.556 98.2631 202.19C98.3335 203.526 98.3228 204.867 98.3831 206.204C98.5038 208.877 98.6937 211.551 98.9694 214.213C99.245 216.874 99.612 219.526 100.07 222.162C100.302 223.503 100.527 224.857 100.883 226.171C101.049 226.785 101.255 227.387 101.443 227.994C101.463 228.061 101.487 228.128 101.511 228.195C104.718 231.088 107.863 234.046 110.923 237.077C112.947 239.081 114.936 241.12 116.894 243.189C117.157 243.34 117.418 243.5 117.687 243.67C117.948 243.835 118.022 244.1 117.957 244.321C118.441 244.839 118.925 245.356 119.405 245.878C120.472 247.039 121.528 248.211 122.575 249.392C122.432 248.89 122.299 248.387 122.172 247.888C121.62 245.723 121.224 243.481 120.989 241.26C120.513 236.753 120.679 232.123 121.404 227.652C121.778 225.346 122.016 222.324 124.07 220.855C124.311 220.682 124.634 220.811 124.737 221.072C125.537 223.101 124.684 225.316 124.331 227.363C123.971 229.46 123.719 231.588 123.605 233.713C123.375 237.996 123.636 242.353 124.348 246.583C124.693 248.629 125.248 250.675 125.49 252.739C125.56 252.821 125.63 252.901 125.7 252.982C126.01 253.346 126.336 253.702 126.628 254.079C126.989 254.546 127.216 255.094 127.473 255.624C127.698 256.091 127.421 256.733 127.023 257.008C126.563 257.326 125.996 257.249 125.562 256.934C124.045 255.835 122.927 254.259 121.697 252.853C120.519 251.505 119.334 250.165 118.13 248.841C116.686 247.253 115.216 245.688 113.734 244.136C113.648 244.118 113.562 244.097 113.476 244.08C112.191 243.822 110.912 243.542 109.616 243.338C107.045 242.933 104.449 242.734 101.846 242.748C96.5427 242.776 91.368 243.709 86.3382 245.365C84.7695 245.882 83.2238 246.467 81.6912 247.083C80.924 247.391 80.1703 247.731 79.3812 247.976C78.933 248.115 78.4793 248.265 78.0046 248.265C77.6292 248.266 77.282 248.096 76.9353 247.967C76.6541 247.863 76.5763 247.494 76.6834 247.247C76.9765 246.569 77.2995 246.146 77.9539 245.771C78.6986 245.343 79.4781 245.013 80.2707 244.688C81.7143 244.096 83.168 243.527 84.6415 243.015C87.3275 242.081 90.0913 241.413 92.899 240.966C98.2123 240.118 103.672 240.129 108.986 240.969C109.659 241.076 110.336 241.192 111.011 241.323C110.909 241.22 110.811 241.114 110.709 241.011C105.57 235.809 100.21 230.828 94.651 226.078C92.7603 224.463 90.8387 222.882 88.903 221.317C88.3698 221.395 87.8331 221.453 87.3145 221.531C86.1748 221.704 85.0378 221.855 83.9127 222.114C81.5525 222.658 79.2521 223.321 77.0289 224.293C74.8435 225.249 72.7742 226.466 70.8447 227.867C69.9005 228.553 69.0189 229.312 68.1091 230.041C67.1689 230.793 66.1914 231.383 65.1198 231.914C64.8312 232.058 64.6323 231.692 64.7134 231.46C64.8583 231.044 64.9846 230.588 65.2033 230.207C65.4496 229.779 65.7765 229.382 66.0685 228.984C66.6751 228.159 67.5031 227.484 68.2951 226.845C69.8097 225.62 71.4315 224.54 73.1462 223.618C76.6343 221.74 80.4561 220.355 84.4003 219.872C85.1488 219.78 85.9752 219.68 86.8145 219.638C78.3581 212.935 69.4946 206.72 60.311 201.081C59.8944 201.071 59.4734 201.037 59.0427 201.009C57.9159 200.933 56.7885 200.894 55.6594 200.868C53.3934 200.817 51.1342 200.937 48.8997 201.338C47.0378 201.672 45.1652 202.307 43.5204 203.247C42.667 203.736 41.8942 204.32 41.1213 204.923C40.3299 205.541 39.6631 206.234 38.808 206.769C38.2629 207.111 37.4134 206.67 37.5876 205.965Z" fill="#DBE6C6"/>
<path d="M218.412 69.0906C217.656 69.3014 216.942 69.5996 216.244 69.9322C216.007 69.2422 215.712 68.5737 215.325 67.9429C213.96 65.7164 209.807 65.7975 209.294 68.731C208.878 71.1064 209.183 73.3983 209.26 75.8008C209.336 78.1778 211.79 80.6243 214.325 79.6592C217.031 78.6288 220.073 77.5629 222.103 75.4299C224.674 72.7264 222.132 68.0534 218.412 69.0906Z" fill="#27B45F"/>
<path d="M258.876 146.89C258.328 145.642 256.717 144.555 255.298 145.134C254.597 145.419 253.92 145.701 253.281 146.027C253.166 145.396 253.053 144.763 252.857 144.14C252.471 142.916 250.893 142.744 250.201 143.793C248.938 145.71 249.276 148.351 249.877 150.461C250.168 151.48 251.058 152.065 252.075 152.134C254.122 152.273 255.827 151.555 257.636 150.677C258.977 150.026 259.44 148.173 258.876 146.89Z" fill="#27B45F"/>
<path d="M272.733 251.151C271.868 250.968 270.976 250.965 270.087 251.077C270.279 249.625 270.516 248.173 270.093 246.776C269.594 245.129 267.48 244.496 266.229 245.756C263.974 248.028 264.407 251.52 263.933 254.414C263.602 256.431 264.759 258.405 266.991 258.429C269.001 258.45 271.824 258.213 273.503 257.032C275.583 255.57 275.659 251.769 272.733 251.151Z" fill="#27B45F"/>
<path d="M54.7234 260.633C54.1405 258.36 51.2454 257.727 49.6198 259.286C49.1615 259.725 48.8452 260.24 48.5758 260.781C47.0138 259.374 45.2089 258.211 43.3837 258.26C42.6148 258.281 41.8403 258.928 41.8916 259.752C42.0686 262.62 44.9079 265.43 46.5009 267.689C47.6508 269.319 49.9585 269.897 51.4873 268.331C53.441 266.33 55.4737 263.557 54.7234 260.633Z" fill="#27B45F"/>
<path d="M45.7574 157.19C44.8803 156.399 43.7585 156.272 42.7157 156.798C41.5083 157.407 41.0043 158.425 40.523 159.622C40.4519 159.799 40.3984 159.928 40.3465 160.047C39.9976 159.767 39.6616 159.538 39.4745 159.434C38.5912 158.95 37.4035 158.744 36.4588 159.142C35.4419 159.57 34.5439 160.571 34.9593 161.783C36.0191 164.872 38.6712 168.72 42.4344 167.265C45.6756 166.011 48.8176 159.953 45.7574 157.19Z" fill="#27B45F"/>
<path d="M69.3686 83.0019C67.9706 82.6169 66.8511 83.485 66.1691 84.6107C65.9983 84.8925 65.8585 85.1704 65.7283 85.4568C65.4188 84.9861 65.1826 84.4759 64.735 84.1056C62.8382 82.5352 60.3636 84.0329 60.7509 86.4252C61.0474 88.2555 62.9944 90.5356 64.5998 91.3851C66.9391 92.6235 68.9937 91.1895 69.9796 89.0621C70.802 87.2882 72.2614 83.7984 69.3686 83.0019Z" fill="#27B45F"/>
<path d="M103.148 45.9738C101.954 46.6711 101.172 47.7765 100.384 48.8875C99.3655 47.7872 98.3306 46.7551 96.8937 45.9659C95.1074 44.9845 92.7066 46.6175 93.3436 48.6953C93.9766 50.759 94.9828 52.2375 96.2973 53.932C97.4986 55.4799 98.8492 57.0362 101.027 56.7487C104.244 56.3237 107.555 51.6344 107.776 48.6299C107.952 46.2517 105.049 44.8639 103.148 45.9738Z" fill="#27B45F"/>
<path d="M213.36 43.7334C211.661 43.7334 210.906 45.1849 210.354 46.6612C210.261 46.9075 210.191 47.0947 210.057 47.2813C210.047 47.2689 210.035 47.2531 210.021 47.2311C209.668 46.6877 209.205 46.3365 208.636 46.053C207.664 45.5688 206.176 46.1347 206.277 47.403C206.2 47.5501 206.157 47.7063 206.156 47.8743C206.105 48.1403 206.07 48.4363 206.071 48.7085C206.074 49.381 206.277 49.9881 206.64 50.5445C207.411 51.7226 208.828 52.3516 210.205 52.4058C213.125 52.5219 215.381 50.2288 215.815 47.4464C216.051 45.9391 215.253 43.7334 213.36 43.7334Z" fill="#27B45F"/>
<path d="M121.221 25.1423C120.069 24.8007 119.169 25.281 118.121 25.697C117.898 25.786 117.67 25.8599 117.444 25.9411C117.441 25.8407 117.435 25.7404 117.432 25.6401C117.395 24.7455 117.42 23.7477 116.649 23.1519C116.2 22.8047 115.654 22.648 115.128 22.9558C113.508 23.9039 113.871 26.8266 113.872 28.4427C113.873 29.7285 115.053 30.454 116.223 30.2336C118.093 29.8812 121.289 29.5188 122.236 27.6366C122.732 26.6507 122.322 25.4687 121.221 25.1423Z" fill="#27B45F"/>
<path d="M174.634 22.1158C124.868 9.99821 106.389 52.749 108.328 78.7288C110.266 104.709 97.8583 107.423 101.348 117.893C104.838 128.362 96.6949 139.995 103.674 150.464C110.654 160.934 179.288 166.751 187.431 158.22C195.574 149.689 198.676 140.383 195.962 129.526C193.248 118.668 206.043 112.077 202.941 99.6682C199.839 87.2597 219.227 32.973 174.634 22.1158Z" fill="#844442"/>
<path d="M214.057 177.736C214.057 177.736 215.954 188.749 217.332 197.783C217.332 197.783 212.248 203.07 211.601 203.329C210.955 203.587 198.288 204.104 197.254 203.07C196.22 202.036 197.771 187.947 199.451 185.362C201.132 182.777 204.622 177.348 205.526 176.056C206.431 174.763 214.057 177.736 214.057 177.736Z" fill="#E8BCA8"/>
<path d="M94.11 165.975C94.11 165.975 92.6884 180.063 94.4978 196.22C95.7515 207.414 114.274 208.37 114.532 208.628C114.791 208.887 119.702 203.458 119.573 200.614C119.444 197.771 119.961 190.921 117.893 185.88C115.824 180.839 112.852 171.92 110.396 169.981C107.94 168.042 100.702 166.104 99.9267 166.362C99.1505 166.621 94.11 165.975 94.11 165.975Z" fill="#E8BCA8"/>
<path d="M216.426 177.607C216.426 177.607 214.358 152.446 188.507 142.45C188.507 142.45 181.097 150.722 180.58 150.55C180.063 150.378 117.677 130.214 117.677 130.214C100.615 133.316 87.5603 158.435 86.354 164.811C86.354 164.811 93.032 175.023 115.091 178.986L114.747 216.901C114.747 216.901 109.803 266.789 104.597 280H208.761C207.43 274.616 201.159 248.101 196.866 209.921C196.797 209.304 207.809 181.055 207.809 181.055C207.809 181.055 210.739 181.398 216.426 177.607Z" fill="#27B45F"/>
<path d="M124.037 141.335C122.812 141.031 121.404 141.728 120.302 142.214C119.179 142.709 118.09 143.269 117.037 143.898C115.995 144.519 114.918 145.069 113.891 145.718C112.698 146.472 111.713 147.383 110.794 148.444C107.229 152.559 104.411 157.567 102.715 162.742C101.592 166.167 101.152 169.914 102.161 173.423C102.275 173.816 102.483 174.178 102.752 174.487C102.521 174.426 102.292 174.365 102.068 174.296C101.172 174.02 100.284 173.717 99.4073 173.385C97.7021 172.74 96.077 171.934 94.5133 170.998C93.1002 170.152 91.7744 169.188 90.5788 168.053C89.9739 167.478 89.4041 166.866 88.8781 166.218C88.364 165.584 87.9069 164.87 87.3483 164.279C86.9898 163.899 86.3353 164.292 86.4774 164.785C86.934 166.372 88.1961 167.826 89.2947 169.014C90.5106 170.327 91.9006 171.478 93.3809 172.481C94.9772 173.563 96.7506 174.394 98.533 175.118C99.4417 175.488 100.366 175.816 101.301 176.11C102.245 176.407 103.27 176.824 104.269 176.789C104.957 176.764 105.298 176.012 104.996 175.494C105.202 175.484 105.409 175.45 105.613 175.383C107.048 174.92 108.009 173.442 107.575 171.93C107.483 171.613 107.399 171.294 107.333 170.97C107.318 170.895 107.305 170.82 107.292 170.745C107.284 170.71 107.27 170.637 107.261 170.573C107.256 170.544 107.251 170.515 107.245 170.486C107.251 170.514 107.254 170.529 107.258 170.551C107.256 170.533 107.254 170.515 107.253 170.501C107.208 169.801 107.179 169.111 107.222 168.409C107.232 168.244 107.245 168.079 107.261 167.915C107.264 167.88 107.275 167.772 107.285 167.682C107.299 167.586 107.317 167.461 107.323 167.424C107.351 167.258 107.381 167.094 107.413 166.929C107.552 166.225 107.73 165.528 107.936 164.841C108.132 164.19 108.355 163.548 108.597 162.912C108.703 162.635 108.812 162.359 108.925 162.085C108.94 162.047 109.007 161.891 109.045 161.801C109.099 161.678 109.174 161.508 109.187 161.478C109.667 160.399 110.184 159.336 110.742 158.295C111.847 156.229 113.126 154.281 114.518 152.399C114.533 152.378 114.541 152.367 114.554 152.351C114.62 152.268 114.685 152.184 114.751 152.101C114.93 151.878 115.112 151.657 115.296 151.438C115.784 150.86 116.232 150.26 116.675 149.648C116.996 149.205 117.286 148.742 117.611 148.301C117.623 148.284 117.628 148.278 117.636 148.266C117.644 148.257 117.647 148.254 117.656 148.242C117.722 148.159 117.787 148.076 117.855 147.993C118.075 147.72 118.3 147.451 118.531 147.186C119.303 146.3 120.284 145.546 121.266 144.904C122.339 144.202 123.796 143.675 124.561 142.623C124.894 142.165 124.546 141.461 124.037 141.335Z" fill="#1F8C4A"/>
<path d="M107.293 170.744C107.303 170.789 107.299 170.757 107.259 170.551C107.26 170.558 107.26 170.565 107.262 170.572C107.272 170.63 107.283 170.687 107.293 170.744Z" fill="#63A59F"/>
<path d="M216.241 176.764C215.516 176.629 214.897 177.237 214.31 177.592C213.738 177.939 213.157 178.268 212.565 178.579C212.503 178.612 212.441 178.644 212.378 178.677C212.437 178.556 212.495 178.435 212.542 178.306C212.868 177.392 212.825 176.19 212.883 175.22C212.936 174.32 212.965 173.418 212.965 172.516C212.967 170.598 212.851 168.657 212.39 166.791C211.983 165.136 210.965 163.501 210.067 162.061C209.611 161.331 209.114 160.632 208.574 159.962C208.122 159.399 207.505 158.614 206.765 158.461C206.429 158.392 206.092 158.556 205.993 158.9C205.8 159.564 206.095 160.387 206.26 161.038C206.451 161.792 206.631 162.552 206.775 163.316C207.036 164.706 206.948 166.125 207.107 167.63C207.274 169.21 207.396 170.795 207.388 172.385C207.379 174.124 207.191 175.835 207.074 177.566C206.984 178.911 208.145 180.06 209.392 180.277C209.312 180.375 209.247 180.48 209.219 180.604C209.176 180.795 209.251 180.958 209.407 181.067C209.941 181.439 210.792 180.957 211.312 180.747C211.969 180.482 212.625 180.207 213.257 179.885C213.853 179.582 214.439 179.26 215.016 178.922C215.295 178.757 215.572 178.589 215.846 178.416C216.204 178.191 216.58 177.975 216.675 177.529C216.741 177.222 216.587 176.828 216.241 176.764Z" fill="#1F8C4A"/>
<path d="M198.306 219.761C197.999 219.209 196.802 219.469 196.335 219.626C195.638 219.86 194.744 220.158 193.928 220.386C192.894 220.675 191.872 221.023 190.852 221.38C190.837 220.524 190.415 219.662 189.753 219.151C188.662 218.308 187.096 218.388 186.1 219.369C185.257 220.199 184.53 221.171 183.727 222.043C183.301 222.506 182.868 222.962 182.431 223.414C182.284 223.476 182.141 223.545 182.003 223.631C181.327 224.054 180.633 224.369 180.069 224.954C179.186 225.868 178.375 226.853 177.499 227.776C176.628 228.693 175.735 229.586 174.828 230.464C173.394 231.687 171.945 232.893 170.481 234.08C169.553 234.833 168.622 235.583 167.695 236.337C167.251 236.698 166.808 237.06 166.362 237.418C166.176 237.567 165.99 237.716 165.804 237.864C165.708 237.939 165.613 238.014 165.518 238.088C165.493 238.107 165.464 238.129 165.422 238.16C164.405 238.914 163.356 239.625 162.279 240.289C161.922 240.509 161.599 240.76 161.263 241.01C161.345 240.946 160.75 241.371 160.692 241.416C160.423 241.624 160.276 241.883 160.059 242.134C160.079 242.108 160.075 242.107 159.977 242.204C159.822 242.132 159.669 242.059 159.52 241.983C158.514 241.466 157.53 240.904 156.568 240.309C155.604 239.712 154.661 239.08 153.737 238.423C153.304 238.115 152.876 237.801 152.451 237.483C152.255 237.336 152.06 237.187 151.865 237.038C151.958 237.108 151.522 236.772 151.391 236.668C149.588 235.242 147.84 233.746 146.104 232.238C144.255 230.631 142.421 228.92 140.439 227.476C139.405 226.723 138.297 226.045 137.128 225.526C137.003 225.191 136.805 224.891 136.522 224.668C135.767 224.073 135.234 223.836 134.297 223.742C133.964 223.709 133.631 223.679 133.297 223.644C132.473 223.556 131.649 223.472 130.825 223.387C129.956 223.297 129.087 223.205 128.22 223.105C127.83 223.06 127.44 223.012 127.05 222.963C126.951 222.95 126.821 222.933 126.75 222.923C126.579 222.899 126.407 222.875 126.237 222.85C124.603 222.609 122.989 222.273 121.371 221.943C120.561 221.778 119.758 221.599 118.94 221.474C118.395 221.39 117.843 221.319 117.29 221.348C117.031 221.362 116.742 221.391 116.491 221.45C116.336 221.474 116.189 221.522 116.051 221.596C115.824 221.736 115.762 221.75 115.864 221.638C114.639 221.94 114.343 223.485 115.148 224.349C115.346 224.561 115.626 225.003 115.915 225.257C116.319 225.612 116.754 225.936 117.233 226.178C118.135 226.632 119.071 226.983 120.036 227.276C120.844 227.521 121.672 227.709 122.507 227.865C123.313 228.229 124.119 228.591 124.923 228.96C126.19 229.544 127.485 230.085 128.725 230.724C129.316 231.028 129.874 231.382 130.464 231.688C130.724 231.823 130.978 231.969 131.224 232.128C131.366 232.22 131.503 232.318 131.64 232.418C131.699 232.46 132.015 232.714 131.906 232.622C133.989 234.352 136.025 236.122 138.167 237.781C140.537 239.616 142.965 241.379 145.372 243.165C147.538 244.773 149.666 246.638 152.051 247.913C154.772 249.368 157.826 249.672 160.794 248.82C163.6 248.015 165.993 246.342 168.168 244.444C170.214 242.658 172.131 240.715 174.091 238.836C175.154 237.817 176.207 236.784 177.249 235.742C179.73 233.673 182.166 231.553 184.485 229.303C185.462 228.354 186.419 227.384 187.348 226.388C188.151 225.529 188.993 224.656 189.737 223.726C191.356 223.428 192.989 223.152 194.579 222.75C195.393 222.545 196.221 222.363 197.001 222.045C197.771 221.731 198.823 220.687 198.306 219.761Z" fill="#1F8C4A"/>
<path d="M147.491 110.741C147.491 110.741 148.186 118.915 140.425 123.666C131.98 128.837 117.676 130.215 117.676 130.215C117.676 130.215 129.912 150.896 148.697 152.275C167.482 153.654 188.507 142.451 188.507 142.451C188.507 142.451 163.69 139.522 170.239 113.326C170.239 113.326 154.384 107.122 153.35 107.294C152.317 107.467 147.491 110.741 147.491 110.741Z" fill="#E8BCA8"/>
<path d="M159.365 243.051C159.365 243.051 98.1771 211.623 105.871 165.458C111.557 131.347 151.751 134.569 162.743 151.24C162.743 151.24 175.905 135.886 192.988 142.968C218.916 153.716 219.819 207.878 159.365 243.051Z" fill="#E25D5D"/>
<path d="M169.144 121.112C169.183 118.777 169.524 116.191 170.24 113.326C170.24 113.326 154.386 107.122 153.351 107.294C152.317 107.467 147.492 110.741 147.492 110.741C147.492 110.741 148.187 118.915 140.426 123.666C139.929 123.97 139.411 124.261 138.878 124.538C148.994 126.575 159.726 125.317 169.144 121.112Z" fill="#DC967B"/>
<path d="M131.55 70.4138C131.55 70.4138 123.795 69.38 122.933 77.6522C122.071 85.9243 130.688 87.82 130.688 87.82C130.688 87.82 134.135 118.668 159.641 121.426C185.146 124.184 191.695 85.5799 192.04 79.0309C192.04 79.0309 174.29 60.246 173.255 48.355C173.255 48.355 153.092 69.5525 131.55 70.4138Z" fill="#E8BCA8"/>
<path d="M131.297 77.2437C131.124 76.3875 130.83 75.6057 130.277 74.9202C129.721 74.2303 128.959 73.7788 128.063 73.7421C127.68 73.7269 127.295 73.8041 126.951 73.971C126.798 74.0454 126.626 74.1463 126.507 74.2714C126.373 74.4135 126.33 74.6468 126.265 74.8278C126.183 75.0595 126.483 75.2861 126.686 75.1513C126.804 75.0724 126.82 75.1051 126.968 75.0645C127.059 75.0397 127.14 74.9834 127.229 74.9518C127.412 74.8875 127.618 74.8813 127.809 74.9073C128.177 74.9574 128.521 75.1502 128.752 75.4337C128.926 75.6468 129.031 75.8886 129.111 76.1417C128.813 76.206 128.52 76.3526 128.261 76.5944C127.565 77.246 127.301 78.3779 127.148 79.2883C126.98 80.2899 126.811 81.5966 127.591 82.388C128.465 83.2735 129.797 82.8029 130.504 81.9675C131.089 81.2764 131.36 80.4607 131.458 79.5718C131.544 78.7973 131.45 78.0042 131.297 77.2437Z" fill="#DC967B"/>
<path d="M144.094 195.858C143.854 195.83 143.844 195.829 144.062 195.854C143.821 195.776 143.579 195.76 143.337 195.807C142.786 195.835 142.341 196.043 141.875 196.313C141.611 196.466 141.351 196.622 141.089 196.777C141.067 196.762 141.044 196.747 141.022 196.732C140.491 196.364 139.965 195.988 139.443 195.605C139.166 195.401 138.889 195.194 138.613 194.986C138.476 194.883 138.338 194.778 138.201 194.674C138.18 194.658 138.161 194.642 138.141 194.627C135.998 192.948 133.893 191.216 131.827 189.443C131.677 189.314 130.664 188.521 131.118 188.871C130.842 188.658 130.568 188.444 130.294 188.231C129.764 187.818 129.238 187.404 128.725 186.971C128.205 186.53 127.703 186.062 127.164 185.646C126.596 185.207 126.333 185.009 125.752 184.483C123.925 182.829 122.196 181.028 121.029 178.843C120.394 177.655 119.915 176.377 119.596 175.068C119.431 174.393 119.257 173.717 119.179 173.025C119.101 172.324 119.151 171.621 119.081 170.922C119.039 170.501 118.505 170.305 118.261 170.7C117.596 171.773 117.418 173.202 117.318 174.439C117.214 175.717 117.42 177.057 117.75 178.291C118.443 180.888 119.741 183.416 121.315 185.586C124.668 190.207 128.89 194.241 133.317 197.827C133.962 198.35 134.613 198.865 135.269 199.372C135.02 199.456 134.772 199.548 134.52 199.624C133.419 199.96 132.3 200.21 131.184 200.49C128.974 201.044 126.735 201.35 124.476 201.648C122.045 201.968 119.595 202.711 117.138 202.759C116.899 202.763 116.835 203.063 117.021 203.189C118.17 203.973 119.424 204.114 120.782 204.176C122.01 204.231 123.246 204.317 124.475 204.304C126.897 204.279 129.34 204.052 131.747 203.801C134.2 203.546 136.671 203.009 139.021 202.27C139.075 202.253 139.127 202.233 139.18 202.216C139.248 202.261 139.313 202.31 139.381 202.356C140.494 203.104 141.588 203.43 142.922 203.135C144.161 202.859 144.794 201.474 144.521 200.318C144.476 200.125 144.41 199.95 144.338 199.778C145.039 199.26 145.382 198.679 145.59 197.824C145.85 196.751 145.101 195.978 144.094 195.858Z" fill="#CA4E4D"/>
<path d="M140.812 175.67C140.777 175.466 140.731 175.265 140.695 175.061C140.67 174.926 140.648 174.79 140.627 174.654C140.593 174.419 140.587 174.382 140.608 174.543C140.482 173.67 140.399 172.9 140.346 171.862C140.3 170.968 140.241 170.082 140.27 169.186C140.3 168.233 140.502 167.171 140.099 166.281C139.903 165.849 139.187 165.661 138.807 165.942C137.941 166.581 137.62 167.79 137.365 168.793C137.111 169.793 136.906 170.831 136.827 171.862C136.753 172.816 136.751 173.796 136.859 174.748C137.003 176.011 137.097 177.407 137.993 178.391C138.866 179.348 140.523 178.837 140.846 177.637C141.023 176.979 140.926 176.331 140.812 175.67Z" fill="#CA4E4D"/>
<path d="M177.243 178.212C176.089 176.565 173.904 178.454 172.988 179.431C171.715 180.788 170.625 182.354 169.615 183.912C168.631 185.43 167.659 187.012 166.894 188.652C166.823 188.803 166.758 188.957 166.689 189.108C166.426 189.046 166.163 188.988 165.902 188.92C164.972 188.679 164.063 188.37 163.141 188.107C161.345 187.595 159.566 187.01 157.809 186.379C156.109 185.768 154.432 185.093 152.774 184.376C151.918 184.005 151.065 183.624 150.215 183.239C149.383 182.863 148.331 182.327 147.391 182.438C147.03 182.48 146.617 182.812 146.784 183.235C147.132 184.12 147.962 184.768 148.702 185.326C149.515 185.939 150.336 186.541 151.161 187.137C152.835 188.348 154.537 189.52 156.299 190.599C158.116 191.712 160.044 192.743 162.049 193.479C162.989 193.824 163.953 194.114 164.92 194.373C164.922 194.374 164.923 194.374 164.924 194.374C164.922 194.41 164.917 194.445 164.916 194.482C164.895 195.168 165.309 195.876 165.907 196.208C166.25 196.399 166.527 196.455 166.916 196.481C167.623 196.527 168.281 196.061 168.642 195.49C168.858 195.148 169.017 194.777 169.159 194.399C170.07 193.858 170.536 192.751 170.399 191.728C170.376 191.557 170.333 191.395 170.281 191.238C170.393 190.944 170.504 190.649 170.621 190.358C171.228 188.846 171.836 187.39 172.602 185.946C173.382 184.477 174.238 183.038 175.171 181.66C175.545 181.108 175.979 180.626 176.461 180.166C176.916 179.732 177.736 178.915 177.243 178.212Z" fill="#CA4E4D"/>
<path d="M189.717 176.43C188.606 176.725 187.615 177.196 186.61 177.76C185.606 178.323 184.759 179.214 183.932 180.003C183.101 180.796 182.236 181.669 181.373 182.245C180.374 182.912 179.387 183.595 178.355 184.211C176.99 185.026 174.632 185.943 175.174 187.959C175.424 188.889 176.341 189.467 177.285 189.428C178.149 189.392 178.917 188.853 179.625 188.402C181.808 187.009 183.812 185.489 185.486 183.497C186.364 182.453 187.188 181.342 187.915 180.186C188.611 179.079 189.14 177.894 189.975 176.871C190.134 176.676 189.99 176.357 189.717 176.43Z" fill="#CA4E4D"/>
<path d="M200.967 186.371C200.675 186.101 200.298 186.069 199.95 186.24C199.268 186.575 199.045 187.209 198.743 187.857C198.429 188.532 198.069 189.191 197.712 189.844C197.013 191.119 196.277 192.364 195.437 193.554C194.689 194.615 193.692 195.751 192.678 196.868C191.652 197.999 190.568 199.074 189.465 200.129C188.852 200.714 188.274 201.34 187.837 202.072C187.697 202.306 187.66 202.402 187.525 202.719C187.614 202.508 187.64 202.177 187.431 202.933C187.31 203.373 187.375 203.868 187.605 204.262C188.246 205.358 189.68 205.454 190.718 204.953C191.531 204.561 192.196 203.944 192.838 203.322C195.127 201.1 197.305 198.774 199.004 196.058C199.9 194.626 200.681 193.049 201.133 191.415C201.365 190.577 201.486 189.72 201.548 188.853C201.612 187.975 201.667 187.018 200.967 186.371Z" fill="#CA4E4D"/>
<path d="M185.596 219.822C185.402 219.618 185.199 219.491 184.968 219.391C184.138 218.817 183.001 218.825 182.027 218.658C180.932 218.471 179.835 218.275 178.744 218.058C177.578 217.825 176.421 217.551 175.269 217.26C175.253 216.838 175.117 216.418 174.823 216.049C174.288 215.377 173.338 215.02 172.499 215.263C172.137 215.208 171.773 215.159 171.409 215.12C170.841 215.06 170.271 215.031 169.7 215.031C169.513 215.031 169.329 215.041 169.145 215.049C169.463 214.31 169.499 213.458 169.036 212.74C168.396 211.747 167.265 211.27 166.105 211.547C164.927 211.829 163.908 212.576 162.861 213.162C162.683 213.262 162.503 213.357 162.325 213.456C161.769 213.354 161.2 213.321 160.649 213.447C160.419 213.527 160.2 213.629 159.985 213.74C159.985 213.739 159.974 213.742 159.95 213.752C159.608 213.767 159.279 213.931 159.086 214.273C159.262 214.104 159.196 214.198 158.889 214.555C158.746 214.801 158.677 215.067 158.664 215.349C158.122 215.609 157.578 215.865 157.03 216.113C156.599 216.307 156.166 216.496 155.732 216.682C155.647 216.717 155.402 216.82 155.325 216.852C155.048 216.966 154.77 217.077 154.492 217.187C150.311 218.84 146.04 220.017 141.625 220.834C140.452 221.051 139.274 221.353 138.11 221.483C136.819 221.627 135.144 221.431 134.117 222.329C133.737 222.662 133.612 223.428 133.921 223.851C134.677 224.883 136.009 225.044 137.202 225.241C138.484 225.452 139.787 225.626 141.087 225.683C143.545 225.79 146.003 225.362 148.4 224.822C152.966 223.792 157.432 221.972 161.648 219.967C161.707 219.939 161.764 219.909 161.823 219.881C161.83 219.88 161.837 219.879 161.843 219.878C162.576 219.764 163.315 219.639 164.055 219.527C166.253 220.098 168.502 220.455 170.726 220.903C173.014 221.364 175.3 221.842 177.611 222.172C178.864 222.351 180.105 222.506 181.371 222.519C182.51 222.532 183.948 222.633 184.939 221.975C185.185 221.871 185.398 221.741 185.597 221.521C186.039 221.029 186.062 220.313 185.596 219.822Z" fill="#CA4E4D"/>
<path d="M217.332 197.784C217.332 197.784 199.986 203.872 179.81 197.373C159.635 190.875 150.609 184.533 148.712 182.356C146.815 180.178 145.244 167.608 141.287 165.587C137.33 163.566 138.898 171.191 139.09 174.376C139.09 174.376 134.715 173.043 132.751 166.98C130.788 160.917 127.925 161.652 127.244 162.974C127.244 162.974 125.947 160.641 123.964 161.075C121.981 161.508 122.091 164.088 122.091 164.088C122.091 164.088 119.425 164.793 119.248 167.912C119.248 167.912 117.386 169.089 117.763 172.308C118.139 175.527 119.692 179.855 125.787 185.542C131.883 191.228 136.786 195.06 138.534 196.291C140.282 197.523 162.606 218.281 185.627 221.174C208.65 224.068 219.529 209.49 217.332 197.784Z" fill="#E8BCA8"/>
<path d="M94.627 195.832C94.627 195.832 111.171 204.88 132.886 202.036C154.601 199.193 164.941 194.54 167.268 192.73C169.594 190.92 173.601 177.995 177.996 176.703C182.391 175.41 179.418 183.294 178.643 186.397C178.643 186.397 184.265 184.264 187.367 178.642C190.469 173.019 193.248 174.247 193.701 175.669C193.701 175.669 195.446 173.601 197.385 174.376C199.323 175.152 198.742 177.672 198.742 177.672C198.742 177.672 201.327 178.836 200.939 181.938C200.939 181.938 202.62 183.424 201.65 186.526C200.681 189.628 197.256 195.38 190.017 199.903C182.779 204.428 177.092 207.336 175.089 208.24C173.085 209.145 146.588 225.647 122.633 224.44C98.6771 223.234 95.0576 208.068 94.627 195.832Z" fill="#E8BCA8"/>
<path d="M167.152 192.573C166.658 192.563 166.315 192.794 165.879 193.009C165.378 193.257 164.874 193.499 164.368 193.735C163.407 194.182 162.438 194.61 161.458 195.013C159.508 195.814 157.525 196.536 155.515 197.17C153.546 197.791 151.552 198.33 149.537 198.784C148.531 199.01 147.514 199.191 146.508 199.416C145.965 199.538 145.423 199.664 144.877 199.778C144.463 199.865 144.145 199.916 143.929 200.288C143.881 200.371 143.893 200.487 143.963 200.554C144.277 200.853 144.587 200.816 145.012 200.774C145.565 200.72 146.116 200.66 146.667 200.592C147.659 200.47 148.642 200.257 149.619 200.049C151.764 199.592 153.889 199.039 155.986 198.392C158.04 197.758 160.067 197.035 162.057 196.221C163.027 195.824 163.99 195.41 164.944 194.974C165.803 194.582 167.09 194.221 167.647 193.434C167.908 193.065 167.554 192.581 167.152 192.573Z" fill="#DC967B"/>
<path d="M188.299 200.187C186.343 201.316 184.479 202.631 182.548 203.807C180.614 204.985 178.653 206.122 176.67 207.217C172.707 209.404 168.642 211.403 164.559 213.355C164.093 213.577 164.427 214.397 164.915 214.2C169.121 212.497 173.192 210.51 177.186 208.359C179.18 207.284 181.152 206.167 183.099 205.008C185.065 203.838 187.119 202.675 188.95 201.3C189.596 200.815 189.038 199.76 188.299 200.187Z" fill="#DC967B"/>
<path d="M193.612 176.025C193.474 175.718 193.011 175.942 193.085 176.247C193.125 176.414 192.963 176.649 192.894 176.791C192.781 177.028 192.665 177.264 192.547 177.498C192.336 177.918 192.114 178.332 191.879 178.739C191.399 179.571 190.879 180.381 190.312 181.157C189.178 182.706 187.902 184.136 186.458 185.403C186.066 185.747 185.663 186.08 185.249 186.397C184.928 186.64 184.589 186.867 184.262 187.106C184.238 187.071 184.196 187.046 184.154 187.061C184.046 187.1 183.946 187.14 183.834 187.166C183.679 187.201 183.621 187.362 183.643 187.502C183.671 187.681 183.719 187.824 183.795 187.989C183.911 188.239 184.239 188.266 184.456 188.163C184.921 187.939 185.347 187.577 185.757 187.267C186.166 186.957 186.568 186.637 186.958 186.303C187.746 185.631 188.489 184.907 189.181 184.137C190.57 182.592 191.759 180.877 192.677 179.012C192.924 178.509 193.157 177.999 193.367 177.48C193.552 177.021 193.83 176.512 193.612 176.025Z" fill="#DC967B"/>
<path d="M198.383 177.898C198.056 178.226 197.843 178.715 197.622 179.12C197.37 179.578 197.122 180.036 196.858 180.486C196.35 181.355 195.807 182.204 195.231 183.03C194.073 184.691 192.757 186.256 191.32 187.682C190.908 188.09 190.484 188.488 190.051 188.874C189.849 189.054 189.644 189.232 189.437 189.407C189.336 189.492 189.25 189.58 189.165 189.669C189.156 189.671 189.147 189.667 189.138 189.672C188.937 189.77 188.747 190.033 188.694 190.249C188.61 190.591 188.972 190.867 189.28 190.7C189.512 190.573 189.723 190.478 189.933 190.311C190.145 190.143 190.35 189.964 190.554 189.786C190.947 189.443 191.333 189.089 191.709 188.727C192.462 188.002 193.179 187.24 193.858 186.446C195.216 184.858 196.41 183.114 197.399 181.273C197.683 180.744 197.952 180.205 198.199 179.658C198.42 179.169 198.716 178.587 198.737 178.044C198.744 177.862 198.507 177.774 198.383 177.898Z" fill="#DC967B"/>
<path d="M200.693 182.153C200.39 182.659 200.202 183.242 199.969 183.783C199.732 184.335 199.469 184.877 199.2 185.414C198.678 186.458 198.082 187.468 197.412 188.424C196.743 189.379 195.995 190.278 195.181 191.113C194.761 191.545 194.323 191.961 193.871 192.36C193.646 192.558 193.407 192.746 193.195 192.958C193.098 193.055 193.027 193.216 192.926 193.3C192.864 193.351 192.743 193.339 192.833 193.349C192.783 193.343 192.734 193.382 192.709 193.42C192.505 193.743 192.938 193.891 193.186 193.878C193.673 193.853 194.112 193.407 194.46 193.108C195.246 192.432 195.978 191.696 196.657 190.913C198.041 189.316 199.218 187.534 200.097 185.612C200.339 185.082 200.547 184.534 200.734 183.983C200.92 183.435 201.112 182.855 201.137 182.272C201.146 182.032 200.81 181.957 200.693 182.153Z" fill="#DC967B"/>
<path d="M133.635 177.02C133.532 176.8 133.462 176.614 133.299 176.428C133.136 176.243 132.958 176.071 132.791 175.888C132.443 175.506 132.117 175.101 131.803 174.69C131.189 173.884 130.661 173.015 130.191 172.119C129.204 170.235 128.374 168.192 127.841 166.131C127.679 165.505 127.556 164.867 127.512 164.22C127.489 163.895 127.491 163.57 127.489 163.245C127.487 163.002 127.52 162.703 127.329 162.525C127.295 162.493 127.25 162.489 127.209 162.51C126.802 162.708 126.847 163.52 126.85 163.895C126.855 164.491 126.926 165.086 127.034 165.671C127.252 166.857 127.644 168.003 128.063 169.131C128.809 171.138 129.702 173.113 130.965 174.852C131.32 175.34 131.701 175.802 132.125 176.233C132.324 176.435 132.527 176.638 132.747 176.819C132.996 177.025 133.204 177.095 133.513 177.178C133.611 177.204 133.674 177.102 133.635 177.02Z" fill="#DC967B"/>
<path d="M128.97 177.246C128.775 176.753 128.306 176.299 127.992 175.875C126.615 174.016 125.43 172.015 124.46 169.915C123.906 168.714 123.401 167.475 123.03 166.204C122.83 165.523 122.664 164.829 122.607 164.12C122.555 163.483 122.675 162.821 122.574 162.193C122.562 162.116 122.462 162.124 122.425 162.173C122.108 162.609 122.078 163.215 122.064 163.736C122.048 164.318 122.124 164.906 122.232 165.477C122.456 166.663 122.876 167.812 123.319 168.932C124.165 171.073 125.221 173.129 126.48 175.058C126.792 175.537 127.117 176.01 127.455 176.472C127.607 176.682 127.766 176.886 127.925 177.09C128.093 177.304 128.283 177.595 128.538 177.714C128.92 177.894 129.112 177.604 128.97 177.246Z" fill="#DC967B"/>
<path d="M126.968 181.835C126.405 181.04 125.521 180.509 124.849 179.81C124.135 179.067 123.533 178.232 123.005 177.349C121.815 175.362 121.092 173.145 120.411 170.944C120.208 170.291 119.997 169.639 119.827 168.977C119.744 168.654 119.666 168.33 119.602 168.003C119.537 167.662 119.52 167.313 119.446 166.975C119.416 166.839 119.23 166.859 119.191 166.975C119.005 167.522 119.084 168.179 119.177 168.739C119.278 169.352 119.467 169.953 119.633 170.551C119.965 171.742 120.305 172.931 120.718 174.097C121.484 176.259 122.494 178.345 124.038 180.062C124.768 180.873 125.725 181.891 126.876 181.994C126.953 182 127.012 181.898 126.968 181.835Z" fill="#DC967B"/>
<path d="M204.595 157.129C204.286 156.576 203.955 156.035 203.602 155.51C202.03 153.17 200.136 151.116 197.897 149.407C196.613 148.425 195.251 147.512 193.636 147.202C192.733 147.028 191.65 146.939 190.748 147.214C190.054 147.426 189.042 147.975 189.069 148.811C189.093 149.516 189.645 150.08 189.993 150.421C190.116 150.541 190.688 150.974 190.382 150.734C190.586 150.895 190.786 151.054 190.993 151.214C190.799 151.064 190.457 150.827 191.35 151.491C191.532 151.626 191.716 151.757 191.9 151.89C192.024 151.979 192.145 152.07 192.268 152.159C192.035 151.991 191.58 151.692 192.632 152.439C192.873 152.611 193.125 152.765 193.37 152.93C193.612 153.094 193.846 153.269 194.085 153.438C194.096 153.446 194.103 153.451 194.113 153.458C194.246 153.569 194.384 153.676 194.517 153.787C195.491 154.599 196.418 155.458 197.262 156.406C197.449 156.616 197.632 156.83 197.812 157.047C197.901 157.155 197.989 157.265 198.078 157.375C198.427 157.807 198.068 157.327 198.027 157.308C198.196 157.382 198.417 157.842 198.521 157.992C198.722 158.281 198.916 158.574 199.104 158.872C199.464 159.447 199.754 160.082 200.168 160.617C201.128 161.861 203.22 162.257 204.358 160.99C205.388 159.842 205.315 158.423 204.595 157.129Z" fill="#DF9E90"/>
<path d="M206.786 168.504C206.733 168.188 206.583 167.896 206.445 167.607C206.252 167.203 206.014 166.818 205.68 166.525C205.453 166.256 205.05 166 204.707 165.915C204.09 165.763 203.595 165.917 203.208 166.433C203.178 166.473 203.143 166.518 203.118 166.562C203.108 166.581 203.072 166.664 203.038 166.748C203.009 166.811 202.877 167.123 202.866 167.165C202.843 167.257 202.83 167.354 202.821 167.451C202.776 167.628 202.753 167.809 202.735 168.025C202.729 168.093 202.721 168.159 202.715 168.227C202.666 168.521 202.616 168.813 202.613 169.113C202.611 169.345 202.591 169.576 202.564 169.806C202.532 170.029 202.498 170.251 202.47 170.474C202.496 170.28 202.522 170.086 202.548 169.892C202.499 170.228 202.418 170.565 202.414 170.906C202.408 171.331 202.527 171.884 202.762 172.246C203.029 172.657 203.453 173.045 203.948 173.157C204.123 173.181 204.299 173.204 204.475 173.228C204.833 173.227 205.167 173.137 205.476 172.957C205.839 172.803 206.25 172.327 206.435 171.995C206.598 171.703 206.709 171.384 206.778 171.058C206.886 170.546 206.933 170.031 206.904 169.51C206.884 169.176 206.841 168.831 206.786 168.504Z" fill="#DF9E90"/>
<path d="M115.392 201.116C113.79 200.368 111.956 200.209 110.244 199.826C108.478 199.429 106.711 198.927 105.005 198.322C104.629 198.188 104.383 198.78 104.734 198.965C106.394 199.845 108.095 200.549 109.903 201.063C111.621 201.552 113.563 202.029 115.334 201.56C115.523 201.509 115.586 201.207 115.392 201.116Z" fill="#DC967B"/>
<path d="M209.145 199.014C208.763 198.805 208.42 198.607 207.988 198.527C207.493 198.435 207.008 198.465 206.509 198.489C205.496 198.538 204.482 198.69 203.473 198.803C202.494 198.912 201.519 199.049 200.542 199.187C199.806 199.291 198.701 199.443 198.229 200.088C198.196 200.134 198.211 200.21 198.25 200.248C198.805 200.787 199.928 200.754 200.647 200.734C201.661 200.706 202.671 200.662 203.683 200.598C204.659 200.536 205.645 200.507 206.614 200.381C207.113 200.316 207.61 200.276 208.086 200.104C208.523 199.945 208.835 199.678 209.194 199.394C209.316 199.297 209.27 199.082 209.145 199.014Z" fill="#DC967B"/>
<path d="M126.91 139.672C126.761 139.092 126.203 138.902 125.749 138.599C125.315 138.31 124.915 137.978 124.525 137.632C123.715 136.915 122.938 136.159 122.188 135.38C120.662 133.794 119.199 132.107 117.863 130.357C117.464 129.833 116.581 130.295 116.951 130.89C118.181 132.871 119.564 134.707 121.149 136.419C121.919 137.252 122.719 138.062 123.558 138.825C123.963 139.192 124.384 139.542 124.827 139.861C125.284 140.19 125.887 140.676 126.479 140.43C126.792 140.3 127.002 140.028 126.91 139.672Z" fill="#63A59F"/>
<path d="M202.167 82.495C201.508 82.1455 200.92 81.7616 200.216 81.499C199.553 81.2515 198.871 81.0627 198.221 80.7791C196.891 80.198 195.64 79.4128 194.485 78.5373C192.099 76.7279 190.06 74.4743 188.092 72.2319C183.927 67.4862 179.975 62.4767 177.149 56.7992C176.354 55.2023 175.686 53.5569 175.125 51.8641C174.855 51.049 174.616 50.2238 174.413 49.3895C174.325 49.0293 174.253 48.6652 174.174 48.3028C174.463 47.6996 174.595 46.84 173.961 46.4679C172.888 45.8377 171.78 46.9899 171.097 47.6703C169.571 49.1883 168.008 50.6719 166.416 52.1212C160.085 57.8877 152.728 62.7766 144.784 66.0099C136.558 69.3577 127.535 70.9219 118.683 69.8019C117.58 69.6621 116.487 69.4388 115.375 69.3971C114.954 69.3813 114.753 70.029 115.153 70.2179C117.068 71.1237 119.322 71.3965 121.406 71.6671C123.642 71.958 125.888 72.0352 128.141 71.9484C132.581 71.7776 137.008 71.0346 141.258 69.7387C149.661 67.1762 157.283 62.6408 164.177 57.2615C165.907 55.9109 167.594 54.5005 169.258 53.0687C170.059 52.3788 170.844 51.6697 171.621 50.9515C171.935 50.6607 172.292 50.3636 172.645 50.0547C172.759 50.6511 172.885 51.2458 173.033 51.8348C173.433 53.421 173.978 54.9656 174.607 56.4746C175.91 59.5946 177.577 62.515 179.491 65.2985C181.403 68.0775 183.51 70.7218 185.683 73.3001C187.722 75.7195 189.811 78.1321 192.257 80.1529C193.637 81.2932 195.115 82.3372 196.739 83.1027C197.546 83.4826 198.409 83.8822 199.288 84.0559C200.252 84.2464 201.057 84.1201 201.988 83.8636C202.59 83.6979 202.745 82.8011 202.167 82.495Z" fill="#9C4F4D"/>
<path d="M115.505 102.105C116.707 98.0586 117.185 93.7955 117.17 89.5819C117.163 87.4974 117.064 85.414 116.921 83.3345C116.849 82.2894 116.76 81.2494 116.629 80.2106C116.494 79.139 116.422 78.0223 116.047 77.0054C115.935 76.7021 115.452 76.6407 115.368 77.0054C114.959 78.763 115.139 80.7556 115.167 82.5532C115.197 84.4636 115.194 86.3745 115.122 88.2837C114.98 92.0486 114.636 95.8185 113.763 99.4904C112.916 103.057 111.197 106.324 110.32 109.871C109.865 111.711 109.74 113.555 110.043 115.428C110.327 117.184 111.078 119.037 110.66 120.829C110.275 122.478 109.151 123.86 108.835 125.535C108.58 126.89 108.663 128.925 110.148 129.57C110.537 129.739 111.106 129.723 111.323 129.308C111.587 128.806 111.169 128.087 111.074 127.599C110.78 126.082 111.482 124.823 112.104 123.495C112.94 121.709 113.233 120.049 112.938 118.089C112.66 116.247 112.087 114.509 112.222 112.623C112.481 108.952 114.471 105.582 115.505 102.105Z" fill="#9C4F4D"/>
<path d="M126.885 92.4501C125.224 91.1372 123.885 95.4489 123.573 96.4618C122.859 98.7792 122.517 101.205 122.361 103.621C122.037 108.674 122.661 113.722 122.559 118.777C122.531 120.192 122.445 121.607 122.276 123.013C122.119 124.328 121.513 125.901 122.243 127.111C122.356 127.298 122.595 127.358 122.785 127.253C123.808 126.689 124.015 125.548 124.194 124.473C124.391 123.291 124.526 122.098 124.597 120.902C124.738 118.503 124.666 116.097 124.555 113.699C124.347 109.174 123.954 104.563 124.658 100.06C124.853 98.8096 125.13 97.5706 125.513 96.3638C125.698 95.7832 125.884 95.2003 126.096 94.6293C126.212 94.3187 126.392 93.2375 126.71 93.113C126.953 93.0171 127.145 92.6552 126.885 92.4501Z" fill="#9C4F4D"/>
<path d="M135.106 112.626C134.893 112.247 134.237 112.199 134.039 112.626C133.629 113.507 133.668 114.575 133.591 115.53C133.513 116.5 133.428 117.471 133.335 118.44C133.243 119.385 133.105 120.32 132.952 121.256C132.867 121.778 132.799 122.287 132.81 122.816C132.822 123.331 132.937 123.697 133.125 124.174C133.224 124.425 133.501 124.517 133.714 124.329C134.084 124.003 134.35 123.745 134.56 123.289C134.78 122.811 134.937 122.347 135.033 121.829C135.229 120.781 135.363 119.715 135.471 118.655C135.574 117.645 135.622 116.653 135.593 115.637C135.566 114.673 135.589 113.489 135.106 112.626Z" fill="#9C4F4D"/>
<path d="M197.866 89.115C197.575 88.5022 196.69 88.952 196.82 89.5563C197.568 93.0613 197.787 96.5179 196.643 99.9716C196.095 101.627 195.252 103.122 194.243 104.538C193.249 105.935 192.152 107.286 191.457 108.868C190.768 110.436 190.601 112.017 190.848 113.705C191.103 115.449 191.745 117.168 191.666 118.948C191.587 120.697 190.387 121.994 189.514 123.414C188.622 124.866 188.178 126.471 187.96 128.148C187.729 129.924 187.724 131.717 187.533 133.496C187.347 135.229 186.598 136.813 186.45 138.535C186.418 138.901 186.839 139.039 187.113 138.915C188.702 138.193 189.149 136.403 189.416 134.812C189.691 133.171 189.741 131.509 189.869 129.854C189.99 128.299 190.182 126.672 190.838 125.24C191.582 123.617 192.879 122.302 193.36 120.549C194.346 116.953 191.528 113.467 192.84 109.923C193.435 108.315 194.559 106.941 195.539 105.557C196.559 104.117 197.41 102.61 198.012 100.946C199.351 97.2411 199.581 92.7344 197.866 89.115Z" fill="#9C4F4D"/>
<path d="M182.526 116.5C182.803 115.872 183.417 114.906 183.241 114.21C183.208 114.081 183.063 113.954 182.922 113.968C182.186 114.039 181.625 114.907 181.274 115.499C180.808 116.287 180.474 117.188 180.217 118.064C179.673 119.916 179.568 121.832 179.8 123.742C179.927 124.799 180.109 125.856 180.072 126.925C180.034 128.01 179.742 129.065 179.418 130.095C179.109 131.078 178.771 132.052 178.444 133.03C178.074 134.14 177.956 135.067 178.054 136.229C178.08 136.547 178.5 136.81 178.749 136.517C179.439 135.707 179.905 134.963 180.245 133.943C180.571 132.969 180.858 131.978 181.154 130.994C181.776 128.922 182.036 126.978 181.734 124.827C181.465 122.916 181.23 121.095 181.634 119.182C181.832 118.251 182.142 117.369 182.526 116.5Z" fill="#9C4F4D"/>
<path d="M167.711 38.3074C166.349 39.5543 164.882 40.6737 163.589 42.0012C162.3 43.3236 160.962 44.5948 159.563 45.7999C156.779 48.199 153.77 50.3202 150.614 52.2006C144.263 55.9841 137.216 58.6656 129.967 60.1148C127.942 60.5195 125.898 60.8217 123.842 61.0122C121.773 61.2039 119.703 61.2309 117.659 61.6159C117.312 61.6813 117.333 62.2163 117.659 62.2952C119.516 62.7461 121.389 62.7275 123.289 62.6345C125.172 62.5421 127.047 62.3555 128.914 62.0962C132.678 61.5725 136.416 60.7247 140.01 59.4841C147.258 56.9824 154.014 53.2288 159.933 48.3534C161.557 47.0158 163.113 45.5959 164.59 44.0987C166.146 42.5221 167.291 40.7335 168.386 38.8282C168.632 38.397 168.068 37.981 167.711 38.3074Z" fill="#9C4F4D"/>
<path d="M158.305 32.2353C156.14 33.9455 154.07 35.7781 151.962 37.5593C149.891 39.3096 147.665 40.8676 145.372 42.3135C143.012 43.8022 140.585 45.1861 138.137 46.5254C135.569 47.9307 132.997 49.3861 130.325 50.5839C128.752 51.2891 127.108 51.868 125.415 52.2079C124.61 52.3697 123.802 52.549 122.983 52.6256C122.176 52.7012 121.296 52.5298 120.53 52.8026C120.416 52.8426 120.342 53.0056 120.452 53.0969C120.965 53.523 121.565 53.5839 122.214 53.6747C123.01 53.7868 123.817 53.855 124.621 53.8421C126.124 53.8173 127.659 53.434 129.09 53.0022C132.135 52.0834 134.982 50.6623 137.794 49.2007C142.961 46.5152 148.035 43.6455 152.592 39.9928C155.129 37.9584 157.417 35.6056 158.788 32.609C158.938 32.2827 158.582 32.016 158.305 32.2353Z" fill="#9C4F4D"/>
<path d="M196.389 67.2574C196.37 67.2517 196.343 67.2529 196.315 67.2546C196.244 67.0426 195.966 66.8876 195.814 66.7506C195.416 66.3955 195.041 66.0257 194.629 65.6836C193.814 65.006 193.009 64.3234 192.242 63.5906C190.725 62.1419 189.308 60.5596 188.048 58.8827C185.503 55.4966 183.444 51.6956 182.053 47.694C181.669 46.5892 181.352 45.468 181.06 44.3361C180.754 43.1523 180.375 41.9579 180.145 40.7589C180.054 40.2865 179.326 40.4089 179.323 40.87C179.315 42.0081 179.273 43.096 179.396 44.2335C179.515 45.3231 179.72 46.4071 179.956 47.477C180.444 49.6866 181.153 51.8236 182.036 53.9058C183.796 58.0552 186.366 61.8539 189.53 65.0629C190.426 65.9716 191.367 66.8419 192.358 67.6463C193.345 68.4462 194.531 69.4501 195.829 69.0105C196.249 68.927 196.575 68.7624 196.835 68.3549C197.099 67.9428 196.837 67.3848 196.389 67.2574Z" fill="#9C4F4D"/>
<path d="M199.065 59.983L198.936 59.8161C199.055 59.9745 199.022 59.9328 198.838 59.691C198.863 59.7186 198.568 59.4007 198.662 59.51C198.338 59.1357 198.022 58.7705 197.666 58.4232C195.312 56.1228 193.214 53.6285 191.439 50.8529C190.433 49.2808 189.607 47.6325 188.803 45.9516C187.986 44.2436 187.132 42.446 186.581 40.6366C186.55 40.5346 186.375 40.547 186.386 40.6631C186.54 42.2967 186.652 43.8716 187.039 45.4747C187.434 47.1094 188.024 48.672 188.699 50.2103C190.058 53.3061 191.883 56.2034 194.144 58.7214C194.651 59.2857 195.169 59.8488 195.722 60.368C196.414 61.0168 197.218 61.7524 198.248 61.4925C198.946 61.3161 199.336 60.6515 199.065 59.983Z" fill="#9C4F4D"/>
<path d="M154.674 71.8701C154.651 71.5319 154.492 71.2117 154.237 70.9496C153.743 70.4423 153.02 70.1097 152.353 69.9017C151.747 69.7129 151.079 69.6554 150.448 69.6988C149.759 69.7461 149.021 69.8938 148.463 70.32C148.208 70.5144 147.944 70.7303 147.747 70.9846C147.578 71.2027 147.394 71.5088 147.426 71.7957C147.427 71.8013 147.428 71.8064 147.429 71.8115C147.428 71.8419 147.425 71.8718 147.424 71.9231C147.424 71.9699 147.426 72.0161 147.428 72.0629C147.438 72.2675 147.624 72.5279 147.848 72.5432C147.883 72.5454 147.919 72.5499 147.954 72.5527C147.993 72.5561 148.018 72.5572 148.045 72.5584C148.068 72.5663 148.09 72.5742 148.113 72.582C148.229 72.6102 148.344 72.6074 148.456 72.5747C148.484 72.5691 148.497 72.5663 148.515 72.5629C148.521 72.5618 148.521 72.5617 148.527 72.5606C148.529 72.5601 148.53 72.5601 148.531 72.5595C148.612 72.5431 148.591 72.5471 148.549 72.555C148.72 72.5206 148.885 72.4778 149.053 72.4349C149.07 72.431 149.107 72.4253 149.141 72.4186C149.155 72.4163 149.169 72.4141 149.183 72.4124C149.287 72.3988 149.393 72.3938 149.497 72.3808C149.639 72.3633 149.776 72.3261 149.915 72.2934C149.95 72.2867 150.008 72.2748 150.031 72.2714C150.092 72.263 150.153 72.2557 150.213 72.2495C150.335 72.2371 150.458 72.2303 150.58 72.2286C150.628 72.228 150.676 72.2292 150.724 72.2292C150.818 72.2421 150.916 72.2472 151.008 72.2624C151.129 72.2822 151.25 72.3075 151.368 72.3374C151.471 72.3633 151.868 72.502 151.467 72.3566C151.512 72.3718 151.556 72.3876 151.601 72.4028C151.595 72.4011 151.603 72.4045 151.64 72.4186C151.692 72.4462 151.754 72.4642 151.809 72.4879C151.92 72.5369 152.029 72.5911 152.136 72.6497C152.171 72.6694 152.206 72.6908 152.242 72.7111C152.331 72.7827 152.423 72.8537 152.513 72.9208C152.689 73.0516 152.874 73.126 153.062 73.1739C153.14 73.2027 153.22 73.2269 153.299 73.2393C153.983 73.3492 154.842 72.8002 154.708 72.0082C154.699 71.9563 154.684 71.9175 154.674 71.8701Z" fill="#844442"/>
<path d="M182.732 77.5276C181.921 76.6099 180.877 75.9701 179.658 75.7542C179.115 75.6578 178.537 75.6307 177.991 75.7147C177.597 75.775 177.274 75.9301 176.925 76.1155C176.601 76.2886 176.427 76.5388 176.232 76.837C175.969 77.2378 176.308 77.9002 176.774 77.9503C177.232 77.9994 177.682 78.0033 178.143 77.9841C178.337 77.9757 178.527 77.965 178.721 77.9667C178.754 77.9706 178.787 77.974 178.82 77.9785C178.932 77.9937 179.045 78.0135 179.156 78.0377C179.257 78.0597 179.356 78.085 179.454 78.1138C179.469 78.1183 179.498 78.1279 179.522 78.1358C179.712 78.2102 179.897 78.2981 180.074 78.4001C180.111 78.4216 180.148 78.4447 180.185 78.4672C180.258 78.5225 180.332 78.5771 180.403 78.6363C180.48 78.7017 180.556 78.7705 180.628 78.8426C180.653 78.868 180.681 78.9046 180.71 78.9289C180.917 79.1724 181.139 79.359 181.465 79.4255C181.764 79.4869 182.153 79.4238 182.403 79.2384C182.882 78.881 183.188 78.0433 182.732 77.5276Z" fill="#844442"/>
<path d="M165.25 92.8257C165.253 92.8263 165.256 92.8269 165.259 92.8274C165.132 92.7395 164.995 92.6944 164.843 92.6792C164.765 92.6713 164.564 92.6989 164.513 92.7051C164.379 92.7282 164.245 92.7502 164.112 92.7812C163.896 92.8319 163.694 92.9283 163.478 92.9858C163.432 92.9982 163.386 93.0089 163.34 93.0196C163.343 93.0174 163.244 93.0371 163.215 93.0405C163.162 93.0461 163.109 93.0512 163.056 93.0563C162.832 93.0794 162.61 93.0918 162.385 93.0794C162.334 93.0766 162.194 93.0253 162.32 93.0766C162.441 93.1256 162.3 93.0721 162.254 93.0647C162.149 93.0484 162.044 93.0275 161.94 93.0022C161.737 92.9526 161.536 92.8928 161.336 92.8319C161.327 92.8291 161.324 92.8285 161.317 92.8269C161.309 92.8229 161.305 92.8207 161.293 92.815C161.255 92.7975 161.216 92.7812 161.178 92.7632C161.074 92.7141 160.973 92.6594 160.876 92.5991C160.697 92.4881 160.508 92.3968 160.333 92.2773C159.969 92.027 159.531 92.474 159.642 92.8466C159.983 93.9869 161.076 94.7124 162.195 94.9621C162.829 95.1036 163.43 95.0884 164.063 94.9632C164.374 94.9018 164.703 94.8071 164.96 94.6188C165.113 94.5078 165.259 94.3922 165.378 94.2451C165.575 94.0027 165.654 93.7868 165.643 93.5179C165.685 93.1989 165.512 92.9486 165.25 92.8257Z" fill="#DC967B"/>
<path d="M164.514 92.7051C164.546 92.6995 164.578 92.6927 164.611 92.6865C164.502 92.7057 164.487 92.7085 164.514 92.7051Z" fill="#DC967B"/>
<path d="M146.018 89.5269C146.066 88.3962 145.353 87.3415 144.366 86.8331C143.457 86.3641 142.404 86.1707 141.396 86.0625C140.295 85.9441 139.06 86.2919 138.307 87.1397C137.46 88.0929 137.238 89.5021 137.949 90.6087C138.515 91.4892 139.406 92.0387 140.38 92.3691C141.424 92.7231 142.572 92.8279 143.648 92.5737C144.834 92.2935 146.018 91.3787 146.008 90.0523C146.007 89.9818 145.991 89.9165 145.984 89.8483C145.998 89.7423 146.014 89.6363 146.018 89.5269Z" fill="#D3766E"/>
<path d="M186.345 95.9029C186.393 94.7722 185.68 93.7175 184.693 93.2091C183.784 92.7401 182.73 92.5467 181.723 92.4385C180.622 92.3201 179.387 92.6679 178.634 93.5157C177.787 94.4689 177.565 95.8781 178.276 96.9846C178.842 97.8651 179.732 98.4147 180.706 98.745C181.75 99.099 182.898 99.2039 183.975 98.9497C185.16 98.6695 186.344 97.7546 186.334 96.4283C186.334 96.3578 186.317 96.2924 186.31 96.2242C186.326 96.1183 186.34 96.0123 186.345 95.9029Z" fill="#D3766E"/>
<path d="M166.418 99.9969C165.979 100.235 165.707 100.711 165.34 101.047C165.018 101.342 164.661 101.588 164.275 101.794C163.496 102.21 162.633 102.371 161.756 102.326C160.917 102.283 160.109 101.967 159.412 101.506C159.036 101.258 158.737 100.95 158.421 100.631C158.088 100.293 157.73 100 157.425 99.6311C157.133 99.2771 156.678 99.675 156.735 100.033C156.821 100.562 156.968 101.16 157.283 101.601C157.616 102.07 158.026 102.481 158.477 102.837C159.395 103.561 160.469 104.044 161.63 104.201C162.842 104.366 164.058 104.112 165.162 103.607C165.696 103.362 166.188 103.038 166.636 102.658C167.095 102.268 167.73 101.696 167.825 101.079C167.951 100.271 167.207 99.5696 166.418 99.9969Z" fill="#DC967B"/>
<path d="M153.416 79.3761C152.32 81.2031 150.298 82.1078 148.232 81.4178C147.282 81.101 146.375 80.4821 145.818 79.6416C145.464 79.1067 145.227 78.5064 144.843 77.9906C144.547 77.5921 143.822 77.0847 143.429 77.6811C143.044 78.2674 143.587 79.0977 143.827 79.6484C144.113 80.3074 144.43 80.9066 144.885 81.4674C145.748 82.5328 146.946 83.3011 148.281 83.6235C151.013 84.2836 154.061 83.0086 155.507 80.5988C156.312 79.2583 154.218 78.0391 153.416 79.3761Z" fill="#844442"/>
<path d="M183.883 84.717C183.782 84.2294 183.356 83.8951 182.861 83.9104C182.506 83.8692 182.136 84.0242 181.882 84.257C181.715 84.4092 181.576 84.5879 181.415 84.7458C181.276 84.8827 181.051 85.0738 180.986 85.1206C180.647 85.3652 180.189 85.6189 179.895 85.7243C179.089 86.0112 178.32 86.089 177.529 85.8816C175.921 85.4594 174.913 84.0051 174.398 82.3991C174.191 81.7526 173.156 81.6612 172.994 82.3991C172.435 84.9402 174.553 87.3246 176.867 88.0343C178.041 88.3945 179.352 88.3466 180.516 87.9763C181.743 87.5862 183.071 86.8303 183.791 85.73C183.976 85.4464 183.999 85.0456 183.883 84.717Z" fill="#844442"/>
</g>
<defs>
<filter id="filter0_d_600_2459" x="19.7452" y="20" width="260.573" height="264.509" filterUnits="userSpaceOnUse" color-interpolation-filters="sRGB">
<feFlood flood-opacity="0" result="BackgroundImageFix"/>
<feColorMatrix in="SourceAlpha" type="matrix" values="0 0 0 0 0 0 0 0 0 0 0 0 0 0 0 0 0 0 127 0" result="hardAlpha"/>
<feOffset dy="2.25476"/>
<feGaussianBlur stdDeviation="1.12738"/>
<feComposite in2="hardAlpha" operator="out"/>
<feColorMatrix type="matrix" values="0 0 0 0 0 0 0 0 0 0 0 0 0 0 0 0 0 0 0.25 0"/>
<feBlend mode="normal" in2="BackgroundImageFix" result="effect1_dropShadow_600_2459"/>
<feBlend mode="normal" in="SourceGraphic" in2="effect1_dropShadow_600_2459" result="shape"/>
</filter>
</defs>
</svg>
