<svg width="231" height="233" viewBox="0 0 231 233" fill="none" xmlns="http://www.w3.org/2000/svg">
<path d="M225.409 119.669C225.409 119.669 240.363 165.585 217.874 205.377C188.733 256.939 122.815 226.784 147.908 173.307C157.701 152.437 178.736 131.498 225.409 119.669Z" fill="#4F8452"/>
<path d="M4.87211 119.669C4.87211 119.669 -10.0819 165.585 12.4071 205.377C41.5481 256.939 107.466 226.784 82.3732 173.307C72.5802 152.437 51.5451 131.498 4.87211 119.669Z" fill="#4F8452"/>
<path d="M169.888 100.974C169.888 100.974 199.354 139.232 191.487 184.258C181.294 242.601 109.084 236.26 114.822 177.467C117.061 154.522 129.871 127.748 169.888 100.974Z" fill="#5F9663"/>
<path d="M67.0821 100.974C67.0821 100.974 37.6162 139.232 45.4832 184.258C55.6762 242.601 127.886 236.26 122.148 177.467C119.909 154.522 107.099 127.748 67.0821 100.974Z" fill="#5F9663"/>
<path d="M121.659 92.4849C121.659 92.4849 158.408 125.656 160.035 174.023C162.143 236.696 90.1863 245.959 83.6253 183.798C81.0663 159.538 88.0543 128.994 121.659 92.4849Z" fill="#65A06B"/>
<path d="M115.141 66.818C133.593 66.818 148.55 51.8603 148.55 33.409C148.55 14.9577 133.593 0 115.141 0C96.6901 0 81.7324 14.9577 81.7324 33.409C81.7324 51.8603 96.6901 66.818 115.141 66.818Z" fill="#EDE843"/>
</svg>
