<svg width="180" height="233" viewBox="0 0 180 233" fill="none" xmlns="http://www.w3.org/2000/svg">
<path d="M169.286 206.539H18.715C12.798 206.539 8.00098 201.742 8.00098 195.825V14.2531C8.00098 8.33605 12.798 3.53906 18.715 3.53906H169.286C175.203 3.53906 180 8.33605 180 14.2531V195.824C180 201.742 175.203 206.539 169.286 206.539Z" fill="#EFDBB9"/>
<path d="M25 232.539L17 220.539L8 232.539V202.539H25V232.539Z" fill="#FCED38"/>
<path d="M164.357 203.539H7.64301C3.42201 203.539 0 200.117 0 195.896V8.18207C0 3.96107 3.42201 0.539062 7.64301 0.539062H164.357C168.578 0.539062 172 3.96107 172 8.18207V195.896C172 200.117 168.578 203.539 164.357 203.539Z" fill="#65A06B"/>
<path d="M114 53.9067H57.25V64.3838H114V53.9067Z" fill="#FBFADA"/>
<path d="M90.8642 37.0278H80.3872V118.224H90.8642V37.0278Z" fill="#FBFADA"/>
<path d="M90.8643 37.0278H85.6982V118.224H90.8643V37.0278Z" fill="#FBFADA"/>
<path opacity="0.3" d="M162.072 203.539H86.001V0.539062H162.072C167.555 0.539062 172.001 4.98405 172.001 10.468V193.611C172 199.094 167.555 203.539 162.072 203.539Z" fill="#4F8452"/>
<path d="M14 0.539062H10V74.5391H14V0.539062Z" fill="#F9F5A5"/>
<path d="M14 137.539H9V203.539H14V137.539Z" fill="#F9F5A5"/>
</svg>
