<svg width="300" height="300" viewBox="0 0 300 300" fill="none" xmlns="http://www.w3.org/2000/svg">
<path d="M216.996 278.53H82.4624V108.916C82.4624 71.7659 112.579 41.6494 149.729 41.6494C186.879 41.6494 216.996 71.7659 216.996 108.916V278.53Z" fill="#BAD29B"/>
<path d="M149.729 297C203.15 297 246.457 290.821 246.457 283.199C246.457 275.577 203.15 269.398 149.729 269.398C96.3069 269.398 53 275.577 53 283.199C53 290.821 96.3069 297 149.729 297Z" fill="#BAD29B"/>
<path d="M149.843 288.95C196.094 288.95 233.589 284.573 233.589 279.174C233.589 273.775 196.094 269.398 149.843 269.398C103.591 269.398 66.0967 273.775 66.0967 279.174C66.0967 284.573 103.591 288.95 149.843 288.95Z" fill="#27B45F"/>
<path d="M90.4628 61.53C88.9145 59.9818 86.4477 59.8769 84.7735 61.2134C83.0992 59.8769 80.6324 59.9818 79.0841 61.53C77.5425 63.0717 77.4333 65.5217 78.7508 67.1959C78.8545 67.3275 78.9637 67.4546 79.0841 67.5761L83.9196 72.4104C84.3911 72.882 85.1569 72.882 85.6284 72.4104L90.4639 67.5761C90.5843 67.4557 90.6935 67.3275 90.7972 67.1959C92.1148 65.5217 92.0044 63.0717 90.4628 61.53Z" fill="#E25D5D"/>
<path d="M99.369 44.0787C98.3702 43.0799 96.7784 43.0119 95.6983 43.8747C94.6182 43.0119 93.0275 43.0799 92.0277 44.0787C91.0334 45.073 90.962 46.6547 91.8125 47.7337C91.8794 47.8184 91.9496 47.9009 92.0277 47.979L95.1465 51.0978C95.4508 51.4022 95.9446 51.4022 96.249 51.0978L99.3678 47.979C99.4459 47.9009 99.5161 47.8184 99.583 47.7337C100.435 46.6547 100.363 45.0741 99.369 44.0787Z" fill="#E25D5D"/>
<path d="M203.284 15.7865C201.738 14.2405 199.277 14.1368 197.606 15.4711C195.935 14.1368 193.474 14.2416 191.928 15.7865C190.388 17.3259 190.279 19.7715 191.594 21.4413C191.697 21.5717 191.806 21.6999 191.928 21.8203L196.753 26.6458C197.224 27.1173 197.988 27.1173 198.459 26.6458L203.284 21.8203C203.404 21.6999 203.514 21.5717 203.617 21.4413C204.932 19.7704 204.822 17.3248 203.284 15.7865Z" fill="#E25D5D"/>
<path d="M214.339 281.07C214.339 281.07 215.983 284.094 211.403 284.094C207.418 284.094 193.171 282.455 189.537 282.029C189.053 281.973 188.689 281.492 188.689 280.917V280.185" fill="#31353F"/>
<path d="M189.272 272.297C190.945 272.52 196.84 273.313 201.229 272.297C201.229 272.297 218.687 280.446 213.374 281.624C208.06 282.802 188.689 280.184 188.689 280.184V273.224C188.689 272.957 189.048 272.268 189.272 272.297Z" fill="#444A5A"/>
<path d="M191.602 272.571C190.574 272.47 189.748 272.361 189.272 272.298C189.048 272.268 188.689 272.958 188.689 273.225V280.185C188.689 280.185 192.633 280.718 197.446 281.193C194.36 279.253 192.187 276.156 191.602 272.571Z" fill="#3E4352"/>
<path d="M151.448 280.664C151.448 280.664 149.826 283.826 154.343 283.826C158.273 283.826 172.323 282.112 175.906 281.667C176.383 281.608 176.742 281.105 176.742 280.503V279.737" fill="#31353F"/>
<path d="M176.168 271.49C174.518 271.723 168.705 272.553 164.377 271.49C164.377 271.49 147.16 280.011 152.4 281.243C157.64 282.474 176.743 279.737 176.743 279.737V272.459C176.743 272.18 176.389 271.459 176.168 271.49Z" fill="#444A5A"/>
<path d="M173.871 271.777C174.886 271.671 175.7 271.557 176.169 271.49C176.389 271.459 176.744 272.18 176.744 272.459V279.737C176.744 279.737 172.855 280.294 168.107 280.792C171.151 278.764 173.294 275.525 173.871 271.777Z" fill="#3E4352"/>
<path d="M158.652 152.526L163.953 272.297C163.953 272.297 171.958 274.766 176.743 272.297L182.73 176.912L188.672 273.395C188.672 273.395 197.933 273.917 202.1 272.297L205.341 150.056L158.652 152.526Z" fill="#393E4B"/>
<path d="M182.729 176.913C182.729 176.913 179.294 175.441 178.652 174.158C178.011 172.875 176.742 267.147 176.742 267.147L182.729 176.913Z" fill="#303540"/>
<path d="M190.188 60.3066L200.037 150.337L162.008 153.546L157.872 66.3672L165.382 62.2484L190.188 60.3066Z" fill="#F7E9DC"/>
<path d="M138.533 120.709L153.639 99.4144C153.639 99.4144 162.888 86.2623 161.848 79.9699C160.808 73.6775 157.872 65.1792 157.872 65.1792C157.872 65.1792 150.422 69.7405 147.767 74.8948C145.111 80.0502 122.093 114.965 122.093 114.965" fill="#404554"/>
<path d="M165.745 58.0125L166.381 68.6287L189.593 64.7552C189.593 64.7552 177.151 51.0011 178.784 41.7169C180.417 32.4316 165.745 58.0125 165.745 58.0125Z" fill="#EDB785"/>
<path d="M164.854 56.6465C164.854 56.6465 164.683 56.6888 164.386 56.7423L164.854 56.6465Z" fill="#D1886E"/>
<path d="M171.595 54.1826C171.595 54.1826 174.765 65.8924 166.646 68.3837C165.881 67.3136 165.766 66.3471 165.766 66.3471L164.854 56.6461L171.595 54.1826Z" fill="#D89B6B"/>
<path d="M179.958 28.6678C179.958 28.6678 182.895 22.2328 185.454 25.1733C188.013 28.1138 184.535 32.6606 180.334 35.8776C176.134 39.0934 179.958 28.6678 179.958 28.6678Z" fill="#E1AD83"/>
<path d="M184.351 28.6598C184.351 28.6598 184.113 27.0803 182.417 27.5674C182.417 27.5674 181.452 28.3042 181.927 28.9674C181.927 28.9674 183.386 28.6107 183.398 29.7511C183.398 29.7511 183.325 30.5258 182.213 30.4087C182.213 30.4087 182.358 30.8735 183.208 30.7587C184.057 30.6428 184.46 29.8458 184.351 28.6598Z" fill="#D1886E"/>
<path d="M184.183 28.3443C184.183 28.3443 183.982 27.5964 182.898 27.6845C181.813 27.7725 181.976 28.7345 182.051 29.1737C182.051 29.1737 183.699 28.9518 183.541 29.9673C183.384 30.9817 182.271 30.4801 182.271 30.4801" stroke="#9C6754" stroke-width="0.27867" stroke-miterlimit="10" stroke-linecap="round"/>
<path d="M181.762 28.7968C184.035 40.0495 183.17 53.7311 168.954 56.6025C154.144 59.5943 148.825 48.1599 146.553 36.9072C144.28 25.6545 149.953 14.676 160.045 12.6384C170.136 10.5996 179.489 17.5441 181.762 28.7968Z" fill="#EDB785"/>
<path d="M168.942 47.1494C168.942 47.1494 165.339 52.7552 159.292 49.099" stroke="#D1886E" stroke-width="0.557341" stroke-miterlimit="10" stroke-linecap="round"/>
<path d="M161.492 38.7896C161.492 38.7896 159.469 43.4712 161.138 43.8792C162.808 44.2872 163.537 43.8313 163.537 43.8313" stroke="#D1886E" stroke-width="0.557341" stroke-miterlimit="10" stroke-linecap="round"/>
<path d="M165.598 30.6796C165.598 30.6796 166.816 29.9172 168.814 29.8581C170.811 29.799 172.169 30.7565 172.169 30.7565" stroke="#211E26" stroke-width="2.22936" stroke-miterlimit="10" stroke-linecap="round"/>
<path d="M156.548 32.5064C156.548 32.5064 155.129 32.2768 153.266 32.998C151.402 33.7192 150.522 35.1282 150.522 35.1282" stroke="#211E26" stroke-width="2.22936" stroke-miterlimit="10" stroke-linecap="round"/>
<path d="M171.061 36.0013C171.061 36.0013 167.703 31.8714 165.745 36.3134" stroke="#18161B" stroke-width="0.557341" stroke-miterlimit="10" stroke-linecap="round" stroke-linejoin="round"/>
<path d="M157.463 38.7469C157.463 38.7469 154.106 34.617 152.147 39.059" stroke="#18161B" stroke-width="0.557341" stroke-miterlimit="10" stroke-linecap="round" stroke-linejoin="round"/>
<path d="M185.513 24.0617C185.494 23.9335 185.473 23.8042 185.452 23.6749C184.736 19.3098 184.106 15.0997 180.881 11.8136C177.683 8.55648 172.463 5.92472 167.927 5.27709C165.834 4.97835 163.414 4.81895 161.336 5.33951C160.226 5.61706 159.595 6.09637 161.121 6.39845C165.576 7.28239 166.631 9.64553 166.631 9.64553C166.631 9.64553 163.687 8.85744 158.618 7.46297C153.55 6.06851 145.923 12.245 148.149 11.8492C149.276 11.6486 150.303 11.8782 151.043 12.1547C151.476 12.3163 151.457 12.9439 151.018 13.0888C149.82 13.4834 148.656 13.9906 147.572 14.6371C146.945 15.0116 146.27 15.3282 145.805 15.9078C145.317 16.5164 145.03 17.2755 144.815 18.0179C144.005 20.8068 143.861 23.7072 144.18 26.5842C144.466 29.1658 144.977 32.2735 146.504 34.4572C146.718 34.7626 146.985 35.1193 147.353 35.2464C147.834 35.4114 148.156 34.9967 148.369 34.2566C148.745 32.9435 148.774 30.5948 148.705 28.5527C148.527 23.2535 153.627 19.312 158.666 20.9618C158.753 20.9896 158.84 21.0197 158.929 21.0498C164.367 22.9191 168.492 21.635 173.476 19.7668C173.675 22.3507 174.565 25.7571 174.89 28.4413C175.026 29.5649 175.383 30.8635 176.44 31.2714C177.198 31.5635 177.603 31.0753 177.971 30.4956C178.927 28.9841 179.983 27.4815 181.352 26.3111C182.358 25.4484 183.615 24.4585 185.021 24.9601C185.307 25.0627 185.512 25.1964 185.689 25.4105C185.645 24.9735 185.583 24.521 185.513 24.0617Z" fill="#1A1C36"/>
<path d="M147.312 21.8031C147.623 21.0886 148.013 20.3651 148.612 19.8122C149.181 19.2872 149.956 19.0454 150.683 18.7422C151.94 18.2171 153.271 17.8404 154.63 17.5807C155.128 17.4848 155.212 16.8628 154.75 16.6544C153.964 16.2988 152.858 15.9566 151.597 16.0324C149.109 16.1806 158.115 10.8747 163.554 12.821C168.993 14.7672 172.154 15.8752 172.154 15.8752C172.154 15.8752 171.229 13.4073 166.413 12.0374C164.763 11.5681 165.506 11.1612 166.754 11.0074C169.092 10.7187 171.739 11.1423 174.013 11.6706C177.263 12.4264 180.745 14.0817 183.663 16.1483C183.032 14.5911 182.168 13.1275 180.881 11.8155C177.683 8.55843 172.463 5.92667 167.927 5.27904C165.834 4.9803 163.414 4.8209 161.336 5.34146C160.226 5.61902 159.595 6.09721 161.121 6.4004C165.576 7.28435 166.631 9.64748 166.631 9.64748C166.631 9.64748 163.687 8.85939 158.618 7.46493C153.55 6.07046 145.923 12.2469 148.149 11.8512C149.276 11.6506 150.303 11.8802 151.043 12.1566C151.476 12.3183 151.457 12.9458 151.018 13.0907C149.82 13.4853 148.656 13.9925 147.572 14.639C146.945 15.0124 146.27 15.3301 145.805 15.9098C145.317 16.5184 145.03 17.2775 144.815 18.0198C144.005 20.8088 143.861 23.7092 144.18 26.5862C144.433 28.8635 144.862 31.5476 146.007 33.6477C145.846 32.4884 145.784 31.3269 145.76 30.2579C145.696 27.3586 146.143 24.4895 147.312 21.8031Z" fill="#23253E"/>
<path d="M182.148 72.9558L176.89 66.8875L176.114 67.0168L181.761 73.7974C181.761 73.7974 187.192 71.0397 189.746 66.8696C187.007 70.3541 182.148 72.9558 182.148 72.9558Z" fill="#CCCCCC"/>
<path d="M190.963 61.6241C189.745 60.4381 185.886 56.4342 183.673 56.7463C183.907 56.6883 183.223 56.8098 183.673 56.7463C184.009 57.0863 184.057 57.3883 184.35 57.7651C186.477 60.505 186.049 64.2258 175.138 64.8667L175.936 65.7875L176.889 66.8876L182.147 72.956C182.147 72.956 187.006 70.3543 189.746 66.8698C190.708 65.2981 192.344 62.9673 190.963 61.6241Z" fill="#F7E9DC"/>
<path d="M172.391 67.5626L168.627 75.3465C168.627 75.3465 161.893 72.5141 160.393 67.8948C161.367 72.9432 168.812 76.0766 168.812 76.0766L172.978 67.459C172.773 67.498 172.587 67.5281 172.391 67.5626Z" fill="#CCCCCC"/>
<path d="M173.126 72.9558C173.126 73.4206 172.749 73.7974 172.284 73.7974C171.819 73.7974 171.442 73.4206 171.442 72.9558C171.442 72.491 171.819 72.1143 172.284 72.1143C172.748 72.1143 173.126 72.491 173.126 72.9558Z" fill="#CCCCCC"/>
<path d="M171.763 94.2852C172.228 94.2852 172.605 93.9084 172.605 93.4436C172.605 92.9788 172.228 92.6021 171.763 92.6021C171.298 92.6021 170.921 92.9788 170.921 93.4436C170.921 93.9084 171.298 94.2852 171.763 94.2852Z" fill="#CCCCCC"/>
<path d="M172.988 81.9319C172.988 82.3967 172.612 82.7735 172.147 82.7735C171.682 82.7735 171.305 82.3967 171.305 81.9319C171.305 81.4671 171.682 81.0903 172.147 81.0903C172.612 81.0903 172.988 81.4671 172.988 81.9319Z" fill="#CCCCCC"/>
<path d="M172.296 103.608C172.296 104.073 171.92 104.449 171.455 104.449C170.99 104.449 170.613 104.073 170.613 103.608C170.613 103.143 170.99 102.766 171.455 102.766C171.92 102.766 172.296 103.143 172.296 103.608Z" fill="#CCCCCC"/>
<path d="M172.265 105.786C172.265 106.251 171.888 106.627 171.423 106.627C170.958 106.627 170.582 106.251 170.582 105.786C170.582 105.321 170.958 104.944 171.423 104.944C171.888 104.944 172.265 105.321 172.265 105.786Z" fill="#CCCCCC"/>
<path d="M172.265 110.568C172.369 104.07 172.611 97.5772 172.782 91.082L173.144 81.3419L173.543 71.604L173.546 71.6163L172.692 69.8662L173.593 71.5929L173.596 71.5984V71.6051L173.343 81.3486L173.052 91.0909C172.789 97.5828 172.596 104.077 172.265 110.568Z" fill="#CCCCCC"/>
<path d="M172.205 85.6817C172.67 85.6817 173.047 85.3049 173.047 84.8401C173.047 84.3753 172.67 83.9985 172.205 83.9985C171.741 83.9985 171.364 84.3753 171.364 84.8401C171.364 85.3049 171.741 85.6817 172.205 85.6817Z" fill="#CCCCCC"/>
<path d="M165.116 62.3133C165.323 62.242 165.46 62.2487 165.46 62.2487C165.342 62.2688 165.232 62.2922 165.116 62.3133C164.296 62.5954 162.388 64.1303 163.691 72.3087C166.022 74.2494 168.627 75.3462 168.627 75.3462L172.391 67.5624C170.407 67.9157 168.862 68.0506 167.682 68.0172C167.38 68.1532 167.066 68.2791 166.725 68.3839C166.607 68.2189 166.509 68.0584 166.42 67.9012C164.494 67.5657 164.029 66.5926 164.163 65.5459C164.171 64.8638 164.57 64.0991 165.012 63.4648C165.186 63.1873 165.359 62.942 165.507 62.7458L165.461 62.2554" fill="#F7E9DC"/>
<path d="M171.691 68.386C171.691 68.386 168.849 75.6738 166.811 73.9806C164.774 72.2885 164.896 68.0315 164.896 68.0315C164.896 68.0315 163.459 63.6932 164.58 63.8504C165.7 64.0075 169.034 63.6865 171.784 66.6058L171.691 68.386Z" fill="#23253E"/>
<path d="M173.778 66.2547C173.778 66.2547 176.484 61.0659 178.803 61.8986C181.122 62.7312 180.162 66.1767 180.162 66.1767C180.162 66.1767 182.709 72.2216 179.433 71.6041C176.155 70.9866 173.851 68.1152 173.851 68.1152L173.778 66.2547Z" fill="#23253E"/>
<path d="M173.934 68.701L172.273 68.9206C171.78 68.9864 171.323 68.6352 171.257 68.1414L171.148 67.3188C171.082 66.825 171.433 66.368 171.927 66.3022L173.588 66.0826C174.081 66.0169 174.538 66.368 174.604 66.8618L174.713 67.6833C174.778 68.1782 174.427 68.6352 173.934 68.701Z" fill="#1A1C36"/>
<path d="M174.288 66.5232C174.288 66.5232 176.514 62.8871 177.257 63.2338C177.999 63.5804 174.288 66.5232 174.288 66.5232Z" fill="#1A1C36"/>
<path d="M175.152 67.2695C175.152 67.2695 179.112 65.5618 179.558 65.9821C180.003 66.4034 175.152 67.2695 175.152 67.2695Z" fill="#1A1C36"/>
<path d="M175.943 69.5464C175.943 69.5464 179.161 71.7991 180.226 71.1058C181.29 70.4125 175.943 69.5464 175.943 69.5464Z" fill="#1A1C36"/>
<path opacity="0.08" d="M179.766 70.7832C179.766 70.7832 178.526 70.1946 177.13 69.9951C175.736 69.7956 177.13 69.9405 177.13 69.9405C177.13 69.9405 179.177 69.9862 179.879 70.5658C180.582 71.1454 179.766 70.7832 179.766 70.7832Z" fill="#F7E9DC"/>
<path opacity="0.08" d="M175.411 65.116C175.411 65.116 176.647 63.4696 176.971 63.532C177.294 63.5944 175.411 65.116 175.411 65.116Z" fill="#F7E9DC"/>
<path d="M170.771 69.2373C170.771 69.2373 168.656 74.1753 167.968 73.4697C167.28 72.7642 170.771 69.2373 170.771 69.2373Z" fill="#1A1C36"/>
<path d="M165.534 68.4085C165.534 68.4085 168.204 67.0954 169.19 67.3495C170.177 67.6037 165.534 68.4085 165.534 68.4085Z" fill="#1A1C36"/>
<path d="M169.191 65.9155C169.191 65.9155 164.555 65.4116 164.854 64.8677C165.151 64.3237 169.191 65.9155 169.191 65.9155Z" fill="#1A1C36"/>
<path opacity="0.08" d="M169.546 71.1182C169.546 71.1182 168.748 73.3587 168.423 73.197C168.098 73.0365 169.546 71.1182 169.546 71.1182Z" fill="#F7E9DC"/>
<path opacity="0.08" d="M168.263 65.5693C168.263 65.5693 165.765 64.3019 165.514 64.5293C165.262 64.7567 168.263 65.5693 168.263 65.5693Z" fill="#F7E9DC"/>
<path d="M217.384 172.47C217.055 174.343 216.716 176.248 215.858 177.932C215 179.615 213.533 181.076 211.659 181.465C209.636 181.885 207.468 180.981 205.882 179.584C205.204 178.986 204.59 178.268 204.333 177.413C203.652 175.145 205.617 173.13 206.461 170.971C205.072 170.521 201.999 170.784 202.371 169.394C203.027 167.436 205.305 166.677 207.032 165.549C208.569 164.544 209.792 163.085 210.512 161.396C210.725 160.897 210.928 160.34 211.401 160.075C211.893 159.801 212.519 159.931 213.072 160.099C215.217 160.748 218.654 162.015 218.805 164.639C218.948 167.097 217.805 170.074 217.384 172.47Z" fill="#E3A674"/>
<path d="M199.254 65.8013C199.254 65.8013 210.423 69.0071 211.404 71.8618C212.804 75.937 219.145 103.047 222.31 116.711C223.512 121.895 223.888 127.23 223.426 132.532L220.365 167.705L206.481 164.574L208.318 123.286L201.966 101.877" fill="#444959"/>
<path d="M222.31 116.709C219.144 103.046 212.804 75.9351 211.404 71.8598C210.804 70.1142 206.399 68.2394 203.064 67.0444C204.214 67.7344 205.069 68.4545 205.31 69.1545C206.709 73.2298 213.05 100.341 216.216 114.004C217.418 119.188 217.793 124.523 217.332 129.824L214.272 164.998L206.541 163.255L206.482 164.572L220.366 167.703L223.427 132.53C223.887 127.228 223.512 121.893 222.31 116.709Z" fill="#404554"/>
<path d="M171.533 123.761L174.38 158.09H207.317C207.317 158.09 201.558 106.358 206.124 86.8008C210.69 67.2437 210.173 70.2578 210.173 70.2578L199.255 65.1782H194.447L181.998 91.0689L174.644 109.225L171.533 123.761Z" fill="#444A5A"/>
<path d="M171.376 123.761L169.989 158.09H153.945C153.945 158.09 154.655 110.626 152.431 91.0689C150.207 71.5119 152.432 69.7005 152.432 69.7005L157.872 65.1782H160.215L166.28 91.0689L169.862 109.225L171.376 123.761Z" fill="#444A5A"/>
<path d="M179.586 151.961C177.608 151.961 175.677 151.722 173.814 151.274L174.38 158.091H207.316C207.316 158.091 206.061 146.813 205.187 132.801C200.863 144.079 191.032 151.961 179.586 151.961Z" fill="#404554"/>
<path d="M154.028 132.909C154.114 146.769 153.945 158.09 153.945 158.09H169.99L170.311 150.148C153.211 152.89 157.135 140.93 154.028 132.909Z" fill="#404554"/>
<path d="M184.419 57.2614C184.419 57.2614 195.876 62.8593 183.362 82.9871C169.876 104.677 171.534 123.761 171.534 123.761C171.534 123.761 183.908 92.7985 191.156 85.1451C191.444 84.8408 191.643 84.4629 191.698 84.0472L193.009 74.2424C193.066 73.8155 193.249 73.4153 193.534 73.0921L200.079 65.6928C200.079 65.6928 187.3 56.9437 184.419 57.2614Z" fill="#323742"/>
<path d="M183.595 56.7457C183.595 56.7457 195.051 62.3436 182.537 82.4714C169.051 104.161 171.534 123.761 171.534 123.761C171.534 123.761 183.083 92.2829 190.331 84.6295C190.618 84.3252 190.818 83.9473 190.873 83.5315L192.184 73.7268C192.241 73.2998 192.424 72.8997 192.709 72.5775L199.254 65.1783C199.254 65.1783 186.475 56.4291 183.595 56.7457Z" fill="#393E4B"/>
<path d="M165.382 62.2488C165.382 62.2488 159.994 61.96 166.017 82.4713C172.359 104.073 171.377 123.761 171.377 123.761C171.377 123.761 165.75 92.2827 162.22 84.6293C162.08 84.325 161.983 83.9471 161.956 83.5314L161.317 73.7266C161.29 73.2997 161.2 72.8995 161.061 72.5774L157.873 65.1781C157.873 65.1781 159.815 63.1873 165.382 62.2488Z" fill="#393E4B"/>
<path d="M165.064 62.3037C165.064 62.3037 159.666 62.1978 165.688 82.7102C172.031 104.312 171.354 123.543 171.354 123.543C171.354 123.543 165.422 92.5205 161.891 84.8682C161.75 84.5639 161.653 84.186 161.627 83.7703L160.988 73.9655C160.96 73.5386 160.871 73.1384 160.731 72.8163L157.543 65.417C157.543 65.417 159.498 63.2423 165.064 62.3037Z" fill="#323742"/>
<path d="M152.88 53.2534C152.88 53.2534 156.175 60.8355 153.638 61.8253C151.101 62.8152 152.88 53.2534 152.88 53.2534Z" fill="#FEFFFF"/>
<path d="M153.638 51.2999C153.113 59.6288 150.697 67.8652 146.386 75.0103C144.954 77.3846 143.319 79.6351 141.983 82.0651C138.904 87.6653 137.512 94.0268 134.928 99.8733C132.346 105.719 128.052 111.394 121.868 113.004C115.789 114.587 108.994 111.572 105.505 106.348C102.017 101.125 101.701 94.1249 104.045 88.2973C105.111 85.6477 106.67 83.2266 107.854 80.6283C112.696 69.9965 110.83 57.7015 111.501 46.0386C111.646 43.5139 112.816 40.2055 115.329 40.4976" fill="#1A1C36"/>
<path d="M138.668 68.4841C138.668 68.4841 138.088 77.3158 140.388 81.4401C142.687 85.5655 124.978 82.411 124.978 82.411C124.978 82.411 126.031 69.1875 124.978 67.6102C123.927 66.0318 138.668 68.4841 138.668 68.4841Z" fill="#EBB289"/>
<path d="M129.25 67.2277C129.864 70.4625 129.003 81.2771 129.003 81.2771C129.003 81.2771 135.905 82.5066 140.531 82.4264C139.477 84.9913 124.978 82.4097 124.978 82.4097C124.978 82.4097 126.03 69.1862 124.978 67.6089C124.564 66.9858 126.617 66.9925 129.25 67.2277Z" fill="#D1A075"/>
<path d="M140.531 81.7661C140.531 81.7661 154.433 97.3014 154.433 103.038C154.429 109.432 151.746 117.803 149.889 123.814C146.957 133.304 148.666 149.85 149.412 159.907C150.275 171.563 149.693 180.627 149.75 192.315C149.81 204.543 146.397 227.324 146.397 227.324L158.128 275.651H109.068L122.073 227.28C118.648 211.691 110.637 176.761 115.247 159.172C116.511 154.35 118.88 149.89 120.406 145.143C126.748 125.406 114.85 108.075 121.68 88.3483C125.454 77.4456 125.332 74.894 125.332 74.894L140.531 81.7661Z" fill="#FEFFFF"/>
<path opacity="0.5" d="M122.077 227.28L103.229 275.652H158.375L146.399 227.324" fill="white"/>
<path opacity="0.5" d="M122.076 227.28L96.2979 275.652H158.374L146.398 227.324" fill="white"/>
<path opacity="0.5" d="M125.334 74.8947L123.947 72.1626L140.595 78.5085L140.533 81.7667L125.334 74.8947Z" fill="white"/>
<path opacity="0.1" d="M158.13 275.652L146.399 227.325C146.399 227.325 149.811 204.543 149.752 192.315C149.711 183.886 149.995 176.813 149.837 169.157C149.765 172.466 149.608 175.84 149.353 179.269C146.474 217.849 132.702 248.27 118.592 247.217C117.986 247.171 117.392 247.048 116.804 246.89L109.072 275.652H158.13Z" fill="#CCCCCC"/>
<path d="M117.885 57.2C119.44 68.28 130.242 77.2286 138.51 76.0683C146.777 74.9079 154.435 64.3329 152.88 53.2529C151.325 42.1719 142.554 33.9166 132.616 35.311C122.68 36.7055 116.33 46.119 117.885 57.2Z" fill="#EBB289"/>
<path d="M118.147 54.7852C118.004 56.2276 118.393 57.5908 118.977 58.9184C123.422 69.0308 133.011 76.1636 140.632 75.0946C141.432 74.9821 142.225 74.7803 143.006 74.4994C141.565 75.3098 140.048 75.8526 138.511 76.0678C130.244 77.2282 119.441 68.2806 117.886 57.1996L117.955 54.8364L118.147 54.7852Z" fill="#DDA681"/>
<path opacity="0.14" d="M113.285 56.0215C113.362 55.7105 110.172 49.1595 111.095 46.9302C111.095 46.9302 108.803 51.0099 110.751 54.2068L113.285 56.0215Z" fill="#FDF8DE"/>
<path opacity="0.22" d="M118.643 54.9172C129.771 51.0872 143.733 42.3012 143.733 42.3012C143.733 42.3012 150.062 51.1072 153.214 51.9811C156.365 52.855 150.982 41.1475 150.982 41.1475L144.939 34.3335L132.996 35.4214C132.996 35.4214 112.213 54.7377 113.91 54.6073" fill="#6E2712"/>
<path d="M116.387 41.9567L112.304 43.7981L112.352 42.5497C112.352 42.5497 122.095 20.3542 143.742 31.4085C161.034 40.2378 155.826 47.6204 154.458 49.1497C154.636 50.4104 154.442 51.2141 153.532 50.9611C150.381 50.0872 143.934 41.1396 143.934 41.1396C143.934 41.1396 132.909 49.9802 118.771 53.0801C117.566 53.3443 117.985 57.4786 117.985 57.4786C117.992 57.4998 118.08 58.3135 118.024 58.8096C118.024 58.8096 115.078 58.853 113.505 54.7789C111.347 49.1932 113.148 45.0232 116.387 41.9567Z" fill="#1A1C36"/>
<path opacity="0.14" d="M131.026 46.1817C130.366 46.5361 129.859 46.7914 129.701 46.8627C126.947 48.1045 124.033 48.9963 121.053 49.5023C120.781 49.548 118.181 49.4432 119.07 49.0966C131.74 44.1474 130.951 43.9278 135.368 42.5289C135.504 42.4854 135.667 42.4698 135.784 42.5512C136.524 43.0661 133.053 45.0926 131.026 46.1817Z" fill="#FDF8DE"/>
<path d="M124.847 63.2286C125.026 64.5038 127.087 65.2685 129.452 64.9363C131.816 64.6042 133.587 63.3022 133.409 62.027C133.229 60.7518 131.168 59.9871 128.804 60.3193C126.44 60.6515 124.668 61.9534 124.847 63.2286Z" fill="#E58D8D"/>
<path d="M147.48 51.564C147.48 51.564 146.77 50.7481 144.569 50.4884C142.681 50.2654 141.064 51.4749 141.064 51.4749" stroke="#29242F" stroke-width="0.557341" stroke-miterlimit="10" stroke-linecap="round"/>
<path d="M126.892 54.9216C126.892 54.9216 127.349 53.9418 129.395 53.0857C131.148 52.3523 133.035 53.069 133.035 53.069" stroke="#29242F" stroke-width="0.557341" stroke-miterlimit="10" stroke-linecap="round"/>
<path d="M149.942 59.7072C150.122 60.9824 148.351 62.2843 145.986 62.6165C143.622 62.9487 141.561 62.184 141.382 60.9088C141.203 59.6336 142.974 58.3306 145.339 57.9995C147.702 57.6673 149.763 58.432 149.942 59.7072Z" fill="#E58D8D"/>
<path d="M141.043 68.9734C141.043 68.9734 141.675 67.9501 139.301 67.4452C136.927 66.9414 134.652 68.2154 135.055 69.2521C135.459 70.2887 135.721 71.0367 137.406 71.4815C139.091 71.9251 141.625 71.1872 141.043 68.9734Z" fill="#D8677B"/>
<path d="M142.379 68.0225C142.379 68.0225 137.507 72.3898 133.016 68.3457" stroke="#99664B" stroke-width="0.557341" stroke-miterlimit="10" stroke-linecap="round"/>
<path d="M138.108 63.0129C141.737 62.5035 137.834 59.0513 137.834 59.0513" stroke="#99664B" stroke-width="0.557341" stroke-miterlimit="10" stroke-linecap="round"/>
<path d="M127.124 58.9732C127.124 58.9732 129.028 53.6573 132.554 57.4116" stroke="#18161B" stroke-width="0.557341" stroke-miterlimit="10" stroke-linecap="round" stroke-linejoin="round"/>
<path d="M141.7 56.9274C141.7 56.9274 143.604 51.6114 147.129 55.3657" stroke="#18161B" stroke-width="0.557341" stroke-miterlimit="10" stroke-linecap="round" stroke-linejoin="round"/>
<path d="M118.676 60.6274C118.676 60.6274 122.438 68.3489 121.026 70.0621C119.616 71.7754 117.741 68.3678 118.676 60.6274Z" fill="#FEFFFF"/>
<path opacity="0.5" d="M120.634 132.212C120.444 106.003 118.05 60.0803 118.771 53.0801C119.863 42.4928 124.925 30.043 124.925 30.043C124.925 30.043 95.4061 36.4914 104.02 95.2396C108.647 126.797 68.3762 149.301 76.3952 163.262C84.4153 177.222 120.326 163.076 120.622 139.016C120.649 136.954 120.65 134.67 120.634 132.212Z" fill="white"/>
<path fill-rule="evenodd" clip-rule="evenodd" d="M126.341 29.301C126.172 30.496 125.61 31.4033 125.087 31.3297C124.564 31.2551 124.279 30.2273 124.448 29.0324C124.618 27.8386 125.179 26.9301 125.702 27.0048C126.225 27.0784 126.51 28.1072 126.341 29.301Z" fill="#A62E36"/>
<path fill-rule="evenodd" clip-rule="evenodd" d="M122.679 29.9998C123.798 30.4512 124.543 31.2148 124.346 31.7041C124.149 32.1935 123.081 32.2236 121.963 31.7721C120.844 31.3196 120.098 30.5571 120.295 30.0678C120.493 29.5773 121.56 29.5472 122.679 29.9998Z" fill="#A62E36"/>
<path fill-rule="evenodd" clip-rule="evenodd" d="M122.295 33.3373C123.134 32.469 124.121 32.0632 124.5 32.43C124.88 32.7967 124.508 33.7977 123.67 34.6649C122.832 35.5332 121.845 35.939 121.465 35.5723C121.086 35.2055 121.457 34.2046 122.295 33.3373Z" fill="#A62E36"/>
<path fill-rule="evenodd" clip-rule="evenodd" d="M125.246 34.9423C124.756 33.8399 124.748 32.7732 125.231 32.558C125.713 32.3429 126.501 33.063 126.992 34.1654C127.482 35.2678 127.489 36.3346 127.008 36.5497C126.526 36.7648 125.737 36.0447 125.246 34.9423Z" fill="#A62E36"/>
<path fill-rule="evenodd" clip-rule="evenodd" d="M127.84 32.8081C126.634 32.8504 125.642 32.457 125.623 31.9297C125.605 31.4025 126.567 30.941 127.774 30.8986C128.98 30.8563 129.972 31.2497 129.99 31.777C130.008 32.3042 129.045 32.7668 127.84 32.8081Z" fill="#A62E36"/>
<path fill-rule="evenodd" clip-rule="evenodd" d="M126.035 29.9299C125.908 30.8239 125.488 31.5027 125.098 31.447C124.706 31.3913 124.492 30.6221 124.621 29.7293C124.748 28.8364 125.168 28.1564 125.558 28.2122C125.949 28.2668 126.162 29.0359 126.035 29.9299Z" fill="#C64250"/>
<path fill-rule="evenodd" clip-rule="evenodd" d="M123.296 30.4507C124.133 30.7884 124.691 31.3591 124.543 31.7259C124.395 32.0915 123.597 32.1149 122.761 31.7772C121.925 31.4394 121.367 30.8687 121.514 30.502C121.661 30.1352 122.459 30.1129 123.296 30.4507Z" fill="#C64250"/>
<path fill-rule="evenodd" clip-rule="evenodd" d="M123.009 32.9482C123.636 32.2994 124.375 31.9951 124.659 32.2693C124.943 32.5435 124.665 33.2915 124.038 33.9413C123.412 34.5901 122.673 34.8944 122.388 34.6202C122.104 34.3448 122.382 33.5969 123.009 32.9482Z" fill="#C64250"/>
<path fill-rule="evenodd" clip-rule="evenodd" d="M125.217 34.1487C124.85 33.3239 124.844 32.5257 125.205 32.3652C125.567 32.2047 126.156 32.7431 126.523 33.5669C126.89 34.3917 126.895 35.1898 126.534 35.3503C126.173 35.5109 125.583 34.9736 125.217 34.1487Z" fill="#C64250"/>
<path fill-rule="evenodd" clip-rule="evenodd" d="M127.157 32.5524C126.255 32.5836 125.513 32.2893 125.499 31.8947C125.486 31.5001 126.205 31.1546 127.108 31.1234C128.009 31.0922 128.752 31.3864 128.765 31.781C128.779 32.1756 128.059 32.5212 127.157 32.5524Z" fill="#C64250"/>
<path fill-rule="evenodd" clip-rule="evenodd" d="M125.916 31.9528C125.916 32.4801 125.488 32.9081 124.961 32.9081C124.432 32.9081 124.005 32.4801 124.005 31.9528C124.005 31.4245 124.433 30.9976 124.961 30.9976C125.488 30.9964 125.916 31.4245 125.916 31.9528Z" fill="white"/>
<path fill-rule="evenodd" clip-rule="evenodd" d="M122.834 36.6642C122.74 37.3185 122.434 37.8168 122.147 37.7755C121.861 37.7343 121.703 37.1714 121.797 36.5171C121.89 35.8627 122.197 35.3645 122.484 35.4057C122.77 35.447 122.927 36.0099 122.834 36.6642Z" fill="#A62E36"/>
<path fill-rule="evenodd" clip-rule="evenodd" d="M120.828 37.0468C121.441 37.2943 121.85 37.7123 121.742 37.9809C121.634 38.2496 121.048 38.2652 120.435 38.0177C119.822 37.7703 119.413 37.3523 119.521 37.0836C119.629 36.8161 120.215 36.7994 120.828 37.0468Z" fill="#A62E36"/>
<path fill-rule="evenodd" clip-rule="evenodd" d="M120.617 38.8752C121.076 38.3993 121.617 38.1775 121.825 38.3781C122.034 38.5787 121.83 39.1272 121.371 39.6031C120.911 40.0791 120.371 40.3009 120.162 40.1003C119.955 39.8985 120.158 39.3501 120.617 38.8752Z" fill="#A62E36"/>
<path fill-rule="evenodd" clip-rule="evenodd" d="M122.234 39.7552C121.965 39.1511 121.961 38.5659 122.225 38.4488C122.489 38.3318 122.922 38.7253 123.19 39.3294C123.459 39.9336 123.464 40.5188 123.199 40.6358C122.935 40.7529 122.503 40.3594 122.234 39.7552Z" fill="#A62E36"/>
<path fill-rule="evenodd" clip-rule="evenodd" d="M123.656 38.586C122.995 38.6094 122.451 38.3932 122.441 38.1045C122.431 37.8158 122.958 37.5627 123.619 37.5393C124.28 37.5159 124.823 37.7322 124.834 38.0209C124.844 38.3096 124.317 38.5626 123.656 38.586Z" fill="#A62E36"/>
<path fill-rule="evenodd" clip-rule="evenodd" d="M122.667 37.0086C122.598 37.4979 122.367 37.8702 122.153 37.8401C121.939 37.81 121.822 37.3875 121.891 36.8982C121.962 36.4089 122.191 36.0365 122.405 36.0666C122.619 36.0967 122.736 36.5181 122.667 37.0086Z" fill="#C64250"/>
<path fill-rule="evenodd" clip-rule="evenodd" d="M121.166 37.2937C121.624 37.4787 121.93 37.792 121.849 37.9926C121.768 38.1932 121.331 38.2055 120.873 38.0205C120.415 37.8354 120.108 37.5222 120.189 37.3216C120.27 37.1209 120.708 37.1086 121.166 37.2937Z" fill="#C64250"/>
<path fill-rule="evenodd" clip-rule="evenodd" d="M121.009 38.6625C121.352 38.3069 121.757 38.1397 121.913 38.2902C122.069 38.4407 121.916 38.8509 121.573 39.2064C121.229 39.562 120.825 39.7281 120.669 39.5787C120.513 39.4271 120.665 39.0181 121.009 38.6625Z" fill="#C64250"/>
<path fill-rule="evenodd" clip-rule="evenodd" d="M122.218 39.3207C122.017 38.8693 122.014 38.4312 122.211 38.3432C122.409 38.2551 122.732 38.5505 122.934 39.0019C123.134 39.4534 123.138 39.8915 122.94 39.9795C122.742 40.0676 122.419 39.7722 122.218 39.3207Z" fill="#C64250"/>
<path fill-rule="evenodd" clip-rule="evenodd" d="M123.281 38.4458C122.787 38.4636 122.38 38.302 122.372 38.0858C122.364 37.8695 122.759 37.68 123.253 37.6633C123.747 37.6466 124.153 37.8071 124.161 38.0233C124.169 38.2396 123.774 38.4291 123.281 38.4458Z" fill="#C64250"/>
<path fill-rule="evenodd" clip-rule="evenodd" d="M122.601 38.1167C122.601 38.4054 122.366 38.6406 122.077 38.6406C121.788 38.6406 121.553 38.4065 121.553 38.1167C121.553 37.8269 121.787 37.5928 122.077 37.5928C122.366 37.5928 122.601 37.828 122.601 38.1167Z" fill="white"/>
<path fill-rule="evenodd" clip-rule="evenodd" d="M121.839 41.8077C121.77 42.2971 121.541 42.6683 121.327 42.6382C121.113 42.6081 120.996 42.1867 121.065 41.6974C121.134 41.208 121.365 40.8368 121.579 40.8669C121.792 40.897 121.909 41.3184 121.839 41.8077Z" fill="#A62E36"/>
<path fill-rule="evenodd" clip-rule="evenodd" d="M120.339 42.094C120.797 42.279 121.103 42.5911 121.022 42.7918C120.94 42.9924 120.503 43.0047 120.046 42.8196C119.588 42.6346 119.283 42.3225 119.363 42.1219C119.444 41.9212 119.881 41.9089 120.339 42.094Z" fill="#A62E36"/>
<path fill-rule="evenodd" clip-rule="evenodd" d="M120.183 43.4594C120.526 43.1038 120.93 42.9377 121.086 43.0882C121.242 43.2387 121.089 43.6478 120.746 44.0034C120.402 44.3589 119.998 44.525 119.843 44.3745C119.688 44.2252 119.841 43.815 120.183 43.4594Z" fill="#A62E36"/>
<path fill-rule="evenodd" clip-rule="evenodd" d="M121.391 44.117C121.19 43.6656 121.187 43.2286 121.384 43.1406C121.581 43.0525 121.905 43.3468 122.105 43.7982C122.306 44.2497 122.309 44.6866 122.112 44.7747C121.915 44.8628 121.593 44.5685 121.391 44.117Z" fill="#A62E36"/>
<path fill-rule="evenodd" clip-rule="evenodd" d="M122.453 43.2438C121.959 43.2616 121.553 43.1 121.546 42.8838C121.538 42.6675 121.932 42.4791 122.426 42.4613C122.92 42.4435 123.326 42.6051 123.333 42.8213C123.341 43.0376 122.947 43.2271 122.453 43.2438Z" fill="#A62E36"/>
<path fill-rule="evenodd" clip-rule="evenodd" d="M121.714 42.0646C121.662 42.4302 121.49 42.7089 121.331 42.6855C121.17 42.6632 121.083 42.3477 121.136 41.9821C121.188 41.6165 121.36 41.3378 121.519 41.3612C121.679 41.3835 121.767 41.699 121.714 42.0646Z" fill="#C64250"/>
<path fill-rule="evenodd" clip-rule="evenodd" d="M120.593 42.2786C120.935 42.4168 121.163 42.6509 121.103 42.8002C121.043 42.9496 120.716 42.9596 120.373 42.8214C120.031 42.6832 119.802 42.4491 119.863 42.2998C119.923 42.1493 120.251 42.1392 120.593 42.2786Z" fill="#C64250"/>
<path fill-rule="evenodd" clip-rule="evenodd" d="M120.476 43.2995C120.732 43.0342 121.034 42.9093 121.151 43.0219C121.267 43.1345 121.154 43.441 120.897 43.7063C120.641 43.9716 120.338 44.0965 120.222 43.9839C120.105 43.8724 120.218 43.5659 120.476 43.2995Z" fill="#C64250"/>
<path fill-rule="evenodd" clip-rule="evenodd" d="M121.378 43.7925C121.228 43.4547 121.226 43.1281 121.374 43.0624C121.521 42.9966 121.763 43.2173 121.913 43.554C122.064 43.8917 122.066 44.2183 121.918 44.2841C121.771 44.3498 121.529 44.1291 121.378 43.7925Z" fill="#C64250"/>
<path fill-rule="evenodd" clip-rule="evenodd" d="M122.174 43.1378C121.805 43.1512 121.5 43.0308 121.495 42.8692C121.489 42.7076 121.783 42.566 122.153 42.5537C122.522 42.5404 122.827 42.6619 122.832 42.8224C122.838 42.984 122.542 43.1256 122.174 43.1378Z" fill="#C64250"/>
<path fill-rule="evenodd" clip-rule="evenodd" d="M121.666 42.8927C121.666 43.109 121.491 43.284 121.275 43.284C121.059 43.284 120.884 43.109 120.884 42.8927C120.884 42.6765 121.059 42.5015 121.275 42.5015C121.49 42.5015 121.666 42.6765 121.666 42.8927Z" fill="white"/>
<path d="M134.231 275.653L137.331 282.697L137.983 276.419C137.983 276.419 139.614 281.99 144.182 282.697C148.75 283.405 152.176 282.697 152.176 282.697C152.176 282.697 149.739 281.019 146.793 277.301C145.487 275.653 145.487 275.653 145.487 275.653H134.231Z" fill="#FEFFFF"/>
<path d="M121.218 275.653L124.318 282.697L124.97 276.419C124.97 276.419 126.601 281.99 131.169 282.697C135.737 283.405 139.162 282.697 139.162 282.697C139.162 282.697 136.725 281.019 133.779 277.301C132.474 275.653 132.474 275.653 132.474 275.653H121.218Z" fill="#FEFFFF"/>
<path d="M121.218 275.653L124.318 282.697L124.97 276.419C124.97 276.419 126.601 281.99 131.169 282.697C135.737 283.405 139.162 282.697 139.162 282.697C139.162 282.697 136.725 281.019 133.779 277.301C132.474 275.653 132.474 275.653 132.474 275.653H121.218Z" fill="#FEFFFF"/>
<path d="M135.728 279.053L136.178 280.076C136.321 280.215 136.482 280.37 136.667 280.549C136.946 280.818 137.209 281.053 137.476 281.295L137.53 280.779C137.421 280.676 137.316 280.585 137.204 280.477C136.113 279.424 135.812 279.135 135.728 279.053Z" fill="#CCCCCC"/>
<path d="M134.517 275.394H124.566L124.7 275.653H134.651L134.517 275.394Z" fill="#CCCCCC"/>
<path d="M172.585 87.6873C172.229 87.4142 171.788 87.0463 171.313 87.0809C170.827 87.1154 170.242 87.4755 169.849 87.7374C168.78 88.452 168.014 90.1529 167.383 91.252C166.485 92.8181 165.603 93.3944 164.133 94.4422C163.187 93.7378 163.432 92.1315 162.72 91.32C162.045 90.5509 161.078 90.8039 160.699 91.7703C159.563 94.6563 161.399 99.1005 159.478 102.788C159.41 102.884 159.345 102.975 159.277 103.072C156.571 105.991 150.726 111.619 146.595 115.927C145.302 117.274 143.03 116.646 142.613 114.825C141.08 108.069 138.12 99.0949 135.981 94.8179C134.69 92.2352 133.049 89.2233 130.287 88.3828C127.227 87.4521 124.58 91.0904 124.96 93.7634C125.454 97.229 126.204 100.662 127.174 104.025C128.698 109.318 130.787 114.447 133.368 119.312C134.989 122.368 138.51 130.963 143.014 130.141C144.026 129.956 144.88 129.301 145.677 128.65C153.022 122.658 159.388 115.37 165.309 107.991C167.075 105.848 168.246 104.69 170.041 102.54C171.764 100.477 173.618 97.9847 174.502 95.4455C174.684 94.9238 174.792 94.3765 174.828 93.8258C174.987 91.5285 174.412 89.0918 172.585 87.6873Z" fill="#EBB289"/>
<path opacity="0.5" d="M124.654 102.148C124.654 102.148 131.56 98.4345 138.837 98.138C146.115 97.8404 127.772 82.1724 125.248 85.1431C122.722 88.1126 124.654 102.148 124.654 102.148Z" fill="white"/>
<path opacity="0.5" d="M165.312 107.989C167.078 105.846 168.249 104.687 170.044 102.538C171.767 100.475 173.621 97.9826 174.505 95.4433C174.687 94.9217 174.795 94.3744 174.831 93.8237C174.987 91.5286 174.412 89.0908 172.585 87.6863C172.23 87.4132 171.788 87.0453 171.314 87.0799C170.828 87.1156 170.242 87.4745 169.85 87.7364C168.781 88.4509 168.015 90.152 167.384 91.251C166.486 92.8172 165.604 93.3935 164.134 94.4413C163.187 93.7368 163.433 92.1305 162.72 91.319C162.046 90.5499 161.079 90.8029 160.7 91.7694C159.564 94.6553 161.4 99.0995 159.479 102.787C159.411 102.883 159.346 102.974 159.278 103.071C159.108 103.255 158.925 103.45 158.731 103.654L163.303 110.551C163.996 109.711 164.635 108.833 165.312 107.989Z" fill="white"/>
<path d="M158.732 103.653L163.304 110.55L164.125 109.55L159.481 102.787L158.732 103.653Z" fill="white"/>
<path fill-rule="evenodd" clip-rule="evenodd" d="M159.732 103.074C159.687 103.384 159.542 103.62 159.406 103.6C159.27 103.58 159.197 103.313 159.24 103.003C159.285 102.694 159.43 102.457 159.566 102.477C159.702 102.497 159.776 102.764 159.732 103.074Z" fill="#A62E36"/>
<path fill-rule="evenodd" clip-rule="evenodd" d="M158.78 103.255C159.07 103.372 159.264 103.571 159.213 103.698C159.161 103.825 158.884 103.833 158.594 103.716C158.304 103.599 158.11 103.4 158.162 103.273C158.213 103.146 158.49 103.138 158.78 103.255Z" fill="#A62E36"/>
<path fill-rule="evenodd" clip-rule="evenodd" d="M158.681 104.122C158.899 103.896 159.155 103.791 159.253 103.886C159.351 103.981 159.255 104.242 159.038 104.467C158.821 104.692 158.564 104.798 158.466 104.702C158.367 104.607 158.464 104.347 158.681 104.122Z" fill="#A62E36"/>
<path fill-rule="evenodd" clip-rule="evenodd" d="M159.447 104.539C159.32 104.253 159.318 103.976 159.442 103.92C159.567 103.865 159.772 104.052 159.899 104.337C160.026 104.624 160.029 104.9 159.904 104.956C159.779 105.012 159.575 104.826 159.447 104.539Z" fill="#A62E36"/>
<path fill-rule="evenodd" clip-rule="evenodd" d="M160.121 103.985C159.808 103.996 159.55 103.893 159.546 103.756C159.541 103.619 159.791 103.5 160.104 103.489C160.418 103.477 160.675 103.58 160.68 103.717C160.683 103.854 160.433 103.973 160.121 103.985Z" fill="#A62E36"/>
<path fill-rule="evenodd" clip-rule="evenodd" d="M159.653 103.238C159.619 103.47 159.511 103.646 159.41 103.631C159.308 103.617 159.253 103.417 159.286 103.185C159.318 102.953 159.428 102.777 159.529 102.792C159.631 102.805 159.686 103.006 159.653 103.238Z" fill="#C64250"/>
<path fill-rule="evenodd" clip-rule="evenodd" d="M158.941 103.373C159.158 103.461 159.303 103.609 159.264 103.704C159.226 103.799 159.019 103.806 158.802 103.718C158.584 103.629 158.44 103.481 158.479 103.386C158.516 103.292 158.724 103.285 158.941 103.373Z" fill="#C64250"/>
<path fill-rule="evenodd" clip-rule="evenodd" d="M158.867 104.021C159.029 103.853 159.221 103.774 159.295 103.845C159.368 103.916 159.296 104.11 159.133 104.279C158.97 104.447 158.779 104.526 158.705 104.455C158.633 104.383 158.704 104.19 158.867 104.021Z" fill="#C64250"/>
<path fill-rule="evenodd" clip-rule="evenodd" d="M159.439 104.332C159.344 104.118 159.342 103.911 159.436 103.87C159.53 103.828 159.682 103.968 159.778 104.182C159.873 104.396 159.875 104.603 159.782 104.644C159.688 104.687 159.535 104.546 159.439 104.332Z" fill="#C64250"/>
<path fill-rule="evenodd" clip-rule="evenodd" d="M159.943 103.919C159.709 103.926 159.516 103.851 159.513 103.748C159.509 103.646 159.696 103.556 159.93 103.547C160.164 103.54 160.357 103.615 160.36 103.718C160.364 103.821 160.177 103.91 159.943 103.919Z" fill="#C64250"/>
<path fill-rule="evenodd" clip-rule="evenodd" d="M159.623 103.762C159.623 103.899 159.511 104.011 159.374 104.011C159.237 104.011 159.125 103.899 159.125 103.762C159.125 103.625 159.237 103.514 159.374 103.514C159.511 103.514 159.623 103.625 159.623 103.762Z" fill="white"/>
<path fill-rule="evenodd" clip-rule="evenodd" d="M163.973 109.188C163.929 109.498 163.783 109.734 163.647 109.714C163.511 109.694 163.438 109.428 163.481 109.118C163.526 108.808 163.671 108.571 163.807 108.592C163.943 108.612 164.017 108.878 163.973 109.188Z" fill="#A62E36"/>
<path fill-rule="evenodd" clip-rule="evenodd" d="M163.022 109.369C163.312 109.486 163.506 109.684 163.455 109.811C163.404 109.938 163.126 109.946 162.836 109.829C162.545 109.712 162.352 109.513 162.404 109.386C162.455 109.259 162.733 109.251 163.022 109.369Z" fill="#A62E36"/>
<path fill-rule="evenodd" clip-rule="evenodd" d="M162.923 110.235C163.14 110.01 163.397 109.904 163.496 110C163.594 110.095 163.498 110.356 163.281 110.581C163.063 110.806 162.807 110.912 162.708 110.816C162.609 110.72 162.706 110.461 162.923 110.235Z" fill="#A62E36"/>
<path fill-rule="evenodd" clip-rule="evenodd" d="M163.689 110.652C163.562 110.366 163.56 110.089 163.685 110.034C163.809 109.978 164.014 110.165 164.142 110.451C164.269 110.737 164.271 111.014 164.146 111.069C164.021 111.125 163.816 110.938 163.689 110.652Z" fill="#A62E36"/>
<path fill-rule="evenodd" clip-rule="evenodd" d="M164.362 110.097C164.049 110.109 163.791 110.006 163.787 109.869C163.782 109.732 164.032 109.613 164.345 109.601C164.658 109.59 164.916 109.693 164.92 109.83C164.925 109.967 164.675 110.087 164.362 110.097Z" fill="#A62E36"/>
<path fill-rule="evenodd" clip-rule="evenodd" d="M163.894 109.351C163.86 109.582 163.752 109.759 163.651 109.744C163.549 109.73 163.493 109.53 163.527 109.298C163.56 109.066 163.668 108.89 163.77 108.905C163.871 108.919 163.927 109.119 163.894 109.351Z" fill="#C64250"/>
<path fill-rule="evenodd" clip-rule="evenodd" d="M163.183 109.486C163.4 109.574 163.545 109.723 163.506 109.817C163.467 109.912 163.261 109.919 163.043 109.831C162.826 109.743 162.681 109.594 162.72 109.5C162.758 109.404 162.965 109.398 163.183 109.486Z" fill="#C64250"/>
<path fill-rule="evenodd" clip-rule="evenodd" d="M163.108 110.134C163.271 109.966 163.463 109.887 163.536 109.958C163.61 110.03 163.538 110.224 163.375 110.392C163.212 110.56 163.02 110.639 162.947 110.568C162.873 110.497 162.946 110.303 163.108 110.134Z" fill="#C64250"/>
<path fill-rule="evenodd" clip-rule="evenodd" d="M163.681 110.446C163.585 110.232 163.584 110.025 163.678 109.984C163.771 109.943 163.924 110.082 164.02 110.296C164.116 110.51 164.117 110.717 164.023 110.759C163.93 110.8 163.777 110.66 163.681 110.446Z" fill="#C64250"/>
<path fill-rule="evenodd" clip-rule="evenodd" d="M164.184 110.031C163.95 110.039 163.757 109.963 163.754 109.861C163.751 109.758 163.937 109.669 164.171 109.66C164.405 109.652 164.598 109.728 164.601 109.831C164.606 109.933 164.418 110.024 164.184 110.031Z" fill="#C64250"/>
<path fill-rule="evenodd" clip-rule="evenodd" d="M163.863 109.876C163.863 110.013 163.751 110.124 163.614 110.124C163.477 110.124 163.366 110.013 163.366 109.876C163.366 109.738 163.477 109.627 163.614 109.627C163.753 109.628 163.863 109.738 163.863 109.876Z" fill="white"/>
<g opacity="0.25">
<path d="M139.061 147.263C138.371 144.997 135.618 144.41 133.72 143.081C134.626 141.936 137.329 140.452 136.249 139.502C134.617 138.236 132.301 138.866 130.238 138.884C128.403 138.9 126.576 138.364 125.041 137.358C124.778 137.186 124.505 137.004 124.217 136.882L124.562 136.115L120.949 134.408L119.365 144.928L119.811 146.66L120.608 144.892C120.561 145.08 120.522 145.265 120.473 145.452C121.828 147.248 123.995 148.848 125.46 150.386C126.773 151.763 128.111 153.16 129.758 154.085C131.406 155.01 133.436 155.413 135.212 154.698C137.129 153.927 138.432 151.973 138.978 149.93C139.208 149.056 139.322 148.117 139.061 147.263Z" fill="#CCCCCC"/>
<path d="M121.855 133.715L120.949 134.406L121.855 134.834V133.715Z" fill="#CCCCCC"/>
</g>
<path d="M126.057 148.867C127.37 150.245 128.707 151.641 130.355 152.567C132.002 153.492 134.033 153.895 135.809 153.18C137.726 152.408 139.029 150.454 139.574 148.411C139.807 147.538 139.92 146.6 139.66 145.746C138.97 143.48 136.217 142.892 134.319 141.564C135.225 140.419 137.928 138.934 136.848 137.984C135.216 136.717 132.9 137.349 130.837 137.367C129.002 137.382 127.175 136.846 125.64 135.841C125.186 135.543 124.709 135.192 124.167 135.234C123.605 135.278 123.157 135.734 122.789 136.18C122.631 136.373 122.463 136.582 122.292 136.802C122.097 139.158 121.715 141.534 121.072 143.933C122.425 145.73 124.592 147.331 126.057 148.867Z" fill="#E3A674"/>
<path d="M125.161 134.599L120.408 145.144L119.963 143.411L121.547 132.892L125.161 134.599Z" fill="#444A5A"/>
<path d="M122.452 133.318V132.199L121.547 132.891L122.452 133.318Z" fill="#444A5A"/>
</svg>
