<svg width="300" height="300" viewBox="0 0 300 300" fill="none" xmlns="http://www.w3.org/2000/svg">
<path d="M59.4499 251.955C10.8505 223.896 10.8499 178.404 59.4488 150.346C108.048 122.288 186.842 122.288 235.441 150.346C284.04 178.404 284.04 223.896 235.442 251.955C186.843 280.014 108.049 280.014 59.4499 251.955Z" fill="#BAD29B"/>
<path d="M260.442 207.195L132.746 133.47C132.295 133.211 131.567 133.21 131.112 133.464L34.4423 189.275C34.3859 189.309 34.3258 189.348 34.2793 189.396C34.0068 189.657 34.0664 190 34.4576 190.226L162.141 263.944C162.364 264.072 162.666 264.138 162.968 264.141C163.259 264.147 163.548 264.075 163.778 263.952L260.446 208.141C260.813 207.924 260.876 207.599 260.636 207.342C260.675 207.37 260.706 207.404 260.74 207.442C260.652 207.339 260.55 207.258 260.442 207.195Z" fill="#E0E0E0"/>
<path d="M227.864 179.005C228.719 178.965 229.619 179.169 230.435 179.408C231.493 179.717 232.518 180.258 233.36 180.97C234.161 181.646 234.779 182.487 235.146 183.47C235.489 184.391 235.612 185.35 235.822 186.302C235.841 186.386 236.023 186.407 236.036 186.311C236.178 185.242 235.873 184.09 235.477 183.101C235.069 182.079 234.388 181.198 233.531 180.51C232.642 179.795 231.581 179.238 230.469 178.977C229.598 178.773 228.709 178.81 227.835 178.95C227.799 178.956 227.839 179.007 227.864 179.005Z" fill="#455A64"/>
<path d="M226.726 180.96C227.083 180.96 227.372 180.67 227.372 180.314C227.372 179.957 227.083 179.667 226.726 179.667C226.369 179.667 226.08 179.957 226.08 180.314C226.08 180.67 226.369 180.96 226.726 180.96Z" fill="#27B45F"/>
<path d="M224.837 178.152C225.133 178.152 225.373 177.912 225.373 177.615C225.373 177.319 225.133 177.079 224.837 177.079C224.54 177.079 224.3 177.319 224.3 177.615C224.3 177.912 224.54 178.152 224.837 178.152Z" fill="#27B45F"/>
<path d="M223.1 179.679C223.396 179.679 223.636 179.439 223.636 179.143C223.636 178.846 223.396 178.606 223.1 178.606C222.803 178.606 222.563 178.846 222.563 179.143C222.563 179.439 222.803 179.679 223.1 179.679Z" fill="#27B45F"/>
<path d="M221.952 177.905C222.249 177.905 222.489 177.665 222.489 177.368C222.489 177.072 222.249 176.832 221.952 176.832C221.656 176.832 221.416 177.072 221.416 177.368C221.416 177.665 221.656 177.905 221.952 177.905Z" fill="#27B45F"/>
<path d="M242.901 189.185C242.922 189.174 242.943 189.159 242.961 189.141C243.049 189.052 243.048 188.907 242.958 188.818C236.504 182.461 234.589 170.415 238.27 161.017C238.316 160.899 238.258 160.766 238.14 160.72C238.023 160.673 237.891 160.731 237.844 160.85C234.095 170.423 236.05 182.656 242.637 189.144C242.709 189.215 242.816 189.228 242.901 189.185Z" fill="#455A64"/>
<path d="M236.378 174.777C236.284 174.757 236.213 174.679 236.2 174.584C235.826 171.752 237.098 166.053 240.993 164.777C243.455 163.969 244.457 165.157 244.773 165.705C245.43 166.843 245.146 168.447 244.127 169.359C243.35 170.054 242.39 170.505 241.372 170.983C239.678 171.778 237.922 172.603 236.621 174.676C236.598 174.712 236.567 174.739 236.531 174.758C236.485 174.781 236.431 174.789 236.378 174.777ZM241.178 170.568C242.164 170.106 243.095 169.669 243.823 169.019C244.686 168.247 244.93 166.891 244.377 165.935C243.826 164.98 242.646 164.717 241.137 165.212C237.562 166.388 236.532 171.357 236.605 173.887C237.631 172.503 238.883 171.708 240.103 171.088C240.466 170.903 240.827 170.733 241.178 170.568Z" fill="#455A64"/>
<path d="M236.531 174.757C236.602 174.721 236.653 174.647 236.656 174.562C236.735 172.241 239.301 168.43 242.194 167.272C242.289 167.231 242.369 167.092 242.322 166.975C242.275 166.857 242.142 166.8 242.024 166.847C239.239 167.952 236.292 171.844 236.199 174.546C236.195 174.672 236.293 174.778 236.42 174.783C236.46 174.784 236.498 174.774 236.531 174.757Z" fill="#455A64"/>
<path d="M236.161 171.971C236.041 171.989 235.928 171.91 235.902 171.792C235.59 170.306 232.137 168.381 229.891 167.451C228.48 166.865 227.358 165.635 227.1 164.387C226.904 163.443 227.192 162.538 227.934 161.771C228.602 161.081 229.527 160.901 230.546 161.26C232.969 162.111 235.828 166.068 236.354 171.723C236.363 171.819 236.312 171.907 236.23 171.948C236.209 171.96 236.186 171.967 236.161 171.971ZM228.263 162.09C227.622 162.752 227.381 163.493 227.548 164.294C227.777 165.4 228.789 166.498 230.066 167.027C230.265 167.11 234.196 168.756 235.754 170.6C234.998 165.762 232.517 162.437 230.395 161.691C229.936 161.53 229.323 161.433 228.752 161.723C228.583 161.809 228.419 161.928 228.263 162.09Z" fill="#455A64"/>
<path d="M236.23 171.948C236.324 171.9 236.375 171.794 236.349 171.689C235.324 167.603 231.316 163.924 229.966 163.215C229.853 163.156 229.716 163.2 229.656 163.311C229.598 163.423 229.641 163.561 229.753 163.62C231.054 164.303 234.915 167.853 235.904 171.8C235.935 171.922 236.059 171.997 236.182 171.966C236.199 171.962 236.215 171.956 236.23 171.948Z" fill="#455A64"/>
<path d="M234.138 156.046C233.442 154.793 232.866 153.413 232.972 151.984C233.016 151.406 233.208 150.769 233.718 150.495C234.27 150.199 234.988 150.467 235.399 150.94C235.81 151.412 235.987 152.038 236.152 152.643C236.087 151.48 236.343 150.302 236.883 149.27C237.099 148.859 237.407 148.437 237.863 148.35C238.308 148.265 238.75 148.537 239.045 148.88C239.762 149.716 240.125 151.855 240.047 152.953C238.413 155.1 238.1 157.714 238.234 159.859C238.294 160.819 237.054 159.739 236.23 158.882C235.247 157.86 234.725 157.103 234.138 156.046Z" fill="#27B45F"/>
<path opacity="0.15" d="M234.138 156.046C233.442 154.793 232.866 153.413 232.972 151.984C233.016 151.406 233.208 150.769 233.718 150.495C234.27 150.199 234.988 150.467 235.399 150.94C235.81 151.412 235.987 152.038 236.152 152.643C236.087 151.48 236.343 150.302 236.883 149.27C237.099 148.859 237.407 148.437 237.863 148.35C238.308 148.265 238.75 148.537 239.045 148.88C239.762 149.716 240.125 151.855 240.047 152.953C238.413 155.1 238.1 157.714 238.234 159.859C238.294 160.819 237.054 159.739 236.23 158.882C235.247 157.86 234.725 157.103 234.138 156.046Z" fill="black"/>
<path d="M239.217 155.59C239.63 154.218 240.514 152.825 241.662 151.966C242.126 151.619 242.732 151.345 243.274 151.551C243.86 151.772 244.13 152.489 244.044 153.11C243.957 153.73 243.601 154.275 243.254 154.796C244.088 153.984 245.144 153.401 246.277 153.131C246.728 153.023 247.249 152.978 247.614 153.265C247.97 153.545 248.057 154.057 247.991 154.505C247.833 155.595 247.27 156.375 246.21 157.326C244.603 158.767 241.784 160.236 239.676 160.704C238.736 160.912 238.724 160.697 238.726 159.255C238.726 158.151 238.903 156.637 239.217 155.59Z" fill="#27B45F"/>
<path d="M236.923 160.125C236.923 160.125 232.555 160.163 231.35 157.547C230.147 154.931 232.958 155.095 232.958 155.095C232.958 155.095 234.208 158.04 236.923 160.125Z" fill="#27B45F"/>
<path opacity="0.25" d="M236.923 160.125C236.923 160.125 232.555 160.163 231.35 157.547C230.147 154.931 232.958 155.095 232.958 155.095C232.958 155.095 234.208 158.04 236.923 160.125Z" fill="black"/>
<path d="M239.491 161.119C240.348 161.096 243.66 160.212 246.149 158.015C246.149 158.015 247.295 157.96 247.777 159.173C248.383 160.7 243.622 163.226 239.491 161.119Z" fill="#27B45F"/>
<path opacity="0.15" d="M239.491 161.119C240.348 161.096 243.66 160.212 246.149 158.015C246.149 158.015 247.295 157.96 247.777 159.173C248.383 160.7 243.622 163.226 239.491 161.119Z" fill="black"/>
<path d="M267.069 188.18C266.634 187.977 266.11 187.866 265.649 187.726C265.025 187.537 264.389 187.394 263.744 187.297C262.331 187.084 260.849 187.183 259.467 187.542C258.045 187.911 256.733 188.627 255.704 189.677C254.734 190.667 253.905 191.857 253.183 193.037C253.089 193.19 252.974 193.018 253.01 192.899C253.887 190.047 256.487 187.795 259.325 187.032C260.786 186.639 262.368 186.524 263.863 186.77C264.482 186.873 265.094 187.045 265.675 187.284C266.204 187.501 266.601 187.8 267.076 188.105C267.105 188.123 267.12 188.204 267.069 188.18Z" fill="#37474F"/>
<path d="M268.678 187.068C269.162 187.068 269.554 186.676 269.554 186.192C269.554 185.709 269.162 185.316 268.678 185.316C268.194 185.316 267.802 185.709 267.802 186.192C267.802 186.676 268.194 187.068 268.678 187.068Z" fill="#27B45F"/>
<path d="M267.76 191.283C268.244 191.283 268.636 190.89 268.636 190.407C268.636 189.923 268.244 189.531 267.76 189.531C267.277 189.531 266.885 189.923 266.885 190.407C266.885 190.89 267.277 191.283 267.76 191.283Z" fill="#27B45F"/>
<path d="M271.553 188.779C271.954 188.779 272.28 188.454 272.28 188.052C272.28 187.651 271.954 187.325 271.553 187.325C271.151 187.325 270.826 187.651 270.826 188.052C270.826 188.454 271.151 188.779 271.553 188.779Z" fill="#27B45F"/>
<path d="M272.902 191.608C273.304 191.608 273.629 191.282 273.629 190.88C273.629 190.479 273.304 190.153 272.902 190.153C272.501 190.153 272.175 190.479 272.175 190.88C272.175 191.282 272.501 191.608 272.902 191.608Z" fill="#27B45F"/>
<path d="M275.277 190.01C275.679 190.01 276.004 189.684 276.004 189.283C276.004 188.881 275.679 188.556 275.277 188.556C274.876 188.556 274.55 188.881 274.55 189.283C274.55 189.684 274.876 190.01 275.277 190.01Z" fill="#27B45F"/>
<path d="M251.954 178.162C252.457 179.708 252.905 181.252 253.062 182.877C253.214 184.459 253.178 186.049 252.949 187.622C252.563 190.265 251.684 193.015 250.211 195.256C249.762 195.94 249.25 196.585 248.676 197.169C248.099 197.756 247.415 198.401 246.613 198.649C246.459 198.696 246.369 198.533 246.432 198.402C246.685 197.877 247.323 197.489 247.746 197.096C248.228 196.645 248.674 196.156 249.074 195.631C249.829 194.64 250.418 193.528 250.891 192.379C252.037 189.595 252.641 186.615 252.591 183.601C252.561 181.793 252.379 179.923 251.847 178.188C251.818 178.089 251.923 178.066 251.954 178.162Z" fill="#37474F"/>
<path d="M252.848 184.724C252.848 184.724 256.325 183.108 258.463 178.867C260.601 174.627 260.588 171.979 259.152 170.683C257.717 169.386 256.238 170.222 256.238 170.222C256.238 170.222 255.243 168.27 254.02 168.399C252.797 168.528 251.6 170.361 251.6 170.361C251.6 170.361 250.955 169.304 250.442 169.141C249.928 168.979 246.529 171.306 246.457 174.08C246.385 176.854 248.793 183.129 252.848 184.724Z" fill="#27B45F"/>
<path opacity="0.25" d="M252.848 184.724C252.848 184.724 256.325 183.108 258.463 178.867C260.601 174.627 260.588 171.979 259.152 170.683C257.717 169.386 256.238 170.222 256.238 170.222C256.238 170.222 255.243 168.27 254.02 168.399C252.797 168.528 251.6 170.361 251.6 170.361C251.6 170.361 250.955 169.304 250.442 169.141C249.928 168.979 246.529 171.306 246.457 174.08C246.385 176.854 248.793 183.129 252.848 184.724Z" fill="black"/>
<path d="M252.172 184.595C252.172 184.595 249.078 183.249 246.447 179.755C243.816 176.26 243.53 174.346 244.761 172.573C245.991 170.799 247.438 171.372 247.706 173.696C247.706 173.696 248.561 172.928 249.26 173.184C249.959 173.44 250.595 174.412 250.593 174.851C250.591 175.289 249.393 181.058 252.172 184.595Z" fill="#27B45F"/>
<path opacity="0.15" d="M252.172 184.595C252.172 184.595 249.078 183.249 246.447 179.755C243.816 176.26 243.53 174.346 244.761 172.573C245.991 170.799 247.438 171.372 247.706 173.696C247.706 173.696 248.561 172.928 249.26 173.184C249.959 173.44 250.595 174.412 250.593 174.851C250.591 175.289 249.393 181.058 252.172 184.595Z" fill="black"/>
<path d="M254.209 183.955C254.209 183.955 257.357 183.253 259.625 181.3C261.893 179.346 263.148 177.112 261.378 176.58C261.378 176.58 262.155 175.638 261.56 174.834C260.966 174.03 257.79 174.421 256.203 176.357C254.615 178.292 254.209 183.955 254.209 183.955Z" fill="#27B45F"/>
<path opacity="0.15" d="M254.209 183.955C254.209 183.955 257.357 183.253 259.625 181.3C261.893 179.346 263.148 177.112 261.378 176.58C261.378 176.58 262.155 175.638 261.56 174.834C260.966 174.03 257.79 174.421 256.203 176.357C254.615 178.292 254.209 183.955 254.209 183.955Z" fill="black"/>
<path d="M252.172 184.596C250.255 183.205 248.961 179.998 248.759 177.992C248.514 175.568 249.612 172.86 251.366 172.039C253.12 171.217 255.027 172.251 255.027 172.251C255.027 172.251 256.426 171.303 257.973 172.783C259.037 173.801 258.208 177.45 256.924 180.141C255.641 182.831 253.658 184.321 252.172 184.596Z" fill="#27B45F"/>
<path d="M252.67 187.25C252.29 186.63 252.076 185.795 250.473 184.728C248.87 183.66 247.549 182.569 248.218 181.576C248.886 180.584 250.996 182.97 250.996 182.97C250.996 182.97 251.098 180.324 252.379 180.268C254.046 180.195 253.723 183.403 253.723 183.403C253.723 183.403 255.62 181.4 256.484 182.113C257.347 182.826 256.686 183.926 255.477 184.749C254.267 185.571 252.898 186.575 252.67 187.25Z" fill="#37474F"/>
<path d="M246.379 201.772C246.379 201.772 247.791 204.026 252.546 202.365C257.691 200.567 258.978 193.375 264.724 193.352C264.724 193.352 261.559 188.356 252.437 191.546C243.762 194.579 246.379 201.772 246.379 201.772Z" fill="#27B45F"/>
<path opacity="0.3" d="M246.379 201.772C246.379 201.772 247.791 204.026 252.546 202.365C257.691 200.567 258.978 193.375 264.724 193.352C264.724 193.352 261.559 188.356 252.437 191.546C243.762 194.579 246.379 201.772 246.379 201.772Z" fill="black"/>
<path opacity="0.15" d="M252.546 202.364C247.791 204.026 246.379 201.772 246.379 201.772C248.152 192.872 262.148 190.739 264.724 193.351C258.978 193.374 257.691 200.566 252.546 202.364Z" fill="black"/>
<path d="M246.058 198.626C246.058 198.626 247.925 196.875 247.614 194.25C247.303 191.624 246.316 189.004 242.495 187.21C238.737 185.445 233.046 185.408 231.177 183.502C231.177 183.502 232.426 186.96 233.202 188.389C234.813 191.355 236.16 192.633 238.916 194.21C243.08 196.591 245.666 196.319 246.058 198.626Z" fill="#27B45F"/>
<path opacity="0.3" d="M246.058 198.626C246.058 198.626 247.925 196.875 247.614 194.25C247.303 191.624 246.316 189.004 242.495 187.21C238.737 185.445 233.046 185.408 231.177 183.502C231.177 183.502 232.426 186.96 233.202 188.389C234.813 191.355 236.16 192.633 238.916 194.21C243.08 196.591 245.666 196.319 246.058 198.626Z" fill="black"/>
<path opacity="0.15" d="M238.549 188.973C235.715 187.556 231.958 185.558 231.177 183.502C231.177 183.502 232.426 186.96 233.202 188.389C234.813 191.355 236.16 192.633 238.916 194.21C243.081 196.591 245.666 196.319 246.059 198.627C247.687 193.292 241.384 190.39 238.549 188.973Z" fill="black"/>
<path d="M72.3205 158.768C71.4654 158.728 70.5655 158.932 69.7497 159.171C68.6922 159.48 67.6664 160.022 66.8244 160.733C66.0235 161.409 65.4053 162.25 65.0387 163.233C64.6951 164.154 64.572 165.113 64.362 166.065C64.3434 166.149 64.1612 166.17 64.1486 166.074C64.0069 165.005 64.3116 163.853 64.7072 162.864C65.1148 161.842 65.797 160.961 66.6537 160.273C67.5433 159.558 68.6036 159.001 69.7158 158.74C70.5868 158.536 71.4758 158.573 72.3495 158.714C72.3851 158.719 72.3452 158.769 72.3205 158.768Z" fill="#455A64"/>
<path d="M73.4591 160.723C73.8159 160.723 74.1052 160.434 74.1052 160.077C74.1052 159.72 73.8159 159.431 73.4591 159.431C73.1023 159.431 72.813 159.72 72.813 160.077C72.813 160.434 73.1023 160.723 73.4591 160.723Z" fill="#27B45F"/>
<path d="M75.3485 157.915C75.6449 157.915 75.8852 157.675 75.8852 157.378C75.8852 157.082 75.6449 156.842 75.3485 156.842C75.0521 156.842 74.8118 157.082 74.8118 157.378C74.8118 157.675 75.0521 157.915 75.3485 157.915Z" fill="#27B45F"/>
<path d="M77.0855 159.443C77.3819 159.443 77.6222 159.202 77.6222 158.906C77.6222 158.609 77.3819 158.369 77.0855 158.369C76.7891 158.369 76.5488 158.609 76.5488 158.906C76.5488 159.202 76.7891 159.443 77.0855 159.443Z" fill="#27B45F"/>
<path d="M78.2323 157.669C78.5287 157.669 78.769 157.429 78.769 157.132C78.769 156.836 78.5287 156.596 78.2323 156.596C77.9358 156.596 77.6956 156.836 77.6956 157.132C77.6956 157.429 77.9358 157.669 78.2323 157.669Z" fill="#27B45F"/>
<path d="M58.2071 167.566C58.1863 167.555 58.1661 167.539 58.1491 167.521C58.0638 167.428 58.0692 167.283 58.1623 167.198C64.8144 161.049 67.1127 149.071 63.7322 139.56C63.6901 139.441 63.7519 139.31 63.8712 139.268C63.9899 139.224 64.1206 139.286 64.1633 139.406C67.6062 149.093 65.2619 161.259 58.4725 167.534C58.398 167.602 58.2908 167.613 58.2071 167.566Z" fill="#455A64"/>
<path d="M65.0328 153.348C64.9972 153.328 64.9671 153.3 64.9452 153.263C63.7104 151.15 61.9822 150.27 60.3135 149.421C59.3118 148.911 58.3664 148.43 57.6109 147.711C56.6212 146.768 56.3887 145.154 57.0813 144.038C57.415 143.5 58.4545 142.344 60.8891 143.231C64.7417 144.63 65.8326 150.366 65.3681 153.185C65.3523 153.28 65.2784 153.355 65.1838 153.372C65.1312 153.383 65.0776 153.373 65.0328 153.348ZM61.579 149.566C62.7787 150.224 64.0048 151.059 64.9857 152.474C65.1394 149.948 64.2685 144.95 60.7326 143.661C59.2401 143.117 58.0519 143.343 57.4708 144.28C56.8882 145.218 57.089 146.581 57.9277 147.38C58.634 148.053 59.5503 148.519 60.5209 149.013C60.8661 149.189 61.2223 149.37 61.579 149.566Z" fill="#455A64"/>
<path d="M65.0333 153.349C64.9633 153.31 64.9151 153.235 64.9151 153.149C64.9097 150.827 62.4663 146.936 59.6116 145.687C59.518 145.642 59.4425 145.501 59.494 145.386C59.5443 145.27 59.6794 145.217 59.7954 145.267C62.544 146.46 65.3659 150.444 65.3725 153.147C65.373 153.274 65.2713 153.377 65.1438 153.377C65.1039 153.377 65.0661 153.366 65.0333 153.349Z" fill="#455A64"/>
<path d="M65.4223 150.55C65.3419 150.507 65.2938 150.417 65.3058 150.322C66.0115 144.685 68.9948 140.822 71.4436 140.048C72.4733 139.722 73.3929 139.931 74.0385 140.642C74.7557 141.432 75.0145 142.345 74.7891 143.283C74.4909 144.522 73.3306 145.716 71.9021 146.256C69.6278 147.115 66.1138 148.929 65.7555 150.404C65.7265 150.522 65.6111 150.598 65.4913 150.575C65.4661 150.57 65.4431 150.562 65.4223 150.55ZM73.2222 140.568C72.6615 140.26 72.046 140.337 71.581 140.484C69.4363 141.162 66.8508 144.407 65.941 149.218C67.5571 147.425 71.5388 145.903 71.7396 145.827C73.0329 145.339 74.0795 144.274 74.3443 143.176C74.5358 142.381 74.3181 141.632 73.6993 140.95C73.5488 140.784 73.388 140.659 73.2222 140.568Z" fill="#455A64"/>
<path d="M65.4226 150.55C65.3307 150.5 65.2826 150.391 65.3127 150.287C66.4659 146.236 70.5894 142.686 71.9615 142.02C72.0753 141.964 72.2115 142.013 72.2673 142.126C72.3226 142.24 72.275 142.377 72.1612 142.432C70.8389 143.073 66.8669 146.498 65.7525 150.412C65.718 150.534 65.5917 150.604 65.4697 150.57C65.4527 150.565 65.4374 150.558 65.4226 150.55Z" fill="#455A64"/>
<path d="M68.0196 134.722C68.7543 133.491 69.3747 132.13 69.3135 130.699C69.2889 130.119 69.1171 129.477 68.6154 129.187C68.0732 128.873 67.3467 129.118 66.921 129.578C66.4954 130.037 66.299 130.657 66.1146 131.255C66.2164 130.096 65.9981 128.91 65.4909 127.861C65.2885 127.443 64.9936 127.012 64.5412 126.91C64.0991 126.812 63.6483 127.069 63.3425 127.402C62.599 128.215 62.169 130.341 62.2116 131.441C63.7769 133.639 64.0061 136.261 63.8042 138.401C63.7134 139.36 64.9876 138.319 65.8378 137.489C66.8532 136.499 67.3997 135.76 68.0196 134.722Z" fill="#27B45F"/>
<path opacity="0.15" d="M68.0196 134.722C68.7543 133.491 69.3747 132.13 69.3135 130.699C69.2889 130.119 69.1171 129.477 68.6154 129.187C68.0732 128.873 67.3467 129.118 66.921 129.578C66.4954 130.037 66.299 130.657 66.1146 131.255C66.2164 130.096 65.9981 128.91 65.4909 127.861C65.2885 127.443 64.9936 127.012 64.5412 126.91C64.0991 126.812 63.6483 127.069 63.3425 127.402C62.599 128.215 62.169 130.341 62.2116 131.441C63.7769 133.639 64.0061 136.261 63.8042 138.401C63.7134 139.36 64.9876 138.319 65.8378 137.489C66.8532 136.499 67.3997 135.76 68.0196 134.722Z" fill="black"/>
<path d="M62.9579 134.106C62.5898 132.721 61.7494 131.3 60.6295 130.406C60.1765 130.044 59.5802 129.751 59.0315 129.939C58.439 130.141 58.1463 130.85 58.2125 131.472C58.2787 132.095 58.6179 132.651 58.9477 133.182C58.1402 132.344 57.1029 131.729 55.9792 131.422C55.5317 131.3 55.0125 131.239 54.6383 131.514C54.2734 131.782 54.1705 132.291 54.2214 132.74C54.3456 133.834 54.8828 134.632 55.9125 135.616C57.4733 137.108 60.2438 138.666 62.3364 139.201C63.2692 139.439 63.2873 139.225 63.3322 137.783C63.3666 136.68 63.2386 135.162 62.9579 134.106Z" fill="#27B45F"/>
<path d="M65.1062 138.71C65.1062 138.71 69.4715 138.887 70.7577 136.311C72.0439 133.734 69.2286 133.809 69.2286 133.809C69.2286 133.809 67.8865 136.713 65.1062 138.71Z" fill="#27B45F"/>
<path opacity="0.25" d="M65.1062 138.71C65.1062 138.71 69.4715 138.887 70.7577 136.311C72.0439 133.734 69.2286 133.809 69.2286 133.809C69.2286 133.809 67.8865 136.713 65.1062 138.71Z" fill="black"/>
<path d="M62.5079 139.622C61.6528 139.572 58.3702 138.583 55.9526 136.308C55.9526 136.308 54.8081 136.217 54.2884 137.413C53.6346 138.92 58.3117 141.596 62.5079 139.622Z" fill="#27B45F"/>
<path opacity="0.15" d="M62.5079 139.622C61.6528 139.572 58.3702 138.583 55.9526 136.308C55.9526 136.308 54.8081 136.217 54.2884 137.413C53.6346 138.92 58.3117 141.596 62.5079 139.622Z" fill="black"/>
<path d="M33.522 164.594C33.9564 164.391 34.4805 164.28 34.9411 164.14C35.5654 163.951 36.2011 163.808 36.8461 163.711C38.2598 163.498 39.7413 163.597 41.1238 163.956C42.5452 164.325 43.8571 165.041 44.8868 166.092C45.8562 167.081 46.6851 168.271 47.4072 169.451C47.5013 169.604 47.6168 169.432 47.5801 169.313C46.7037 166.461 44.1033 164.21 41.2655 163.446C39.8043 163.053 38.2221 162.938 36.7274 163.184C36.1081 163.287 35.4964 163.459 34.916 163.698C34.3869 163.915 33.9892 164.214 33.5149 164.519C33.4848 164.537 33.4705 164.618 33.522 164.594Z" fill="#37474F"/>
<path d="M31.9118 163.481C32.3955 163.481 32.7877 163.089 32.7877 162.605C32.7877 162.121 32.3955 161.729 31.9118 161.729C31.428 161.729 31.0359 162.121 31.0359 162.605C31.0359 163.089 31.428 163.481 31.9118 163.481Z" fill="#27B45F"/>
<path d="M32.83 167.696C33.3137 167.696 33.7059 167.304 33.7059 166.82C33.7059 166.336 33.3137 165.944 32.83 165.944C32.3463 165.944 31.9541 166.336 31.9541 166.82C31.9541 167.304 32.3463 167.696 32.83 167.696Z" fill="#27B45F"/>
<path d="M29.0379 165.193C29.4394 165.193 29.765 164.867 29.765 164.466C29.765 164.064 29.4394 163.739 29.0379 163.739C28.6363 163.739 28.3108 164.064 28.3108 164.466C28.3108 164.867 28.6363 165.193 29.0379 165.193Z" fill="#27B45F"/>
<path d="M27.6888 168.021C28.0903 168.021 28.4158 167.695 28.4158 167.293C28.4158 166.892 28.0903 166.566 27.6888 166.566C27.2872 166.566 26.9617 166.892 26.9617 167.293C26.9617 167.695 27.2872 168.021 27.6888 168.021Z" fill="#27B45F"/>
<path d="M25.3133 166.422C25.7148 166.422 26.0404 166.097 26.0404 165.695C26.0404 165.294 25.7148 164.968 25.3133 164.968C24.9117 164.968 24.5862 165.294 24.5862 165.695C24.5862 166.097 24.9117 166.422 25.3133 166.422Z" fill="#27B45F"/>
<path d="M48.6365 154.574C48.1332 156.12 47.6856 157.665 47.5286 159.29C47.376 160.872 47.4126 162.461 47.6419 164.035C48.027 166.678 48.9062 169.428 50.379 171.668C50.8281 172.352 51.3402 172.997 51.9141 173.581C52.4913 174.169 53.1752 174.814 53.9772 175.061C54.1315 175.109 54.2218 174.945 54.1588 174.815C53.905 174.289 53.2671 173.902 52.8447 173.508C52.3622 173.058 51.9163 172.568 51.5164 172.044C50.7614 171.053 50.1727 169.941 49.6995 168.792C48.5533 166.008 47.9488 163.028 47.9997 160.014C48.0298 158.205 48.2119 156.335 48.7432 154.601C48.7727 154.502 48.6671 154.479 48.6365 154.574Z" fill="#37474F"/>
<path d="M47.7421 161.137C47.7421 161.137 44.2653 159.52 42.1273 155.28C39.9892 151.039 40.0024 148.392 41.4379 147.095C42.8735 145.799 44.3528 146.635 44.3528 146.635C44.3528 146.635 45.3469 144.683 46.5702 144.812C47.793 144.941 48.9906 146.774 48.9906 146.774C48.9906 146.774 49.635 145.717 50.1482 145.554C50.6619 145.392 54.0616 147.72 54.1338 150.493C54.2055 153.267 51.7982 159.542 47.7421 161.137Z" fill="#27B45F"/>
<path opacity="0.25" d="M47.7421 161.137C47.7421 161.137 44.2653 159.52 42.1273 155.28C39.9892 151.039 40.0024 148.392 41.4379 147.095C42.8735 145.799 44.3528 146.635 44.3528 146.635C44.3528 146.635 45.3469 144.683 46.5702 144.812C47.793 144.941 48.9906 146.774 48.9906 146.774C48.9906 146.774 49.635 145.717 50.1482 145.554C50.6619 145.392 54.0616 147.72 54.1338 150.493C54.2055 153.267 51.7982 159.542 47.7421 161.137Z" fill="black"/>
<path d="M48.4182 161.007C48.4182 161.007 51.512 159.66 54.143 156.166C56.774 152.672 57.0601 150.757 55.8297 148.984C54.5993 147.211 53.1528 147.784 52.8847 150.107C52.8847 150.107 52.0296 149.339 51.3304 149.595C50.6312 149.851 49.9955 150.824 49.9977 151.262C49.9999 151.701 51.1969 157.47 48.4182 161.007Z" fill="#27B45F"/>
<path opacity="0.15" d="M48.4182 161.007C48.4182 161.007 51.512 159.66 54.143 156.166C56.774 152.672 57.0601 150.757 55.8297 148.984C54.5993 147.211 53.1528 147.784 52.8847 150.107C52.8847 150.107 52.0296 149.339 51.3304 149.595C50.6312 149.851 49.9955 150.824 49.9977 151.262C49.9999 151.701 51.1969 157.47 48.4182 161.007Z" fill="black"/>
<path d="M46.3815 160.367C46.3815 160.367 43.2336 159.665 40.9653 157.712C38.6971 155.758 37.4426 153.524 39.213 152.992C39.213 152.992 38.4356 152.05 39.0302 151.246C39.6249 150.443 42.8003 150.833 44.3885 152.769C45.9756 154.704 46.3815 160.367 46.3815 160.367Z" fill="#27B45F"/>
<path opacity="0.15" d="M46.3815 160.367C46.3815 160.367 43.2336 159.665 40.9653 157.712C38.6971 155.758 37.4426 153.524 39.213 152.992C39.213 152.992 38.4356 152.05 39.0302 151.246C39.6249 150.443 42.8003 150.833 44.3885 152.769C45.9756 154.704 46.3815 160.367 46.3815 160.367Z" fill="black"/>
<path d="M48.4183 161.007C50.3353 159.616 51.6286 156.409 51.8311 154.404C52.0756 151.98 50.9781 149.271 49.2236 148.45C47.4691 147.629 45.5625 148.663 45.5625 148.663C45.5625 148.663 44.1641 147.714 42.6169 149.195C41.5528 150.213 42.3822 153.862 43.6657 156.552C44.9492 159.242 46.9324 160.733 48.4183 161.007Z" fill="#27B45F"/>
<path d="M47.9205 163.662C48.3002 163.042 48.5141 162.207 50.1176 161.139C51.7206 160.072 53.0413 158.981 52.3728 157.988C51.7042 156.995 49.5941 159.382 49.5941 159.382C49.5941 159.382 49.4929 156.736 48.2116 156.679C46.5446 156.606 46.8679 159.814 46.8679 159.814C46.8679 159.814 44.9706 157.812 44.1067 158.525C43.2434 159.238 43.9043 160.338 45.1139 161.16C46.3235 161.983 47.6929 162.987 47.9205 163.662Z" fill="#37474F"/>
<path d="M54.2115 178.184C54.2115 178.184 52.7995 180.438 48.0447 178.777C42.8998 176.979 41.6125 169.787 35.8669 169.763C35.8669 169.763 39.0319 164.768 48.1541 167.958C56.8283 170.991 54.2115 178.184 54.2115 178.184Z" fill="#27B45F"/>
<path opacity="0.3" d="M54.2115 178.184C54.2115 178.184 52.7995 180.438 48.0447 178.777C42.8998 176.979 41.6125 169.787 35.8669 169.763C35.8669 169.763 39.0319 164.768 48.1541 167.958C56.8283 170.991 54.2115 178.184 54.2115 178.184Z" fill="black"/>
<path opacity="0.15" d="M48.0447 178.776C52.7995 180.437 54.2115 178.183 54.2115 178.183C52.439 169.284 38.4427 167.151 35.8669 169.762C41.6125 169.786 42.8998 176.978 48.0447 178.776Z" fill="black"/>
<path d="M54.1258 178.39C54.1258 178.39 52.2591 176.639 52.5704 174.013C52.8817 171.388 53.8687 168.767 57.6896 166.973C61.4481 165.208 67.139 165.172 69.0073 163.266C69.0073 163.266 67.7583 166.724 66.9825 168.152C65.3713 171.119 64.0244 172.397 61.2687 173.973C57.1042 176.355 54.5186 176.082 54.1258 178.39Z" fill="#27B45F"/>
<path opacity="0.3" d="M54.1258 178.39C54.1258 178.39 52.2591 176.639 52.5704 174.013C52.8817 171.388 53.8687 168.767 57.6896 166.973C61.4481 165.208 67.139 165.172 69.0073 163.266C69.0073 163.266 67.7583 166.724 66.9825 168.152C65.3713 171.119 64.0244 172.397 61.2687 173.973C57.1042 176.355 54.5186 176.082 54.1258 178.39Z" fill="black"/>
<path opacity="0.15" d="M61.6358 168.737C64.4702 167.32 68.2266 165.322 69.0073 163.266C69.0073 163.266 67.7583 166.724 66.9825 168.152C65.3719 171.119 64.0244 172.397 61.2686 173.973C57.1042 176.355 54.5192 176.082 54.1258 178.391C52.4982 173.056 58.8007 170.154 61.6358 168.737Z" fill="black"/>
<path d="M163.084 259.979L255.54 206.599C255.977 206.346 256.331 205.733 256.332 205.228V204.198C256.332 203.694 255.978 203.08 255.541 202.827L133.387 132.302C132.95 132.05 132.242 132.049 131.805 132.302L39.348 185.681C38.9109 185.933 38.5569 186.547 38.5569 187.051V188.083C38.5569 188.588 38.9114 189.202 39.348 189.454L161.501 259.979C161.938 260.232 162.647 260.232 163.084 259.979Z" fill="#FAFAFA"/>
<path d="M255.548 202.831L133.382 132.298C132.951 132.051 132.255 132.05 131.819 132.293L39.337 185.687C39.2833 185.719 39.2254 185.757 39.181 185.803C38.9206 186.052 38.9775 186.381 39.3517 186.597L161.505 257.122C161.719 257.245 162.007 257.308 162.296 257.311C162.574 257.316 162.851 257.247 163.071 257.13L255.552 203.736C255.903 203.528 255.964 203.217 255.734 202.971C255.772 202.998 255.8 203.031 255.833 203.066C255.749 202.968 255.651 202.89 255.548 202.831ZM251.596 203.284L162.295 254.842L43.2946 186.138L132.596 134.58L251.596 203.284Z" fill="#27B45F"/>
<path d="M255.734 202.972C255.965 203.218 255.902 203.533 255.543 203.741L163.085 257.121C162.865 257.247 162.579 257.315 162.293 257.311L162.291 260.166C162.577 260.17 162.868 260.105 163.083 259.976L255.541 206.597C255.979 206.35 256.335 205.733 256.33 205.23L256.334 204.199C256.33 203.767 256.08 203.263 255.734 202.972Z" fill="#27B45F"/>
<path opacity="0.3" d="M255.734 202.972C255.965 203.218 255.902 203.533 255.543 203.741L163.085 257.121C162.865 257.247 162.579 257.315 162.293 257.311L162.291 260.166C162.577 260.17 162.868 260.105 163.083 259.976L255.541 206.597C255.979 206.35 256.335 205.733 256.33 205.23L256.334 204.199C256.33 203.767 256.08 203.263 255.734 202.972Z" fill="black"/>
<path d="M39.1822 185.804C39.1051 185.864 39.035 185.937 38.9672 186.018C38.9377 186.057 38.9048 186.101 38.8753 186.14C38.7856 186.271 38.7084 186.416 38.6504 186.566C38.6143 186.665 38.587 186.762 38.5728 186.859C38.5635 186.924 38.5591 186.991 38.5585 187.054L38.5569 188.08C38.5591 188.588 38.9098 189.198 39.348 189.452L161.5 259.976C161.722 260.105 162.007 260.171 162.291 260.166L162.294 257.311C162.007 257.308 161.719 257.246 161.503 257.122L39.3502 186.597C38.9754 186.38 38.9185 186.053 39.1822 185.804Z" fill="#27B45F"/>
<path opacity="0.15" d="M39.1822 185.804C39.1051 185.864 39.035 185.937 38.9672 186.018C38.9377 186.057 38.9048 186.101 38.8753 186.14C38.7856 186.271 38.7084 186.416 38.6504 186.566C38.6143 186.665 38.587 186.762 38.5728 186.859C38.5635 186.924 38.5591 186.991 38.5585 187.054L38.5569 188.08C38.5591 188.588 38.9098 189.198 39.348 189.452L161.5 259.976C161.722 260.105 162.007 260.171 162.291 260.166L162.294 257.311C162.007 257.308 161.719 257.246 161.503 257.122L39.3502 186.597C38.9754 186.38 38.9185 186.053 39.1822 185.804Z" fill="black"/>
<path d="M69.4927 184.48L70.1021 184.03L66.3261 181.85L65.6236 182.172L65.2368 181.949L67.1287 180.857L71.4491 182.003L69.3925 179.55L71.2051 178.503L71.5919 178.726L71.1405 179.053C71.7139 179.4 72.308 179.743 72.9032 180.087L73.168 180.24C73.7627 180.584 74.3574 180.927 74.9592 181.258L75.5468 180.985L75.9336 181.208L73.6478 182.527L73.261 182.304L73.7201 181.965C73.1538 181.621 72.581 181.299 72.1149 181.022L70.5458 180.099L72.9246 182.945L72.3731 183.264L67.3431 181.94L68.8121 182.746L70.5606 183.756L71.2412 183.47L71.628 183.693L69.8795 184.703L69.4927 184.48Z" fill="#455A64"/>
<path d="M77.7983 179.652C77.8196 180.02 77.7912 180.26 77.2966 180.546C76.7446 180.864 76.0356 180.902 75.4403 180.558C74.9315 180.264 74.8527 179.896 75.634 179.073C75.7341 178.966 75.8846 178.821 76.035 178.676L75.7987 178.539C75.1608 178.171 74.8527 178.134 74.3943 178.399C74.3297 178.436 74.2723 178.469 74.2083 178.515L74.4878 178.718C74.9463 178.999 74.9102 179.243 74.6312 179.404C74.3729 179.553 74.0868 179.578 73.793 179.474C73.2344 179.111 73.4062 178.539 74.4375 177.944C75.3544 177.415 76.1143 177.431 77.0745 177.986L78.6797 178.913C78.823 178.995 78.9445 179 79.0446 178.942C79.1239 178.896 79.1452 178.842 79.102 178.727L79.4243 178.689C79.6393 179.012 79.5315 179.248 79.1015 179.496C78.6868 179.735 78.2354 179.78 77.7983 179.652ZM77.2682 179.892C77.4044 179.814 77.4542 179.719 77.5122 179.529L76.3441 178.854C76.2577 178.954 76.1794 179.048 76.1291 179.119C75.9431 179.384 75.9787 179.644 76.3157 179.839C76.6735 180.045 77.0242 180.033 77.2682 179.892Z" fill="#455A64"/>
<path d="M79.6905 178.651L80.0056 178.378C79.6615 178.171 79.2243 177.919 78.924 177.745L78.5011 177.501C78.1072 177.274 77.9567 177.195 77.6553 177.038L77.1536 177.253L76.874 177.091L77.8057 175.999L78.0136 175.97L78.9234 176.421C78.5005 175.954 78.6083 175.536 78.959 175.333C79.2741 175.151 79.7041 175.11 80.1123 175.279C80.4706 175.503 80.4783 175.747 80.1916 175.912C79.9766 176.037 79.7041 176.069 79.3031 176.037L79.203 176.028C79.1882 176.268 79.3245 176.57 79.5827 176.802L80.0701 177.083C80.3639 177.253 80.7792 177.492 81.1233 177.683L81.811 177.426L82.148 177.62L80.0269 178.845L79.6905 178.651Z" fill="#455A64"/>
<path d="M83.0223 176.727L83.3374 176.454C82.9933 176.247 82.5561 175.995 82.2558 175.821L81.8329 175.577C81.439 175.349 81.2885 175.271 80.9871 175.113L80.4854 175.328L80.2058 175.167L81.1375 174.075L81.3454 174.046L82.2552 174.497C81.8323 174.03 81.9401 173.612 82.2908 173.409C82.6059 173.226 83.0359 173.185 83.4441 173.355C83.8024 173.578 83.8101 173.823 83.5234 173.988C83.3084 174.112 83.0359 174.145 82.6349 174.112L82.5348 174.104C82.52 174.344 82.6562 174.646 82.9145 174.878L83.4019 175.159C83.6957 175.328 84.111 175.568 84.4551 175.758L85.1428 175.502L85.4798 175.696L83.3587 176.92L83.0223 176.727Z" fill="#455A64"/>
<path d="M88.6113 173.889L86.7124 174.985L86.3753 174.791L86.6762 174.518C86.3392 174.315 85.9021 174.063 85.6018 173.89L85.2576 173.691C84.8637 173.463 84.6345 173.339 84.3336 173.182L83.8248 173.402L83.5452 173.24L84.5699 172.094L84.7707 172.069L85.7883 172.682L86.7414 173.232C87.0423 173.405 87.4865 173.662 87.8448 173.861L88.2749 173.695L88.6113 173.889ZM82.3848 172.09C82.0478 171.896 82.0839 171.602 82.421 171.407C82.7574 171.213 83.2662 171.192 83.6032 171.386C83.9331 171.577 83.897 171.87 83.56 172.065C83.223 172.259 82.7147 172.28 82.3848 172.09Z" fill="#455A64"/>
<path d="M90.5317 172.301C90.553 172.669 90.5246 172.908 90.03 173.194C89.478 173.512 88.769 173.55 88.1737 173.207C87.6649 172.913 87.5861 172.545 88.3674 171.722C88.4681 171.614 88.618 171.469 88.7684 171.325L88.5321 171.188C87.8941 170.82 87.5861 170.783 87.1277 171.048C87.0631 171.085 87.0057 171.118 86.9417 171.164L87.2212 171.367C87.6797 171.648 87.6436 171.892 87.3646 172.053C87.1063 172.202 86.8202 172.227 86.5264 172.123C85.9678 171.76 86.1396 171.188 87.1709 170.593C88.0878 170.064 88.8477 170.08 89.8079 170.635L91.4131 171.562C91.5564 171.644 91.6778 171.649 91.778 171.591C91.8573 171.545 91.8786 171.491 91.8354 171.376L92.1577 171.338C92.3727 171.661 92.2649 171.897 91.8349 172.145C91.4202 172.383 90.9688 172.429 90.5317 172.301ZM90.0016 172.541C90.1378 172.462 90.1876 172.367 90.2456 172.177L89.0775 171.502C88.9911 171.602 88.9128 171.697 88.8625 171.767C88.6765 172.032 88.7121 172.292 89.0491 172.487C89.4069 172.694 89.7576 172.681 90.0016 172.541Z" fill="#455A64"/>
<path d="M90.7112 168.548C91.2271 168.251 91.7288 168.101 92.1801 168.081L92.6386 167.419L92.8246 167.395L93.3766 167.713L92.696 168.106C92.9395 168.148 93.1687 168.23 93.3766 168.35C94.0211 168.722 94.0359 169.293 93.0183 169.881C92.7672 170.026 92.5237 170.133 92.2803 170.208C92.3229 170.299 92.3946 170.373 92.5243 170.448C92.6889 170.544 92.9039 170.544 93.212 170.366L94.0501 169.882C95.1388 169.253 95.9414 169.278 96.5651 169.638C97.2883 170.055 97.1745 170.825 95.7986 171.619C94.6092 172.306 93.8564 172.277 93.4193 172.025C93.1184 171.851 93.0615 171.595 93.276 171.255C92.8602 171.354 92.5237 171.3 92.2874 171.164C91.9504 170.97 91.8573 170.684 91.9077 170.308C91.3201 170.416 90.7829 170.32 90.3742 170.085C89.7084 169.698 89.6941 169.136 90.7112 168.548ZM96.0207 170.365C95.8128 170.245 95.4764 170.208 95.0896 170.431L94.3373 170.865C94.0868 171.01 93.8356 171.13 93.6206 171.204C93.6781 171.329 93.7497 171.411 93.9215 171.511C94.3444 171.755 94.8385 171.685 95.4906 171.308C96.2067 170.894 96.3359 170.547 96.0207 170.365ZM91.3852 169.492C91.894 169.785 92.3454 169.881 92.6747 169.69C93.0117 169.496 92.8607 169.219 92.3519 168.925C91.8502 168.635 91.3775 168.56 91.0624 168.743C90.7402 168.929 90.8764 169.198 91.3852 169.492Z" fill="#455A64"/>
<path d="M97.7699 166.227C97.9204 166.314 98.0205 166.389 98.1064 166.471L96.0356 167.667C96.8453 168.076 97.5976 168.039 98.0993 167.749C98.4861 167.526 98.5867 167.278 98.5791 167.025L99.0594 167.013C99.3319 167.51 99.0879 167.964 98.3931 168.366C97.347 168.97 95.9284 169.003 94.7746 168.337C93.5781 167.646 93.8434 166.74 94.7675 166.206C95.7134 165.66 96.9028 165.727 97.7699 166.227ZM95.6631 167.452L96.272 167.1C96.6161 166.901 96.58 166.773 96.2578 166.587C95.7851 166.314 95.3337 166.309 95.0684 166.463C94.7965 166.62 94.8178 166.931 95.6631 167.452Z" fill="#455A64"/>
<path d="M104.663 164.141L103.946 163.496L104.49 163.182L105.565 163.835C105.386 164.179 105.042 164.559 104.426 164.915C103.043 165.713 101.123 165.879 99.4461 164.911C97.755 163.934 98.1489 162.789 99.4959 162.011C100.04 161.696 100.592 161.518 101.259 161.407L102.398 162.032L101.854 162.346L100.708 161.924C100.449 161.974 100.249 162.048 100.07 162.152C99.3104 162.59 99.2601 163.339 100.722 164.183C102.184 165.027 103.438 165.006 104.197 164.568C104.398 164.451 104.548 164.307 104.663 164.141Z" fill="#455A64"/>
<path d="M104.477 162.711C103.381 162.078 103.445 161.197 104.47 160.606C105.488 160.018 106.999 159.964 108.117 160.609C109.235 161.255 109.264 162.09 108.152 162.732C107.035 163.377 105.581 163.349 104.477 162.711ZM106.921 161.325C105.903 160.738 105.251 160.593 104.85 160.825C104.442 161.061 104.693 161.437 105.71 162.025C106.728 162.612 107.373 162.753 107.781 162.517C108.181 162.285 107.938 161.913 106.921 161.325Z" fill="#455A64"/>
<path d="M111.621 157.899L112.459 158.383C112.774 158.565 113.204 158.813 113.562 159.012L113.992 158.847L114.329 159.041L112.438 160.133L112.101 159.939L112.394 159.678C112.05 159.472 111.62 159.223 111.313 159.045L110.561 158.611C110.102 158.346 109.823 158.317 109.543 158.479C109.364 158.582 109.235 158.764 109.192 158.987L110.302 159.629C110.603 159.802 111.047 160.059 111.406 160.257L111.814 160.104L112.152 160.298L110.267 161.386L109.93 161.192L110.231 160.919C109.894 160.717 109.457 160.464 109.156 160.291L108.74 160.05C108.346 159.823 108.189 159.74 107.887 159.583L107.386 159.798L107.106 159.637L108.038 158.545L108.246 158.516L108.804 158.789C108.747 158.317 108.941 158.023 109.356 157.784C109.973 157.427 110.797 157.423 111.621 157.899Z" fill="#455A64"/>
<path d="M116.014 157.515C116.143 157.44 116.215 157.341 116.243 157.2L116.594 157.196C116.766 157.518 116.645 157.829 116.114 158.135C115.469 158.507 114.803 158.561 114.093 158.151C113.843 158.007 113.663 157.895 113.384 157.733L112.016 156.943L111.551 157.212L111.128 156.968L111.586 156.621L110.942 155.834L111.673 155.413L112.668 156.004L113.421 155.57L113.908 155.851L113.156 156.285L115.162 157.443C115.498 157.639 115.799 157.639 116.014 157.515Z" fill="#455A64"/>
<path d="M116.867 157.187L117.182 156.914C116.838 156.707 116.401 156.455 116.1 156.281L115.677 156.037C115.283 155.81 115.133 155.731 114.832 155.574L114.33 155.789L114.051 155.627L114.982 154.535L115.19 154.506L116.1 154.957C115.677 154.49 115.785 154.072 116.135 153.869C116.451 153.687 116.88 153.646 117.288 153.815C117.647 154.039 117.654 154.283 117.368 154.448C117.153 154.573 116.88 154.605 116.479 154.573L116.379 154.564C116.364 154.805 116.501 155.107 116.759 155.338L117.246 155.619C117.54 155.789 117.955 156.028 118.3 156.219L118.987 155.962L119.324 156.156L117.203 157.381L116.867 157.187Z" fill="#455A64"/>
<path d="M121.94 154.167C121.962 154.536 121.933 154.775 121.439 155.061C120.887 155.379 120.178 155.417 119.582 155.073C119.074 154.78 118.995 154.411 119.776 153.588C119.876 153.48 120.027 153.336 120.177 153.191L119.941 153.055C119.303 152.686 118.995 152.649 118.536 152.914C118.472 152.951 118.414 152.985 118.35 153.03L118.63 153.233C119.088 153.514 119.052 153.758 118.773 153.92C118.515 154.068 118.229 154.094 117.935 153.99C117.377 153.626 117.548 153.055 118.58 152.459C119.497 151.93 120.256 151.946 121.217 152.501L122.822 153.428C122.965 153.51 123.087 153.515 123.187 153.457C123.266 153.411 123.287 153.357 123.244 153.242L123.566 153.205C123.781 153.527 123.674 153.763 123.244 154.011C122.829 154.25 122.378 154.295 121.94 154.167ZM121.41 154.408C121.546 154.329 121.596 154.234 121.654 154.044L120.486 153.369C120.4 153.469 120.322 153.563 120.271 153.634C120.085 153.899 120.121 154.159 120.458 154.354C120.816 154.56 121.166 154.548 121.41 154.408Z" fill="#455A64"/>
<path d="M123.517 151.594C124.341 152.07 125.201 152.103 125.802 151.755C126.147 151.557 126.232 151.316 126.203 151.06L126.676 151.043C126.977 151.54 126.748 151.995 126.067 152.388C125.092 152.951 123.659 153.058 122.455 152.364C121.28 151.685 121.467 150.792 122.535 150.175C123.294 149.737 124.297 149.704 124.921 150.006C125.099 150.2 125.064 150.353 124.806 150.502C124.527 150.663 124.118 150.7 123.581 150.424L123.172 150.246C123.122 150.267 123.079 150.291 123.029 150.32C122.621 150.555 122.549 151.036 123.517 151.594Z" fill="#455A64"/>
<path d="M129.17 149.918C129.3 149.844 129.371 149.744 129.4 149.604L129.751 149.599C129.923 149.922 129.801 150.232 129.271 150.539C128.626 150.911 127.96 150.965 127.25 150.555C127 150.411 126.82 150.299 126.541 150.137L125.173 149.347L124.707 149.616L124.284 149.372L124.743 149.025L124.098 148.239L124.829 147.817L125.825 148.408L126.577 147.974L127.065 148.256L126.312 148.69L128.319 149.848C128.655 150.042 128.955 150.042 129.17 149.918Z" fill="#455A64"/>
<path d="M74.978 188.047C74.7438 188.047 74.5162 187.925 74.3909 187.708C74.2038 187.384 74.3149 186.969 74.6388 186.783L134.372 152.296C134.695 152.11 135.11 152.22 135.297 152.544C135.484 152.868 135.373 153.283 135.049 153.469L75.3161 187.956C75.2099 188.017 75.0934 188.047 74.978 188.047Z" fill="#E0E0E0"/>
<path d="M77.8705 189.717C77.6364 189.717 77.4088 189.595 77.2835 189.378C77.0964 189.054 77.2075 188.64 77.5314 188.453L137.264 153.966C137.587 153.779 138.002 153.89 138.189 154.214C138.376 154.538 138.265 154.952 137.941 155.139L78.2087 189.626C78.1025 189.687 77.9854 189.717 77.8705 189.717Z" fill="#E0E0E0"/>
<path d="M77.965 196.926C77.7309 196.926 77.5033 196.804 77.378 196.587C77.1909 196.263 77.302 195.849 77.6258 195.662L149.823 153.979C150.148 153.793 150.562 153.903 150.748 154.227C150.935 154.551 150.824 154.965 150.5 155.152L78.3031 196.835C78.197 196.896 78.0799 196.926 77.965 196.926Z" fill="#E0E0E0"/>
<path d="M82.0925 199.308C81.8583 199.308 81.6307 199.186 81.5054 198.969C81.3183 198.645 81.4294 198.231 81.7533 198.044L153.951 156.361C154.276 156.175 154.69 156.285 154.876 156.609C155.063 156.933 154.952 157.347 154.628 157.534L82.4306 199.217C82.3239 199.279 82.2074 199.308 82.0925 199.308Z" fill="#E0E0E0"/>
<path d="M86.2199 201.691C85.9858 201.691 85.7582 201.569 85.6329 201.352C85.4458 201.028 85.5568 200.613 85.8807 200.427L158.078 158.744C158.403 158.557 158.817 158.668 159.004 158.992C159.191 159.315 159.08 159.73 158.756 159.917L86.558 201.6C86.4513 201.662 86.3348 201.691 86.2199 201.691Z" fill="#E0E0E0"/>
<path d="M122.043 222.373C121.809 222.373 121.581 222.251 121.456 222.034C121.269 221.71 121.38 221.296 121.703 221.109L193.901 179.426C194.226 179.239 194.64 179.35 194.826 179.674C195.014 179.998 194.902 180.412 194.579 180.599L122.381 222.282C122.274 222.343 122.158 222.373 122.043 222.373Z" fill="#E0E0E0"/>
<path d="M126.17 224.756C125.936 224.756 125.709 224.635 125.583 224.418C125.396 224.094 125.507 223.679 125.831 223.492L198.028 181.809C198.353 181.623 198.767 181.733 198.954 182.057C199.14 182.381 199.03 182.796 198.706 182.982L126.508 224.665C126.402 224.727 126.285 224.756 126.17 224.756Z" fill="#E0E0E0"/>
<path d="M130.298 227.14C130.063 227.14 129.836 227.018 129.711 226.801C129.523 226.477 129.634 226.062 129.958 225.876L202.156 184.193C202.481 184.006 202.894 184.117 203.081 184.441C203.268 184.764 203.157 185.179 202.833 185.366L130.636 227.049C130.529 227.11 130.412 227.14 130.298 227.14Z" fill="#E0E0E0"/>
<path d="M97.2253 208.045C96.9911 208.045 96.7635 207.923 96.6383 207.706C96.4512 207.382 96.5622 206.967 96.8861 206.781L128.691 188.419C129.015 188.232 129.429 188.343 129.616 188.667C129.803 188.99 129.692 189.405 129.368 189.592L97.5634 207.954C97.4567 208.015 97.3402 208.045 97.2253 208.045Z" fill="#E0E0E0"/>
<path d="M101.758 210.661C101.524 210.661 101.296 210.54 101.171 210.323C100.984 209.999 101.095 209.584 101.419 209.398L133.224 191.035C133.547 190.849 133.962 190.959 134.149 191.283C134.336 191.607 134.225 192.022 133.901 192.208L102.096 210.571C101.989 210.632 101.872 210.661 101.758 210.661Z" fill="#E0E0E0"/>
<path d="M106.291 213.279C106.057 213.279 105.829 213.157 105.704 212.94C105.517 212.616 105.628 212.202 105.952 212.015L137.756 193.653C138.08 193.466 138.495 193.577 138.681 193.901C138.869 194.225 138.757 194.639 138.434 194.826L106.629 213.188C106.522 213.249 106.406 213.279 106.291 213.279Z" fill="#E0E0E0"/>
<path d="M110.823 215.897C110.589 215.897 110.362 215.775 110.236 215.558C110.049 215.234 110.16 214.82 110.484 214.633L142.289 196.27C142.613 196.084 143.027 196.194 143.214 196.518C143.401 196.842 143.29 197.257 142.966 197.443L111.162 215.806C111.055 215.867 110.938 215.897 110.823 215.897Z" fill="#E0E0E0"/>
<path d="M115.356 218.513C115.122 218.513 114.895 218.392 114.769 218.175C114.582 217.851 114.693 217.436 115.017 217.249L146.822 198.887C147.146 198.7 147.56 198.811 147.747 199.135C147.934 199.459 147.823 199.874 147.499 200.06L115.694 218.422C115.588 218.484 115.471 218.513 115.356 218.513Z" fill="#E0E0E0"/>
<path d="M137.618 184.724C137.384 184.724 137.156 184.603 137.031 184.386C136.844 184.062 136.955 183.647 137.279 183.461L169.084 165.098C169.409 164.912 169.822 165.022 170.009 165.346C170.196 165.67 170.085 166.085 169.761 166.271L137.956 184.634C137.85 184.695 137.733 184.724 137.618 184.724Z" fill="#E0E0E0"/>
<path d="M142.151 187.341C141.917 187.341 141.689 187.22 141.564 187.002C141.377 186.679 141.488 186.264 141.812 186.077L173.617 167.715C173.942 167.528 174.355 167.639 174.542 167.963C174.729 168.286 174.618 168.701 174.294 168.888L142.489 187.25C142.382 187.312 142.266 187.341 142.151 187.341Z" fill="#E0E0E0"/>
<path d="M146.684 189.958C146.45 189.958 146.222 189.837 146.097 189.62C145.91 189.296 146.021 188.881 146.345 188.694L178.149 170.332C178.473 170.146 178.888 170.256 179.074 170.58C179.261 170.904 179.15 171.319 178.826 171.505L147.022 189.867C146.915 189.929 146.799 189.958 146.684 189.958Z" fill="#E0E0E0"/>
<path d="M151.217 192.575C150.983 192.575 150.755 192.454 150.63 192.237C150.443 191.913 150.554 191.498 150.878 191.311L182.682 172.949C183.007 172.763 183.421 172.873 183.607 173.197C183.795 173.521 183.683 173.936 183.36 174.122L151.555 192.484C151.448 192.546 151.332 192.575 151.217 192.575Z" fill="#E0E0E0"/>
<path d="M155.75 195.192C155.516 195.192 155.288 195.071 155.163 194.853C154.976 194.53 155.087 194.115 155.41 193.928L187.215 175.566C187.54 175.38 187.954 175.49 188.14 175.814C188.328 176.138 188.216 176.553 187.893 176.739L156.088 195.101C155.981 195.163 155.864 195.192 155.75 195.192Z" fill="#E0E0E0"/>
<path d="M91.7226 204.867C91.4884 204.867 91.2609 204.746 91.1356 204.529C90.9485 204.205 91.0595 203.79 91.3834 203.604L108.823 193.535C109.146 193.349 109.561 193.459 109.748 193.783C109.935 194.107 109.824 194.522 109.5 194.708L92.0607 204.777C91.954 204.838 91.8375 204.867 91.7226 204.867Z" fill="#455A64"/>
<path d="M141.334 233.512C141.1 233.512 140.873 233.391 140.747 233.173C140.56 232.85 140.671 232.435 140.995 232.248L213.192 190.565C213.517 190.379 213.931 190.489 214.118 190.813C214.304 191.137 214.194 191.552 213.87 191.738L141.673 233.421C141.566 233.483 141.449 233.512 141.334 233.512Z" fill="#E0E0E0"/>
<path d="M145.462 235.894C145.228 235.894 145 235.773 144.875 235.556C144.688 235.232 144.799 234.817 145.123 234.631L217.32 192.947C217.645 192.761 218.059 192.872 218.246 193.195C218.433 193.519 218.322 193.934 217.998 194.12L145.8 235.804C145.693 235.865 145.577 235.894 145.462 235.894Z" fill="#E0E0E0"/>
<path d="M149.589 238.277C149.355 238.277 149.127 238.155 149.002 237.938C148.815 237.614 148.926 237.199 149.25 237.013L221.448 195.33C221.772 195.143 222.186 195.254 222.373 195.577C222.56 195.901 222.449 196.316 222.125 196.503L149.927 238.186C149.82 238.248 149.704 238.277 149.589 238.277Z" fill="#E0E0E0"/>
<path d="M135.966 230.413C135.732 230.413 135.504 230.291 135.379 230.074C135.192 229.75 135.303 229.335 135.627 229.149L153.066 219.08C153.39 218.893 153.804 219.004 153.991 219.328C154.178 219.652 154.067 220.067 153.743 220.253L136.304 230.322C136.198 230.384 136.081 230.413 135.966 230.413Z" fill="#455A64"/>
<path d="M132.141 181.532C131.907 181.532 131.679 181.41 131.554 181.193C131.367 180.869 131.478 180.454 131.802 180.268L149.241 170.2C149.565 170.014 149.979 170.124 150.166 170.448C150.353 170.771 150.242 171.186 149.918 171.373L132.479 181.441C132.373 181.502 132.256 181.532 132.141 181.532Z" fill="#455A64"/>
<path d="M161.805 243.664C163.252 243.741 165.127 243.669 165.966 242.261C166.382 241.564 166.333 240.703 166.16 239.939C166.002 239.246 165.703 238.514 165.053 238.15C164.794 238.005 164.413 237.863 164.123 237.999C163.789 238.156 163.735 238.635 163.74 238.957C163.753 239.806 164.021 240.66 164.402 241.413C164.745 242.092 165.216 242.672 165.935 242.97C166.664 243.271 167.502 243.301 168.23 242.984C168.979 242.659 169.365 242.034 169.399 241.226C169.435 240.352 169.044 239.723 168.212 239.43C168.099 239.391 167.947 239.45 167.945 239.585C167.936 240.247 167.982 240.903 168.408 241.441C168.761 241.888 169.335 242.249 169.904 242.334C170.541 242.43 170.746 241.691 170.763 241.18C170.787 240.461 170.455 239.765 170.155 239.131C170.069 238.949 169.708 238.907 169.797 239.174C169.943 239.615 170.228 239.964 170.601 240.239C170.964 240.506 171.361 240.775 171.738 240.4C172.382 239.761 171.751 238.769 171.346 238.19C171.293 238.273 171.24 238.357 171.186 238.441C171.691 238.95 172.351 239.276 173.024 239.503C173.096 239.527 173.149 239.471 173.153 239.4C173.189 238.816 173.039 238.271 172.748 237.767C172.695 237.828 172.643 237.888 172.591 237.948C173.194 238.665 174.285 239.318 175.236 238.898C176.111 238.511 175.923 237.233 175.857 236.467C175.652 234.097 174.583 231.913 173.097 230.084C172.992 229.955 172.821 230.015 172.833 230.181C172.933 231.484 173.337 232.767 173.78 233.989C174.272 235.345 174.861 236.671 175.536 237.946C176.018 238.858 176.535 239.844 177.252 240.597C177.409 240.762 177.632 240.998 177.88 240.998C178.482 241 178.652 240.312 178.582 239.844C178.526 239.464 178.38 239.106 178.238 238.751C177.996 238.149 177.751 237.548 177.503 236.948C176.995 235.723 176.474 234.504 175.94 233.291C175.847 233.323 175.754 233.354 175.661 233.386C176.431 234.747 177.485 235.91 178.678 236.914C178.823 237.036 178.922 236.872 178.89 236.736C178.694 235.898 178.499 235.06 178.304 234.223C178.229 234.268 178.154 234.312 178.079 234.357C178.675 234.796 179.272 235.235 179.868 235.674C179.941 235.728 180.053 235.725 180.088 235.628C180.334 234.956 180.332 234.273 180.099 233.597C180.042 233.671 179.985 233.745 179.928 233.818C180.415 233.979 180.869 234.193 181.271 234.514C181.399 234.616 181.514 234.497 181.502 234.364C181.484 234.167 181.466 233.969 181.448 233.771C181.331 233.76 181.213 233.749 181.096 233.737C181.162 234.352 181.945 234.546 182.449 234.597C183.218 234.677 184.03 234.508 184.58 233.931C185.191 233.292 185.332 232.254 185.439 231.417C185.564 230.423 185.544 229.29 185.086 228.374C184.734 227.671 183.873 227.349 183.142 227.661C182.411 227.974 182.217 228.701 182.314 229.427C182.431 230.304 182.809 231.117 183.331 231.826C183.631 232.235 183.976 232.61 184.353 232.948C184.696 233.256 185.065 233.553 185.533 233.631C186.509 233.795 187.132 233.078 187.249 232.182C187.394 231.069 187.006 229.998 186.337 229.119C186.239 228.991 185.934 228.982 185.977 229.203C186.19 230.285 187.258 230.928 188.303 231.005C188.929 231.051 190.67 230.738 190.279 229.746C190.183 229.505 189.741 229.47 189.863 229.779C189.977 230.068 189.564 230.275 189.354 230.365C188.999 230.517 188.611 230.576 188.227 230.567C187.466 230.55 186.537 230.123 186.416 229.288C186.283 229.298 186.149 229.308 186.016 229.318C186.477 229.972 186.813 230.692 186.837 231.505C186.856 232.127 186.738 232.881 186.087 233.143C185.264 233.474 184.54 232.703 184.034 232.157C183.514 231.598 183.091 230.935 182.872 230.2C182.708 229.651 182.553 228.945 182.935 228.453C183.326 227.951 184.225 227.793 184.628 228.369C185.062 228.99 185.1 229.973 185.071 230.701C185.041 231.451 184.931 232.291 184.65 232.993C184.377 233.671 183.774 234.094 183.057 234.184C182.738 234.224 182.403 234.212 182.088 234.146C181.891 234.105 181.477 234.019 181.449 233.77C181.424 233.548 181.071 233.451 181.097 233.736C181.116 233.934 181.135 234.131 181.153 234.328C181.229 234.278 181.306 234.228 181.383 234.178C180.957 233.84 180.468 233.609 179.953 233.44C179.801 233.391 179.738 233.534 179.783 233.661C179.985 234.241 179.972 234.82 179.764 235.396C179.837 235.38 179.91 235.365 179.984 235.35C179.389 234.913 178.793 234.477 178.198 234.04C178.091 233.962 177.938 234.029 177.972 234.175C178.178 235.044 178.384 235.913 178.588 236.783C178.659 236.723 178.73 236.664 178.8 236.605C177.662 235.647 176.657 234.537 175.921 233.24C175.822 233.065 175.545 233.115 175.642 233.334C176.474 235.224 177.3 237.123 178.046 239.049C178.151 239.32 178.258 239.604 178.282 239.897C178.305 240.185 178.177 240.613 177.809 240.618C177.662 240.619 177.462 240.386 177.355 240.264C176.716 239.541 176.241 238.656 175.792 237.809C175.173 236.641 174.627 235.432 174.165 234.194C173.69 232.924 173.261 231.59 173.168 230.229C173.081 230.261 172.993 230.294 172.905 230.326C174.206 231.944 175.193 233.846 175.49 235.917C175.557 236.383 175.591 236.854 175.589 237.325C175.586 237.707 175.615 238.166 175.294 238.438C174.498 239.114 173.273 238.379 172.728 237.732C172.604 237.585 172.502 237.793 172.571 237.914C172.823 238.349 172.953 238.8 172.922 239.304C172.965 239.27 173.007 239.236 173.051 239.202C172.42 238.989 171.807 238.685 171.35 238.189C171.208 238.035 171.013 238.18 171.128 238.36C171.375 238.749 171.77 239.331 171.607 239.815C171.57 239.924 171.474 240.085 171.361 240.132C171.169 240.21 170.951 240.055 170.792 239.943C170.524 239.754 170.281 239.502 170.178 239.184C170.059 239.199 169.939 239.213 169.82 239.228C170.036 239.694 170.268 240.175 170.325 240.692C170.351 240.936 170.34 241.186 170.269 241.422C170.241 241.511 170.165 241.731 170.09 241.805C169.962 241.933 169.82 241.882 169.672 241.834C169.285 241.71 168.91 241.48 168.683 241.135C168.41 240.721 168.433 240.21 168.452 239.736C168.364 239.787 168.275 239.839 168.186 239.89C168.824 240.124 168.926 240.678 168.856 241.299C168.789 241.889 168.418 242.317 167.877 242.535C167.288 242.773 166.609 242.756 166.028 242.501C165.492 242.265 165.171 241.832 164.91 241.325C164.613 240.748 164.407 240.119 164.331 239.474C164.304 239.24 164.205 238.69 164.415 238.511C164.652 238.31 165.072 238.687 165.205 238.859C165.565 239.324 165.699 239.991 165.796 240.559C165.906 241.203 165.822 241.841 165.394 242.352C164.518 243.398 163.051 243.463 161.794 243.444C161.694 243.446 161.707 243.658 161.805 243.664Z" fill="#455A64"/>
<path d="M204.598 217.458C204.189 216.775 204.116 215.968 204.452 215.237C204.619 214.875 204.87 214.552 205.158 214.278C205.39 214.059 205.666 213.931 205.908 214.226C206.069 214.422 206.18 214.692 206.297 214.916C207.136 216.513 207.741 218.23 208.037 220.012C208.166 220.018 208.294 220.025 208.422 220.032C208.248 219.344 208.109 218.617 208.234 217.909C208.293 217.579 208.44 217.081 208.716 216.86C208.951 216.67 209.09 216.845 209.276 217.022C209.443 217.183 209.594 217.355 209.729 217.543C209.822 217.671 210.145 217.752 210.101 217.495C210.017 216.999 210.067 216.513 210.264 216.049C210.302 215.96 210.338 215.848 210.398 215.771C210.553 215.571 210.617 215.699 210.754 215.834C210.926 216.003 211.051 216.194 211.134 216.42C211.264 216.4 211.394 216.381 211.524 216.362C211.414 216.097 211.364 215.828 211.419 215.544C211.504 215.098 211.839 215.399 211.988 215.607C212.192 215.891 212.358 216.175 212.67 216.357C212.853 216.463 213.012 216.522 213.162 216.348C213.32 216.164 213.409 215.897 213.497 215.676C213.766 215.002 213.9 214.291 213.973 213.57C214.066 212.662 214.205 211.674 213.881 210.795C213.772 210.502 213.573 210.246 213.267 210.145C212.913 210.028 212.705 210.165 212.459 210.408C211.893 210.966 211.895 212.001 211.956 212.747C212.029 213.631 212.324 214.488 212.774 215.249C213.141 215.868 213.652 216.526 214.454 216.502C214.821 216.491 215.073 216.299 215.209 215.965C215.423 215.441 215.559 214.871 215.652 214.313C215.834 213.219 215.786 212.104 215.539 211.025C215.506 210.879 215.163 210.649 215.101 210.893C214.797 212.09 214.87 213.259 215.877 214.099C215.949 214.159 216.119 214.224 216.189 214.119C216.71 213.337 216.923 212.444 216.675 211.525C216.546 211.549 216.418 211.573 216.288 211.597C216.721 212.092 217.153 212.587 217.585 213.082C217.669 213.179 217.85 213.196 217.914 213.071C218.188 212.536 218.137 211.994 217.847 211.48C217.749 211.551 217.651 211.623 217.554 211.694C217.899 211.99 218.25 212.398 218.659 212.605C219.093 212.823 219.44 212.554 219.788 212.298C220.54 211.745 221.096 211.008 221.614 210.241C222.84 208.429 223.804 206.428 224.279 204.286C224.471 203.422 224.533 202.495 223.928 201.773C223.322 201.05 222.357 201.3 221.7 201.812C220.18 202.997 218.893 204.588 218.204 206.398C217.912 207.168 217.742 207.981 217.71 208.804C217.677 209.661 217.768 210.556 218.358 211.225C219.679 212.726 221.953 211.987 223.294 210.923C224.761 209.76 225.903 207.981 226.36 206.17C226.473 205.724 226.545 205.268 226.569 204.809C226.59 204.423 226.621 203.991 226.522 203.614C226.317 202.836 225.388 202.673 224.769 203.076C224.015 203.568 223.506 204.639 223.333 205.494C223.176 206.271 223.251 207.124 223.622 207.833C224.533 209.575 226.793 209.528 228.454 209.198C228.944 209.101 229.414 208.947 229.883 208.777C230.036 208.721 229.877 208.414 229.734 208.445C228.2 208.772 226.153 209.415 224.719 208.452C223.449 207.598 223.582 205.704 224.282 204.534C224.48 204.201 224.713 203.856 225.002 203.596C225.244 203.38 225.801 203.148 225.973 203.565C226.096 203.865 226.046 204.326 226.029 204.639C226.008 205.027 225.953 205.414 225.869 205.793C225.511 207.39 224.607 208.849 223.464 210.006C222.456 211.027 220.676 212.125 219.228 211.38C217.833 210.662 218.131 208.583 218.476 207.333C218.887 205.842 219.754 204.516 220.809 203.399C221.077 203.115 221.358 202.844 221.651 202.585C221.957 202.314 222.268 202.024 222.656 201.877C223.813 201.436 223.976 202.944 223.844 203.725C223.53 205.586 222.778 207.437 221.826 209.06C221.362 209.852 220.858 210.631 220.217 211.293C219.9 211.62 219.519 211.995 219.106 212.197C218.802 212.346 218.651 212.163 218.431 211.973C218.222 211.793 218.014 211.613 217.806 211.433C217.616 211.269 217.379 211.407 217.513 211.646C217.733 212.036 217.709 212.436 217.508 212.825C217.632 212.837 217.756 212.85 217.88 212.862C217.463 212.381 217.045 211.899 216.628 211.417C216.526 211.3 216.17 211.219 216.241 211.49C216.457 212.305 216.279 213.098 215.815 213.792C215.919 213.799 216.024 213.806 216.128 213.813C215.286 213.11 215.281 212.12 215.534 211.131C215.388 211.087 215.242 211.043 215.096 210.999C215.288 211.84 215.357 212.698 215.279 213.558C215.242 213.959 215.176 214.358 215.08 214.748C214.995 215.093 214.919 215.604 214.698 215.891C214.441 216.223 213.933 216.024 213.671 215.809C213.378 215.569 213.182 215.171 213.011 214.84C212.654 214.147 212.428 213.383 212.399 212.601C212.375 211.949 212.377 211.007 212.973 210.597C213.44 210.276 213.581 211.191 213.616 211.466C213.669 211.893 213.64 212.325 213.603 212.752C213.539 213.496 213.485 214.266 213.258 214.982C213.203 215.155 213.136 215.325 213.068 215.492C213.032 215.58 212.899 216.018 212.79 216.046C212.812 216.041 212.598 215.831 212.557 215.78C212.454 215.651 212.377 215.504 212.277 215.373C212.113 215.158 211.896 214.942 211.626 214.873C210.776 214.657 210.952 215.978 211.136 216.42C211.232 216.647 211.637 216.658 211.527 216.362C211.384 215.976 210.7 214.895 210.182 215.283C209.926 215.475 209.801 215.943 209.727 216.238C209.628 216.634 209.622 217.036 209.691 217.437C209.815 217.421 209.939 217.405 210.063 217.39C209.903 217.169 209.728 216.962 209.53 216.774C209.361 216.614 209.153 216.39 208.921 216.325C208.464 216.197 208.148 216.807 208.004 217.148C207.615 218.076 207.805 219.127 208.051 220.064C208.1 220.249 208.483 220.343 208.437 220.084C208.243 219.002 207.949 217.944 207.551 216.918C207.338 216.367 207.098 215.828 206.831 215.301C206.687 215.017 206.535 214.736 206.378 214.458C206.261 214.251 206.155 214.025 205.968 213.872C205.18 213.226 204.376 214.542 204.142 215.163C203.826 216.001 203.981 216.865 204.488 217.589C204.57 217.708 204.652 217.549 204.598 217.458Z" fill="#455A64"/>
<path opacity="0.15" d="M167.188 185.577C164.244 183.877 160.348 182.941 156.219 182.941C152.171 182.941 148.349 183.843 145.426 185.481C141.935 185.596 138.67 186.441 136.158 187.892C133.303 189.541 131.731 191.783 131.731 194.205C131.731 196.628 133.303 198.87 136.159 200.518C138.868 202.083 142.453 202.945 146.252 202.945H146.253C148.839 202.945 151.325 202.545 153.504 201.796C154.393 201.887 155.3 201.936 156.221 201.936H156.221C160.349 201.936 164.245 201 167.189 199.3C170.293 197.508 172.001 195.071 172.001 192.437C171.998 189.804 170.29 187.368 167.188 185.577ZM154.801 197.845C154.43 198.06 154.035 198.257 153.623 198.439C151.079 198.155 148.761 197.454 146.928 196.395C144.906 195.228 143.793 193.823 143.793 192.439C143.793 191.086 144.861 189.712 146.798 188.561C149.856 188.636 152.68 189.341 154.801 190.565C156.661 191.639 157.686 192.932 157.686 194.206C157.685 195.479 156.661 196.771 154.801 197.845ZM146.251 199.857C142.985 199.857 139.948 199.143 137.701 197.845C135.841 196.771 134.817 195.478 134.817 194.204C134.817 192.931 135.841 191.638 137.7 190.564C138.774 189.944 140.028 189.46 141.401 189.12C140.768 190.163 140.438 191.281 140.438 192.438C140.438 195.071 142.147 197.508 145.25 199.299C145.59 199.495 145.944 199.68 146.308 199.856C146.289 199.857 146.271 199.857 146.251 199.857ZM165.511 196.395C163.726 197.425 161.483 198.115 159.019 198.413C160.165 197.146 160.772 195.71 160.772 194.203C160.771 191.781 159.199 189.539 156.345 187.892C155.381 187.335 154.304 186.87 153.147 186.498C154.139 186.366 155.167 186.296 156.218 186.296C159.768 186.296 163.067 187.073 165.51 188.482C167.532 189.649 168.644 191.054 168.644 192.438C168.645 193.823 167.532 195.227 165.511 196.395Z" fill="black"/>
<path d="M171.085 186.951V191.958C171.085 194.154 169.634 196.35 166.73 198.027C160.927 201.379 151.512 201.379 145.709 198.027C142.805 196.353 141.354 194.154 141.354 191.958V186.951C141.354 189.149 142.805 191.345 145.709 193.02C151.512 196.371 160.927 196.371 166.73 193.02C169.633 191.345 171.085 189.147 171.085 186.951Z" fill="#27B45F"/>
<path opacity="0.55" d="M171.085 186.951V191.958C171.085 194.154 169.634 196.35 166.73 198.027C160.927 201.379 151.512 201.379 145.709 198.027C142.805 196.353 141.354 194.154 141.354 191.958V186.951C141.354 189.149 142.805 191.345 145.709 193.02C151.512 196.371 160.927 196.371 166.73 193.02C169.633 191.345 171.085 189.147 171.085 186.951Z" fill="white"/>
<path opacity="0.1" d="M167.184 197.751C158.967 201.003 150.917 199.387 150.766 198.108C150.614 196.819 152.332 195.235 152.332 195.235V195.234C149.906 194.856 147.612 194.119 145.709 193.02C142.805 191.345 141.354 189.149 141.354 186.951V191.958C141.354 194.154 142.805 196.353 145.709 198.027C151.512 201.379 160.927 201.379 166.73 198.027C166.886 197.937 167.036 197.844 167.184 197.751Z" fill="black"/>
<path d="M169.56 186.951C169.56 187.807 169.246 188.655 168.646 189.457C168.039 188.646 167.136 187.884 165.968 187.21C163.388 185.722 159.927 184.901 156.218 184.901C152.513 184.901 149.049 185.722 146.471 187.21C145.303 187.884 144.401 188.646 143.794 189.457C143.196 188.655 142.879 187.807 142.879 186.951C142.879 185.228 144.154 183.541 146.472 182.202C149.049 180.714 152.513 179.894 156.219 179.894C159.927 179.894 163.389 180.714 165.969 182.202C168.286 183.541 169.56 185.228 169.56 186.951Z" fill="#27B45F"/>
<path opacity="0.5" d="M169.56 186.951C169.56 187.807 169.246 188.655 168.646 189.457C168.039 188.646 167.136 187.884 165.968 187.21C163.388 185.722 159.927 184.901 156.218 184.901C152.513 184.901 149.049 185.722 146.471 187.21C145.303 187.884 144.401 188.646 143.794 189.457C143.196 188.655 142.879 187.807 142.879 186.951C142.879 185.228 144.154 183.541 146.472 182.202C149.049 180.714 152.513 179.894 156.219 179.894C159.927 179.894 163.389 180.714 165.969 182.202C168.286 183.541 169.56 185.228 169.56 186.951Z" fill="white"/>
<path opacity="0.1" d="M169.56 186.951C169.56 187.807 169.246 188.655 168.646 189.457C168.039 188.646 167.136 187.884 165.968 187.21C163.388 185.722 159.927 184.901 156.218 184.901C152.513 184.901 149.049 185.722 146.471 187.21C145.303 187.884 144.401 188.646 143.794 189.457C143.196 188.655 142.879 187.807 142.879 186.951C142.879 185.228 144.154 183.541 146.472 182.202C149.049 180.714 152.513 179.894 156.219 179.894C159.927 179.894 163.389 180.714 165.969 182.202C168.286 183.541 169.56 185.228 169.56 186.951Z" fill="black"/>
<path opacity="0.1" d="M144.565 185.522C144.565 185.077 144.565 184.372 144.565 183.595C143.466 184.633 142.878 185.784 142.878 186.951C142.878 187.808 143.196 188.656 143.793 189.458C144.4 188.647 145.303 187.884 146.471 187.21C148.789 185.871 151.827 185.075 155.111 184.928L155.123 184.908C148.758 184.111 144.565 187.052 144.565 185.522Z" fill="black"/>
<path d="M166.731 180.884C160.925 177.532 151.513 177.532 145.708 180.884C142.805 182.559 141.354 184.756 141.354 186.953C141.354 189.149 142.805 191.346 145.708 193.022C151.513 196.373 160.926 196.373 166.731 193.022C169.635 191.345 171.086 189.148 171.085 186.951C171.084 184.755 169.632 182.559 166.731 180.884ZM165.969 191.701C163.389 193.19 159.927 194.01 156.219 194.01C152.512 194.01 149.05 193.19 146.47 191.701C144.154 190.364 142.879 188.678 142.879 186.953C142.879 185.228 144.154 183.542 146.47 182.204C149.05 180.715 152.512 179.895 156.219 179.895C159.927 179.895 163.389 180.715 165.969 182.204C168.284 183.542 169.56 185.228 169.56 186.953C169.56 188.677 168.284 190.363 165.969 191.701Z" fill="#27B45F"/>
<path opacity="0.8" d="M166.731 180.884C160.925 177.532 151.513 177.532 145.708 180.884C142.805 182.559 141.354 184.756 141.354 186.953C141.354 189.149 142.805 191.346 145.708 193.022C151.513 196.373 160.926 196.373 166.731 193.022C169.635 191.345 171.086 189.148 171.085 186.951C171.084 184.755 169.632 182.559 166.731 180.884ZM165.969 191.701C163.389 193.19 159.927 194.01 156.219 194.01C152.512 194.01 149.05 193.19 146.47 191.701C144.154 190.364 142.879 188.678 142.879 186.953C142.879 185.228 144.154 183.542 146.47 182.204C149.05 180.715 152.512 179.895 156.219 179.895C159.927 179.895 163.389 180.715 165.969 182.204C168.284 183.542 169.56 185.228 169.56 186.953C169.56 188.677 168.284 190.363 165.969 191.701Z" fill="white"/>
<path d="M145.708 193.02C147.896 194.18 150.301 194.862 152.741 195.169C155.181 195.495 157.665 195.459 160.092 195.077C161.305 194.886 162.51 194.623 163.67 194.222C164.844 193.854 165.953 193.316 167.016 192.71C168.066 192.081 169.038 191.301 169.789 190.332C170.548 189.377 171.06 188.193 171.085 186.949C171.111 188.192 170.643 189.417 169.909 190.422C169.167 191.429 168.192 192.245 167.14 192.909C166.077 193.559 164.943 194.098 163.759 194.484C162.585 194.9 161.366 195.177 160.139 195.378C157.679 195.739 155.167 195.779 152.709 195.4C151.478 195.231 150.268 194.927 149.086 194.555C147.907 194.163 146.779 193.637 145.708 193.02Z" fill="white"/>
<g opacity="0.1">
<path opacity="0.75" d="M144.112 181.973C146.861 180.804 149.66 180.201 152.165 180.236C153.459 180.011 154.821 179.894 156.219 179.894C156.622 179.894 157.022 179.906 157.42 179.925C156.341 179.322 154.981 178.917 153.358 178.771C152.936 178.732 152.506 178.713 152.069 178.71C149.739 179.1 147.543 179.824 145.707 180.883C145.114 181.226 144.584 181.591 144.112 181.973Z" fill="black"/>
<path opacity="0.75" d="M152.02 193.64C151.387 194.037 150.724 194.411 150.033 194.757C150.779 194.954 151.549 195.112 152.332 195.234C153.012 194.828 153.669 194.394 154.294 193.933C153.517 193.872 152.757 193.774 152.02 193.64Z" fill="black"/>
</g>
<path d="M157.51 177.102L159.613 181.646C160.534 183.639 160.139 186.241 158.209 188.983C154.349 194.461 145.805 198.415 139.13 197.81C135.793 197.51 133.552 196.124 132.629 194.131L130.527 189.586C131.45 191.582 133.69 192.965 137.027 193.265C143.702 193.87 152.246 189.917 156.106 184.438C158.038 181.7 158.432 179.095 157.51 177.102Z" fill="#27B45F"/>
<path opacity="0.55" d="M157.51 177.102L159.613 181.646C160.534 183.639 160.139 186.241 158.209 188.983C154.349 194.461 145.805 198.415 139.13 197.81C135.793 197.51 133.552 196.124 132.629 194.131L130.527 189.586C131.45 191.582 133.69 192.965 137.027 193.265C143.702 193.87 152.246 189.917 156.106 184.438C158.038 181.7 158.432 179.095 157.51 177.102Z" fill="white"/>
<path opacity="0.1" d="M135.16 194.82C134.955 194.328 134.574 193.4 134.288 192.702C132.448 192.065 131.169 190.974 130.527 189.587L132.63 194.132C133.552 196.125 135.793 197.511 139.131 197.811C142.164 198.086 145.583 197.417 148.773 196.094C138.951 198.973 135.514 195.671 135.16 194.82Z" fill="black"/>
<path d="M156.126 177.742C156.486 178.52 156.557 179.421 156.349 180.402C155.457 179.92 154.318 179.607 152.975 179.486C150.008 179.219 146.522 179.928 143.156 181.486C139.793 183.041 136.994 185.241 135.28 187.674C134.503 188.776 134.004 189.847 133.793 190.838C132.914 190.361 132.27 189.725 131.91 188.947C131.187 187.384 131.636 185.318 133.177 183.13C134.891 180.697 137.69 178.497 141.053 176.941C144.419 175.384 147.905 174.675 150.872 174.942C153.538 175.183 155.403 176.178 156.126 177.742Z" fill="#27B45F"/>
<path opacity="0.5" d="M156.126 177.742C156.486 178.52 156.557 179.421 156.349 180.402C155.457 179.92 154.318 179.607 152.975 179.486C150.008 179.219 146.522 179.928 143.156 181.486C139.793 183.041 136.994 185.241 135.28 187.674C134.503 188.776 134.004 189.847 133.793 190.838C132.914 190.361 132.27 189.725 131.91 188.947C131.187 187.384 131.636 185.318 133.177 183.13C134.891 180.697 137.69 178.497 141.053 176.941C144.419 175.384 147.905 174.675 150.872 174.942C153.538 175.183 155.403 176.178 156.126 177.742Z" fill="white"/>
<path opacity="0.1" d="M156.126 177.742C156.486 178.52 156.557 179.421 156.349 180.402C155.457 179.92 154.318 179.607 152.975 179.486C150.008 179.219 146.522 179.928 143.156 181.486C139.793 183.041 136.994 185.241 135.28 187.674C134.503 188.776 134.004 189.847 133.793 190.838C132.914 190.361 132.27 189.725 131.91 188.947C131.187 187.384 131.636 185.318 133.177 183.13C134.891 180.697 137.69 178.497 141.053 176.941C144.419 175.384 147.905 174.675 150.872 174.942C153.538 175.183 155.403 176.178 156.126 177.742Z" fill="black"/>
<path opacity="0.1" d="M133.709 188.057C132.769 188.371 131.947 186.532 132.196 184.811C131.483 186.361 131.376 187.791 131.911 188.946C132.271 189.724 132.914 190.36 133.794 190.837C134.004 189.845 134.503 188.775 135.28 187.672C136.897 185.377 139.481 183.291 142.591 181.755L142.593 181.754C136.346 184.309 134.65 187.744 133.709 188.057Z" fill="black"/>
<path d="M151.01 173.424C144.334 172.82 135.792 176.772 131.93 182.252C130 184.991 129.605 187.595 130.527 189.588C131.449 191.581 133.689 192.965 137.027 193.267C143.703 193.871 152.245 189.919 156.107 184.439C158.038 181.699 158.433 179.095 157.509 177.102C156.586 175.109 154.347 173.726 151.01 173.424ZM154.86 183.561C153.144 185.997 150.346 188.194 146.982 189.751C143.617 191.308 140.131 192.018 137.164 191.749C134.5 191.508 132.635 190.513 131.911 188.948C131.186 187.383 131.636 185.317 133.176 183.131C134.892 180.696 137.689 178.497 141.054 176.941C144.419 175.385 147.905 174.675 150.872 174.944C153.535 175.185 155.401 176.179 156.125 177.745C156.85 179.309 156.401 181.375 154.86 183.561Z" fill="#27B45F"/>
<path opacity="0.8" d="M151.01 173.424C144.334 172.82 135.792 176.772 131.93 182.252C130 184.991 129.605 187.595 130.527 189.588C131.449 191.581 133.689 192.965 137.027 193.267C143.703 193.871 152.245 189.919 156.107 184.439C158.038 181.699 158.433 179.095 157.509 177.102C156.586 175.109 154.347 173.726 151.01 173.424ZM154.86 183.561C153.144 185.997 150.346 188.194 146.982 189.751C143.617 191.308 140.131 192.018 137.164 191.749C134.5 191.508 132.635 190.513 131.911 188.948C131.186 187.383 131.636 185.317 133.176 183.131C134.892 180.696 137.689 178.497 141.054 176.941C144.419 175.385 147.905 174.675 150.872 174.944C153.535 175.185 155.401 176.179 156.125 177.745C156.85 179.309 156.401 181.375 154.86 183.561Z" fill="white"/>
<path d="M137.027 193.267C139.5 193.401 141.97 193.01 144.313 192.264C146.664 191.535 148.903 190.459 150.946 189.094C151.966 188.412 152.949 187.666 153.834 186.815C154.744 185.989 155.525 185.035 156.236 184.038C156.924 183.027 157.479 181.911 157.754 180.716C158.041 179.531 158.009 178.241 157.509 177.102C158.055 178.219 158.144 179.527 157.9 180.747C157.65 181.973 157.108 183.122 156.431 184.167C155.74 185.203 154.937 186.169 154.025 187.017C153.134 187.887 152.144 188.65 151.115 189.347C149.034 190.708 146.77 191.799 144.381 192.487C143.193 192.851 141.968 193.083 140.739 193.241C139.503 193.38 138.259 193.377 137.027 193.267Z" fill="white"/>
<path d="M215.212 91.9288C215.667 89.294 219.042 86.6028 222.397 84.7438C225.537 83.0041 250.397 68.5192 253.579 66.6646C256.526 65.0649 258.361 61.5055 258.361 56.3896C258.361 46.3586 251.319 34.1606 242.631 29.1454C237.876 26.4001 233.618 26.381 230.734 28.566L230.731 28.5628C230.731 28.5628 206.537 49.7112 198.657 55.8945C191.975 61.1384 185.665 66.0759 180.014 69.5198C174.695 72.7614 171.888 73.4381 168.231 78.5649C163.704 84.9134 155.996 95.2716 154.265 96.9599C152.539 98.6422 150.556 100.054 149.254 103.971C147.918 107.991 142.017 120.557 140.766 123.625C138.651 128.808 136.044 133.405 136.52 136.92C137.017 140.594 139.396 149.629 140.053 150.787C142.886 151.09 145.703 147.569 145.703 142.219C145.704 136.87 145.715 134.889 145.715 134.889C145.715 134.889 149.675 130.295 151.291 128.525C152.907 126.755 157.154 121.749 157.154 121.749C157.154 121.749 158.889 136.084 161.093 138.301C163.297 140.518 168.37 140.734 169.224 140.242C169.224 140.242 169.269 141.988 170.727 143.336C172.253 144.747 175.792 145.763 178.807 145.993C180.503 146.123 183.444 144.163 183.444 144.163C184.141 147.177 184.413 148.754 185.262 149.415C186.493 150.374 197.505 153.447 199.719 152.209C201.932 150.971 205.759 144.533 208.137 142.219C210.515 139.906 212.687 137.867 211.963 136.87C211.239 135.872 207.855 133.135 203.276 134.453C198.697 135.771 196.612 138.187 196.612 138.187C196.612 138.187 196.535 135.066 196.841 131.115C197.085 127.971 197.574 126.914 198.138 125.189C198.719 123.409 198.889 122.522 199.1 120.818C199.1 120.818 201.668 119.958 204.03 121.558C205.073 123.003 205.905 127.998 206.056 130.927C206.194 133.596 206.408 137.785 208.785 143.154C211.161 148.523 216.367 148.616 217.755 148.096C219.143 147.575 218.339 145.032 218.234 140.144C218.142 135.899 217.989 134.643 218.969 125.739C219.84 117.838 220.07 114.65 218.44 108.479C217.139 103.546 214.603 95.4587 215.212 91.9288Z" fill="#9E6767"/>
<path d="M215.212 91.9288C215.571 87.0695 214.64 85.7242 215.775 81.9679C215.86 81.685 215.976 81.0389 216.393 81.0969C216.58 81.1226 216.728 81.2687 216.825 81.4296C217.047 81.7972 217.064 82.2518 217.037 82.6808C216.921 84.5874 216.186 86.5159 215.821 88.399C215.594 89.5709 215.389 90.7482 215.212 91.9288Z" fill="#874C4C"/>
<path d="M166.167 116.615C165.18 116.362 164.147 118.074 164.572 120.078C164.997 122.082 167.47 135.375 167.297 137.393C167.124 139.412 163.104 139.461 161.094 138.301C163.298 140.518 168.371 140.735 169.225 140.242C168.39 134.063 166.817 124.413 166.652 121.919C166.486 119.425 167.154 116.867 166.167 116.615Z" fill="#874C4C"/>
<path d="M149.266 127.147C150.197 124.955 151.978 124.2 152.82 122.505C153.662 120.811 154.104 117.627 154.49 115.951C154.875 114.275 155.996 111.941 156.784 111.573C157.572 111.204 156.579 112.809 156.714 115.081C156.848 117.352 157.155 121.75 157.155 121.75C157.155 121.75 151.813 127.797 151.292 128.526C151.292 128.526 148.45 131.737 145.716 134.89C147.624 131.454 148.606 128.702 149.266 127.147Z" fill="#874C4C"/>
<path d="M180.628 121.377C179.829 121.753 178.877 123.489 179.035 126.455C179.193 129.421 179.769 134.698 179.585 136.622C179.401 138.546 179.523 140.522 178.729 141.732C177.936 142.942 179.471 142.319 180.015 141.732C180.558 141.145 181.701 141.353 181.966 141.732C182.231 142.111 181.679 144.939 179.151 145.993C180.872 145.878 183.445 144.164 183.445 144.164C182.821 140.439 181.05 128.348 180.928 125.967C180.806 123.585 181.428 121.001 180.628 121.377Z" fill="#874C4C"/>
<path d="M208.32 142.04C208.252 142.107 208.202 142.158 208.134 142.217C207.898 142.445 207.644 142.732 207.383 143.036C205.583 140.35 205.398 137.69 205.398 137.69C205.398 137.69 202.306 137.85 201.436 140.35C200.558 142.842 201.783 145.477 200.6 144.422C199.417 143.366 197.171 142.808 196.614 142.217C196.056 141.626 196.639 140.722 196.614 138.188C196.614 138.188 198.7 135.772 203.278 134.455C204.359 134.142 205.373 134.058 206.302 134.117C206.555 136.279 207.079 138.949 208.32 142.04Z" fill="#874C4C"/>
<path d="M140.507 135.283C140.507 135.283 145.695 137.159 145.704 141.726C145.705 136.755 145.716 134.889 145.716 134.889L148.774 130.472L144.78 125.739L139.269 127.11C139.269 127.11 138.607 128.626 138.59 128.663C138.593 128.668 143.566 134.804 143.399 135.539C143.232 136.274 142.179 135.221 140.507 135.283Z" fill="#874C4C"/>
<path d="M204.032 121.559C204.448 122.136 204.83 123.284 205.149 124.636H205.15C204.832 122.542 204.744 120.664 205.792 119.042C206.84 117.421 206.185 117.062 205.15 117.589C204.115 118.116 203.971 119.458 202.678 119.841C201.385 120.225 199.702 119.217 199.346 117.062C199.284 118.29 199.225 119.588 199.103 120.816C199.103 120.816 199.113 120.816 199.115 120.816C199.257 120.769 201.738 120.005 204.032 121.559Z" fill="#874C4C"/>
<path opacity="0.4" d="M215.775 81.968C216.913 78.2029 222.359 76.6229 232.789 70.7444C238.719 67.4027 250.455 60.3452 258.34 55.894C258.344 56.0582 258.361 56.2267 258.361 56.3897C258.361 61.5056 256.527 65.065 253.579 66.6647C250.397 68.5193 225.536 83.0042 222.397 84.7439C219.042 86.603 215.524 89.2739 215.212 91.9289C215.571 87.0696 214.64 85.7243 215.775 81.968Z" fill="#874C4C"/>
<path opacity="0.4" d="M179.95 111.282C180.329 110.789 180.864 110.37 181.367 110.008C181.909 109.618 182.512 109.311 183.147 109.106C183.245 109.075 183.349 109.046 183.449 109.068C183.549 109.091 183.64 109.185 183.623 109.286C183.612 109.351 183.562 109.402 183.513 109.448C182.985 109.946 182.438 110.425 181.959 110.97C181.341 111.672 180.853 112.514 180.661 113.434C180.458 114.409 180.548 115.412 180.443 116.396C180.435 116.474 180.424 116.557 180.374 116.617C180.277 116.735 180.084 116.705 179.957 116.619C179.726 116.461 179.618 116.18 179.532 115.914C179.262 115.085 179.183 114.363 179.183 113.502C179.186 112.7 179.462 111.918 179.95 111.282Z" fill="#874C4C"/>
<path opacity="0.4" d="M166.866 106.626C167.315 106.197 167.907 105.863 168.458 105.581C169.053 105.277 169.696 105.065 170.355 104.959C170.456 104.942 170.563 104.929 170.659 104.966C170.754 105.004 170.83 105.11 170.799 105.208C170.778 105.272 170.72 105.314 170.666 105.352C170.069 105.764 169.455 106.155 168.899 106.621C168.182 107.221 167.572 107.98 167.244 108.861C166.896 109.793 166.833 110.798 166.58 111.756C166.56 111.832 166.537 111.912 166.478 111.964C166.364 112.065 166.178 112.006 166.066 111.902C165.861 111.711 165.797 111.417 165.752 111.141C165.611 110.281 165.641 109.555 165.771 108.704C165.896 107.913 166.286 107.181 166.866 106.626Z" fill="#874C4C"/>
<path opacity="0.4" d="M158.896 102.406C159.352 101.983 159.95 101.66 160.506 101.387C161.105 101.092 161.751 100.891 162.412 100.795C162.514 100.78 162.621 100.768 162.716 100.807C162.81 100.847 162.885 100.954 162.851 101.051C162.83 101.114 162.771 101.155 162.716 101.192C162.112 101.595 161.492 101.976 160.928 102.433C160.202 103.021 159.58 103.77 159.237 104.646C158.875 105.572 158.795 106.576 158.527 107.529C158.506 107.605 158.482 107.685 158.422 107.736C158.306 107.835 158.121 107.773 158.011 107.667C157.809 107.474 157.75 107.178 157.709 106.901C157.582 106.039 157.624 105.313 157.768 104.464C157.905 103.676 158.308 102.951 158.896 102.406Z" fill="#874C4C"/>
<path opacity="0.4" d="M210.272 115.442C209.773 118.39 207.822 120.222 208.329 123.002C208.836 125.78 207.037 134.177 207.695 139.379L207.865 140.833C207.805 140.57 207.704 140.3 207.594 140.03L207.586 140.022C206.859 137.775 206.496 135.799 206.302 134.126C206.276 133.89 206.251 133.662 206.234 133.442C206.175 132.926 206.141 132.445 206.115 131.998C206.09 131.617 206.073 131.263 206.056 130.925C205.904 128.002 205.077 123.002 204.029 121.557C201.74 120.003 199.257 120.772 199.113 120.814H199.104C199.535 116.481 199.189 111.218 200.861 111.599C202.534 111.987 202.771 115.636 204.671 116.092C206.572 116.549 210.77 112.486 210.272 115.442Z" fill="#874C4C"/>
<path d="M218.168 136.16C215.775 134.914 213.822 135.994 213.744 136.536C213.666 137.077 213.44 142.846 214.841 144.794C216.242 146.743 218.53 146.775 218.53 146.775C218.661 145.489 218.303 143.312 218.234 140.145C218.201 138.591 218.16 137.436 218.168 136.16Z" fill="#874C4C"/>
<path opacity="0.4" d="M218.168 136.16C215.775 134.914 213.822 135.994 213.744 136.536C213.666 137.077 213.44 142.846 214.841 144.794C216.242 146.743 218.53 146.775 218.53 146.775C218.661 145.489 218.303 143.312 218.234 140.145C218.201 138.591 218.16 137.436 218.168 136.16Z" fill="white"/>
<path d="M218.169 136.16C215.775 134.914 213.822 135.994 213.744 136.536C213.744 136.536 215.612 137.924 218.177 138.075C218.18 138.075 218.183 138.074 218.187 138.074C218.173 137.422 218.164 136.806 218.169 136.16Z" fill="#874C4C"/>
<path d="M141.116 147.442C140.598 144.61 139.615 141.619 139.615 141.619C139.615 141.619 138.036 141.482 137.506 141.86C138.408 145.72 139.615 150.012 140.054 150.786C140.054 150.786 141.634 150.274 141.116 147.442Z" fill="#874C4C"/>
<path opacity="0.4" d="M141.116 147.442C140.598 144.61 139.615 141.619 139.615 141.619C139.615 141.619 138.036 141.482 137.506 141.86C138.408 145.72 139.615 150.012 140.054 150.786C140.054 150.786 141.634 150.274 141.116 147.442Z" fill="white"/>
<path d="M137.506 141.86C137.58 142.176 137.656 142.493 137.733 142.812C138.698 142.697 139.615 141.619 139.615 141.619C139.615 141.619 138.036 141.483 137.506 141.86Z" fill="#874C4C"/>
<path d="M166.728 122.743L167.146 125.967C165.457 126.693 162.085 127.128 159.508 126.466C156.93 125.804 156.512 124.167 156.512 123.54C156.481 122.792 156.303 120.286 156.303 120.286C156.303 120.286 156.663 122.173 158.757 122.844C160.851 123.515 163.905 123.416 166.728 122.743Z" fill="#E0E0E0"/>
<path d="M166.643 121.778C165.514 122.366 161.577 123.138 159.324 122.358C157.07 121.578 157.062 120.403 157.062 120.403L156.983 119.231C156.983 119.231 156.302 119.618 156.302 120.245C156.302 120.872 156.72 122.509 159.298 123.171C161.875 123.833 165.165 123.369 166.727 122.743L166.643 121.778Z" fill="#FAFAFA"/>
<path opacity="0.2" d="M166.727 122.743L166.721 122.675C166.691 122.385 166.665 122.121 166.652 121.919C166.65 121.888 166.649 121.856 166.648 121.825L166.644 121.779C166.308 121.954 165.721 122.144 165.007 122.306C165.221 123.441 165.484 124.873 165.755 126.405C166.283 126.28 166.761 126.133 167.145 125.968L167.142 125.948C166.965 124.688 166.825 123.621 166.737 122.82L166.727 122.743Z" fill="black"/>
<path d="M151.535 129.542C150.91 126.288 146.107 113.421 144.975 109.836C143.843 106.25 142.684 104.571 140.706 103.194C138.727 101.818 131.03 93.3598 125.119 88.2746C118.571 82.6417 118.259 80.6848 112.94 77.4427C107.289 73.9987 105.576 72.5199 98.5192 67.7914C91.5929 63.1504 64.1584 42.4593 64.1584 42.4593L64.1562 42.4626C61.2719 40.2781 57.0133 40.2972 52.2585 43.042C43.5712 48.0577 36.5291 60.2552 36.5291 70.2862C36.5291 75.402 38.3635 78.9614 41.3112 80.5611C44.4931 82.4152 69.3541 96.9006 72.4934 98.6404C75.8481 100.499 79.3659 103.17 79.6783 105.825C79.9907 108.481 81.0953 117.527 83.1146 121.914C85.2642 126.582 88.1129 135.815 88.2693 138.158C88.4253 140.501 87.2922 150.174 88.2693 150.221C93.8098 150.487 97.5213 148.524 98.8272 142.812C99.8836 138.193 99.0761 132.456 98.8272 128.278C98.5782 124.1 99.1582 121.881 99.1582 121.881L102.015 125.19C102.015 125.19 102.327 128.317 102.795 129.879C103.264 131.441 105.599 136.064 105.763 136.869C105.927 137.674 106.388 143.312 107.169 147.373C107.95 151.434 108.908 155.243 108.908 155.243C107.021 157.528 101.998 159.465 100.182 163.608C98.2773 167.953 99.3885 171.153 100.17 171.934C100.95 172.715 106.992 168.361 112.389 165.534C117.786 162.706 119.738 161.304 120.134 156.678C120.564 151.643 120.782 148.065 120.782 148.065C120.782 148.065 121.405 148.318 123.8 147.38C126.196 146.443 128.55 144.197 128.55 144.197C128.55 144.197 129.708 144.463 130.079 144.417C130.91 144.315 134.994 143.309 136.333 141.732C137.671 140.154 137.999 139.928 138.311 136.18C138.623 132.431 138.843 128.058 138.843 128.058C138.843 128.058 143.726 133.16 144.246 133.889C144.246 133.889 144.008 138.665 145.705 142.219C145.705 142.219 150.39 136.875 151.535 135.538C152.68 134.201 152.159 132.796 151.535 129.542Z" fill="#FFA8A7"/>
<path d="M107.284 134.497C106.299 132.621 106.298 129.341 105.84 125.739C105.382 122.138 104.068 123.167 102.953 119.042C101.838 114.917 99.5382 118.14 99.158 121.882L102.014 125.191C102.014 125.191 102.327 128.318 102.795 129.88C103.264 131.442 105.599 136.065 105.763 136.87C105.927 137.675 106.388 143.313 107.169 147.374C107.398 148.565 107.642 149.73 107.873 150.787C107.42 146.668 108.27 136.373 107.284 134.497Z" fill="#F28F8F"/>
<path d="M127.319 145.246C127.305 145.251 124.068 145.934 123.052 145.116C121.688 144.018 122.4 139.711 122.873 136.87C123.347 134.029 124.015 129.707 123.408 128.22C122.556 126.131 121.21 127.983 121.201 129.413C121.201 129.413 120.955 144.167 120.781 148.065C120.781 148.065 121.405 148.317 123.799 147.381C125.113 146.867 126.411 145.961 127.319 145.246Z" fill="#F28F8F"/>
<path d="M101.838 165.616C104.522 162.35 106.297 164.243 106.587 161.826C106.876 159.409 108.908 155.243 108.908 155.243C107.021 157.529 101.998 159.466 100.182 163.608C98.2769 167.954 99.388 171.153 100.169 171.934C100.169 171.934 99.1539 168.881 101.838 165.616Z" fill="#F28F8F"/>
<path d="M136.332 141.732C137.311 140.578 137.749 140.142 138.035 138.526C138.03 138.533 136.419 140.906 134.475 141.484C132.529 142.063 131.406 141.163 131.532 136.611C131.658 132.059 132.055 127.175 133.002 124.985C133.949 122.795 132.985 121.603 131.98 122.177C130.975 122.752 130.845 123.966 130.605 125.779C130.364 127.592 129.793 137.644 129.741 140.274C129.688 142.904 129.636 143.01 128.549 144.198C128.549 144.198 129.706 144.46 130.077 144.418C131.126 144.3 134.994 143.309 136.332 141.732Z" fill="#F28F8F"/>
<path d="M145.705 133.382C145.571 131.699 143.524 129.752 142.682 128.058C141.841 126.364 141.805 123.274 141.42 121.598C141.035 119.923 139.631 118.652 138.844 118.284C138.055 117.916 139.346 120.732 139.211 123.004C139.077 125.275 138.844 128.059 138.844 128.059C138.844 128.059 143.726 133.161 144.247 133.889C144.247 133.889 144.008 138.666 145.705 142.22C144.675 137.589 145.839 135.066 145.705 133.382Z" fill="#F28F8F"/>
<path d="M79.678 105.826C79.3197 100.967 80.2508 99.6217 79.1156 95.8654C79.0303 95.5825 78.9143 94.9364 78.4974 94.9944C78.3114 95.0201 78.162 95.1662 78.0652 95.327C77.8431 95.6947 77.8266 96.1493 77.8529 96.5782C77.9689 98.4848 78.7042 100.413 79.0691 102.296C79.2961 103.468 79.5018 104.645 79.678 105.826Z" fill="#F28F8F"/>
<path opacity="0.4" d="M79.1154 95.8654C77.9769 92.1003 72.8632 90.2731 62.4329 84.3945C56.5029 81.0523 44.4357 74.2421 36.5498 69.7915C36.546 69.9562 36.5291 70.1241 36.5291 70.2877C36.5291 75.4036 38.3635 78.963 41.3112 80.5627C44.4931 82.4168 69.3541 96.9022 72.4934 98.642C75.8481 100.501 79.3659 103.172 79.6783 105.827C79.3194 100.967 80.2512 99.6218 79.1154 95.8654Z" fill="#F28F8F"/>
<path opacity="0.4" d="M121.819 117.96C121.44 117.467 120.905 117.048 120.403 116.686C119.86 116.296 119.258 115.989 118.622 115.784C118.524 115.752 118.42 115.723 118.32 115.746C118.22 115.769 118.129 115.862 118.146 115.963C118.157 116.029 118.208 116.079 118.256 116.125C118.784 116.623 119.331 117.103 119.811 117.648C120.428 118.349 120.916 119.192 121.108 120.112C121.311 121.086 121.221 122.09 121.326 123.074C121.334 123.152 121.345 123.235 121.395 123.295C121.492 123.413 121.686 123.383 121.812 123.297C122.043 123.139 122.151 122.858 122.238 122.592C122.507 121.763 122.587 121.041 122.587 120.179C122.583 119.378 122.308 118.596 121.819 117.96Z" fill="#F28F8F"/>
<path opacity="0.4" d="M130.693 112.448C130.243 112.018 129.651 111.684 129.1 111.403C128.505 111.098 127.862 110.887 127.203 110.78C127.102 110.764 126.995 110.75 126.9 110.788C126.804 110.825 126.728 110.932 126.759 111.029C126.78 111.092 126.838 111.135 126.892 111.173C127.489 111.585 128.103 111.976 128.66 112.443C129.376 113.042 129.986 113.801 130.314 114.682C130.662 115.615 130.725 116.62 130.978 117.577C130.998 117.653 131.021 117.733 131.08 117.785C131.194 117.887 131.38 117.828 131.492 117.723C131.697 117.533 131.762 117.238 131.806 116.962C131.947 116.103 131.917 115.376 131.787 114.525C131.663 113.734 131.272 113.002 130.693 112.448Z" fill="#F28F8F"/>
<path opacity="0.4" d="M137.788 108.328C137.332 107.906 136.734 107.582 136.179 107.309C135.579 107.015 134.933 106.813 134.272 106.717C134.17 106.702 134.063 106.691 133.968 106.73C133.874 106.769 133.799 106.876 133.832 106.974C133.854 107.036 133.912 107.078 133.968 107.115C134.571 107.517 135.192 107.899 135.755 108.355C136.481 108.944 137.103 109.693 137.446 110.568C137.809 111.495 137.888 112.499 138.156 113.452C138.177 113.527 138.201 113.607 138.261 113.658C138.377 113.757 138.562 113.696 138.672 113.59C138.874 113.396 138.933 113.1 138.974 112.823C139.101 111.961 139.059 111.235 138.915 110.387C138.779 109.598 138.376 108.873 137.788 108.328Z" fill="#F28F8F"/>
<g opacity="0.4">
<path d="M89.7517 131.749C89.8989 131.609 89.9875 131.41 90.1051 131.25C90.1593 131.176 90.1746 130.979 90.045 130.982C89.7917 130.988 89.5849 130.977 89.3359 131.041C89.0772 131.108 88.8156 131.157 88.5552 131.216C88.0131 131.336 87.4791 131.424 86.9243 131.463C86.8209 131.47 86.7181 131.474 86.6152 131.48C86.7717 131.988 86.9216 132.486 87.0622 132.968C87.1027 132.962 87.1459 132.963 87.1859 132.955C87.7133 132.851 88.2401 132.663 88.7232 132.428C88.9546 132.316 89.1707 132.187 89.3792 132.036C89.5022 131.946 89.6418 131.854 89.7517 131.749Z" fill="#F28F8F"/>
<path d="M90.7089 128.173C90.5338 128.1 90.3544 128.034 90.1733 127.976C89.7723 127.846 89.368 127.714 88.9598 127.608C88.102 127.384 87.2053 127.258 86.3185 127.257C86.0323 127.256 85.6581 127.297 85.2659 127.38C85.4776 127.984 85.6849 128.594 85.8868 129.204C86.3212 129.051 86.7994 128.985 87.2507 128.936C87.8465 128.873 88.4472 128.867 89.0441 128.823C89.4894 128.79 89.9107 128.776 90.3506 128.853C90.4753 128.875 90.5984 128.902 90.722 128.931C90.8561 128.962 90.9972 128.945 91.1258 128.982C91.3299 129.041 91.3824 128.571 91.2286 128.486C91.0421 128.381 90.9113 128.257 90.7089 128.173Z" fill="#F28F8F"/>
</g>
<g opacity="0.4">
<path d="M118.192 156.234C117.701 156.297 117.213 156.424 116.751 156.603C116.512 156.696 116.277 156.797 116.045 156.907C115.813 157.016 115.574 157.097 115.423 157.309C115.384 157.363 115.359 157.481 115.436 157.514C115.602 157.586 115.762 157.521 115.935 157.487C116.165 157.442 116.396 157.405 116.628 157.376C117.117 157.314 117.614 157.252 118.107 157.233C118.781 157.208 119.455 157.294 120.022 157.612C120.067 157.315 120.105 157.007 120.133 156.679C120.138 156.622 120.142 156.568 120.147 156.512C119.541 156.233 118.86 156.15 118.192 156.234Z" fill="#F28F8F"/>
<path d="M115.433 160.115C115.397 159.965 115.258 159.775 115.083 159.855C114.903 159.937 114.896 160.205 114.928 160.365C115.146 161.437 115.805 162.381 116.681 163.023C116.942 162.835 117.184 162.646 117.411 162.454C116.453 162.008 115.685 161.166 115.433 160.115Z" fill="#F28F8F"/>
<path d="M118.063 159.617C117.566 159.418 117.104 159.142 116.697 158.794C116.46 158.591 116.308 159.114 116.471 159.273C116.884 159.674 117.359 160.013 117.874 160.269C118.129 160.396 118.393 160.489 118.659 160.586C118.76 160.624 118.861 160.669 118.963 160.713C119.133 160.442 119.278 160.153 119.41 159.851C119.201 159.836 118.991 159.857 118.78 159.837C118.54 159.815 118.285 159.706 118.063 159.617Z" fill="#F28F8F"/>
</g>
<path d="M88.2689 138.158C89.5644 136.789 92.069 136.87 92.069 136.87C92.069 136.87 92.4361 145.662 91.3446 147.36C90.2335 149.087 87.9384 149.44 87.9384 149.44C87.9384 149.44 87.3361 144.336 88.2689 138.158Z" fill="#FFA8A7"/>
<path opacity="0.4" d="M88.2689 138.158C89.5644 136.789 92.069 136.87 92.069 136.87C92.069 136.87 92.4361 145.662 91.3446 147.36C90.2335 149.087 87.9384 149.44 87.9384 149.44C87.9384 149.44 87.3361 144.336 88.2689 138.158Z" fill="white"/>
<path d="M88.2691 138.158C88.2002 138.614 88.1422 139.061 88.0891 139.503C90.5653 139.062 92.0687 136.87 92.0687 136.87C92.0687 136.87 89.5646 136.789 88.2691 138.158Z" fill="#F28F8F"/>
<path d="M108.339 167.821C107.468 167.707 107.283 166.776 106.411 166.873C105.54 166.97 102.684 169.052 101.57 170.213C100.488 171.342 100.917 171.898 100.943 171.928C102.314 171.515 105.177 169.696 108.339 167.821Z" fill="#FFA8A7"/>
<path opacity="0.4" d="M108.339 167.821C107.468 167.707 107.283 166.776 106.411 166.873C105.54 166.97 102.684 169.052 101.57 170.213C100.488 171.342 100.917 171.898 100.943 171.928C102.314 171.515 105.177 169.696 108.339 167.821Z" fill="white"/>
<path d="M108.339 167.821C107.633 167.729 107.372 167.108 106.837 166.924C106.829 166.966 106.719 167.702 107.397 168.383C107.709 168.197 108.021 168.01 108.339 167.821Z" fill="#F28F8F"/>
<path d="M130.475 127.121L130.242 130.427C131.804 131.053 134.068 131.567 136.645 130.905C139.222 130.243 139.64 128.606 139.64 127.979C139.671 127.231 139.849 124.725 139.849 124.725C139.849 124.725 139.49 126.612 137.395 127.283C135.301 127.953 133.298 127.794 130.475 127.121Z" fill="#E0E0E0"/>
<path d="M130.562 126.159C131.691 126.748 134.575 127.577 136.829 126.796C139.082 126.017 139.09 124.842 139.09 124.842L139.169 123.67C139.169 123.67 139.85 124.057 139.85 124.684C139.85 125.311 139.432 126.948 136.854 127.609C134.277 128.271 132.038 127.748 130.476 127.121L130.562 126.159Z" fill="#FAFAFA"/>
<path opacity="0.2" d="M131.856 130.932C131.999 129.396 132.193 127.984 132.449 126.826C131.657 126.635 130.986 126.381 130.562 126.16C130.561 126.165 130.561 126.17 130.56 126.176L130.477 127.097C130.476 127.11 130.475 127.122 130.474 127.136L130.243 130.413C130.243 130.418 130.243 130.423 130.242 130.428C130.717 130.617 131.263 130.792 131.856 130.932Z" fill="black"/>
<path d="M143.456 76.496L136.814 72.5925C136.414 72.3578 132.804 70.2132 129.081 67.2583C124.281 63.4473 117.899 57.3926 117.899 48.8432C117.899 41.6035 123.768 35.7354 131.008 35.7354C136.81 35.7354 141.731 39.5043 143.457 44.7274C145.182 39.5043 150.104 35.7354 155.905 35.7354C163.145 35.7354 169.014 41.604 169.014 48.8432C169.014 57.3921 162.632 63.4473 157.831 67.2583C154.109 70.2132 150.498 72.3578 150.099 72.5925L143.456 76.496Z" fill="#E25D5D"/>
<path d="M256.598 154.499C256.852 154.009 257.264 153.66 257.736 153.474L257.736 153.471L257.746 153.468C258.296 153.255 258.931 153.27 259.491 153.561C260.31 153.986 260.606 155.122 260.448 156.072C260.432 156.167 260.533 156.287 260.584 156.233C261.266 155.523 262.406 155.075 263.248 155.514C263.808 155.806 264.185 156.317 264.327 156.89L264.33 156.9L264.328 156.901C264.447 157.394 264.397 157.932 264.142 158.422C263.353 159.939 261.531 160.056 259.852 160.446L258.125 160.707L257.403 159.173C256.759 157.575 255.809 156.015 256.598 154.499Z" fill="#E25D5D"/>
<path d="M39.0945 132.866C38.7498 132.436 38.5961 131.918 38.6174 131.41L38.6152 131.41L38.6158 131.399C38.6442 130.81 38.9139 130.235 39.4074 129.84C40.1269 129.263 41.2856 129.452 42.0904 129.981C42.1713 130.034 42.3212 129.99 42.2928 129.921C41.9197 129.011 41.9711 127.787 42.713 127.195C43.2064 126.8 43.8263 126.663 44.4073 126.764L44.4183 126.766V126.768C44.9178 126.859 45.3894 127.122 45.734 127.553C46.8025 128.888 46.1722 130.601 45.8511 132.296L45.391 133.98L43.6961 134.02C41.9727 133.962 40.163 134.201 39.0945 132.866Z" fill="#E25D5D"/>
</svg>
