<svg width="224" height="268" viewBox="0 0 224 268" fill="none" xmlns="http://www.w3.org/2000/svg">
<path d="M47 45.0391H30V258.039H47V45.0391Z" fill="#4F8452"/>
<path d="M199 45.0391H182V258.039H199V45.0391Z" fill="#4F8452"/>
<path d="M217 65.5391H5V80.5391H217V65.5391Z" fill="#65A06B"/>
<path d="M55 239.539H22V267.539H55V239.539Z" fill="#EDE843"/>
<path d="M207 239.539H174V267.539H207V239.539Z" fill="#EDE843"/>
<path d="M50 41.0391H26V48.0391H50V41.0391Z" fill="#65A06B"/>
<path d="M54 32.0391H22V41.0391H54V32.0391Z" fill="#65A06B"/>
<path d="M202 41.0391H178V48.0391H202V41.0391Z" fill="#65A06B"/>
<path d="M206 32.0391H174V41.0391H206V32.0391Z" fill="#65A06B"/>
<path d="M212 27.5391H15V32.5391H212V27.5391Z" fill="#65A06B"/>
<path d="M213.629 10.5391H10.37L0 0.539062L8 27.5391H28H196H215H216L224 0.539062L213.629 10.5391Z" fill="#4F8452"/>
</svg>
